<?xml version="1.0" encoding="utf-8"?>
<!-- Generator: Adobe Illustrator 16.0.3, SVG Export Plug-In . SVG Version: 6.00 Build 0)  -->
<!DOCTYPE svg PUBLIC "-//W3C//DTD SVG 1.1//EN" "http://www.w3.org/Graphics/SVG/1.1/DTD/svg11.dtd">
<svg version="1.1" id="Layer_1" xmlns="http://www.w3.org/2000/svg" xmlns:xlink="http://www.w3.org/1999/xlink" x="0px" y="0px"
	 width="60px" height="60px" viewBox="0 0 60 60" enable-background="new 0 0 60 60" xml:space="preserve">
<g>
	<rect x="0.085" fill="#ED5F57" width="60" height="60"/>
	<g>
		<path fill="#FFFFFF" d="M24.599,21.98l-0.958-0.682c-1.093,1.325-2.209,2.208-4.107,2.208c-2.547,0-4.341-2.13-4.341-4.858v-0.051
			c0-2.522,1.625-4.595,3.976-4.791c0.119-0.009,0.242-0.016,0.366-0.016c1.74,0,2.937,0.831,3.977,2.13l3.793-2.936
			c-1.611-2.234-4.002-3.793-7.719-3.793c-1.12,0-2.179,0.17-3.157,0.488c-3.842,1.248-6.434,4.746-6.434,8.969V18.7
			c0,5.431,4.184,9.406,9.383,9.406c3.423,0,5.607-1.259,7.239-3.087c0.289-0.323,0.56-0.663,0.818-1.019L24.599,21.98z"/>
	</g>
	<polygon fill="#FFFFFF" points="22.314,41.905 14.829,32.292 10.124,32.292 10.124,50.48 15.114,50.48 15.114,40.503 22.885,50.48 
		27.306,50.48 27.306,32.292 22.314,32.292 	"/>
	<path fill="#FFFFFF" d="M44.807,32.123V42.36c0,2.546-1.326,3.74-3.353,3.74c-0.241,0-0.472-0.018-0.692-0.053
		c-1.631-0.264-2.661-1.506-2.661-3.817v-0.19v-9.917h-5.12v2.209v8.002c0,5.689,3.248,8.315,8.422,8.315
		c0.809,0,1.574-0.063,2.288-0.193c3.852-0.693,6.237-3.301,6.237-8.252V32.123H44.807z"/>
	<path fill="#FFFFFF" d="M31.278,27.808h5.302l1.299-3.247l7.02-0.001l1.324,3.246l5.407,0.002l-7.746-18.32l-4.86,0.001
		L31.278,27.808z M43.442,20.636h-4.083l2.055-5.171L43.442,20.636z"/>
	<rect x="35.207" y="39.241" fill="#FFFFFF" width="0.654" height="0.33"/>
</g>
</svg>
