<?xml version="1.0" encoding="utf-8"?>
<!-- Generator: Adobe Illustrator 16.0.3, SVG Export Plug-In . SVG Version: 6.00 Build 0)  -->
<!DOCTYPE svg PUBLIC "-//W3C//DTD SVG 1.1//EN" "http://www.w3.org/Graphics/SVG/1.1/DTD/svg11.dtd">
<svg version="1.1" id="Layer_1" xmlns="http://www.w3.org/2000/svg" xmlns:xlink="http://www.w3.org/1999/xlink" x="0px" y="0px"
	 width="250px" height="60px" viewBox="0 0 250 60" enable-background="new 0 0 250 60" xml:space="preserve">
<g>
	<path fill="#1894A5" d="M91.572,30.112c0,0.966-0.153,1.845-0.459,2.637c-0.306,0.792-0.738,1.471-1.296,2.034
		c-0.558,0.564-1.227,1.001-2.007,1.31c-0.78,0.31-1.644,0.464-2.592,0.464h-4.824V23.659h4.824c0.948,0,1.812,0.154,2.592,0.464
		c0.78,0.309,1.449,0.747,2.007,1.313c0.558,0.567,0.99,1.247,1.296,2.039C91.419,28.268,91.572,29.146,91.572,30.112z
		 M89.781,30.112c0-0.792-0.108-1.5-0.324-2.124c-0.216-0.624-0.522-1.152-0.918-1.584s-0.876-0.762-1.44-0.99
		c-0.564-0.228-1.191-0.342-1.881-0.342h-3.069v10.071h3.069c0.69,0,1.317-0.114,1.881-0.342c0.564-0.229,1.044-0.557,1.44-0.986
		c0.396-0.429,0.702-0.955,0.918-1.579C89.673,31.612,89.781,30.904,89.781,30.112z"/>
	<path fill="#1894A5" d="M97.386,27.295c0.666,0,1.268,0.111,1.805,0.333c0.537,0.223,0.993,0.537,1.368,0.945
		s0.663,0.901,0.864,1.48c0.201,0.579,0.301,1.226,0.301,1.939c0,0.721-0.101,1.368-0.301,1.944
		c-0.201,0.576-0.489,1.068-0.864,1.476c-0.375,0.408-0.831,0.722-1.368,0.94c-0.537,0.22-1.139,0.329-1.805,0.329
		s-1.268-0.109-1.804-0.329c-0.537-0.219-0.995-0.532-1.373-0.94c-0.378-0.407-0.669-0.899-0.873-1.476
		c-0.204-0.576-0.306-1.224-0.306-1.944c0-0.714,0.102-1.36,0.306-1.939c0.204-0.579,0.495-1.072,0.873-1.48
		s0.835-0.723,1.373-0.945C96.118,27.406,96.72,27.295,97.386,27.295z M97.386,35.432c0.9,0,1.572-0.302,2.016-0.904
		c0.444-0.604,0.666-1.445,0.666-2.525c0-1.086-0.222-1.932-0.666-2.537c-0.444-0.606-1.116-0.909-2.016-0.909
		c-0.456,0-0.852,0.078-1.188,0.233c-0.336,0.156-0.616,0.382-0.841,0.676s-0.393,0.655-0.504,1.084
		c-0.111,0.429-0.167,0.913-0.167,1.453s0.055,1.023,0.167,1.449c0.111,0.427,0.279,0.785,0.504,1.076s0.505,0.514,0.841,0.67
		S96.93,35.432,97.386,35.432z"/>
	<path fill="#1894A5" d="M102.516,27.439h1.26c0.132,0,0.24,0.033,0.324,0.099c0.084,0.066,0.141,0.145,0.171,0.234l1.746,5.868
		c0.048,0.216,0.093,0.425,0.135,0.625c0.042,0.201,0.078,0.404,0.108,0.607c0.048-0.203,0.102-0.406,0.162-0.607
		c0.06-0.2,0.123-0.409,0.189-0.625l1.926-5.904c0.03-0.09,0.083-0.165,0.158-0.225c0.075-0.061,0.169-0.09,0.283-0.09h0.693
		c0.12,0,0.219,0.029,0.297,0.09c0.078,0.06,0.132,0.135,0.162,0.225l1.881,5.904c0.066,0.21,0.125,0.417,0.175,0.621
		s0.101,0.404,0.148,0.603c0.03-0.198,0.069-0.405,0.117-0.621c0.048-0.216,0.099-0.417,0.153-0.603l1.782-5.868
		c0.03-0.096,0.087-0.176,0.171-0.238c0.084-0.063,0.183-0.095,0.297-0.095h1.206l-2.952,9.117h-1.269
		c-0.156,0-0.264-0.103-0.324-0.307l-2.016-6.183c-0.048-0.138-0.087-0.277-0.117-0.419c-0.03-0.141-0.06-0.28-0.09-0.418
		c-0.03,0.138-0.06,0.279-0.09,0.423c-0.03,0.145-0.069,0.285-0.117,0.423l-2.043,6.174c-0.066,0.204-0.189,0.307-0.369,0.307
		h-1.206L102.516,27.439z"/>
	<path fill="#1894A5" d="M119.274,23.3v13.257h-1.602V23.3H119.274z"/>
	<path fill="#1894A5" d="M125.79,27.295c0.666,0,1.268,0.111,1.805,0.333c0.536,0.223,0.992,0.537,1.367,0.945
		s0.663,0.901,0.864,1.48c0.2,0.579,0.302,1.226,0.302,1.939c0,0.721-0.102,1.368-0.302,1.944c-0.201,0.576-0.489,1.068-0.864,1.476
		c-0.375,0.408-0.831,0.722-1.367,0.94c-0.537,0.22-1.139,0.329-1.805,0.329c-0.667,0-1.268-0.109-1.805-0.329
		c-0.537-0.219-0.995-0.532-1.373-0.94c-0.378-0.407-0.669-0.899-0.873-1.476c-0.204-0.576-0.306-1.224-0.306-1.944
		c0-0.714,0.102-1.36,0.306-1.939c0.204-0.579,0.495-1.072,0.873-1.48s0.835-0.723,1.373-0.945
		C124.522,27.406,125.124,27.295,125.79,27.295z M125.79,35.432c0.899,0,1.571-0.302,2.016-0.904
		c0.443-0.604,0.666-1.445,0.666-2.525c0-1.086-0.223-1.932-0.666-2.537c-0.444-0.606-1.116-0.909-2.016-0.909
		c-0.457,0-0.853,0.078-1.188,0.233c-0.336,0.156-0.616,0.382-0.841,0.676s-0.393,0.655-0.504,1.084
		c-0.111,0.429-0.167,0.913-0.167,1.453s0.055,1.023,0.167,1.449c0.111,0.427,0.279,0.785,0.504,1.076s0.505,0.514,0.841,0.67
		S125.333,35.432,125.79,35.432z"/>
	<path fill="#1894A5" d="M138.804,36.557h-0.711c-0.156,0-0.281-0.024-0.378-0.072c-0.096-0.048-0.159-0.149-0.188-0.306
		l-0.181-0.847c-0.239,0.217-0.474,0.41-0.702,0.581c-0.228,0.171-0.468,0.314-0.72,0.432s-0.521,0.206-0.806,0.266
		s-0.602,0.09-0.949,0.09c-0.354,0-0.686-0.05-0.994-0.148c-0.31-0.1-0.578-0.249-0.806-0.447c-0.229-0.199-0.409-0.45-0.545-0.754
		c-0.135-0.305-0.202-0.664-0.202-1.079c0-0.361,0.099-0.709,0.297-1.043c0.198-0.335,0.518-0.631,0.959-0.89
		c0.44-0.259,1.018-0.472,1.732-0.637c0.713-0.166,1.586-0.249,2.619-0.249v-0.715c0-0.713-0.152-1.252-0.455-1.617
		s-0.752-0.548-1.346-0.548c-0.39,0-0.719,0.05-0.985,0.148c-0.267,0.1-0.498,0.21-0.692,0.333
		c-0.195,0.123-0.363,0.234-0.504,0.333c-0.142,0.1-0.281,0.148-0.419,0.148c-0.108,0-0.202-0.028-0.284-0.085
		c-0.08-0.058-0.145-0.128-0.193-0.212l-0.287-0.513c0.504-0.486,1.047-0.849,1.629-1.089s1.227-0.36,1.935-0.36
		c0.51,0,0.963,0.084,1.358,0.252c0.396,0.168,0.729,0.402,1,0.702c0.27,0.3,0.474,0.663,0.611,1.089
		c0.139,0.426,0.207,0.895,0.207,1.404V36.557z M134.646,35.575c0.282,0,0.541-0.028,0.774-0.085
		c0.233-0.058,0.454-0.139,0.661-0.243c0.207-0.105,0.405-0.232,0.594-0.383c0.189-0.149,0.374-0.32,0.555-0.513v-1.881
		c-0.738,0-1.365,0.047-1.881,0.14c-0.517,0.094-0.937,0.216-1.261,0.367c-0.323,0.15-0.56,0.329-0.706,0.534
		c-0.147,0.205-0.221,0.435-0.221,0.688c0,0.241,0.039,0.45,0.117,0.625s0.183,0.318,0.314,0.43
		c0.132,0.112,0.288,0.193,0.469,0.244C134.241,35.55,134.437,35.575,134.646,35.575z"/>
	<path fill="#1894A5" d="M147.65,36.557c-0.228,0-0.372-0.111-0.433-0.333l-0.144-1.107c-0.39,0.475-0.835,0.854-1.337,1.139
		c-0.5,0.285-1.074,0.428-1.723,0.428c-0.521,0-0.996-0.101-1.422-0.302s-0.789-0.496-1.09-0.887c-0.3-0.39-0.53-0.876-0.692-1.458
		s-0.243-1.251-0.243-2.007c0-0.672,0.09-1.297,0.27-1.876c0.181-0.579,0.439-1.082,0.779-1.508
		c0.339-0.426,0.752-0.761,1.237-1.004s1.038-0.364,1.655-0.364c0.559,0,1.035,0.095,1.432,0.283
		c0.396,0.189,0.75,0.455,1.062,0.797V23.3h1.602v13.257H147.65z M144.546,35.387c0.521,0,0.979-0.12,1.372-0.36
		s0.755-0.579,1.085-1.017V29.6c-0.295-0.396-0.617-0.674-0.968-0.833c-0.351-0.158-0.739-0.238-1.165-0.238
		c-0.853,0-1.507,0.303-1.963,0.909s-0.684,1.47-0.684,2.592c0,0.594,0.051,1.103,0.152,1.525c0.103,0.423,0.252,0.771,0.451,1.044
		c0.197,0.273,0.44,0.473,0.729,0.599C143.843,35.323,144.173,35.387,144.546,35.387z"/>
	<path fill="#1894A5" d="M156.938,31.732v4.824h-1.737V23.659h3.808c0.815,0,1.525,0.095,2.128,0.284
		c0.603,0.188,1.103,0.457,1.499,0.805c0.396,0.349,0.691,0.769,0.886,1.261c0.194,0.491,0.292,1.041,0.292,1.646
		c0,0.601-0.104,1.149-0.314,1.647s-0.518,0.927-0.922,1.287c-0.406,0.359-0.908,0.64-1.508,0.841s-1.287,0.302-2.061,0.302H156.938
		z M156.938,30.347h2.07c0.497,0,0.937-0.066,1.318-0.198c0.381-0.132,0.699-0.316,0.958-0.554c0.258-0.236,0.452-0.521,0.585-0.851
		c0.132-0.33,0.197-0.692,0.197-1.089c0-0.822-0.253-1.464-0.76-1.926c-0.508-0.462-1.273-0.693-2.299-0.693h-2.07V30.347z"/>
	<path fill="#1894A5" d="M165.767,36.557v-9.117h0.918c0.174,0,0.295,0.033,0.36,0.099c0.065,0.066,0.111,0.181,0.136,0.343
		l0.107,1.422c0.312-0.637,0.697-1.133,1.156-1.49c0.459-0.356,0.998-0.535,1.615-0.535c0.252,0,0.48,0.028,0.685,0.086
		c0.204,0.057,0.394,0.136,0.567,0.238l-0.207,1.197c-0.043,0.149-0.135,0.225-0.279,0.225c-0.084,0-0.213-0.028-0.387-0.086
		c-0.174-0.057-0.418-0.085-0.729-0.085c-0.558,0-1.024,0.162-1.399,0.486c-0.375,0.323-0.688,0.795-0.94,1.412v5.806H165.767z"/>
	<path fill="#1894A5" d="M176.63,27.295c0.546,0,1.051,0.092,1.512,0.275c0.463,0.183,0.861,0.446,1.197,0.792
		c0.336,0.345,0.599,0.771,0.787,1.277c0.189,0.508,0.284,1.085,0.284,1.732c0,0.252-0.027,0.42-0.081,0.504
		c-0.055,0.085-0.156,0.126-0.307,0.126h-6.065c0.012,0.576,0.09,1.077,0.233,1.504c0.145,0.426,0.343,0.781,0.595,1.066
		s0.552,0.498,0.899,0.639s0.738,0.212,1.17,0.212c0.402,0,0.749-0.047,1.04-0.14s0.542-0.193,0.751-0.302
		c0.211-0.108,0.386-0.208,0.527-0.302c0.141-0.093,0.262-0.14,0.364-0.14c0.132,0,0.233,0.052,0.306,0.153l0.45,0.585
		c-0.198,0.24-0.435,0.448-0.711,0.626c-0.276,0.177-0.571,0.322-0.887,0.437c-0.315,0.113-0.64,0.199-0.976,0.256
		c-0.337,0.058-0.67,0.086-1,0.086c-0.63,0-1.21-0.106-1.741-0.319c-0.53-0.213-0.989-0.525-1.377-0.937s-0.688-0.919-0.904-1.525
		c-0.216-0.605-0.324-1.302-0.324-2.088c0-0.636,0.098-1.23,0.292-1.782c0.195-0.552,0.477-1.03,0.842-1.436
		c0.366-0.405,0.812-0.723,1.342-0.954C175.376,27.411,175.97,27.295,176.63,27.295z M176.666,28.475
		c-0.774,0-1.383,0.224-1.827,0.67c-0.443,0.447-0.72,1.066-0.828,1.858h4.959c0-0.371-0.051-0.712-0.152-1.021
		c-0.103-0.309-0.252-0.575-0.45-0.801c-0.198-0.225-0.44-0.398-0.725-0.521C177.357,28.536,177.032,28.475,176.666,28.475z"/>
	<path fill="#1894A5" d="M187.673,28.942c-0.072,0.132-0.184,0.198-0.333,0.198c-0.091,0-0.192-0.033-0.306-0.1
		c-0.115-0.065-0.254-0.139-0.419-0.22s-0.362-0.156-0.589-0.226c-0.229-0.068-0.499-0.104-0.811-0.104
		c-0.27,0-0.514,0.035-0.729,0.104c-0.217,0.069-0.401,0.164-0.555,0.284c-0.152,0.119-0.27,0.259-0.351,0.418
		s-0.122,0.332-0.122,0.518c0,0.234,0.068,0.429,0.203,0.585s0.313,0.291,0.535,0.405c0.223,0.114,0.475,0.214,0.756,0.301
		c0.283,0.088,0.572,0.181,0.869,0.279c0.297,0.1,0.586,0.209,0.869,0.329c0.281,0.12,0.533,0.27,0.756,0.449
		c0.221,0.181,0.4,0.4,0.535,0.662c0.135,0.261,0.202,0.574,0.202,0.94c0,0.42-0.075,0.809-0.226,1.165
		c-0.149,0.357-0.371,0.666-0.666,0.928c-0.293,0.261-0.653,0.466-1.079,0.616c-0.427,0.149-0.918,0.225-1.476,0.225
		c-0.637,0-1.213-0.104-1.729-0.311s-0.954-0.473-1.314-0.796l0.379-0.612c0.047-0.078,0.104-0.138,0.17-0.18
		c0.066-0.042,0.153-0.063,0.262-0.063c0.107,0,0.222,0.042,0.342,0.126s0.266,0.177,0.437,0.279
		c0.171,0.102,0.378,0.195,0.621,0.279s0.548,0.126,0.913,0.126c0.312,0,0.586-0.041,0.819-0.122s0.429-0.19,0.585-0.328
		c0.156-0.139,0.271-0.297,0.347-0.478c0.075-0.18,0.112-0.372,0.112-0.576c0-0.252-0.067-0.46-0.203-0.625
		c-0.135-0.165-0.312-0.306-0.535-0.423c-0.222-0.117-0.475-0.219-0.76-0.307c-0.285-0.087-0.576-0.178-0.873-0.274
		c-0.297-0.096-0.588-0.205-0.873-0.328s-0.539-0.277-0.761-0.464c-0.222-0.186-0.4-0.415-0.536-0.688
		c-0.135-0.272-0.202-0.604-0.202-0.994c0-0.348,0.072-0.683,0.216-1.004c0.145-0.32,0.354-0.603,0.631-0.846
		c0.275-0.243,0.614-0.437,1.017-0.58c0.401-0.145,0.86-0.217,1.377-0.217c0.601,0,1.139,0.095,1.616,0.284
		c0.477,0.188,0.889,0.448,1.236,0.778L187.673,28.942z"/>
	<path fill="#1894A5" d="M195.485,28.942c-0.072,0.132-0.184,0.198-0.334,0.198c-0.09,0-0.191-0.033-0.306-0.1
		c-0.114-0.065-0.253-0.139-0.419-0.22c-0.164-0.081-0.361-0.156-0.589-0.226c-0.229-0.068-0.499-0.104-0.81-0.104
		c-0.271,0-0.514,0.035-0.729,0.104c-0.216,0.069-0.401,0.164-0.554,0.284c-0.152,0.119-0.27,0.259-0.352,0.418
		c-0.08,0.159-0.121,0.332-0.121,0.518c0,0.234,0.068,0.429,0.203,0.585s0.312,0.291,0.535,0.405
		c0.222,0.114,0.474,0.214,0.756,0.301c0.282,0.088,0.572,0.181,0.869,0.279c0.297,0.1,0.586,0.209,0.868,0.329
		s0.534,0.27,0.756,0.449c0.222,0.181,0.4,0.4,0.536,0.662c0.135,0.261,0.201,0.574,0.201,0.94c0,0.42-0.074,0.809-0.225,1.165
		c-0.15,0.357-0.372,0.666-0.666,0.928c-0.294,0.261-0.654,0.466-1.08,0.616c-0.426,0.149-0.918,0.225-1.476,0.225
		c-0.636,0-1.212-0.104-1.728-0.311c-0.517-0.207-0.955-0.473-1.314-0.796l0.378-0.612c0.048-0.078,0.104-0.138,0.171-0.18
		s0.152-0.063,0.262-0.063c0.107,0,0.221,0.042,0.342,0.126c0.119,0.084,0.266,0.177,0.436,0.279
		c0.172,0.102,0.379,0.195,0.621,0.279c0.244,0.084,0.548,0.126,0.914,0.126c0.312,0,0.585-0.041,0.818-0.122
		c0.234-0.081,0.43-0.19,0.586-0.328c0.155-0.139,0.271-0.297,0.346-0.478c0.075-0.18,0.113-0.372,0.113-0.576
		c0-0.252-0.068-0.46-0.203-0.625s-0.313-0.306-0.535-0.423c-0.223-0.117-0.476-0.219-0.761-0.307
		c-0.285-0.087-0.575-0.178-0.873-0.274c-0.297-0.096-0.588-0.205-0.873-0.328c-0.284-0.123-0.538-0.277-0.761-0.464
		c-0.222-0.186-0.4-0.415-0.535-0.688c-0.135-0.272-0.203-0.604-0.203-0.994c0-0.348,0.072-0.683,0.217-1.004
		c0.145-0.32,0.354-0.603,0.63-0.846s0.614-0.437,1.017-0.58c0.402-0.145,0.861-0.217,1.377-0.217c0.601,0,1.139,0.095,1.616,0.284
		c0.477,0.188,0.89,0.448,1.237,0.778L195.485,28.942z"/>
	<path fill="#1894A5" d="M203.72,29.312h0.656c0.229,0,0.41-0.028,0.545-0.086c0.135-0.057,0.262-0.154,0.383-0.292l4.293-4.86
		c0.131-0.149,0.26-0.256,0.383-0.319c0.122-0.063,0.279-0.095,0.472-0.095h1.485l-4.914,5.553
		c-0.126,0.139-0.244,0.256-0.355,0.352s-0.229,0.174-0.355,0.234c0.168,0.054,0.314,0.135,0.441,0.242
		c0.125,0.108,0.258,0.243,0.396,0.405l5.13,6.111h-1.512c-0.114,0-0.211-0.009-0.288-0.027c-0.078-0.018-0.146-0.042-0.202-0.072
		c-0.058-0.029-0.109-0.068-0.158-0.116c-0.048-0.049-0.096-0.1-0.145-0.153l-4.454-5.121c-0.066-0.072-0.128-0.134-0.185-0.185
		s-0.123-0.095-0.198-0.131c-0.075-0.035-0.162-0.061-0.261-0.076c-0.1-0.015-0.221-0.022-0.365-0.022h-0.791v5.904h-1.737V23.659
		h1.737V29.312z"/>
	<path fill="#1894A5" d="M215.95,24.577c0,0.156-0.031,0.302-0.095,0.437s-0.147,0.255-0.252,0.36
		c-0.104,0.104-0.227,0.188-0.364,0.247c-0.139,0.061-0.285,0.09-0.441,0.09s-0.301-0.029-0.436-0.09
		c-0.136-0.06-0.256-0.143-0.361-0.247c-0.104-0.105-0.188-0.226-0.247-0.36s-0.09-0.28-0.09-0.437c0-0.155,0.03-0.305,0.09-0.445
		s0.143-0.264,0.247-0.369c0.105-0.104,0.226-0.188,0.361-0.247c0.135-0.061,0.279-0.09,0.436-0.09s0.303,0.029,0.441,0.09
		c0.138,0.06,0.26,0.143,0.364,0.247c0.104,0.105,0.188,0.229,0.252,0.369S215.95,24.422,215.95,24.577z M215.591,27.439v9.117
		h-1.603v-9.117H215.591z"/>
	<path fill="#1894A5" d="M221.18,36.7c-0.72,0-1.273-0.201-1.661-0.603c-0.387-0.402-0.58-0.981-0.58-1.737v-5.58h-1.098
		c-0.096,0-0.178-0.028-0.243-0.085c-0.066-0.058-0.099-0.146-0.099-0.266v-0.64l1.494-0.188l0.368-2.817
		c0.013-0.09,0.052-0.163,0.117-0.221c0.065-0.057,0.149-0.085,0.252-0.085h0.81v3.141h2.61v1.161h-2.61v5.472
		c0,0.385,0.094,0.67,0.279,0.855s0.426,0.279,0.721,0.279c0.168,0,0.312-0.022,0.436-0.067c0.123-0.046,0.23-0.095,0.32-0.149
		c0.09-0.054,0.166-0.103,0.229-0.148c0.063-0.045,0.119-0.067,0.167-0.067c0.084,0,0.159,0.052,0.226,0.153l0.468,0.765
		c-0.276,0.259-0.609,0.461-0.999,0.607C221.995,36.627,221.594,36.7,221.18,36.7z"/>
</g>
<rect fill="#1894A5" width="60" height="60"/>
<g>
	<path fill="#1894A5" d="M249.007,0.993v58.014H0.993V0.993H249.007 M250,0H0v60h250V0L250,0z"/>
</g>
<rect x="18" y="22.931" opacity="0.9" fill="#A5CED3" width="24" height="18.865"/>
<polygon opacity="0.4" fill="#A5CED3" points="42,22.931 18,22.931 20.118,18.205 39.882,18.205 "/>
<rect x="20.118" y="18.205" opacity="0.2" fill="#A5CED3" width="19.765" height="4.727"/>
</svg>
