<?xml version="1.0" encoding="utf-8"?>
<!-- Generator: Adobe Illustrator 16.0.3, SVG Export Plug-In . SVG Version: 6.00 Build 0)  -->
<!DOCTYPE svg PUBLIC "-//W3C//DTD SVG 1.1//EN" "http://www.w3.org/Graphics/SVG/1.1/DTD/svg11.dtd">
<svg version="1.1" id="Layer_1" xmlns="http://www.w3.org/2000/svg" xmlns:xlink="http://www.w3.org/1999/xlink" x="0px" y="0px"
	 width="560px" height="560px" viewBox="0 0 560 560" enable-background="new 0 0 560 560" xml:space="preserve">
<path fill="#FFFFFF" d="M524.585,288.212c-6.266-17.771-28.715-31.692-28.604-51.464c-16.996,19.501,20.752,63.379,45.75,57.215
	c-0.668,21.691-54.729,48.17-31.441,71.428c9.645,9.627-22.16,50.817-29.244,57.855c-51.053,50.941-47.949-31.201-47.949-60.672
	c0-17.476-21.559-46.294-34.227-51.527c-18.861-7.65-51.484,12.507-51.484-33.232c0-43.188,19.611-37.704,42.883-61.06
	c14.852-14.935,41.408,9.36,54.309,14.251c15.283-6.742,54.006,12.444,51.404-17.133c-20.07,4.992-43.637-10.688-57.137-22.861
	l-5.748,5.713l-11.4-11.397c-18.094,6.429-31.359,27.948-51.469,28.545c-9.424,0.302-5.596-30.954,22.838-22.861
	c1.795-7.098,0-12.923-5.748-17.162c14.1-5.357,40.029-15.651,22.953-34.288c21.129-21.122,49.73-46.225,80.047-22.875
	c2.129-1.592,4.842-2.992,7.834-4.21c-7.055-9.116-14.559-18.024-22.924-26.404c-107.688-107.696-282.326-107.696-389.987,0
	c-4.704,4.705-8.92,9.659-13.236,14.622c7.684-0.612,14.92,1.371,20.99,7.44c26.307,26.341,64.332-33.071,94.312,2.839
	c25.625-16.355,44.679-40.009,80.031-34.282l-22.812,22.847c15.044,9.903,15.044,24.398,0,34.339l-22.91-22.904
	c-17.079,14.691-34.339,13.904-51.429,28.588l22.84,22.904c12.444-12.443,21.77-29.062,40.07-28.588v11.426
	c9.868-1.497,17.51,2.566,22.801,11.42c-29.646,19.039-58.321,35.486-84.89,62.022c-23.565,23.577-81.872,11.731-52.266,52.34
	c-0.278-0.371,38.722,28.089,40.003,28.589c9.214,3.049,23.425-5.713,34.101-5.713c22.671,0,55.533,33.537,74.491,45.679
	c47.741-2.253-1.404,65.934-11.439,80.056c-18.93,26.694-48.286,46.396-34.282,80.018c-19.208,0-34.31-34.135-34.31-49.936
	c0-41.155,2.908-50.05-25.611-78.555c-6.763-6.8-13.557-38.139-5.788-45.849c15.642-15.68-18.194-23.878-25.753-31.413
	c-14.529-14.582-57.176-24.764-57.176-51.499c0-13.946-20.586-16.872-22.854-28.591c-2.672-13.834,9.924-12.915,11.398-22.861
	c2.506-16.562,26.723-43.822,0-57.134c-4.955-2.529-9.269-2.722-13.209-1.874C-20.429,238.788-8.264,382.596,85.241,476.037
	c107.661,107.711,282.299,107.711,389.987,0c19.486-19.541,35.354-41.262,47.797-64.367c-5.303-7.305-6.625-16.562-4.104-26.292
	l17.158-17.104c1.629,1.824,2.771,3.661,3.578,5.497c11.914-33.405,17.178-68.592,15.797-103.609
	C546.282,278.734,535.315,284.398,524.585,288.212 M370.185,168.136c-0.697-15.26,7.557-23.556,22.881-22.832
	C393.763,160.552,385.452,168.909,370.185,168.136 M278.75,122.428c22.954-15.165,6.696-31.54-11.412-34.325
	c14.936-21.671,90.014-18.999,108.635-5.713C358.229,100.165,298.991,153.244,278.75,122.428"/>
</svg>
