<?xml version="1.0" encoding="utf-8"?>
<!-- Generator: Adobe Illustrator 16.0.3, SVG Export Plug-In . SVG Version: 6.00 Build 0)  -->
<!DOCTYPE svg PUBLIC "-//W3C//DTD SVG 1.1//EN" "http://www.w3.org/Graphics/SVG/1.1/DTD/svg11.dtd">
<svg version="1.1" id="Layer_1" xmlns="http://www.w3.org/2000/svg" xmlns:xlink="http://www.w3.org/1999/xlink" x="0px" y="0px"
	 width="161.119px" height="57.303px" viewBox="0 0 161.119 57.303" enable-background="new 0 0 161.119 57.303"
	 xml:space="preserve">
<g>
	<g>
		<g>
			<path fill="#FFFFFF" d="M21.966,14.975h3.013c0.197,0,0.358-0.162,0.358-0.351c0-0.2-0.161-0.36-0.358-0.36h-3.013
				c-0.191,0-0.355,0.16-0.355,0.36C21.61,14.812,21.774,14.975,21.966,14.975z M23.472,41.379c-0.862,0-1.565,0.705-1.565,1.57
				c0,0.863,0.703,1.566,1.565,1.566c0.866,0,1.567-0.703,1.567-1.566C25.039,42.084,24.338,41.379,23.472,41.379z M15.785,40.035
				h15.376v-22.74H15.785V40.035z M65.084,32.568c-0.729,0-1.387,0.24-1.981,0.723c-0.595,0.49-0.98,1.125-1.164,1.91
				c-0.09,0.367-0.135,0.666-0.135,0.904v2.215c0,0.969,0.291,1.787,0.888,2.453c0.592,0.66,1.364,0.994,2.312,0.994
				c1.11,0,1.983-0.426,2.603-1.285c0.62-0.857,0.928-1.988,0.928-3.398c0-1.291-0.288-2.361-0.873-3.197
				C67.019,33.014,66.162,32.568,65.084,32.568z M119.007,32.385c-1.183,0-2.087,0.525-2.704,1.582
				c-0.535,0.869-0.797,1.932-0.797,3.188c0,1.225,0.262,2.268,0.797,3.141c0.633,1.055,1.527,1.58,2.683,1.58
				c1.124,0,2.013-0.533,2.647-1.613c0.552-0.883,0.826-1.941,0.826-3.158s-0.264-2.268-0.79-3.137
				C121.04,32.91,120.158,32.385,119.007,32.385z M79.703,32.568c-0.732,0-1.387,0.24-1.982,0.723
				c-0.593,0.49-0.982,1.125-1.166,1.91c-0.091,0.367-0.134,0.666-0.134,0.904v2.215c0,0.969,0.292,1.787,0.888,2.453
				c0.592,0.66,1.364,0.994,2.309,0.994c1.119,0,1.984-0.426,2.605-1.285c0.622-0.857,0.934-1.988,0.934-3.398
				c0-1.291-0.294-2.361-0.876-3.197C81.637,33.014,80.778,32.568,79.703,32.568z M49.156,27.81h-0.052
				c-0.186,0.784-0.474,1.94-0.879,3.476l-1.533,4.818h4.953l-1.554-4.818C49.924,30.791,49.61,29.631,49.156,27.81z M141.427,32.24
				c-0.965,0-1.749,0.412-2.354,1.209c-0.492,0.637-0.787,1.404-0.876,2.295h6.158c0.016-0.873-0.172-1.627-0.572-2.27
				C143.27,32.656,142.483,32.24,141.427,32.24z M62.193,19.111c0.041-0.126,0.041-0.253,0.041-0.38v-0.942
				c-1.224-0.014-2.391,0.239-2.391,1.28c0,0.675,0.436,0.985,0.984,0.985C61.531,20.055,62.023,19.604,62.193,19.111z
				 M46.062,14.807c-0.184-0.578-0.338-1.225-0.479-1.773h-0.029c-0.14,0.549-0.295,1.21-0.45,1.773l-0.73,2.336h2.434
				L46.062,14.807z M144.156,14.131c2.223,0,2.955,1.829,2.955,3.335c0,0.323-0.028,0.577-0.057,0.731h-4.587
				c0.042,1.238,0.999,1.772,2.11,1.772c0.802,0,1.365-0.126,1.899-0.31l0.253,1.183c-0.591,0.253-1.406,0.436-2.392,0.436
				c-2.223,0-3.531-1.364-3.531-3.46C140.808,15.918,141.961,14.131,144.156,14.131z M116.695,14.285l0.084,1.027h0.043
				c0.309-0.535,1.055-1.182,2.194-1.182c1.196,0,2.435,0.773,2.435,2.94v4.066h-1.73v-3.87c0-0.984-0.366-1.73-1.309-1.73
				c-0.689,0-1.168,0.493-1.352,1.014c-0.057,0.141-0.084,0.352-0.084,0.549v4.038h-1.73v-4.812c0-0.789-0.028-1.449-0.057-2.041
				H116.695z M98.522,14.131c2.223,0,2.955,1.829,2.955,3.335c0,0.323-0.028,0.577-0.057,0.731h-4.587
				c0.042,1.238,0.999,1.772,2.11,1.772c0.802,0,1.364-0.126,1.899-0.31l0.253,1.183c-0.591,0.253-1.406,0.436-2.392,0.436
				c-2.223,0-3.531-1.364-3.531-3.46C95.174,15.918,96.327,14.131,98.522,14.131z M91.43,11.148h1.729v9.989H91.43V11.148z
				 M77.705,15.354c-0.676,0-1.379,0.212-1.843,0.507l-0.338-1.125c0.506-0.311,1.393-0.605,2.476-0.605
				c2.195,0,2.829,1.393,2.829,2.898v2.463c0,0.619,0.027,1.224,0.111,1.646h-1.562l-0.126-0.759h-0.042
				c-0.408,0.533-1.126,0.914-2.026,0.914c-1.38,0-2.153-0.999-2.153-2.041c0-1.717,1.533-2.603,4.066-2.588v-0.113
				C79.098,16.102,78.914,15.354,77.705,15.354z M67.473,11.43c0.591,0,0.957,0.408,0.971,0.942c0,0.507-0.38,0.929-0.985,0.929
				c-0.577,0-0.956-0.422-0.956-0.929C66.502,11.838,66.896,11.43,67.473,11.43z M68.33,14.285v6.853h-1.729v-6.853H68.33z
				 M44.528,11.654h2.209l3.081,9.483h-1.871L47.09,18.45h-2.998l-0.816,2.688h-1.787L44.528,11.654z M33.004,43.1
				c0,1.672-1.362,3.025-3.032,3.025H16.977c-1.672,0-3.034-1.354-3.034-3.025V14.223c0-1.67,1.362-3.029,3.034-3.029h12.995
				c1.67,0,3.032,1.359,3.032,3.029V43.1z M53.893,43.793l-1.723-5.414h-5.996l-1.645,5.414h-3.062l5.935-18.447h3.672l5.97,18.447
				H53.893z M54.564,21.138h-1.703l-2.547-6.853h1.872l1.11,3.477c0.197,0.604,0.338,1.153,0.465,1.717h0.043
				c0.126-0.563,0.281-1.1,0.464-1.717l1.098-3.477h1.815L54.564,21.138z M58.127,19.252c0-1.717,1.533-2.603,4.066-2.588v-0.113
				c0-0.449-0.184-1.196-1.394-1.196c-0.676,0-1.378,0.212-1.843,0.507l-0.338-1.125c0.506-0.311,1.393-0.605,2.477-0.605
				c2.194,0,2.828,1.393,2.828,2.898v2.463c0,0.619,0.027,1.224,0.112,1.646h-1.562l-0.126-0.759h-0.042
				c-0.408,0.533-1.126,0.914-2.026,0.914C58.9,21.293,58.127,20.294,58.127,19.252z M69.701,42.348
				c-1.099,1.162-2.469,1.746-4.1,1.746c-1.766,0-3.029-0.627-3.798-1.891v6.986H58.85V34.861c0-1.422-0.038-2.877-0.113-4.371
				h2.601l0.163,2.107h0.052c0.99-1.582,2.484-2.375,4.494-2.375c1.569,0,2.875,0.615,3.931,1.859
				c1.046,1.238,1.572,2.875,1.572,4.898C71.549,39.25,70.935,41.031,69.701,42.348z M72.777,21.138h-1.729v-9.989h1.729V21.138z
				 M84.316,42.348c-1.102,1.162-2.466,1.746-4.101,1.746c-1.761,0-3.026-0.627-3.795-1.891v6.986h-2.957V34.861
				c0-1.422-0.038-2.877-0.109-4.371h2.594l0.171,2.107h0.051c0.992-1.582,2.483-2.375,4.49-2.375c1.57,0,2.88,0.615,3.929,1.859
				c1.052,1.238,1.575,2.875,1.575,4.898C86.164,39.25,85.55,41.031,84.316,42.348z M86.347,21.293
				c-0.887,0-1.675-0.338-2.167-1.182h-0.028l-0.084,1.026H82.59c0.028-0.464,0.057-1.224,0.057-1.928v-8.062h1.729v4.08h0.028
				c0.422-0.662,1.168-1.098,2.195-1.098c1.675,0,2.87,1.393,2.856,3.475C89.456,20.068,87.895,21.293,86.347,21.293z
				 M101.227,42.451c-1.208,1.078-2.881,1.613-5.027,1.613c-1.989,0-3.58-0.385-4.781-1.148l0.687-2.463
				c1.295,0.764,2.717,1.15,4.265,1.15c1.118,0,1.982-0.254,2.604-0.752c0.617-0.5,0.928-1.17,0.928-2.02
				c0-0.738-0.256-1.369-0.764-1.883c-0.516-0.51-1.357-0.98-2.545-1.422c-3.227-1.201-4.843-2.963-4.843-5.279
				c0-1.516,0.563-2.759,1.706-3.727c1.141-0.964,2.65-1.449,4.532-1.449c1.678,0,3.074,0.295,4.189,0.875l-0.746,2.408
				c-1.04-0.562-2.222-0.85-3.54-0.85c-1.042,0-1.859,0.266-2.447,0.764c-0.491,0.463-0.738,1.02-0.738,1.676
				c0,0.725,0.283,1.328,0.848,1.811c0.494,0.436,1.389,0.908,2.68,1.418c1.593,0.633,2.757,1.387,3.508,2.246
				c0.746,0.857,1.122,1.924,1.122,3.199C102.862,40.189,102.313,41.471,101.227,42.451z M111.647,32.705h-3.263v6.467
				c0,1.641,0.579,2.455,1.729,2.455c0.529,0,0.963-0.039,1.312-0.129l0.084,2.238c-0.585,0.219-1.35,0.33-2.299,0.33
				c-1.162,0-2.081-0.352-2.735-1.068c-0.663-0.707-0.99-1.904-0.99-3.584v-6.709h-1.941V30.49h1.941v-2.436l2.898-0.875v3.311
				h3.263V32.705z M109.98,21.293c-1.928,0-3.434-1.323-3.434-3.531c0-2.252,1.478-3.631,3.546-3.631
				c2.04,0,3.405,1.436,3.405,3.518C113.498,20.168,111.725,21.293,109.98,21.293z M123.775,42.074
				c-1.227,1.346-2.851,2.02-4.871,2.02c-1.956,0-3.517-0.646-4.674-1.941c-1.157-1.293-1.734-2.934-1.734-4.9
				c0-2.061,0.596-3.75,1.791-5.062c1.197-1.318,2.803-1.967,4.828-1.967c1.96,0,3.527,0.641,4.714,1.943
				c1.128,1.252,1.694,2.881,1.694,4.867C125.523,39.084,124.943,40.756,123.775,42.074z M126.83,14.285h0.971v-1.28l1.703-0.479
				v1.759h1.646v1.295h-1.646v3.025c0,0.844,0.225,1.266,0.886,1.266c0.31,0,0.479-0.014,0.676-0.07l0.028,1.309
				c-0.254,0.098-0.718,0.184-1.252,0.184c-0.647,0-1.169-0.211-1.492-0.562c-0.38-0.395-0.549-1.027-0.549-1.928V15.58h-0.971
				V14.285z M134.418,33.09c-0.291-0.053-0.604-0.076-0.931-0.076c-1.04,0-1.841,0.393-2.408,1.176
				c-0.494,0.695-0.739,1.559-0.739,2.625v6.979h-2.956v-9.119c0-1.523-0.026-2.92-0.079-4.184h2.572l0.11,2.547h0.081
				c0.309-0.873,0.799-1.578,1.478-2.104c0.657-0.48,1.372-0.711,2.138-0.711c0.271,0,0.52,0.016,0.734,0.051V33.09z
				 M134.866,17.029v4.108h-1.729v-9.989h1.729v4.066h0.028c0.211-0.324,0.507-0.592,0.858-0.773
				c0.352-0.198,0.76-0.311,1.196-0.311c1.168,0,2.393,0.773,2.393,2.969v4.038h-1.731v-3.854c0-0.985-0.366-1.746-1.322-1.746
				c-0.676,0-1.154,0.451-1.351,0.972C134.881,16.664,134.866,16.846,134.866,17.029z M147.067,37.859h-8.87
				c0.035,1.312,0.464,2.312,1.288,3.004c0.746,0.623,1.712,0.934,2.899,0.934c1.316,0,2.509-0.209,3.586-0.635l0.466,2.055
				c-1.255,0.553-2.745,0.82-4.465,0.82c-2.058,0-3.678-0.604-4.854-1.816c-1.176-1.213-1.77-2.842-1.77-4.885
				c0-2.01,0.551-3.676,1.643-5.014c1.155-1.422,2.706-2.133,4.655-2.133c1.922,0,3.37,0.711,4.353,2.133
				c0.782,1.135,1.177,2.531,1.177,4.193C147.175,37.041,147.137,37.488,147.067,37.859z M85.967,15.481
				c-0.703,0-1.351,0.507-1.533,1.267c-0.029,0.127-0.058,0.281-0.058,0.45v1.111c0,0.141,0.015,0.282,0.043,0.409
				c0.183,0.702,0.788,1.209,1.533,1.209c1.084,0,1.745-0.858,1.745-2.25C87.697,16.467,87.12,15.481,85.967,15.481z M98.424,15.312
				c-1.069,0-1.52,0.971-1.59,1.675h3.011C99.858,16.354,99.577,15.312,98.424,15.312z M110.051,15.383
				c-1.225,0-1.717,1.195-1.717,2.336c0,1.322,0.661,2.322,1.703,2.322c0.984,0,1.674-0.957,1.674-2.35
				C111.711,16.621,111.232,15.383,110.051,15.383z M76.748,19.069c0,0.675,0.437,0.985,0.984,0.985c0.704,0,1.196-0.45,1.365-0.943
				c0.042-0.126,0.042-0.253,0.042-0.38v-0.942C77.916,17.775,76.748,18.028,76.748,19.069z M144.058,15.312
				c-1.069,0-1.52,0.971-1.59,1.675h3.011C145.493,16.354,145.211,15.312,144.058,15.312z"/>
		</g>
	</g>
	<g>
		<path fill="#FFFFFF" d="M153.395,57.303H7.724C3.465,57.303,0,53.842,0,49.588V7.725C0,3.465,3.465,0,7.724,0h145.671
			c4.26,0,7.725,3.465,7.725,7.725v41.863C161.119,53.842,157.654,57.303,153.395,57.303z M7.724,2C4.567,2,2,4.568,2,7.725v41.863
			c0,3.15,2.567,5.715,5.724,5.715h145.671c3.156,0,5.725-2.564,5.725-5.715V7.725c0-3.156-2.568-5.725-5.725-5.725H7.724z"/>
	</g>
</g>
</svg>
