<?xml version="1.0" encoding="utf-8"?>
<!-- Generator: Adobe Illustrator 16.0.3, SVG Export Plug-In . SVG Version: 6.00 Build 0)  -->
<!DOCTYPE svg PUBLIC "-//W3C//DTD SVG 1.1//EN" "http://www.w3.org/Graphics/SVG/1.1/DTD/svg11.dtd">
<svg version="1.1" id="Layer_1" xmlns="http://www.w3.org/2000/svg" xmlns:xlink="http://www.w3.org/1999/xlink" x="0px" y="0px"
	 width="72px" height="91px" viewBox="0 0 72 91" enable-background="new 0 0 72 91" xml:space="preserve">
<g>
	<path opacity="0.2" fill="#A6CFD4" d="M72,29.132C72,10.712,62.571,0,36,0S0,10.712,0,29.132c0,13.336,18.872,35.798,29.287,47.179
		h13.426C53.13,64.931,72,42.469,72,29.132z"/>
	<rect x="32.286" y="84.53" opacity="0.2" fill="#A6CFD4" width="7.714" height="6.47"/>
	
		<line fill="none" stroke="#FFFFFF" stroke-width="0.1433" stroke-miterlimit="10" x1="32.286" y1="84.53" x2="29.287" y2="76.312"/>
	<line fill="none" stroke="#FFFFFF" stroke-width="0.1433" stroke-miterlimit="10" x1="40" y1="84.53" x2="42.713" y2="76.312"/>
	<g>
		<path fill="none" stroke="#FFFFFF" stroke-width="0.2069" stroke-miterlimit="10" d="M42.713,0.254c0,0,16.734,4.69,16.734,27.658
			S40.425,76.312,40.425,76.312"/>
		<path fill="none" stroke="#FFFFFF" stroke-width="0.2069" stroke-miterlimit="10" d="M46.221,0.628
			c0,0,22.382,3.165,22.382,26.133s-25.889,49.55-25.89,49.55"/>
		<path fill="none" stroke="#FFFFFF" stroke-width="0.2069" stroke-miterlimit="10" d="M36.991,0c0,0,12.157,8.399,12.157,31.367
			S36.991,76.312,36.991,76.312"/>
	</g>
	<g>
		<path fill="none" stroke="#FFFFFF" stroke-width="0.2069" stroke-miterlimit="10" d="M29.287,0.254c0,0-16.734,4.69-16.734,27.658
			s19.022,48.399,19.022,48.399"/>
		<path fill="none" stroke="#FFFFFF" stroke-width="0.2069" stroke-miterlimit="10" d="M25.78,0.628c0,0-22.381,3.165-22.381,26.133
			s25.888,49.55,25.889,49.55"/>
		<path fill="none" stroke="#FFFFFF" stroke-width="0.2069" stroke-miterlimit="10" d="M35.009,0c0,0-12.157,8.399-12.157,31.367
			s12.157,44.944,12.157,44.944"/>
	</g>
</g>
</svg>
