<?xml version="1.0" encoding="utf-8"?>
<!-- Generator: Adobe Illustrator 16.0.3, SVG Export Plug-In . SVG Version: 6.00 Build 0)  -->
<!DOCTYPE svg PUBLIC "-//W3C//DTD SVG 1.1//EN" "http://www.w3.org/Graphics/SVG/1.1/DTD/svg11.dtd">
<svg version="1.1" id="Layer_1" xmlns="http://www.w3.org/2000/svg" xmlns:xlink="http://www.w3.org/1999/xlink" x="0px" y="0px"
	 width="60px" height="60px" viewBox="0 0 60 60" enable-background="new 0 0 60 60" xml:space="preserve">
<polygon fill="#FFFFFF" points="39.359,20.636 43.441,20.636 41.414,15.465 "/>
<path fill="#FFFFFF" d="M0.085,0v60h60V0H0.085z M27.306,50.48h-4.421l-7.771-9.978v9.978h-4.99V32.292h4.705l7.485,9.612v-9.612
	h4.992V50.48z M26.617,25.019c-1.632,1.828-3.816,3.087-7.239,3.087c-5.199,0-9.383-3.975-9.383-9.406v-0.052
	c0-4.223,2.592-7.721,6.434-8.969c0.978-0.318,2.037-0.488,3.157-0.488c3.717,0,6.108,1.559,7.719,3.793l-3.793,2.936
	c-1.04-1.299-2.237-2.13-3.977-2.13c-0.124,0-0.247,0.007-0.366,0.016c-2.351,0.196-3.976,2.269-3.976,4.791v0.051
	c0,2.728,1.794,4.858,4.341,4.858c1.898,0,3.014-0.883,4.107-2.208l0.958,0.682L27.435,24
	C27.177,24.356,26.906,24.696,26.617,25.019z M49.928,42.204c0,4.95-2.385,7.56-6.236,8.252c-0.715,0.13-1.479,0.192-2.289,0.192
	c-5.174,0-8.422-2.625-8.422-8.314v-8.002v-2.209h5.121v9.917v0.19c0,2.311,1.029,3.553,2.66,3.816
	c0.221,0.035,0.451,0.053,0.692,0.053c2.026,0,3.353-1.193,3.353-3.74V32.123h5.121V42.204z M46.223,27.806l-1.324-3.246
	l-7.02,0.001l-1.299,3.247h-5.303l7.746-18.319l4.86-0.001l7.746,18.32L46.223,27.806z"/>
</svg>
