<?xml version="1.0" encoding="utf-8"?>
<!-- Generator: Adobe Illustrator 16.0.3, SVG Export Plug-In . SVG Version: 6.00 Build 0)  -->
<!DOCTYPE svg PUBLIC "-//W3C//DTD SVG 1.1//EN" "http://www.w3.org/Graphics/SVG/1.1/DTD/svg11.dtd">
<svg version="1.1" id="Layer_1" xmlns="http://www.w3.org/2000/svg" xmlns:xlink="http://www.w3.org/1999/xlink" x="0px" y="0px"
	 width="114px" height="114px" viewBox="-26.915 -27 114 114" enable-background="new -26.915 -27 114 114" xml:space="preserve">
<polygon fill="#FFFFFF" points="47.706,12.208 55.462,12.208 51.61,2.383 "/>
<path fill="#FFFFFF" d="M-26.915-27V87h114V-27H-26.915z M24.805,68.913h-8.4L1.64,49.954v18.959h-9.48V34.354h8.939L15.32,52.618
	V34.354h9.485V68.913z M23.496,20.536c-3.102,3.474-7.251,5.865-13.754,5.865c-9.878,0-17.828-7.553-17.828-17.871V8.431
	c0-8.024,4.925-14.67,12.225-17.041c1.858-0.605,3.87-0.928,5.998-0.928c7.063,0,11.605,2.962,14.667,7.207l-7.207,5.579
	c-1.976-2.468-4.251-4.047-7.556-4.047c-0.236,0-0.47,0.013-0.696,0.03C4.877-0.396,1.79,3.543,1.79,8.334v0.097
	c0,5.183,3.408,9.23,8.249,9.23c3.606,0,5.726-1.677,7.803-4.195l1.82,1.296L25.05,18.6C24.56,19.276,24.045,19.922,23.496,20.536z
	 M67.786,53.188c0,9.405-4.531,14.363-11.849,15.679c-1.358,0.247-2.81,0.366-4.35,0.366c-9.83,0-16.002-4.988-16.002-15.798V38.23
	v-4.196h9.73v18.842v0.362c0,4.39,1.956,6.75,5.055,7.249c0.419,0.066,0.856,0.102,1.315,0.102c3.85,0,6.369-2.267,6.369-7.106
	V34.034h9.73V53.188L67.786,53.188z M60.746,25.832l-2.516-6.167l-13.337,0.002l-2.468,6.169H32.351L47.068-8.97l9.232-0.003
	l14.718,34.809L60.746,25.832z"/>
</svg>
