<?xml version="1.0" encoding="utf-8"?>
<!-- Generator: Adobe Illustrator 16.0.3, SVG Export Plug-In . SVG Version: 6.00 Build 0)  -->
<!DOCTYPE svg PUBLIC "-//W3C//DTD SVG 1.1//EN" "http://www.w3.org/Graphics/SVG/1.1/DTD/svg11.dtd">
<svg version="1.1" id="Layer_1" xmlns="http://www.w3.org/2000/svg" xmlns:xlink="http://www.w3.org/1999/xlink" x="0px" y="0px"
	 width="668px" height="1034px" viewBox="0 0 668 1034" enable-background="new 0 0 668 1034" xml:space="preserve">
<g>
	<g>
		<g>
			<path fill="#1CA5C2" d="M377.817,29.862c3.135,52.478,5.346,105.044,5.374,157.623c0.024,43.817-0.481,88.665-8.709,131.85
				c-2.192,11.508-5.02,23.288-10.4,33.771c-3.413,6.65-8.806,13.725-16.916,14.081c-0.58,0.025-0.582,0.927,0,0.901
				c8.282-0.363,13.733-7.213,17.395-13.957c6.543-12.054,9.364-26.203,11.708-39.574c7.578-43.239,7.921-87.922,7.818-131.691
				c-0.12-51.036-2.325-102.066-5.367-153.004C378.685,29.284,377.783,29.281,377.817,29.862L377.817,29.862z"/>
		</g>
	</g>
	<circle fill="#EC5F57" cx="345.816" cy="696.929" r="250"/>
	<circle fill="none" stroke="#FFC804" stroke-width="18.0288" stroke-miterlimit="10" cx="345.817" cy="386.833" r="30.649"/>
	<g>
		<g>
			<path fill="#1CA5C2" d="M347.166,367.186c-6.751,0.13-7.309-11.15-7.647-15.699c-0.929-12.479,0.373-25.186,1.652-37.591
				c3.922-38.029,10.606-75.772,16.362-113.551c3.807-24.997,7.439-50.032,10.174-75.172c2.31-21.226,4.159-42.69,3.349-64.058
				c-0.022-0.58-0.924-0.582-0.902,0c1.386,36.489-4.011,73.34-9.114,109.369c-5.605,39.563-12.424,78.95-17.76,118.552
				c-2.592,19.243-5.346,38.866-4.859,58.331c0.138,5.532,0.086,20.888,8.746,20.721
				C347.746,368.076,347.747,367.174,347.166,367.186L347.166,367.186z"/>
		</g>
	</g>
	<g>
		<path fill="#FFFFFF" d="M237.958,827.368h-8.694l-0.807,6.573h7.334l-0.403,3.092h-7.305l-1.091,8.844h-3.898l2.659-21.601h12.593
			L237.958,827.368z"/>
		<path fill="#FFFFFF" d="M237.345,845.877l1.867-15.342h1.867c0.358,0,0.652,0.08,0.881,0.239s0.344,0.413,0.344,0.762
			c0,0.07-0.005,0.189-0.015,0.358c-0.01,0.17-0.02,0.436-0.03,0.8c-0.01,0.363-0.03,0.873-0.06,1.531
			c0.627-1.205,1.314-2.137,2.062-2.794c0.747-0.657,1.523-0.986,2.33-0.986c0.408,0,0.822,0.09,1.24,0.27l-0.672,3.525
			c-0.498-0.209-0.971-0.313-1.419-0.313c-0.886,0-1.663,0.423-2.33,1.27c-0.667,0.847-1.215,2.171-1.643,3.974l-0.807,6.707
			H237.345z"/>
		<path fill="#FFFFFF" d="M260.544,834.105c0,0.688-0.137,1.314-0.411,1.883c-0.274,0.567-0.765,1.075-1.472,1.523
			s-1.666,0.834-2.875,1.157c-1.21,0.324-2.751,0.58-4.624,0.77v0.194c0,2.41,1.021,3.615,3.062,3.615
			c0.438,0,0.826-0.042,1.165-0.127c0.338-0.085,0.635-0.187,0.889-0.307c0.254-0.119,0.483-0.254,0.688-0.403
			c0.204-0.149,0.393-0.283,0.567-0.403c0.174-0.119,0.346-0.222,0.516-0.306c0.169-0.085,0.353-0.127,0.553-0.127
			c0.119,0,0.239,0.027,0.358,0.082s0.219,0.137,0.299,0.246l0.941,1.136c-0.528,0.527-1.045,0.985-1.554,1.374
			c-0.508,0.389-1.025,0.707-1.553,0.956c-0.528,0.249-1.086,0.434-1.673,0.553s-1.23,0.179-1.927,0.179
			c-0.896,0-1.708-0.151-2.435-0.455s-1.35-0.732-1.867-1.285c-0.518-0.553-0.919-1.22-1.203-2.001
			c-0.284-0.782-0.426-1.656-0.426-2.622c0-0.807,0.087-1.599,0.261-2.375c0.174-0.777,0.426-1.514,0.754-2.211
			c0.329-0.697,0.732-1.34,1.21-1.927c0.478-0.588,1.018-1.096,1.621-1.524c0.603-0.428,1.265-0.762,1.987-1.001
			c0.722-0.238,1.496-0.358,2.323-0.358c0.807,0,1.511,0.115,2.114,0.344c0.603,0.229,1.105,0.525,1.509,0.889
			c0.403,0.364,0.705,0.77,0.904,1.218S260.544,833.678,260.544,834.105z M255.51,832.91c-0.498,0-0.961,0.103-1.389,0.307
			c-0.429,0.204-0.814,0.49-1.158,0.859c-0.344,0.368-0.643,0.809-0.896,1.321c-0.254,0.514-0.456,1.073-0.605,1.681
			c1.235-0.169,2.228-0.354,2.98-0.553s1.334-0.418,1.748-0.657c0.413-0.239,0.687-0.493,0.821-0.762
			c0.135-0.269,0.202-0.558,0.202-0.866c0-0.149-0.033-0.304-0.097-0.463c-0.065-0.159-0.165-0.302-0.299-0.426
			c-0.135-0.125-0.309-0.229-0.523-0.314C256.08,832.953,255.819,832.91,255.51,832.91z"/>
		<path fill="#FFFFFF" d="M271.912,833.434c-0.11,0.159-0.214,0.271-0.313,0.336c-0.1,0.064-0.229,0.097-0.389,0.097
			c-0.169,0-0.343-0.05-0.523-0.149c-0.179-0.099-0.386-0.211-0.62-0.336c-0.234-0.124-0.503-0.236-0.807-0.336
			c-0.304-0.1-0.67-0.149-1.098-0.149c-0.787,0-1.389,0.177-1.808,0.53c-0.418,0.354-0.627,0.795-0.627,1.322
			c0,0.309,0.087,0.57,0.262,0.784c0.174,0.214,0.4,0.401,0.68,0.561c0.278,0.159,0.597,0.306,0.956,0.44
			c0.358,0.135,0.727,0.278,1.105,0.433c0.378,0.155,0.747,0.329,1.105,0.523c0.358,0.194,0.677,0.431,0.956,0.709
			c0.278,0.279,0.505,0.615,0.68,1.009c0.174,0.394,0.261,0.864,0.261,1.412c0,0.736-0.147,1.438-0.441,2.105
			c-0.293,0.668-0.714,1.253-1.262,1.756s-1.21,0.901-1.987,1.194c-0.777,0.294-1.643,0.441-2.599,0.441
			c-0.488,0-0.958-0.048-1.412-0.143s-0.879-0.226-1.277-0.396c-0.398-0.169-0.759-0.368-1.083-0.598
			c-0.324-0.229-0.6-0.478-0.829-0.747l0.896-1.404c0.109-0.169,0.241-0.298,0.396-0.388c0.154-0.09,0.336-0.135,0.545-0.135
			c0.209,0,0.398,0.065,0.568,0.194c0.169,0.13,0.368,0.271,0.598,0.426c0.229,0.154,0.505,0.296,0.829,0.426
			c0.324,0.129,0.74,0.194,1.248,0.194c0.408,0,0.77-0.055,1.083-0.165c0.314-0.109,0.578-0.259,0.792-0.447
			c0.214-0.189,0.375-0.408,0.485-0.658c0.109-0.248,0.164-0.513,0.164-0.791c0-0.339-0.084-0.62-0.254-0.845
			c-0.169-0.224-0.396-0.418-0.68-0.582c-0.284-0.164-0.605-0.309-0.963-0.434c-0.358-0.124-0.725-0.256-1.098-0.396
			c-0.373-0.14-0.737-0.299-1.09-0.479c-0.354-0.179-0.672-0.405-0.956-0.68c-0.284-0.273-0.51-0.606-0.68-1
			s-0.254-0.874-0.254-1.442c0-0.677,0.129-1.337,0.388-1.979c0.259-0.643,0.64-1.21,1.143-1.703
			c0.502-0.493,1.12-0.889,1.852-1.188s1.571-0.448,2.517-0.448c0.976,0,1.84,0.167,2.592,0.5c0.752,0.334,1.387,0.76,1.905,1.277
			L271.912,833.434z"/>
		<path fill="#FFFFFF" d="M273.585,845.877l2.704-22.198h3.675l-1.15,9.485c0.747-0.966,1.556-1.683,2.428-2.15
			c0.871-0.469,1.76-0.702,2.667-0.702c0.577,0,1.1,0.102,1.568,0.306s0.866,0.503,1.195,0.896c0.329,0.394,0.583,0.877,0.762,1.449
			s0.269,1.232,0.269,1.979c0,0.189-0.008,0.381-0.022,0.575c-0.015,0.194-0.033,0.396-0.052,0.604l-1.15,9.755h-3.69l1.15-9.755
			c0.02-0.179,0.037-0.349,0.052-0.508s0.022-0.309,0.022-0.448c0-0.657-0.125-1.13-0.374-1.419s-0.627-0.434-1.135-0.434
			c-0.378,0-0.772,0.107-1.18,0.321c-0.408,0.215-0.802,0.519-1.18,0.911c-0.378,0.394-0.732,0.869-1.061,1.427
			s-0.607,1.181-0.836,1.867l-0.971,8.037H273.585z"/>
		<path fill="#FFFFFF" d="M304.148,842.77c0.697,0,1.337-0.132,1.919-0.396s1.093-0.638,1.531-1.12
			c0.438-0.483,0.799-1.063,1.083-1.74c0.284-0.678,0.476-1.43,0.575-2.256l1.598-12.981h3.87l-1.584,12.981
			c-0.159,1.274-0.498,2.455-1.016,3.54c-0.518,1.086-1.183,2.021-1.994,2.809c-0.812,0.787-1.758,1.401-2.838,1.845
			s-2.263,0.665-3.548,0.665c-1.165,0-2.201-0.182-3.107-0.546c-0.906-0.363-1.67-0.873-2.293-1.531
			c-0.623-0.657-1.096-1.441-1.419-2.353c-0.324-0.911-0.485-1.914-0.485-3.01c0-0.448,0.03-0.921,0.089-1.419l1.569-12.981h3.884
			l-1.599,12.966c-0.02,0.189-0.035,0.374-0.044,0.553c-0.01,0.18-0.015,0.354-0.015,0.523c0,0.677,0.082,1.29,0.247,1.837
			c0.164,0.548,0.408,1.017,0.732,1.404c0.323,0.389,0.725,0.688,1.203,0.896S303.53,842.77,304.148,842.77z"/>
		<path fill="#FFFFFF" d="M314.814,850.881l2.479-20.346h1.867c0.339,0,0.628,0.072,0.867,0.217c0.238,0.145,0.358,0.381,0.358,0.71
			c0,0.06-0.005,0.167-0.015,0.32c-0.01,0.155-0.021,0.398-0.03,0.732s-0.03,0.805-0.06,1.412c0.736-1.105,1.57-1.984,2.502-2.637
			s1.914-0.979,2.95-0.979c0.638,0,1.218,0.117,1.741,0.351c0.521,0.234,0.968,0.585,1.336,1.054
			c0.369,0.468,0.652,1.061,0.852,1.777s0.299,1.559,0.299,2.524c0,0.866-0.09,1.718-0.269,2.555
			c-0.179,0.836-0.434,1.628-0.763,2.375c-0.328,0.747-0.719,1.435-1.172,2.062s-0.959,1.17-1.516,1.628
			c-0.559,0.459-1.153,0.817-1.785,1.076c-0.633,0.259-1.288,0.388-1.965,0.388c-0.688,0-1.312-0.122-1.875-0.365
			c-0.562-0.244-1.049-0.585-1.457-1.023l-0.762,6.169H314.814z M324.299,833.209c-0.408,0-0.82,0.138-1.239,0.411
			c-0.418,0.274-0.821,0.652-1.21,1.136c-0.389,0.482-0.75,1.053-1.083,1.71c-0.334,0.657-0.62,1.364-0.858,2.121l-0.449,3.72
			c0.339,0.358,0.725,0.612,1.158,0.762s0.863,0.225,1.292,0.225c0.657,0,1.255-0.204,1.793-0.613
			c0.538-0.408,0.998-0.94,1.382-1.598c0.383-0.657,0.68-1.397,0.889-2.219s0.313-1.646,0.313-2.472
			c0-1.076-0.175-1.875-0.522-2.398C325.414,833.471,324.927,833.209,324.299,833.209z"/>
		<path fill="#FFFFFF" d="M341.852,845.877c-0.447,0-0.762-0.104-0.941-0.313c-0.179-0.209-0.268-0.473-0.268-0.792l0.119-2.24
			c-0.737,1.095-1.564,1.964-2.48,2.606s-1.893,0.963-2.928,0.963c-0.637,0-1.217-0.117-1.74-0.351
			c-0.522-0.234-0.969-0.585-1.337-1.053c-0.368-0.469-0.652-1.062-0.852-1.778s-0.298-1.563-0.298-2.539
			c0-0.866,0.089-1.716,0.268-2.547c0.18-0.832,0.434-1.621,0.762-2.368c0.33-0.747,0.721-1.434,1.174-2.062
			c0.453-0.627,0.958-1.17,1.516-1.628s1.152-0.816,1.785-1.076c0.633-0.259,1.287-0.388,1.965-0.388
			c0.688,0,1.309,0.124,1.867,0.373c0.557,0.249,1.045,0.588,1.464,1.016l1.001-8.021h3.615l-2.734,22.198H341.852z
			 M336.787,843.203c0.398,0,0.808-0.137,1.226-0.411c0.419-0.273,0.821-0.652,1.21-1.135c0.389-0.483,0.75-1.051,1.083-1.703
			s0.62-1.357,0.858-2.114l0.464-3.72c-0.339-0.368-0.728-0.627-1.165-0.776c-0.438-0.149-0.867-0.224-1.285-0.224
			c-0.657,0-1.254,0.204-1.793,0.612c-0.537,0.408-0.998,0.94-1.381,1.598c-0.384,0.658-0.68,1.397-0.889,2.219
			s-0.314,1.646-0.314,2.473c0,1.075,0.174,1.874,0.523,2.397C335.672,842.941,336.16,843.203,336.787,843.203z"/>
		<path fill="#FFFFFF" d="M359.404,845.877h-1.942c-0.448,0-0.762-0.104-0.94-0.313c-0.18-0.209-0.27-0.473-0.27-0.792l0.119-2.092
			c-0.677,1.057-1.439,1.891-2.285,2.503c-0.847,0.612-1.777,0.918-2.793,0.918c-0.578,0-1.119-0.114-1.621-0.343
			c-0.504-0.229-0.941-0.57-1.314-1.023c-0.374-0.453-0.668-1.021-0.882-1.703c-0.214-0.682-0.321-1.481-0.321-2.397
			s0.115-1.808,0.344-2.674c0.229-0.867,0.555-1.681,0.979-2.442s0.934-1.462,1.531-2.1c0.598-0.637,1.268-1.185,2.01-1.643
			c0.741-0.458,1.543-0.814,2.404-1.068s1.771-0.381,2.727-0.381c0.688,0,1.377,0.05,2.068,0.149c0.692,0.1,1.372,0.279,2.039,0.538
			L359.404,845.877z M352.742,843.084c0.408,0,0.809-0.14,1.201-0.419c0.395-0.278,0.765-0.665,1.113-1.157
			c0.349-0.493,0.672-1.073,0.971-1.74s0.559-1.385,0.777-2.151l0.582-4.631c-0.269-0.03-0.518-0.045-0.746-0.045
			c-0.827,0-1.594,0.189-2.301,0.567c-0.707,0.379-1.32,0.889-1.838,1.531s-0.924,1.39-1.217,2.241
			c-0.294,0.852-0.441,1.75-0.441,2.696c0,1.075,0.17,1.862,0.508,2.36C351.69,842.835,352.154,843.084,352.742,843.084z"/>
		<path fill="#FFFFFF" d="M364.243,842.755c0-0.069,0-0.151,0-0.246s0.008-0.234,0.022-0.419c0.016-0.184,0.039-0.428,0.074-0.731
			s0.082-0.695,0.143-1.173l0.852-6.872h-1.449c-0.17,0-0.307-0.052-0.41-0.156c-0.105-0.104-0.158-0.262-0.158-0.471
			c0-0.01,0.003-0.03,0.008-0.06c0.006-0.03,0.013-0.098,0.023-0.202c0.01-0.104,0.027-0.261,0.052-0.471
			c0.024-0.209,0.058-0.502,0.097-0.881l2.33-0.403l1.226-4.183c0.06-0.199,0.161-0.354,0.306-0.463
			c0.145-0.11,0.322-0.165,0.531-0.165h1.971l-0.598,4.825h3.705l-0.312,2.629h-3.721l-0.822,6.678
			c-0.049,0.408-0.086,0.732-0.111,0.971c-0.025,0.239-0.045,0.426-0.059,0.561c-0.016,0.135-0.025,0.229-0.031,0.284
			c-0.004,0.055-0.006,0.092-0.006,0.111c0,0.379,0.092,0.678,0.275,0.896c0.184,0.22,0.445,0.329,0.783,0.329
			c0.211,0,0.389-0.027,0.539-0.082c0.148-0.055,0.277-0.112,0.389-0.172c0.109-0.061,0.205-0.117,0.291-0.172
			c0.084-0.055,0.166-0.082,0.246-0.082c0.109,0,0.197,0.027,0.262,0.082s0.121,0.137,0.172,0.246l0.791,1.793
			c-0.547,0.448-1.154,0.786-1.822,1.016c-0.668,0.229-1.34,0.344-2.017,0.344c-1.085,0-1.944-0.294-2.577-0.882
			C364.604,844.647,364.273,843.82,364.243,842.755z"/>
		<path fill="#FFFFFF" d="M386.352,834.105c0,0.688-0.137,1.314-0.41,1.883c-0.275,0.567-0.766,1.075-1.473,1.523
			s-1.666,0.834-2.875,1.157c-1.211,0.324-2.752,0.58-4.623,0.77v0.194c0,2.41,1.02,3.615,3.062,3.615
			c0.438,0,0.826-0.042,1.164-0.127c0.34-0.085,0.635-0.187,0.889-0.307c0.254-0.119,0.484-0.254,0.688-0.403
			c0.205-0.149,0.395-0.283,0.568-0.403c0.174-0.119,0.346-0.222,0.516-0.306c0.168-0.085,0.354-0.127,0.553-0.127
			c0.119,0,0.238,0.027,0.357,0.082s0.219,0.137,0.299,0.246l0.941,1.136c-0.527,0.527-1.045,0.985-1.553,1.374
			s-1.027,0.707-1.555,0.956s-1.086,0.434-1.672,0.553c-0.588,0.119-1.23,0.179-1.928,0.179c-0.896,0-1.709-0.151-2.436-0.455
			s-1.35-0.732-1.867-1.285s-0.918-1.22-1.203-2.001c-0.283-0.782-0.424-1.656-0.424-2.622c0-0.807,0.086-1.599,0.26-2.375
			c0.176-0.777,0.426-1.514,0.756-2.211c0.328-0.697,0.73-1.34,1.209-1.927c0.479-0.588,1.018-1.096,1.621-1.524
			c0.602-0.428,1.264-0.762,1.986-1.001c0.723-0.238,1.496-0.358,2.324-0.358c0.807,0,1.51,0.115,2.113,0.344
			c0.602,0.229,1.105,0.525,1.508,0.889c0.404,0.364,0.705,0.77,0.904,1.218S386.352,833.678,386.352,834.105z M381.316,832.91
			c-0.498,0-0.961,0.103-1.389,0.307s-0.814,0.49-1.158,0.859c-0.344,0.368-0.641,0.809-0.895,1.321
			c-0.256,0.514-0.457,1.073-0.605,1.681c1.234-0.169,2.229-0.354,2.98-0.553s1.334-0.418,1.746-0.657
			c0.414-0.239,0.688-0.493,0.822-0.762s0.201-0.558,0.201-0.866c0-0.149-0.031-0.304-0.096-0.463
			c-0.066-0.159-0.164-0.302-0.299-0.426c-0.135-0.125-0.309-0.229-0.523-0.314C381.887,832.953,381.625,832.91,381.316,832.91z"/>
		<path fill="#FFFFFF" d="M399.123,830.551l-1.838,15.326h-3.645l1.838-15.326H399.123z M400.049,826.084
			c0,0.318-0.066,0.617-0.201,0.896c-0.135,0.278-0.309,0.522-0.523,0.731c-0.213,0.209-0.459,0.376-0.738,0.501
			c-0.279,0.124-0.568,0.187-0.867,0.187c-0.289,0-0.57-0.062-0.844-0.187c-0.273-0.125-0.516-0.292-0.725-0.501
			s-0.375-0.453-0.5-0.731c-0.125-0.279-0.188-0.578-0.188-0.896s0.064-0.622,0.195-0.911c0.129-0.289,0.299-0.54,0.508-0.755
			c0.209-0.214,0.449-0.383,0.725-0.508c0.273-0.124,0.555-0.187,0.844-0.187c0.299,0,0.588,0.062,0.865,0.187
			c0.279,0.125,0.525,0.291,0.74,0.501c0.215,0.209,0.387,0.458,0.516,0.746C399.984,825.446,400.049,825.755,400.049,826.084z"/>
		<path fill="#FFFFFF" d="M411.18,833.434c-0.111,0.159-0.215,0.271-0.314,0.336s-0.229,0.097-0.389,0.097
			c-0.17,0-0.344-0.05-0.523-0.149c-0.178-0.099-0.385-0.211-0.619-0.336c-0.234-0.124-0.504-0.236-0.807-0.336
			c-0.305-0.1-0.67-0.149-1.098-0.149c-0.787,0-1.391,0.177-1.809,0.53s-0.627,0.795-0.627,1.322c0,0.309,0.088,0.57,0.262,0.784
			s0.4,0.401,0.68,0.561s0.598,0.306,0.955,0.44c0.359,0.135,0.729,0.278,1.105,0.433c0.379,0.155,0.748,0.329,1.105,0.523
			c0.359,0.194,0.678,0.431,0.957,0.709c0.279,0.279,0.506,0.615,0.68,1.009s0.262,0.864,0.262,1.412
			c0,0.736-0.148,1.438-0.441,2.105c-0.293,0.668-0.715,1.253-1.262,1.756c-0.549,0.503-1.211,0.901-1.986,1.194
			c-0.777,0.294-1.645,0.441-2.6,0.441c-0.488,0-0.959-0.048-1.412-0.143s-0.879-0.226-1.277-0.396
			c-0.398-0.169-0.76-0.368-1.082-0.598c-0.324-0.229-0.602-0.478-0.83-0.747l0.896-1.404c0.109-0.169,0.242-0.298,0.396-0.388
			s0.336-0.135,0.545-0.135s0.398,0.065,0.566,0.194c0.17,0.13,0.369,0.271,0.598,0.426c0.23,0.154,0.506,0.296,0.83,0.426
			c0.324,0.129,0.738,0.194,1.248,0.194c0.408,0,0.768-0.055,1.082-0.165c0.314-0.109,0.578-0.259,0.791-0.447
			c0.215-0.189,0.377-0.408,0.486-0.658c0.109-0.248,0.164-0.513,0.164-0.791c0-0.339-0.084-0.62-0.254-0.845
			c-0.17-0.224-0.396-0.418-0.68-0.582s-0.605-0.309-0.963-0.434c-0.359-0.124-0.725-0.256-1.098-0.396
			c-0.375-0.14-0.738-0.299-1.092-0.479c-0.354-0.179-0.672-0.405-0.955-0.68c-0.285-0.273-0.512-0.606-0.68-1
			c-0.17-0.394-0.254-0.874-0.254-1.442c0-0.677,0.129-1.337,0.389-1.979c0.258-0.643,0.639-1.21,1.143-1.703
			c0.502-0.493,1.119-0.889,1.852-1.188s1.57-0.448,2.518-0.448c0.977,0,1.84,0.167,2.592,0.5c0.752,0.334,1.387,0.76,1.904,1.277
			L411.18,833.434z"/>
		<path fill="#FFFFFF" d="M424.264,846.101c-0.846,0-1.631-0.142-2.352-0.426c-0.723-0.283-1.346-0.699-1.867-1.247
			c-0.523-0.548-0.934-1.22-1.232-2.017s-0.449-1.708-0.449-2.733c0-1.324,0.211-2.56,0.635-3.705
			c0.424-1.145,1.002-2.136,1.732-2.973c0.732-0.836,1.586-1.493,2.562-1.972c0.977-0.478,2.018-0.717,3.123-0.717
			c0.846,0,1.629,0.142,2.352,0.426c0.723,0.283,1.348,0.699,1.875,1.247s0.941,1.22,1.24,2.017s0.447,1.708,0.447,2.733
			c0,1.314-0.213,2.542-0.643,3.683c-0.428,1.141-1.008,2.131-1.74,2.973c-0.73,0.842-1.586,1.504-2.561,1.987
			C426.41,845.859,425.369,846.101,424.264,846.101z M424.594,843.263c0.617,0,1.174-0.177,1.672-0.53s0.924-0.826,1.277-1.419
			s0.625-1.282,0.814-2.069c0.189-0.786,0.283-1.613,0.283-2.479c0-1.245-0.211-2.161-0.635-2.749
			c-0.424-0.587-1.062-0.881-1.92-0.881c-0.617,0-1.174,0.174-1.672,0.522s-0.922,0.822-1.27,1.419
			c-0.35,0.598-0.619,1.29-0.807,2.077c-0.189,0.786-0.285,1.618-0.285,2.494c0,1.245,0.209,2.159,0.629,2.741
			C423.1,842.972,423.736,843.263,424.594,843.263z"/>
		<path fill="#FFFFFF" d="M439.066,830.551c-0.199,1.683-0.367,3.106-0.508,4.271c-0.139,1.166-0.254,2.137-0.344,2.913
			c-0.088,0.777-0.158,1.39-0.209,1.838c-0.049,0.448-0.086,0.786-0.111,1.016s-0.039,0.384-0.045,0.463
			c-0.006,0.08-0.008,0.145-0.008,0.194c0,0.657,0.123,1.128,0.367,1.412c0.244,0.283,0.613,0.426,1.111,0.426
			c0.389,0,0.791-0.107,1.203-0.321c0.414-0.215,0.812-0.521,1.195-0.919s0.74-0.882,1.068-1.449s0.607-1.2,0.836-1.897l0.957-7.946
			h3.689l-1.854,15.326h-1.867c-0.168,0-0.33-0.022-0.484-0.067s-0.295-0.112-0.418-0.201c-0.125-0.09-0.225-0.204-0.299-0.344
			c-0.076-0.14-0.113-0.304-0.113-0.493v-0.06l0.09-1.867c-0.775,1.096-1.625,1.912-2.547,2.449
			c-0.922,0.538-1.875,0.807-2.859,0.807c-0.568,0-1.084-0.102-1.547-0.306s-0.859-0.501-1.188-0.889
			c-0.328-0.389-0.582-0.869-0.762-1.441c-0.18-0.573-0.27-1.228-0.27-1.965c0-0.199,0.006-0.398,0.016-0.598
			s0.029-0.408,0.059-0.627l1.15-9.725H439.066z"/>
		<path fill="#FFFFFF" d="M451.213,842.755c0-0.069,0-0.151,0-0.246s0.006-0.234,0.021-0.419c0.016-0.184,0.039-0.428,0.074-0.731
			s0.082-0.695,0.143-1.173l0.852-6.872h-1.449c-0.17,0-0.307-0.052-0.41-0.156c-0.105-0.104-0.158-0.262-0.158-0.471
			c0-0.01,0.004-0.03,0.008-0.06c0.006-0.03,0.014-0.098,0.023-0.202s0.027-0.261,0.051-0.471c0.025-0.209,0.059-0.502,0.098-0.881
			l2.33-0.403l1.225-4.183c0.061-0.199,0.162-0.354,0.307-0.463c0.145-0.11,0.322-0.165,0.531-0.165h1.971l-0.598,4.825h3.705
			l-0.312,2.629h-3.721l-0.822,6.678c-0.049,0.408-0.086,0.732-0.111,0.971c-0.025,0.239-0.045,0.426-0.059,0.561
			c-0.016,0.135-0.025,0.229-0.031,0.284c-0.004,0.055-0.008,0.092-0.008,0.111c0,0.379,0.094,0.678,0.277,0.896
			c0.184,0.22,0.445,0.329,0.783,0.329c0.211,0,0.389-0.027,0.539-0.082c0.148-0.055,0.277-0.112,0.389-0.172
			c0.109-0.061,0.205-0.117,0.291-0.172c0.084-0.055,0.166-0.082,0.246-0.082c0.109,0,0.197,0.027,0.262,0.082
			s0.121,0.137,0.172,0.246l0.791,1.793c-0.547,0.448-1.154,0.786-1.822,1.016c-0.668,0.229-1.34,0.344-2.016,0.344
			c-1.086,0-1.945-0.294-2.578-0.882C451.572,844.647,451.242,843.82,451.213,842.755z"/>
		<path fill="#FFFFFF" d="M461.908,843.846c0-0.309,0.057-0.603,0.172-0.882c0.113-0.278,0.27-0.518,0.469-0.717
			s0.439-0.358,0.719-0.479c0.277-0.119,0.576-0.179,0.896-0.179c0.318,0,0.613,0.06,0.889,0.179
			c0.273,0.12,0.512,0.279,0.717,0.479c0.203,0.199,0.365,0.438,0.484,0.717c0.119,0.279,0.18,0.573,0.18,0.882
			c0,0.318-0.061,0.614-0.18,0.889c-0.119,0.273-0.281,0.511-0.484,0.709c-0.205,0.2-0.443,0.356-0.717,0.471
			c-0.275,0.114-0.57,0.172-0.889,0.172c-0.32,0-0.619-0.058-0.896-0.172c-0.279-0.114-0.52-0.271-0.719-0.471
			c-0.199-0.198-0.355-0.436-0.469-0.709C461.965,844.46,461.908,844.164,461.908,843.846z M468.062,824.276l-1.047,8.56
			c-0.109,0.906-0.264,1.795-0.463,2.666c-0.199,0.872-0.428,1.801-0.688,2.786h-2.404c0-0.199-0.002-0.396-0.008-0.59
			c-0.004-0.194-0.008-0.386-0.008-0.575c0-0.747,0.018-1.469,0.053-2.166s0.098-1.404,0.188-2.121l1.045-8.56H468.062z"/>
	</g>
	<g>
		<path fill="#FFFFFF" d="M283.501,642.843h-7.943l3.404-27.485h-29.376l-3.362,27.485h-7.943l7.438-60.223h7.901l-3.32,27.022
			h29.376l3.32-27.022h7.901L283.501,642.843z"/>
		<path fill="#FFFFFF" d="M326.998,642.843h-3.866c-0.981,0-1.646-0.252-1.996-0.757c-0.351-0.504-0.525-1.12-0.525-1.849
			l0.757-8.528c-1.009,1.78-2.096,3.393-3.258,4.839s-2.395,2.677-3.697,3.692c-1.303,1.015-2.669,1.801-4.098,2.357
			c-1.429,0.555-2.914,0.834-4.455,0.834c-1.681,0-3.208-0.33-4.581-0.988c-1.373-0.658-2.542-1.625-3.509-2.899
			c-0.966-1.274-1.716-2.844-2.248-4.707c-0.533-1.862-0.799-3.999-0.799-6.409c0-2.521,0.315-4.98,0.946-7.375
			c0.63-2.396,1.527-4.658,2.689-6.787c1.163-2.129,2.557-4.083,4.182-5.863c1.625-1.779,3.439-3.32,5.442-4.623
			c2.003-1.303,4.153-2.312,6.451-3.026c2.297-0.715,4.707-1.072,7.229-1.072c1.821,0,3.593,0.149,5.316,0.446
			c1.723,0.297,3.425,0.814,5.106,1.55L326.998,642.843z M308.675,637.211c1.373,0,2.717-0.42,4.035-1.262
			c1.316-0.84,2.564-2.006,3.74-3.496c1.178-1.488,2.276-3.26,3.3-5.314c1.022-2.055,1.926-4.311,2.71-6.765l1.808-14.396
			c-0.616-0.499-1.226-0.748-1.828-0.748s-1.198,0-1.786,0c-1.682,0-3.307,0.272-4.875,0.817c-1.569,0.545-3.041,1.306-4.413,2.285
			c-1.373,0.979-2.62,2.145-3.74,3.5c-1.121,1.355-2.081,2.843-2.879,4.464s-1.422,3.346-1.87,5.176
			c-0.449,1.831-0.672,3.71-0.672,5.638C302.203,633.844,304.36,637.211,308.675,637.211z"/>
		<path fill="#FFFFFF" d="M336.328,657.258l6.934-57.029h3.74c1.682,0,2.521,0.84,2.521,2.521l-0.714,9.078
			c1.063-1.849,2.228-3.523,3.487-5.022c1.262-1.499,2.586-2.78,3.973-3.846c1.387-1.064,2.836-1.884,4.35-2.458
			c1.512-0.574,3.053-0.861,4.623-0.861c3.613,0,6.43,1.317,8.447,3.95c2.016,2.634,3.025,6.487,3.025,11.557
			c0,2.298-0.238,4.595-0.715,6.893c-0.477,2.298-1.156,4.49-2.039,6.577c-0.881,2.088-1.947,4.034-3.193,5.842
			c-1.246,1.807-2.633,3.376-4.16,4.707c-1.527,1.33-3.188,2.374-4.98,3.131c-1.793,0.756-3.67,1.135-5.631,1.135
			c-2.102,0-4.021-0.414-5.758-1.24c-1.738-0.826-3.193-2.01-4.371-3.551l-2.27,18.617H336.328z M362.426,605.65
			c-1.345,0-2.711,0.42-4.098,1.261c-1.387,0.84-2.725,2.017-4.014,3.53c-1.289,1.513-2.486,3.306-3.593,5.379
			c-1.107,2.074-2.067,4.329-2.879,6.766l-1.345,10.843c1.064,1.542,2.346,2.627,3.846,3.257c1.498,0.631,3.018,0.945,4.56,0.945
			c1.456,0,2.829-0.307,4.118-0.924c1.289-0.616,2.465-1.45,3.53-2.5c1.064-1.051,2.018-2.283,2.858-3.699
			c0.84-1.414,1.547-2.928,2.121-4.539c0.574-1.61,1.016-3.277,1.324-5s0.463-3.425,0.463-5.106c0-3.334-0.604-5.87-1.808-7.607
			C366.307,606.519,364.611,605.65,362.426,605.65z"/>
		<path fill="#FFFFFF" d="M379.865,657.258l6.936-57.029h3.74c1.68,0,2.521,0.84,2.521,2.521l-0.715,9.078
			c1.064-1.849,2.227-3.523,3.488-5.022c1.26-1.499,2.584-2.78,3.971-3.846c1.387-1.064,2.838-1.884,4.35-2.458
			c1.514-0.574,3.055-0.861,4.623-0.861c3.615,0,6.43,1.317,8.447,3.95c2.018,2.634,3.025,6.487,3.025,11.557
			c0,2.298-0.238,4.595-0.713,6.893c-0.477,2.298-1.156,4.49-2.039,6.577c-0.883,2.088-1.947,4.034-3.193,5.842
			c-1.248,1.807-2.635,3.376-4.162,4.707c-1.527,1.33-3.186,2.374-4.979,3.131c-1.795,0.756-3.672,1.135-5.633,1.135
			c-2.102,0-4.02-0.414-5.758-1.24c-1.736-0.826-3.193-2.01-4.369-3.551l-2.27,18.617H379.865z M405.963,605.65
			c-1.344,0-2.709,0.42-4.096,1.261c-1.389,0.84-2.727,2.017-4.014,3.53c-1.289,1.513-2.488,3.306-3.594,5.379
			c-1.107,2.074-2.066,4.329-2.879,6.766l-1.346,10.843c1.064,1.542,2.348,2.627,3.846,3.257c1.498,0.631,3.02,0.945,4.561,0.945
			c1.457,0,2.83-0.307,4.119-0.924c1.287-0.616,2.465-1.45,3.529-2.5c1.064-1.051,2.018-2.283,2.857-3.699
			c0.842-1.414,1.549-2.928,2.123-4.539c0.574-1.61,1.016-3.277,1.324-5c0.307-1.723,0.461-3.425,0.461-5.106
			c0-3.334-0.602-5.87-1.807-7.607C409.844,606.519,408.148,605.65,405.963,605.65z"/>
		<path fill="#FFFFFF" d="M435.508,655.535c-0.59,1.148-1.457,1.723-2.605,1.723h-5.465l9.205-16.937l-11.012-40.051h6.178
			c0.588,0,1.029,0.147,1.324,0.441c0.295,0.294,0.498,0.666,0.609,1.113l6.85,26.813c0.141,0.588,0.252,1.176,0.336,1.764
			c0.084,0.589,0.154,1.178,0.211,1.766c0.252-0.588,0.498-1.184,0.736-1.786c0.236-0.603,0.51-1.198,0.818-1.786l13.449-26.854
			c0.223-0.448,0.539-0.805,0.945-1.072c0.406-0.266,0.818-0.399,1.24-0.399h5.926L435.508,655.535z"/>
		<path fill="#FFFFFF" d="M247.255,743.705h-7.943l3.404-27.485H213.34l-3.362,27.485h-7.943l7.438-60.224h7.901l-3.32,27.023
			h29.376l3.32-27.023h7.901L247.255,743.705z"/>
		<path fill="#FFFFFF" d="M274.614,744.293c-2.326,0-4.455-0.398-6.388-1.197c-1.933-0.799-3.6-1.954-5.001-3.467
			c-1.401-1.514-2.494-3.362-3.278-5.548c-0.785-2.186-1.177-4.679-1.177-7.48c0-3.586,0.56-6.962,1.681-10.128
			c1.12-3.166,2.654-5.939,4.602-8.321c1.947-2.382,4.245-4.259,6.893-5.632c2.647-1.372,5.512-2.06,8.594-2.06
			c2.325,0,4.455,0.399,6.388,1.198c1.933,0.798,3.6,1.954,5.001,3.467s2.494,3.369,3.278,5.568c0.784,2.2,1.177,4.687,1.177,7.46
			c0,3.559-0.561,6.921-1.681,10.086c-1.121,3.167-2.655,5.94-4.602,8.321c-1.947,2.382-4.251,4.266-6.913,5.652
			C280.525,743.6,277.667,744.293,274.614,744.293z M275.286,738.452c2.045,0,3.908-0.561,5.589-1.682
			c1.681-1.12,3.11-2.612,4.287-4.476s2.087-4.014,2.732-6.451c0.644-2.438,0.966-4.986,0.966-7.648
			c0-3.922-0.771-6.878-2.311-8.867c-1.542-1.989-3.769-2.984-6.682-2.984c-2.074,0-3.944,0.554-5.611,1.66
			c-1.667,1.107-3.089,2.592-4.266,4.455s-2.087,4.014-2.731,6.451c-0.645,2.438-0.967,4.987-0.967,7.648
			c0,3.923,0.763,6.886,2.291,8.889C270.11,737.45,272.344,738.452,275.286,738.452z"/>
		<path fill="#FFFFFF" d="M302.392,743.705l7.523-61.904h7.354l-7.523,61.904H302.392z"/>
		<path fill="#FFFFFF" d="M335.129,701.133l-5.127,42.572h-7.354l5.127-42.572H335.129z M337.945,687.769
			c0,0.729-0.146,1.408-0.441,2.038c-0.294,0.631-0.688,1.191-1.177,1.681c-0.49,0.491-1.044,0.876-1.66,1.156
			s-1.261,0.42-1.933,0.42c-0.645,0-1.275-0.14-1.892-0.42s-1.155-0.665-1.618-1.156c-0.462-0.489-0.834-1.05-1.113-1.681
			c-0.281-0.63-0.42-1.31-0.42-2.038s0.139-1.415,0.42-2.06c0.279-0.644,0.658-1.211,1.135-1.702
			c0.476-0.489,1.021-0.882,1.639-1.177c0.616-0.294,1.246-0.441,1.891-0.441c0.673,0,1.317,0.141,1.934,0.421
			s1.17,0.666,1.66,1.155c0.49,0.491,0.875,1.065,1.156,1.724C337.805,686.347,337.945,687.04,337.945,687.769z"/>
		<path fill="#FFFFFF" d="M370.893,743.705c-0.98,0-1.646-0.252-1.996-0.757c-0.35-0.504-0.525-1.12-0.525-1.849l0.799-8.867
			c-1.064,1.821-2.227,3.474-3.488,4.959c-1.26,1.485-2.584,2.752-3.971,3.803s-2.83,1.864-4.329,2.438
			c-1.499,0.574-3.019,0.861-4.56,0.861c-3.643,0-6.466-1.323-8.469-3.971s-3.004-6.493-3.004-11.536
			c0-2.297,0.237-4.595,0.714-6.893c0.476-2.297,1.155-4.497,2.038-6.598c0.883-2.102,1.947-4.056,3.193-5.863
			c1.247-1.807,2.634-3.368,4.161-4.686c1.526-1.316,3.187-2.354,4.98-3.11c1.792-0.756,3.67-1.135,5.632-1.135
			c2.072,0,3.971,0.407,5.693,1.219c1.725,0.813,3.188,1.976,4.393,3.488l2.9-23.408h7.354l-7.648,61.904H370.893z M355.638,738.284
			c1.345,0,2.696-0.413,4.056-1.24c1.358-0.826,2.676-1.976,3.95-3.446s2.466-3.222,3.572-5.253s2.065-4.251,2.88-6.661
			l1.387-11.263c-1.066-1.485-2.34-2.536-3.825-3.152s-2.983-0.925-4.497-0.925c-2.213,0-4.209,0.659-5.988,1.976
			c-1.779,1.317-3.293,3.02-4.539,5.106c-1.247,2.087-2.206,4.42-2.879,6.997c-0.672,2.578-1.008,5.113-1.008,7.606
			c0,3.335,0.602,5.877,1.807,7.628C351.757,737.408,353.453,738.284,355.638,738.284z"/>
		<path fill="#FFFFFF" d="M417.625,743.705h-3.867c-0.98,0-1.646-0.252-1.996-0.757c-0.35-0.504-0.525-1.12-0.525-1.849l0.758-8.528
			c-1.01,1.78-2.096,3.394-3.258,4.839c-1.162,1.446-2.396,2.677-3.699,3.692c-1.303,1.015-2.668,1.801-4.096,2.357
			c-1.43,0.555-2.916,0.833-4.455,0.833c-1.682,0-3.209-0.329-4.582-0.987s-2.543-1.624-3.508-2.899
			c-0.967-1.274-1.717-2.844-2.25-4.707c-0.531-1.863-0.797-3.999-0.797-6.409c0-2.521,0.314-4.979,0.945-7.375
			c0.629-2.396,1.525-4.658,2.689-6.788c1.162-2.129,2.557-4.083,4.182-5.862c1.625-1.778,3.439-3.32,5.441-4.623
			c2.004-1.303,4.154-2.312,6.451-3.025c2.297-0.715,4.707-1.072,7.229-1.072c1.82,0,3.594,0.149,5.316,0.446
			c1.723,0.298,3.426,0.814,5.105,1.551L417.625,743.705z M399.301,738.073c1.373,0,2.719-0.42,4.035-1.261
			c1.316-0.842,2.564-2.007,3.74-3.496c1.178-1.489,2.275-3.262,3.299-5.316s1.926-4.31,2.711-6.764l1.807-14.396
			c-0.615-0.498-1.225-0.748-1.828-0.748c-0.602,0-1.197,0-1.785,0c-1.682,0-3.307,0.272-4.875,0.817
			c-1.57,0.545-3.041,1.307-4.414,2.284c-1.373,0.979-2.619,2.146-3.74,3.5c-1.121,1.355-2.08,2.844-2.879,4.465
			c-0.797,1.62-1.422,3.346-1.869,5.176c-0.449,1.831-0.672,3.71-0.672,5.638C392.83,734.706,394.986,738.073,399.301,738.073z"/>
		<path fill="#FFFFFF" d="M439.057,756.396c-0.588,1.149-1.457,1.724-2.605,1.724h-5.463l9.203-16.937l-11.01-40.051h6.178
			c0.588,0,1.029,0.147,1.322,0.441c0.295,0.294,0.498,0.666,0.609,1.113l6.852,26.812c0.139,0.589,0.252,1.177,0.336,1.766
			c0.084,0.588,0.154,1.177,0.211,1.765c0.252-0.588,0.496-1.183,0.734-1.786c0.238-0.602,0.512-1.197,0.82-1.786l13.447-26.854
			c0.225-0.447,0.539-0.805,0.945-1.071s0.82-0.399,1.24-0.399h5.926L439.057,756.396z"/>
		<path fill="#FFFFFF" d="M496.17,707.941c-0.225,0.336-0.447,0.581-0.672,0.735s-0.504,0.23-0.84,0.23
			c-0.393,0-0.82-0.153-1.283-0.462c-0.461-0.308-1.021-0.651-1.68-1.029c-0.66-0.379-1.465-0.729-2.418-1.051
			c-0.951-0.322-2.1-0.483-3.445-0.483c-1.262,0-2.41,0.175-3.445,0.525c-1.037,0.351-1.934,0.834-2.691,1.449
			c-0.756,0.617-1.338,1.339-1.742,2.165c-0.408,0.826-0.609,1.702-0.609,2.626c0,1.317,0.434,2.368,1.303,3.152
			c0.867,0.785,1.959,1.464,3.277,2.038c1.316,0.575,2.738,1.128,4.266,1.66s2.947,1.205,4.266,2.018
			c1.316,0.812,2.408,1.849,3.277,3.109s1.303,2.9,1.303,4.917c0,1.962-0.385,3.839-1.154,5.632
			c-0.771,1.793-1.879,3.369-3.32,4.728c-1.443,1.359-3.182,2.445-5.211,3.258c-2.033,0.812-4.309,1.219-6.83,1.219
			c-2.719,0-5.121-0.483-7.207-1.45c-2.088-0.967-3.789-2.206-5.107-3.72l1.85-2.857c0.225-0.364,0.49-0.645,0.799-0.841
			c0.309-0.195,0.699-0.294,1.176-0.294c0.449,0,0.896,0.196,1.346,0.588c0.447,0.394,1.008,0.834,1.682,1.324
			c0.672,0.49,1.52,0.932,2.543,1.324c1.021,0.393,2.316,0.588,3.887,0.588c1.373,0,2.611-0.21,3.719-0.63
			c1.107-0.421,2.045-0.98,2.816-1.682c0.77-0.7,1.357-1.52,1.766-2.458c0.404-0.938,0.609-1.94,0.609-3.005
			c0-1.429-0.436-2.563-1.303-3.404c-0.869-0.841-1.963-1.541-3.279-2.102c-1.316-0.56-2.73-1.085-4.244-1.576
			c-1.514-0.489-2.928-1.12-4.244-1.891c-1.318-0.771-2.41-1.771-3.279-3.005c-0.867-1.232-1.303-2.872-1.303-4.917
			c0-1.793,0.357-3.523,1.072-5.19s1.744-3.145,3.09-4.434c1.344-1.288,2.977-2.318,4.895-3.089c1.92-0.771,4.084-1.156,6.494-1.156
			c2.549,0,4.797,0.428,6.744,1.282s3.621,2.011,5.023,3.467L496.17,707.941z"/>
	</g>
	<rect x="250.264" y="415.679" fill="#FFCE04" width="191.105" height="49.279"/>
</g>
</svg>
