<?xml version="1.0" encoding="utf-8"?>
<!-- Generator: Adobe Illustrator 16.0.3, SVG Export Plug-In . SVG Version: 6.00 Build 0)  -->
<!DOCTYPE svg PUBLIC "-//W3C//DTD SVG 1.1//EN" "http://www.w3.org/Graphics/SVG/1.1/DTD/svg11.dtd">
<svg version="1.1" id="Layer_1" xmlns="http://www.w3.org/2000/svg" xmlns:xlink="http://www.w3.org/1999/xlink" x="0px" y="0px"
	 width="600px" height="400px" viewBox="0 0 600 400" enable-background="new 0 0 600 400" xml:space="preserve">
<g>
	<polygon fill="#2B4B58" points="62.128,111.017 61.5,149.074 123.132,184.657 123.76,146.6 	"/>
	<g>
		<polygon fill="#FFFFFF" points="69.164,156.135 70.764,157.059 71.747,116.54 70.146,115.615 		"/>
		<polygon fill="#FFFFFF" points="80.368,162.604 81.97,163.528 82.952,123.01 81.352,122.085 		"/>
		<polygon fill="#FFFFFF" points="91.575,169.074 93.175,169.998 94.159,129.479 92.557,128.554 		"/>
		<polygon fill="#FFFFFF" points="102.78,175.543 104.381,176.468 105.363,135.949 103.762,135.024 		"/>
		<polygon fill="#FFFFFF" points="113.985,182.013 115.586,182.937 116.568,142.418 114.968,141.494 		"/>
	</g>
	<polygon fill="#2B4B58" points="116.656,195.873 83.556,216.233 21.926,180.651 55.032,160.279 	"/>
	<g>
		<polygon fill="#FFFFFF" points="64.528,164.161 66.128,165.087 31.53,186.196 29.929,185.272 		"/>
		<polygon fill="#FFFFFF" points="75.734,170.631 77.335,171.556 42.736,192.666 41.135,191.742 		"/>
		<polygon fill="#FFFFFF" points="86.94,177.101 88.54,178.024 53.941,199.135 52.34,198.211 		"/>
		<polygon fill="#FFFFFF" points="98.145,183.57 99.746,184.495 65.146,205.605 63.545,204.681 		"/>
		<polygon fill="#FFFFFF" points="109.351,190.04 110.952,190.964 76.353,212.074 74.752,211.149 		"/>
	</g>
	<polygon fill="#FDD51C" points="505.335,141.687 578.074,129.039 530.75,185.708 530.75,185.708 494.03,177.56 505.335,141.687 	
		"/>
	<polyline opacity="0.1" fill="#EC1E24" points="578.074,129.039 530.75,185.708 530.75,185.708 494.03,177.56 	"/>
	<polygon opacity="0.3" fill="#FFFFFF" points="505.335,141.687 578.074,129.039 502.563,150.485 505.335,141.687 	"/>
	<polyline fill="#83D3D6" points="249.758,272.705 55.032,160.279 61.5,149.074 256.234,261.505 	"/>
	<polyline fill="#83D3D6" points="307.513,277.778 489.84,172.51 496.309,183.715 313.981,288.983 	"/>
	<polyline opacity="0.15" fill="#69A3A3" points="249.758,272.705 55.032,160.279 58.266,154.676 253,267.106 	"/>
	<polyline opacity="0.15" fill="#69A3A3" points="310.747,283.38 493.23,178.022 496.466,183.625 313.981,288.983 	"/>
	
		<rect x="484.787" y="168.318" transform="matrix(-0.5 -0.866 0.866 -0.5 587.2852 694.1815)" fill="#2B4B58" width="18.486" height="18.485"/>
	
		<rect x="48.596" y="149.131" transform="matrix(0.5 -0.866 0.866 0.5 -104.8214 124.1068)" fill="#FDD51C" width="12.938" height="7.393"/>
	
		<rect x="489.487" y="170.628" transform="matrix(-0.866 0.5001 -0.5001 -0.866 1004.3372 90.5925)" fill="#FFFFFF" width="1.085" height="18.485"/>
	
		<rect x="493.489" y="168.317" transform="matrix(-0.8658 0.5004 -0.5004 -0.8658 1010.6129 84.0786)" fill="#FFFFFF" width="1.085" height="18.486"/>
	
		<rect x="497.488" y="166.008" transform="matrix(-0.8662 0.4996 -0.4996 -0.8662 1017.0079 78.2345)" fill="#FFFFFF" width="1.087" height="18.485"/>
	
		<rect x="491.72" y="172.32" transform="matrix(-0.5 -0.866 0.866 -0.5 587.262 702.1904)" opacity="0.2" fill="#15272D" width="9.243" height="18.485"/>
	
		<rect x="50.213" y="151.932" transform="matrix(0.5 -0.866 0.866 0.5 -108.0561 124.1069)" opacity="0.19" fill="#EC1E24" width="6.469" height="7.393"/>
	<polygon opacity="0.2" fill="#15272D" points="100.334,205.661 83.556,216.233 21.926,180.651 38.709,170.067 	"/>
	<polygon opacity="0.2" fill="#15272D" points="61.691,132.109 61.5,149.074 123.132,184.657 123.322,167.691 	"/>
</g>
</svg>
