<?xml version="1.0" encoding="utf-8"?>
<!-- Generator: Adobe Illustrator 16.0.3, SVG Export Plug-In . SVG Version: 6.00 Build 0)  -->
<!DOCTYPE svg PUBLIC "-//W3C//DTD SVG 1.1//EN" "http://www.w3.org/Graphics/SVG/1.1/DTD/svg11.dtd">
<svg version="1.1" id="Layer_1" xmlns="http://www.w3.org/2000/svg" xmlns:xlink="http://www.w3.org/1999/xlink" x="0px" y="0px"
	 width="600px" height="400px" viewBox="0 0 600 400" enable-background="new 0 0 600 400" xml:space="preserve">
<rect x="150.89" y="260.884" fill="#EC6057" width="351.488" height="16.285"/>
<rect x="77.605" y="264.503" fill="#CC4040" width="58.356" height="9.049"/>
<rect id="shadow_7_" x="77.605" y="264.503" opacity="0.2" fill="#9B1620" width="58.356" height="4.523"/>
<rect x="92.534" y="260.884" fill="#FCD331" width="58.356" height="16.285"/>
<g id="details_1_">
	<rect x="114.247" y="260.884" fill="#FFFFFF" width="1.357" height="16.285"/>
	<rect x="121.033" y="260.884" fill="#FFFFFF" width="1.357" height="16.285"/>
	<rect x="127.819" y="260.884" fill="#FFFFFF" width="1.357" height="16.285"/>
	<rect x="134.604" y="260.884" fill="#FFFFFF" width="1.357" height="16.285"/>
	<rect x="141.39" y="260.884" fill="#FFFFFF" width="1.357" height="16.285"/>
	<rect x="107.462" y="260.884" fill="#FFFFFF" width="1.357" height="16.285"/>
	<rect x="100.677" y="260.884" fill="#FFFFFF" width="1.357" height="16.285"/>
</g>
<rect x="494.214" y="260.884" fill="#CC4040" width="8.164" height="16.285"/>
<rect id="shado_x3C_" x="92.534" y="260.884" opacity="0.19" fill="#EC1E24" width="409.844" height="7.916"/>
<path opacity="0.1" fill="#FFFFFF" d="M240.985,127.039h102.46c3.351,0,6.066,2.716,6.066,6.066c0,3.352-2.716,6.149-6.066,6.149
	h-6.767v0.057c-0.374-0.029-0.749-0.057-1.131-0.057c-7.868,0-14.247,6.379-14.247,14.248c0,7.869,6.379,14.248,14.247,14.248
	c0.382,0,0.757-0.028,1.131-0.057v0.059h115.62v0c7.869,0,14.248-6.379,14.248-14.248c0-7.869-6.379-14.248-14.248-14.248v-0.001
	h-63.558v-0.026c-0.169,0.014-0.339,0.026-0.512,0.026c-3.351,0-6.066-2.798-6.066-6.149c0-3.35,2.716-6.066,6.066-6.066
	c0.173,0,0.343,0.012,0.512,0.026v-0.026h7.877v-0.002c7.869-0.001,14.248-6.379,14.248-14.248c0-7.869-6.379-14.249-14.248-14.249
	H322.41c-3.351,0-6.065-2.797-6.065-6.149c0-3.349,2.715-6.065,6.065-6.065h14.556v0c7.869,0,14.249-6.38,14.249-14.248
	c0-7.869-6.38-14.248-14.249-14.248v-0.001H187.398v0.057c-0.375-0.029-0.749-0.057-1.13-0.057c-7.869,0-14.248,6.38-14.248,14.249
	c0,7.868,6.378,14.248,14.248,14.248c0.381,0,0.756-0.028,1.13-0.057v0.059h13.552c3.35,0,6.066,2.716,6.066,6.065
	c0,3.352-2.716,6.149-6.066,6.149h-61.051v0.002h-0.001c-7.868,0-14.248,6.379-14.248,14.248c0,7.868,6.379,14.248,14.248,14.248
	h0.001h6.767"/>
<path opacity="0.1" fill="#FFFFFF" d="M579.383,62.38L579.383,62.38l-20.729-0.001v-0.012c-0.076,0.003-0.151,0.012-0.229,0.012
	c-2.496,0-4.521-2.084-4.521-4.582c0-2.496,2.024-4.52,4.521-4.52c0.077,0,0.152,0.008,0.229,0.012v-0.012h5.562v-0.054
	c5.366-0.531,9.56-5.057,9.56-10.563s-4.193-10.032-9.56-10.562v-0.054H452.773v0.001h-0.001c-5.862,0-10.615,4.753-10.615,10.616
	s4.753,10.616,10.615,10.616h0.001h35.376c2.497,0,4.521,2.024,4.521,4.52c0,2.498-2.023,4.582-4.521,4.582H467.94v0.042
	c-0.278-0.022-0.558-0.042-0.842-0.042c-5.862,0-10.615,4.753-10.615,10.616s4.753,10.616,10.615,10.616
	c0.284,0,0.563-0.021,0.842-0.042v0.044h111.442v-0.001c5.863,0,10.617-4.753,10.617-10.615C590,67.133,585.246,62.38,579.383,62.38
	z"/>
<polygon fill="#2B4B58" points="432.186,260.206 404.139,260.206 390.568,209.09 445.757,209.09 "/>
<polygon opacity="0.2" fill="#15272D" points="417.783,260.884 404.139,260.206 390.568,209.09 417.783,209.09 "/>
<rect x="389.324" y="207.506" fill="#83D3D6" width="57.676" height="6.05"/>
<rect x="386.27" y="258.623" fill="#2B4B58" width="64.049" height="20.354"/>
<rect x="384.009" y="258.623" opacity="0.97" fill="#83D3D6" width="2.677" height="20.354"/>
<rect x="450.318" y="258.623" opacity="0.97" fill="#83D3D6" width="2.677" height="20.354"/>
<rect x="384.009" y="258.623" opacity="0.2" fill="#15272D" width="68.986" height="10.177"/>
<rect x="389.324" y="207.506" opacity="0.1" fill="#15272D" width="28.459" height="6.05"/>
<g id="feather_3_">
	<g>
		<path fill="#FFCA12" d="M201.022,336.811l-1.709,8.759c0.777,0.559,1.563,1.086,2.345,1.578l0.416-8.179l2.555,9.905
			c2.184,1.173,4.269,2.098,6.054,2.802l-0.362-4.687l1.308,5.05c2.731,1.024,4.547,1.473,4.547,1.473s0.953-2.104,1.953-5.445
			l-3.838-5.679l4.41,3.639c0.376-1.439,0.731-3.036,1.023-4.743l-6.586-6.004l7.018,2.893c0.599-5.678,0.251-12.143-2.569-17.95
			c-1.586-3.271-3.97-6.351-6.71-9.16l-9.907-1.899l7.27-0.637c-0.511-0.463-1.033-0.916-1.554-1.36l-4.662-0.573l3.091-0.72
			c-8.437-6.764-17.415-11.01-17.415-11.01s-5.631,24.599,1.443,39.169c1.965,4.047,4.922,7.345,8.169,10.003L201.022,336.811z"/>
	</g>
	<g>
		<g>
			<defs>
				<path id="SVGID_1_" d="M201.022,336.811l-1.709,8.759c0.777,0.559,1.563,1.086,2.345,1.578l0.416-8.179l2.555,9.905
					c2.184,1.173,4.269,2.098,6.054,2.802l-0.362-4.687l1.308,5.05c2.731,1.024,4.547,1.473,4.547,1.473s0.953-2.104,1.953-5.445
					l-3.838-5.679l4.41,3.639c0.376-1.439,0.731-3.036,1.023-4.743l-6.586-6.004l7.018,2.893c0.599-5.678,0.251-12.143-2.569-17.95
					c-1.586-3.271-3.97-6.351-6.71-9.16l-9.907-1.899l7.27-0.637c-0.511-0.463-1.033-0.916-1.554-1.36l-4.662-0.573l3.091-0.72
					c-8.437-6.764-17.415-11.01-17.415-11.01s-5.631,24.599,1.443,39.169c1.965,4.047,4.922,7.345,8.169,10.003L201.022,336.811z"/>
			</defs>
			<clipPath id="SVGID_2_">
				<use xlink:href="#SVGID_1_"  overflow="visible"/>
			</clipPath>
		</g>
		<g>
			<defs>
				<path id="SVGID_3_" d="M201.022,336.811l-1.709,8.759c0.777,0.559,1.563,1.086,2.345,1.578l0.416-8.179l2.555,9.905
					c2.184,1.173,4.269,2.098,6.054,2.802l-0.362-4.687l1.308,5.05c2.731,1.024,4.547,1.473,4.547,1.473s0.953-2.104,1.953-5.445
					l-3.838-5.679l4.41,3.639c0.376-1.439,0.731-3.036,1.023-4.743l-6.586-6.004l7.018,2.893c0.599-5.678,0.251-12.143-2.569-17.95
					c-1.586-3.271-3.97-6.351-6.71-9.16l-9.907-1.899l7.27-0.637c-0.511-0.463-1.033-0.916-1.554-1.36l-4.662-0.573l3.091-0.72
					c-8.437-6.764-17.415-11.01-17.415-11.01s-5.631,24.599,1.443,39.169c1.965,4.047,4.922,7.345,8.169,10.003L201.022,336.811z"/>
			</defs>
			<use xlink:href="#SVGID_3_"  overflow="visible" fill="#EC6057"/>
			<clipPath id="SVGID_4_">
				<use xlink:href="#SVGID_3_"  overflow="visible"/>
			</clipPath>
			<g opacity="0.19" clip-path="url(#SVGID_4_)">
				<path fill="#EC1E24" d="M201.022,336.811l-1.709,8.759c0.777,0.559,1.563,1.086,2.345,1.578l0.416-8.179l2.555,9.905
					c2.184,1.173,4.269,2.098,6.054,2.802l-0.362-4.687l1.308,5.05c2.731,1.024,4.547,1.473,4.547,1.473l-28.476-58.649
					c0,0-5.631,24.599,1.443,39.169c1.965,4.047,4.922,7.345,8.169,10.003L201.022,336.811z"/>
			</g>
			<g clip-path="url(#SVGID_4_)">
				<polygon fill="#83D3D6" points="201.463,323.347 223.771,323.423 227.801,331.724 204.92,330.47 				"/>
			</g>
			<polygon clip-path="url(#SVGID_4_)" fill="#FFCA12" points="191.462,302.751 213.771,302.826 220.657,317.012 197.779,315.759 
							"/>
			<g display="none" clip-path="url(#SVGID_4_)">
				<polyline display="inline" fill="#EC6057" points="168.925,349.235 165.323,341.816 142.431,341.098 128.264,358.726 
					132.294,367.026 				"/>
			</g>
			<polygon clip-path="url(#SVGID_4_)" fill="#FFCA12" points="198.972,317.283 185.668,335.745 189.268,343.161 202.433,324.408 
							"/>
			<g clip-path="url(#SVGID_4_)">
				<polygon fill="#83D3D6" points="192.543,304.043 179.523,323.092 182.124,328.449 195.288,309.694 				"/>
			</g>
			
				<ellipse transform="matrix(-0.8996 0.4368 -0.4368 -0.8996 565.7966 577.641)" clip-path="url(#SVGID_4_)" fill="#FFCA12" cx="216.493" cy="353.864" rx="13.358" ry="8.942"/>
		</g>
		<g>
			<defs>
				<path id="SVGID_5_" d="M201.022,336.811l-1.709,8.759c0.777,0.559,1.563,1.086,2.345,1.578l0.416-8.179l2.555,9.905
					c2.184,1.173,4.269,2.098,6.054,2.802l-0.362-4.687l1.308,5.05c2.731,1.024,4.547,1.473,4.547,1.473s0.953-2.104,1.953-5.445
					l-3.838-5.679l4.41,3.639c0.376-1.439,0.731-3.036,1.023-4.743l-6.586-6.004l7.018,2.893c0.599-5.678,0.251-12.143-2.569-17.95
					c-1.586-3.271-3.97-6.351-6.71-9.16l-9.907-1.899l7.27-0.637c-0.511-0.463-1.033-0.916-1.554-1.36l-4.662-0.573l3.091-0.72
					c-8.437-6.764-17.415-11.01-17.415-11.01s-5.631,24.599,1.443,39.169c1.965,4.047,4.922,7.345,8.169,10.003L201.022,336.811z"/>
			</defs>
			<clipPath id="SVGID_6_">
				<use xlink:href="#SVGID_5_"  overflow="visible"/>
			</clipPath>
		</g>
	</g>
	<g>
		<g>
			<path fill="#2B4B58" d="M183.789,288.004c7.287,15.007,14.574,30.014,21.86,45.02c0.294,0.605,1.192,0.076,0.9-0.525
				c-7.287-15.007-14.574-30.014-21.86-45.02C184.395,286.873,183.497,287.402,183.789,288.004L183.789,288.004z"/>
		</g>
	</g>
</g>
<g id="feather_2_">
	<g>
		<path fill="#FFCA12" d="M169.793,335.431l1.98,8.274c-0.652,0.662-1.313,1.292-1.976,1.889l-0.809-7.902l-1.707,10.032
			c-1.857,1.475-3.642,2.688-5.171,3.645l0.062-4.62l-0.875,5.116c-2.344,1.411-3.922,2.119-3.922,2.119s-0.95-1.905-2.012-5.009
			l3.068-6.111l-3.683,4.209c-0.406-1.344-0.81-2.847-1.158-4.466l5.464-6.84l-6.012,3.873c-0.837-5.44-0.883-11.788,1.28-17.872
			c1.219-3.424,3.146-6.785,5.402-9.938l8.61-3.341l-6.431,0.474c0.427-0.529,0.859-1.047,1.295-1.559l4.067-1.261l-2.757-0.236
			c7.053-7.86,14.718-13.352,14.718-13.352s6.29,23.117,0.862,38.378c-1.507,4.238-3.926,7.896-6.638,10.976L169.793,335.431z"/>
	</g>
	<g>
		<defs>
			<path id="SVGID_7_" d="M169.793,335.431l1.98,8.274c-0.652,0.662-1.313,1.292-1.976,1.889l-0.809-7.902l-1.707,10.032
				c-1.857,1.475-3.642,2.688-5.171,3.645l0.062-4.62l-0.875,5.116c-2.344,1.411-3.922,2.119-3.922,2.119s-0.95-1.905-2.012-5.009
				l3.068-6.111l-3.683,4.209c-0.406-1.344-0.81-2.847-1.158-4.466l5.464-6.84l-6.012,3.873c-0.837-5.44-0.883-11.788,1.28-17.872
				c1.219-3.424,3.146-6.785,5.402-9.938l8.61-3.341l-6.431,0.474c0.427-0.529,0.859-1.047,1.295-1.559l4.067-1.261l-2.757-0.236
				c7.053-7.86,14.718-13.352,14.718-13.352s6.29,23.117,0.862,38.378c-1.507,4.238-3.926,7.896-6.638,10.976L169.793,335.431z"/>
		</defs>
		<use xlink:href="#SVGID_7_"  overflow="visible" fill="#FFCA12"/>
		<clipPath id="SVGID_8_">
			<use xlink:href="#SVGID_7_"  overflow="visible"/>
		</clipPath>
		<g display="none" clip-path="url(#SVGID_8_)">
			<polyline display="inline" fill="#FFCA12" points="71.38,352.905 74.144,345.138 94.236,340.988 107.657,356.021 
				104.566,364.718 			"/>
		</g>
		<g opacity="0.19" clip-path="url(#SVGID_8_)">
			<path fill="#EC1E24" d="M157.375,353.983c0,0-0.95-1.905-2.012-5.009l3.068-6.111l-3.683,4.209
				c-0.406-1.344-0.81-2.847-1.158-4.466l5.464-6.84l-6.012,3.873c-0.837-5.44-0.883-11.788,1.28-17.872
				c1.219-3.424,3.146-6.785,5.402-9.938l8.61-3.341l-6.431,0.474c0.427-0.529,0.859-1.047,1.295-1.559l4.067-1.261l-2.757-0.236
				c7.053-7.86,14.718-13.352,14.718-13.352L157.375,353.983z"/>
		</g>
		<polygon clip-path="url(#SVGID_8_)" fill="#EC6057" points="168.673,322.381 149.058,325.817 145.966,334.511 166.019,329.841 		
			"/>
		<polygon clip-path="url(#SVGID_8_)" fill="#2B4B58" points="176.347,300.81 156.73,304.246 151.448,319.104 171.497,314.432 		"/>
		<polygon clip-path="url(#SVGID_8_)" fill="#2B4B58" points="170.534,316.098 183.241,332.079 180.475,339.847 167.879,323.56 		
			"/>
		<polygon clip-path="url(#SVGID_8_)" fill="#EC6057" points="175.465,302.231 187.955,318.824 185.958,324.438 173.359,308.15 		
			"/>
		<path clip-path="url(#SVGID_8_)" fill="#2B4B58" d="M168.001,358.246c1.656-4.651-1.878-10.159-7.889-12.294
			c-6.01-2.141-12.226-0.102-13.881,4.551c-1.655,4.65,1.878,10.154,7.89,12.295C160.132,364.935,166.345,362.896,168.001,358.246z"
			/>
	</g>
	<g>
		<g>
			<path fill="#2B4B58" d="M181.377,284.96c-5.591,15.717-11.183,31.435-16.774,47.151c-0.226,0.635,0.781,0.906,1.005,0.277
				c5.591-15.717,11.183-31.435,16.774-47.151C182.608,284.603,181.601,284.331,181.377,284.96L181.377,284.96z"/>
		</g>
	</g>
</g>
<rect x="181.748" y="260.884" fill="#FCD331" width="1.726" height="16.285"/>
<g>
	<path fill="#FCD331" d="M187.795,280.111c0,1.376-1.126,2.502-2.502,2.502h-5.172c-1.376,0-2.502-1.126-2.502-2.502v-0.44
		c0-1.376,1.126-2.502,2.502-2.502h5.172c1.376,0,2.502,1.126,2.502,2.502V280.111z"/>
</g>
<g>
	<path fill="#83D3D6" d="M187.795,285.553c0,1.376-1.126,2.502-2.502,2.502h-5.172c-1.376,0-2.502-1.126-2.502-2.502v-0.438
		c0-1.376,1.126-2.502,2.502-2.502h5.172c1.376,0,2.502,1.126,2.502,2.502V285.553z"/>
</g>
<g opacity="0.19">
	<path fill="#EC1E24" d="M182.708,282.613h-2.586c-1.376,0-2.502-1.126-2.502-2.502v-0.44c0-1.376,1.126-2.502,2.502-2.502h2.586"/>
</g>
<g opacity="0.1">
	<path fill="#15272D" d="M182.612,288.055c0,0-1.124,0-2.497,0c-1.373,0-2.496-1.126-2.496-2.502v-0.438
		c0-1.376,1.126-2.502,2.502-2.502h2.586"/>
</g>
<g id="feather_20_">
	<g>
		<defs>
			<path id="SVGID_9_" d="M370.745,335.555l-1.72,8.812c0.782,0.562,1.572,1.09,2.358,1.586l0.418-8.226l2.571,9.962
				c2.197,1.18,4.294,2.111,6.089,2.818l-0.362-4.713l1.315,5.078c2.746,1.03,4.572,1.481,4.572,1.481s0.959-2.115,1.965-5.478
				l-3.859-5.711l4.435,3.66c0.379-1.448,0.736-3.056,1.029-4.771l-6.625-6.04l7.059,2.909c0.604-5.711,0.253-12.215-2.584-18.057
				c-1.595-3.288-3.993-6.387-6.748-9.214l-9.967-1.911l7.313-0.64c-0.514-0.466-1.039-0.919-1.563-1.368l-4.689-0.577l3.109-0.723
				c-8.486-6.805-17.518-11.075-17.518-11.075s-5.663,24.744,1.452,39.4c1.978,4.069,4.951,7.388,8.217,10.061L370.745,335.555z"/>
		</defs>
		<use xlink:href="#SVGID_9_"  overflow="visible" fill="#FFCA12"/>
		<clipPath id="SVGID_10_">
			<use xlink:href="#SVGID_9_"  overflow="visible"/>
		</clipPath>
		<polygon opacity="0.97" clip-path="url(#SVGID_10_)" fill="#83D3D6" points="371.19,322.011 393.63,322.089 397.683,330.437 
			374.667,329.176 		"/>
		<polygon clip-path="url(#SVGID_10_)" fill="#EC6057" points="361.129,301.295 383.569,301.371 390.497,315.641 367.483,314.379 		
			"/>
		<g display="none" clip-path="url(#SVGID_10_)">
			<polyline display="inline" fill="#FFCA12" points="406.601,348.053 402.978,340.59 379.95,339.868 365.699,357.6 
				369.755,365.948 			"/>
		</g>
		<polygon clip-path="url(#SVGID_10_)" fill="#EC6057" points="368.684,315.914 355.301,334.482 358.923,341.943 372.164,323.081 		
			"/>
		<polygon opacity="0.97" clip-path="url(#SVGID_10_)" fill="#83D3D6" points="362.218,302.595 349.121,321.755 351.735,327.145 
			364.977,308.281 		"/>
		
			<ellipse transform="matrix(-0.8996 0.4367 -0.4367 -0.8996 887.8651 501.2905)" clip-path="url(#SVGID_10_)" fill="#FFCA12" cx="386.307" cy="352.709" rx="13.437" ry="8.994"/>
	</g>
	<g>
		<g>
			<path fill="#2B4B58" d="M353.414,286.458c7.329,15.096,14.659,30.19,21.988,45.285c0.294,0.605,1.192,0.076,0.9-0.525
				c-7.329-15.096-14.659-30.19-21.988-45.285C354.021,285.327,353.122,285.856,353.414,286.458L353.414,286.458z"/>
		</g>
	</g>
	<g opacity="0.19">
		<defs>
			<path id="SVGID_11_" opacity="0.19" d="M370.745,335.555l-1.72,8.812c0.782,0.562,1.572,1.09,2.358,1.586l0.418-8.226
				l2.571,9.962c2.197,1.18,4.294,2.111,6.089,2.818l-0.362-4.713l1.315,5.078c2.746,1.03,4.572,1.481,4.572,1.481l-28.644-58.994
				c0,0-5.663,24.744,1.452,39.4c1.978,4.069,4.951,7.388,8.217,10.061L370.745,335.555z"/>
		</defs>
		<use xlink:href="#SVGID_11_"  overflow="visible" fill="#EC1E24"/>
		<clipPath id="SVGID_12_">
			<use xlink:href="#SVGID_11_"  overflow="visible"/>
		</clipPath>
		<polygon opacity="0.97" clip-path="url(#SVGID_12_)" fill="#EC1E24" points="371.19,322.011 393.63,322.089 397.683,330.437 
			374.667,329.176 		"/>
		<polygon clip-path="url(#SVGID_12_)" fill="#EC1E24" points="361.129,301.295 383.569,301.371 390.497,315.641 367.483,314.379 		
			"/>
		<g display="none" clip-path="url(#SVGID_12_)">
			<polyline display="inline" fill="#EC1E24" points="406.601,348.053 402.978,340.59 379.95,339.868 365.699,357.6 
				369.755,365.948 			"/>
		</g>
		<polygon clip-path="url(#SVGID_12_)" fill="#EC1E24" points="368.684,315.914 355.301,334.482 358.923,341.943 372.164,323.081 		
			"/>
		<polygon opacity="0.97" clip-path="url(#SVGID_12_)" fill="#EC1E24" points="362.218,302.595 349.121,321.755 351.735,327.145 
			364.977,308.281 		"/>
		
			<ellipse transform="matrix(-0.8996 0.4367 -0.4367 -0.8996 887.8651 501.2905)" clip-path="url(#SVGID_12_)" fill="#EC1E24" cx="386.307" cy="352.709" rx="13.437" ry="8.994"/>
	</g>
</g>
<g id="feather_19_">
	<g opacity="0.97">
		<g>
			<defs>
				<path id="SVGID_13_" d="M339.333,334.169l1.992,8.321c-0.656,0.665-1.32,1.3-1.987,1.899l-0.813-7.947l-1.718,10.091
					c-1.87,1.482-3.664,2.704-5.203,3.665l0.062-4.647l-0.88,5.146c-2.358,1.421-3.946,2.133-3.946,2.133s-0.953-1.917-2.022-5.037
					l3.086-6.148l-3.703,4.235c-0.41-1.354-0.814-2.864-1.166-4.494l5.497-6.881l-6.048,3.896
					c-0.842-5.472-0.888-11.856,1.288-17.977c1.227-3.443,3.164-6.826,5.434-9.996l8.662-3.36l-6.47,0.478
					c0.43-0.533,0.863-1.055,1.302-1.569l4.093-1.267l-2.774-0.239c7.095-7.907,14.805-13.431,14.805-13.431
					s6.328,23.254,0.868,38.604c-1.517,4.263-3.949,7.942-6.678,11.039L339.333,334.169z"/>
			</defs>
			<clipPath id="SVGID_14_">
				<use xlink:href="#SVGID_13_"  overflow="visible"/>
			</clipPath>
			<g clip-path="url(#SVGID_14_)">
				<defs>
					<path id="SVGID_15_" d="M326.84,352.829c0,0-0.953-1.917-2.022-5.037l3.086-6.148l-3.703,4.235
						c-0.41-1.354-0.814-2.864-1.166-4.494l5.497-6.881l-6.048,3.896c-0.842-5.472-0.888-11.856,1.288-17.977
						c1.227-3.443,3.164-6.826,5.434-9.996l8.662-3.36l-6.47,0.478c0.43-0.533,0.863-1.055,1.302-1.569l4.093-1.267l-2.774-0.239
						c7.095-7.907,14.805-13.431,14.805-13.431L326.84,352.829z"/>
				</defs>
				<clipPath id="SVGID_16_">
					<use xlink:href="#SVGID_15_"  overflow="visible"/>
				</clipPath>
			</g>
		</g>
		<g>
			<defs>
				<path id="SVGID_17_" d="M339.333,334.169l1.992,8.321c-0.656,0.665-1.32,1.3-1.987,1.899l-0.813-7.947l-1.718,10.091
					c-1.87,1.482-3.664,2.704-5.203,3.665l0.062-4.647l-0.88,5.146c-2.358,1.421-3.946,2.133-3.946,2.133s-0.953-1.917-2.022-5.037
					l3.086-6.148l-3.703,4.235c-0.41-1.354-0.814-2.864-1.166-4.494l5.497-6.881l-6.048,3.896
					c-0.842-5.472-0.888-11.856,1.288-17.977c1.227-3.443,3.164-6.826,5.434-9.996l8.662-3.36l-6.47,0.478
					c0.43-0.533,0.863-1.055,1.302-1.569l4.093-1.267l-2.774-0.239c7.095-7.907,14.805-13.431,14.805-13.431
					s6.328,23.254,0.868,38.604c-1.517,4.263-3.949,7.942-6.678,11.039L339.333,334.169z"/>
			</defs>
			<use xlink:href="#SVGID_17_"  overflow="visible" fill="#83D3D6"/>
			<clipPath id="SVGID_18_">
				<use xlink:href="#SVGID_17_"  overflow="visible"/>
			</clipPath>
			<g opacity="0.2" clip-path="url(#SVGID_18_)">
				<defs>
					<path id="SVGID_19_" opacity="0.2" d="M326.84,352.829c0,0-0.953-1.917-2.022-5.037l3.086-6.148l-3.703,4.235
						c-0.41-1.354-0.814-2.864-1.166-4.494l5.497-6.881l-6.048,3.896c-0.842-5.472-0.888-11.856,1.288-17.977
						c1.227-3.443,3.164-6.826,5.434-9.996l8.662-3.36l-6.47,0.478c0.43-0.533,0.863-1.055,1.302-1.569l4.093-1.267l-2.774-0.239
						c7.095-7.907,14.805-13.431,14.805-13.431L326.84,352.829z"/>
				</defs>
				<use xlink:href="#SVGID_19_"  overflow="visible" fill="#15272D"/>
				<clipPath id="SVGID_20_">
					<use xlink:href="#SVGID_19_"  overflow="visible"/>
				</clipPath>
				<polygon clip-path="url(#SVGID_20_)" fill="#15272D" points="338.206,321.041 318.475,324.498 315.365,333.242 335.537,328.544 
									"/>
				<polygon clip-path="url(#SVGID_20_)" fill="#15272D" points="345.925,299.342 326.193,302.8 320.879,317.743 341.047,313.045 
									"/>
				<g display="none" clip-path="url(#SVGID_20_)">
					<polyline display="inline" fill="#15272D" points="308.48,351.744 311.263,343.932 331.472,339.759 344.972,354.88 
						341.864,363.627 					"/>
				</g>
				<polygon clip-path="url(#SVGID_20_)" fill="#15272D" points="340.077,314.722 352.859,330.795 350.078,338.608 337.406,322.226 
									"/>
				<polygon clip-path="url(#SVGID_20_)" fill="#15272D" points="345.038,300.771 357.602,317.463 355.592,323.11 342.92,306.727 
									"/>
				<path clip-path="url(#SVGID_20_)" fill="#15272D" d="M337.53,357.116c1.666-4.679-1.889-10.218-7.935-12.366
					c-6.045-2.152-12.298-0.102-13.962,4.578c-1.666,4.679,1.888,10.213,7.936,12.367
					C329.615,363.844,335.864,361.794,337.53,357.116z"/>
			</g>
			<polygon clip-path="url(#SVGID_18_)" fill="#2B4B58" points="338.206,321.041 318.475,324.498 315.365,333.242 335.537,328.544 
							"/>
			<polygon clip-path="url(#SVGID_18_)" fill="#FFCA12" points="345.925,299.342 326.193,302.8 320.879,317.743 341.047,313.045 			
				"/>
			<g display="none" clip-path="url(#SVGID_18_)">
				<polyline display="inline" fill="#83D3D6" points="308.48,351.744 311.263,343.932 331.472,339.759 344.972,354.88 
					341.864,363.627 				"/>
			</g>
			<polygon clip-path="url(#SVGID_18_)" fill="#FFCA12" points="340.077,314.722 352.859,330.795 350.078,338.608 337.406,322.226 
							"/>
			<polygon clip-path="url(#SVGID_18_)" fill="#2B4B58" points="345.038,300.771 357.602,317.463 355.592,323.11 342.92,306.727 			
				"/>
			<path clip-path="url(#SVGID_18_)" fill="#FFCA12" d="M337.53,357.116c1.666-4.679-1.889-10.218-7.935-12.366
				c-6.045-2.152-12.298-0.102-13.962,4.578c-1.666,4.679,1.888,10.213,7.936,12.367
				C329.615,363.844,335.864,361.794,337.53,357.116z"/>
		</g>
		<g>
			<defs>
				<path id="SVGID_21_" d="M339.333,334.169l1.992,8.321c-0.656,0.665-1.32,1.3-1.987,1.899l-0.813-7.947l-1.718,10.091
					c-1.87,1.482-3.664,2.704-5.203,3.665l0.062-4.647l-0.88,5.146c-2.358,1.421-3.946,2.133-3.946,2.133s-0.953-1.917-2.022-5.037
					l3.086-6.148l-3.703,4.235c-0.41-1.354-0.814-2.864-1.166-4.494l5.497-6.881l-6.048,3.896
					c-0.842-5.472-0.888-11.856,1.288-17.977c1.227-3.443,3.164-6.826,5.434-9.996l8.662-3.36l-6.47,0.478
					c0.43-0.533,0.863-1.055,1.302-1.569l4.093-1.267l-2.774-0.239c7.095-7.907,14.805-13.431,14.805-13.431
					s6.328,23.254,0.868,38.604c-1.517,4.263-3.949,7.942-6.678,11.039L339.333,334.169z"/>
			</defs>
			<clipPath id="SVGID_22_">
				<use xlink:href="#SVGID_21_"  overflow="visible"/>
			</clipPath>
			<g clip-path="url(#SVGID_22_)">
				<defs>
					<path id="SVGID_23_" d="M326.84,352.829c0,0-0.953-1.917-2.022-5.037l3.086-6.148l-3.703,4.235
						c-0.41-1.354-0.814-2.864-1.166-4.494l5.497-6.881l-6.048,3.896c-0.842-5.472-0.888-11.856,1.288-17.977
						c1.227-3.443,3.164-6.826,5.434-9.996l8.662-3.36l-6.47,0.478c0.43-0.533,0.863-1.055,1.302-1.569l4.093-1.267l-2.774-0.239
						c7.095-7.907,14.805-13.431,14.805-13.431L326.84,352.829z"/>
				</defs>
				<clipPath id="SVGID_24_">
					<use xlink:href="#SVGID_23_"  overflow="visible"/>
				</clipPath>
			</g>
		</g>
	</g>
	<g>
		<g>
			<path fill="#2B4B58" d="M350.987,283.399c-5.624,15.81-11.248,31.62-16.873,47.43c-0.226,0.635,0.782,0.906,1.006,0.277
				c5.624-15.81,11.248-31.62,16.873-47.43C352.219,283.042,351.211,282.771,350.987,283.399L350.987,283.399z"/>
		</g>
	</g>
</g>
<rect x="351.387" y="260.884" fill="#FCD331" width="1.725" height="16.285"/>
<g>
	<path fill="#CC4040" d="M357.434,280.111c0,1.376-1.126,2.502-2.502,2.502h-5.173c-1.376,0-2.502-1.126-2.502-2.502v-0.44
		c0-1.376,1.126-2.502,2.502-2.502h5.173c1.376,0,2.502,1.126,2.502,2.502V280.111z"/>
</g>
<g>
	<path fill="#FCD331" d="M357.434,285.553c0,1.376-1.126,2.502-2.502,2.502h-5.173c-1.376,0-2.502-1.126-2.502-2.502v-0.438
		c0-1.376,1.126-2.502,2.502-2.502h5.173c1.376,0,2.502,1.126,2.502,2.502V285.553z"/>
</g>
<g opacity="0.2">
	<path fill="#9B1620" d="M352.42,282.613h-2.661c-1.376,0-2.502-1.126-2.502-2.502v-0.44c0-1.376,1.126-2.502,2.502-2.502h2.661"/>
</g>
<g opacity="0.19">
	<path fill="#EC1E24" d="M352.42,288.055h-2.661c-1.376,0-2.502-1.126-2.502-2.502v-0.438c0-1.376,1.126-2.502,2.502-2.502h2.661"/>
</g>
</svg>
