<?xml version="1.0" encoding="utf-8"?>
<!-- Generator: Adobe Illustrator 16.0.3, SVG Export Plug-In . SVG Version: 6.00 Build 0)  -->
<!DOCTYPE svg PUBLIC "-//W3C//DTD SVG 1.1//EN" "http://www.w3.org/Graphics/SVG/1.1/DTD/svg11.dtd">
<svg version="1.1" id="Layer_1" xmlns="http://www.w3.org/2000/svg" xmlns:xlink="http://www.w3.org/1999/xlink" x="0px" y="0px"
	 width="60px" height="60px" viewBox="0 0 60 60" enable-background="new 0 0 60 60" xml:space="preserve">
<rect fill="#FFFFFF" width="60" height="60"/>
<path fill="#2B4B58" d="M36.236,29.568h-1.334l2.724-1.79c3.801-5.292,5.14-10.544,5.14-10.544s-8.013,2.043-14.212,8.242
	c-2.753,2.754-5.008,5.536-6.522,7.927H22.03l-0.001,0.004l-0.215,4.356l-1.674,1.673l-2.906,2.907l0.211,0.212l0.212,0.211
	l2.906-2.906l1.674-1.677l4.355-0.212h0.005v-0.002c2.391-1.515,5.173-3.771,7.927-6.523C35.135,30.835,35.705,30.204,36.236,29.568
	z"/>
</svg>
