<?xml version="1.0" encoding="utf-8"?>
<!-- Generator: Adobe Illustrator 16.0.3, SVG Export Plug-In . SVG Version: 6.00 Build 0)  -->
<!DOCTYPE svg PUBLIC "-//W3C//DTD SVG 1.1//EN" "http://www.w3.org/Graphics/SVG/1.1/DTD/svg11.dtd">
<svg version="1.1" id="Layer_1" xmlns="http://www.w3.org/2000/svg" xmlns:xlink="http://www.w3.org/1999/xlink" x="0px" y="0px"
	 width="690.718px" height="891.29px" viewBox="0 0 690.718 891.29" enable-background="new 0 0 690.718 891.29"
	 xml:space="preserve">
<polygon fill="#FFFFFF" points="133.273,163.382 169.138,144.785 198.36,132.83 212.971,114.234 212.971,95.638 227.583,81.027 
	240.866,66.415 240.866,58.445 252.821,39.849 266.104,39.849 266.104,53.132 274.074,47.819 283.373,57.117 283.373,67.744 
	293.998,66.415 293.998,87.668 320.564,79.698 340.489,55.789 340.489,39.849 367.055,9.298 377.464,0 389.636,10.626 
	412.216,22.581 436.126,33.208 444.096,49.146 466.678,57.117 477.303,63.758 485.273,59.774 494.573,67.744 503.871,67.744 
	513.169,81.69 531.764,95.638 554.344,116.891 568.957,139.472 576.926,148.105 566.3,163.382 592.866,179.321 608.806,193.933 
	622.087,216.513 626.073,258.134 647.77,290.013 664.594,351.557 690.718,416.202 688.062,487.931 690.718,532.207 685.405,574.713 
	679.649,596.406 661.938,611.905 633.158,632.271 620.319,632.271 582.24,613.676 560.102,632.271 549.475,662.823 537.963,724.366 
	531.322,786.356 509.183,820.447 496.343,845.685 465.792,852.328 433.027,870.038 429.042,891.29 418.859,891.29 398.047,874.908 
	371.925,877.122 343.587,876.679 334.732,871.81 322.335,877.122 290.899,866.054 251.492,844.357 223.598,808.493 197.917,776.171 
	190.391,730.122 166.038,699.128 148.327,664.594 120.876,642.013 113.791,619.431 101.836,584.01 72.172,576.481 43.392,535.747 
	40.734,495.012 48.262,456.491 50.918,425.941 36.306,395.833 0,366.609 7.36,293.755 22.582,247.062 50.918,193.929 
	74.827,170.905 110.692,166.036 "/>
</svg>
