<?xml version="1.0" encoding="utf-8"?>
<!-- Generator: Adobe Illustrator 16.0.3, SVG Export Plug-In . SVG Version: 6.00 Build 0)  -->
<!DOCTYPE svg PUBLIC "-//W3C//DTD SVG 1.1//EN" "http://www.w3.org/Graphics/SVG/1.1/DTD/svg11.dtd">
<svg version="1.1" id="Layer_1" xmlns="http://www.w3.org/2000/svg" xmlns:xlink="http://www.w3.org/1999/xlink" x="0px" y="0px"
	 width="691px" height="890.999px" viewBox="0 0 691 890.999" enable-background="new 0 0 691 890.999" xml:space="preserve">
<polygon fill="#FFFFFF" points="133.328,163.328 169.208,144.737 198.441,132.787 213.059,114.197 213.059,95.606 227.677,81 
	240.965,66.393 240.965,58.426 252.925,39.836 266.213,39.836 266.213,53.114 274.186,47.804 283.488,57.098 283.488,67.721 
	294.118,66.393 294.118,87.64 320.695,79.671 340.628,55.771 340.628,39.836 367.205,9.295 377.618,0 389.795,10.623 
	412.385,22.573 436.305,33.196 444.277,49.13 466.869,57.098 477.498,63.737 485.471,59.754 494.774,67.721 504.076,67.721 
	513.379,81.663 531.981,95.606 554.57,116.853 569.188,139.427 577.162,148.057 566.531,163.328 593.107,179.262 609.055,193.869 
	622.342,216.442 626.328,258.049 648.034,289.919 664.865,351.441 691,416.065 688.343,487.772 691,532.034 685.685,574.526 
	679.927,596.212 662.208,611.706 633.416,632.065 620.572,632.065 582.478,613.476 560.331,632.065 549.699,662.608 538.184,724.13 
	531.539,786.101 509.391,820.181 496.546,845.409 465.981,852.052 433.204,869.755 429.217,890.999 419.03,890.999 398.21,874.624 
	372.077,876.837 343.729,876.394 334.869,871.526 322.467,876.837 291.019,865.772 251.596,844.083 223.689,808.231 
	197.999,775.919 190.47,729.884 166.106,698.901 148.388,664.378 120.926,641.804 113.838,619.229 101.879,583.819 72.202,576.294 
	43.41,535.573 40.752,494.851 48.282,456.343 50.939,425.804 36.321,395.703 0,366.49 7.364,293.659 22.592,246.98 50.939,193.865 
	74.858,170.849 110.737,165.981 "/>
</svg>
