<?xml version="1.0" encoding="utf-8"?>
<!-- Generator: Adobe Illustrator 16.0.3, SVG Export Plug-In . SVG Version: 6.00 Build 0)  -->
<!DOCTYPE svg PUBLIC "-//W3C//DTD SVG 1.1//EN" "http://www.w3.org/Graphics/SVG/1.1/DTD/svg11.dtd">
<svg version="1.1" id="Layer_1" xmlns="http://www.w3.org/2000/svg" xmlns:xlink="http://www.w3.org/1999/xlink" x="0px" y="0px"
	 width="3232px" height="972px" viewBox="228.5 0 3232 972" enable-background="new 228.5 0 3232 972" xml:space="preserve">
<g>
	<g>
		<path fill="#ED5F57" d="M388.031,514.78c2.597,7.002,7.225,12.405,13.852,16.229s14.593,6.733,23.862,8.702
			c10.051,2.134,20.312,3.459,30.542,4.25c11.325,0.876,22.791,1.779,34.034,2.865c11.441,1.105,23.241,2.478,34.356,4.53
			c10.601,1.958,21.22,4.777,31.457,9.044c9.33,3.89,18.022,9.386,25.354,16.308c7.529,7.109,12.86,16.401,16.021,26.195
			c2.927,9.072,4.357,18.791,3.636,28.354c-0.693,9.205-2.915,18.019-6.603,26.372c-3.806,8.615-8.897,16.662-14.889,23.926
			c-6.346,7.694-13.536,14.701-21.362,20.891c-8.192,6.479-16.954,12.236-26.103,17.268c-9.366,5.15-19.226,9.767-29.191,13.217
			c-13.858,4.798-28.196,8.496-42.982,10.299c-13.651,1.665-27.597,1.494-41.133-1.082c-12.388-2.357-24.29-7.24-34.548-14.602
			c-10.539-7.563-18.271-18.442-22.979-30.435c-2.637-6.719-3.833-13.113-3.488-19.149c0.344-6.033,1.605-11.457,3.79-16.265
			c2.182-4.803,5.023-8.892,8.521-12.254c3.497-3.361,7.048-5.735,10.647-7.122c3.715-1.43,7.182-1.695,10.384-0.802
			c3.2,0.895,5.547,3.303,7.037,7.213c0.686,1.799,1.179,3.791,1.481,5.974c0.304,2.185,0.648,4.566,1.037,7.143
			c0.388,2.577,0.899,5.381,1.529,8.409s1.592,6.237,2.885,9.617c2.83,7.397,7.111,13.087,12.825,17.084
			c5.713,3.997,12.25,6.6,19.613,7.817c7.361,1.219,15.289,1.214,23.785-0.001s16.961-3.351,25.41-6.417
			c10.016-3.634,19.636-8.403,28.645-14.045c8.574-5.37,16.589-11.808,23.386-19.325c6.424-7.104,11.042-14.713,13.851-22.778
			c2.807-8.063,2.839-16.223,0.05-24.478c-2.569-7.608-7.115-13.662-13.654-18.131s-14.42-7.989-23.612-10.48
			c-9.953-2.698-20.186-4.448-30.46-5.468c-11.317-1.12-22.668-2.161-33.965-3.202c-11.48-1.059-23.191-2.175-34.435-3.779
			c-10.653-1.521-21.359-3.685-31.797-7.065c-9.25-2.997-18.094-7.431-25.801-13.35c-7.579-5.821-13.25-13.874-16.623-22.801
			c-3.482-9.221-4.315-19.295-2.767-29.018c1.903-11.941,7.042-21.912,13.312-31.541c7.793-11.97,19.426-21.735,30.952-30.378
			c14.908-11.178,32.641-18.785,50.18-25.164c12.419-4.517,25.839-7.109,39.167-7.957c12.524-0.796,25.708-0.166,37.411,3.199
			c10.769,3.096,20.922,7.244,30.218,14.38c8.396,6.446,14.598,15.396,17.812,25.452c1.959,6.128,2.825,12.818,2.56,20.038
			c-0.265,7.22-1.839,15.189-4.727,23.842c-2.807,8.411-6.649,15.244-11.475,20.477c-4.826,5.232-9.612,8.649-14.376,10.249
			c-3.574,1.199-6.811,1.245-9.706,0.136c-2.896-1.109-4.985-3.537-6.258-7.289c-0.943-2.785-1.345-6.323-1.195-10.615
			c0.148-4.289,1.177-9.515,2.954-15.594c1.684-5.761,2.585-11.042,2.771-15.697c0.188-4.651-0.306-8.755-1.488-12.296
			c-1.825-5.474-5.094-9.723-9.814-12.732c-4.721-3.011-10.506-4.919-17.346-5.706c-6.842-0.787-14.661-0.472-23.392,1.003
			c-9.479,1.6-18.849,4.222-27.891,7.39c-9.543,3.344-18.982,7.661-27.31,13.429c-7.26,5.03-12.956,10.354-17.061,15.771
			c-4.107,5.422-6.664,10.738-7.68,15.937C386.23,505.976,386.498,510.642,388.031,514.78z"/>
		<path fill="#ED5F57" d="M723.603,505.404c5.259,5.326,9.738,11.26,13.445,17.794s6.463,13.02,8.273,19.442
			c1.812,6.427,2.871,13.123,3.188,20.085c0.316,6.964-0.097,13.903-1.229,20.812c-1.134,6.912-3.004,13.623-5.604,20.138
			c-2.604,6.517-5.97,12.496-10.104,17.941c-4.135,5.448-8.979,10.229-14.543,14.356c-5.562,4.127-11.912,7.217-18.885,9.371
			c-8.958,2.767-18.729,3.751-27.936,1.709c-8.461-1.876-16.103-5.505-22.831-10.741c-6.729-5.235-12.516-11.712-17.337-19.439
			c-4.82-7.727-8.927-16.065-11.363-24.523c-3.36-11.661-5.38-23.428-4.739-35.088c0.59-10.743,3.149-21.764,8.352-32.159
			c5.324-10.638,12.831-18.847,21.396-26.312c9.356-8.152,21.916-14.148,34.014-17.367c10.901-2.901,21.88-4.868,33.493-4.512
			c10.7,0.328,21.378,2.004,31.665,4.997c10.159,2.956,20.018,6.954,29.374,11.898c9.175,4.849,18.093,10.188,26.675,16.024
			c1.104,9.611,1.661,14.416,2.78,24.024c-4.247-3.082-9.717-6.186-16.415-9.295c-6.7-3.11-13.719-6.006-21.046-8.682
			c-7.328-2.676-14.521-5.113-21.565-7.309c-7.045-2.195-13.096-3.981-18.139-5.371
			C724.156,504.081,723.972,504.523,723.603,505.404z M695.526,612.103c3.951-1.186,7.23-4.2,9.85-9.049
			c2.616-4.848,4.491-10.534,5.625-17.06c1.132-6.524,1.546-13.481,1.235-20.877c-0.31-7.392-1.373-14.241-3.209-20.542
			c-1.456-4.995-3.224-9.521-5.306-13.568c-2.081-4.047-4.419-7.404-7.006-10.064c-2.586-2.66-5.467-4.529-8.629-5.602
			c-3.163-1.073-6.599-1.061-10.29,0.037c-4.889,1.452-8.973,4.741-12.229,9.856c-3.258,5.118-5.646,11.134-7.166,18.04
			c-1.52,6.909-2.123,14.224-1.817,21.938c0.305,7.717,1.479,14.875,3.505,21.471c1.396,4.542,3.178,8.673,5.339,12.385
			c2.162,3.714,4.688,6.759,7.576,9.128c2.888,2.37,6.229,3.953,10.027,4.752C686.826,613.746,690.991,613.464,695.526,612.103z"/>
		<path fill="#ED5F57" d="M868.167,565.347c-0.359-1.425-0.757-3.487-1.185-6.178c-0.428-2.691-0.835-5.799-1.22-9.318
			c-0.385-3.516-0.759-7.249-1.118-11.182c-0.359-3.934-0.696-7.86-1.055-11.722c-0.909-9.78-1.703-19.668-2.266-29.522
			c-1.073,0.268-1.609,0.401-2.685,0.671c-1.021,2.005-2.041,4.887-3.06,8.641c-1.02,3.756-2.396,9.239-4.101,16.438
			c-2.203,9.306-4.305,18.646-6.361,27.983c-3.174,14.409-6.599,28.823-9.893,43.162c-1.167,5.08-3.057,8.849-5.714,11.247
			c-2.66,2.401-5.845,4.097-9.559,5.091c-4.761,1.274-8.847,1.351-12.263,0.227c-3.418-1.125-6.354-3.083-8.802-5.875
			c-2.446-2.791-4.496-6.162-6.141-10.111c-1.646-3.949-3.063-8.104-4.26-12.47c-1.225-4.474-2.382-9.846-3.466-16.119
			c-1.083-6.271-2.08-12.919-2.981-19.946c-0.901-7.022-1.688-14.228-2.357-21.608s-1.188-14.478-1.562-21.293
			c-0.373-6.813-0.562-13.094-0.565-18.834c-0.005-5.739,0.16-10.483,0.433-14.178c0.28-3.797,0.663-6.914,1.192-9.28
			c0.529-2.365,1.335-4.311,2.417-5.829c1.081-1.518,2.539-2.726,4.371-3.622c1.829-0.896,4.259-1.744,7.282-2.541
			c4.594-1.21,8.231-2.014,10.904-2.417c2.67-0.404,4.777-0.248,6.315,0.463c1.539,0.712,2.687,2.022,3.438,3.932
			c0.751,1.908,1.564,4.564,2.441,7.958c0.481,1.864,0.941,4.023,1.383,6.479c0.442,2.458,0.838,5.103,1.187,7.933
			c0.348,2.833,0.688,5.756,1.019,8.766c0.331,3.011,0.603,5.962,0.844,8.81c0.572,6.72,1.197,13.716,1.805,20.923
			c0.989,0.584,1.485,0.875,2.477,1.459c0.151-0.39,0.891-2.801,2.223-7.237c1.331-4.433,3.009-9.774,5.041-16.019
			c2.032-6.242,4.287-12.803,6.769-19.676c2.479-6.87,5.038-13.035,7.469-18.419c2.398-5.312,5.166-10.036,8.37-13.976
			c3.202-3.938,7.542-6.579,13.003-7.91c5.097-1.241,9.795-0.948,14.08,0.872c4.286,1.822,7.015,5.213,8.197,10.166
			c1.023,4.292,1.697,8.438,2.014,12.433c0.316,3.997,0.458,7.917,0.426,11.764c-0.031,3.847-0.109,7.62-0.236,11.314
			s-0.163,7.472-0.137,11.292c0.02,2.667,0.038,4.355,0.078,5.043c0.04,0.687,0.088,1.145,0.142,1.363
			c0.979,0.603,1.47,0.902,2.447,1.504c0.158-0.387,1.034-2.778,2.636-7.177c1.601-4.396,3.581-9.728,5.964-15.992
			c2.381-6.261,4.953-12.855,7.721-19.779c2.769-6.923,5.471-13.067,8.043-18.423c2.5-5.203,5.158-9.75,7.991-13.591
			c2.831-3.837,6.807-6.337,11.92-7.487c5.721-1.287,10.869-1.011,15.421,0.821c4.551,1.832,7.37,5.24,8.462,10.214
			c1.675,7.625,2.84,14.959,3.502,21.992c0.662,7.038,1.187,13.989,1.567,20.856s0.905,13.792,1.574,20.769
			c0.669,6.979,1.853,14.279,3.543,21.9c1.323,5.964,3.233,10.642,5.721,14.029c2.488,3.388,4.908,4.826,7.275,4.307
			c2.481-0.545,4.972-1.612,7.479-3.199c2.504-1.586,5.013-3.459,7.522-5.62c2.509-2.159,4.907-4.553,7.203-7.184
			c2.293-2.628,4.453-5.329,6.485-8.053c4.709-6.313,9.331-13.285,13.742-20.896c3.715,12.865,7.416,25.734,11.11,38.604
			c-4.412,4.951-8.745,10.038-13.005,15.266c-4.259,5.229-8.875,10.138-13.85,14.73c-4.978,4.596-10.625,8.708-16.945,12.351
			c-6.322,3.644-13.747,6.418-22.28,8.34c-4.211,0.948-8.039,0.454-11.496-1.482c-3.457-1.938-6.601-5.02-9.424-9.246
			c-2.824-4.228-5.349-9.394-7.565-15.498c-2.218-6.105-4.182-12.852-5.891-20.238c-1.606-6.944-3.045-14.363-4.307-22.259
			c-1.261-7.896-2.331-15.922-3.201-24.082c-1.077,0.249-1.614,0.373-2.692,0.622c-5.517,31.265-10.816,62.562-15.881,93.903
			c-1.931,5.353-4.56,9.278-7.901,11.78c-3.345,2.504-7.46,4.357-12.353,5.567c-3.729,0.922-6.938,0.7-9.631-0.666
			c-2.691-1.367-5.03-3.405-7.016-6.116c-1.982-2.709-3.637-5.823-4.958-9.339C870.115,572.209,869.024,568.75,868.167,565.347z"/>
		<path fill="#ED5F57" d="M1100.274,514.125c-0.272-1.443-0.544-3.526-0.812-6.237c-0.269-2.711-0.494-5.837-0.671-9.374
			c-0.178-3.533-0.327-7.28-0.455-11.228c-0.128-3.946-0.237-7.886-0.367-11.762c-0.33-9.817-0.546-19.731-0.523-29.602
			c-1.085,0.203-1.627,0.304-2.712,0.508c-1.134,1.939-2.317,4.756-3.552,8.441c-1.233,3.688-2.922,9.078-5.041,16.162
			c-2.739,9.157-5.377,18.353-7.97,27.55c-4.001,14.19-8.255,28.371-12.372,42.484c-1.459,5-3.559,8.648-6.342,10.883
			c-2.787,2.237-6.058,3.738-9.812,4.508c-4.811,0.984-8.882,0.815-12.216-0.512c-3.335-1.328-6.14-3.459-8.411-6.392
			c-2.271-2.933-4.11-6.419-5.517-10.459c-1.404-4.04-2.576-8.272-3.51-12.701c-0.957-4.538-1.795-9.97-2.507-16.296
			c-0.712-6.323-1.312-13.02-1.8-20.086c-0.486-7.063-0.849-14.301-1.082-21.708c-0.232-7.407-0.335-14.522-0.309-21.346
			c0.025-6.821,0.209-13.101,0.539-18.831c0.331-5.729,0.773-10.454,1.262-14.123c0.501-3.772,1.06-6.86,1.726-9.191
			c0.665-2.328,1.583-4.221,2.749-5.672c1.164-1.449,2.688-2.568,4.562-3.354c1.872-0.784,4.339-1.484,7.395-2.098
			c4.643-0.932,8.308-1.516,10.99-1.76c2.681-0.243,4.771,0.039,6.26,0.841c1.491,0.803,2.555,2.181,3.189,4.13
			c0.636,1.949,1.288,4.65,1.962,8.09c0.37,1.89,0.706,4.072,1.001,6.55c0.297,2.479,0.532,5.143,0.713,7.987
			c0.18,2.849,0.348,5.787,0.501,8.81c0.153,3.025,0.249,5.985,0.323,8.843c0.176,6.74,0.39,13.762,0.572,20.992
			c0.95,0.642,1.429,0.963,2.379,1.605c0.174-0.38,1.047-2.744,2.633-7.091c1.585-4.345,3.566-9.576,5.955-15.685
			c2.388-6.108,5.018-12.522,7.889-19.233c2.87-6.709,5.778-12.708,8.513-17.937c2.698-5.158,5.729-9.707,9.148-13.447
			c3.417-3.738,7.891-6.116,13.404-7.117c5.146-0.934,9.806-0.361,13.964,1.713c4.16,2.075,6.679,5.623,7.564,10.637
			c0.77,4.346,1.189,8.523,1.271,12.528c0.081,4.008-0.005,7.929-0.262,11.768c-0.259,3.838-0.559,7.6-0.9,11.278
			c-0.343,3.681-0.6,7.448-0.795,11.261c-0.139,2.664-0.219,4.352-0.219,5.039c0,0.689,0.019,1.147,0.059,1.369
			c0.938,0.659,1.41,0.989,2.349,1.648c0.182-0.377,1.193-2.713,3.044-7.007c1.852-4.293,4.137-9.494,6.875-15.604
			c2.736-6.106,5.684-12.536,8.844-19.28s6.213-12.717,9.088-17.907c2.794-5.044,5.703-9.425,8.75-13.088
			c3.044-3.661,7.153-5.919,12.312-6.762c5.771-0.942,10.878-0.36,15.302,1.74c4.424,2.1,7.03,5.67,7.826,10.699
			c1.221,7.711,1.951,15.101,2.197,22.161c0.246,7.063,0.355,14.033,0.334,20.912c-0.021,6.878,0.095,13.82,0.352,20.824
			c0.258,7.006,1.007,14.363,2.242,22.071c0.967,6.032,2.592,10.816,4.869,14.345c2.278,3.531,4.607,5.11,6.994,4.732
			c2.504-0.396,5.046-1.312,7.635-2.746c2.586-1.434,5.194-3.154,7.82-5.161c2.625-2.006,5.155-4.252,7.595-6.741
			c2.438-2.485,4.748-5.054,6.933-7.651c5.06-6.021,10.069-12.704,14.908-20.039c2.943,13.062,5.871,26.129,8.799,39.195
			c-4.686,4.68-9.297,9.498-13.845,14.463c-4.548,4.964-9.432,9.591-14.655,13.879c-5.226,4.291-11.095,8.058-17.601,11.316
			c-6.51,3.261-14.063,5.586-22.673,6.995c-4.247,0.695-8.027-0.027-11.355-2.167c-3.326-2.14-6.274-5.404-8.84-9.791
			c-2.564-4.387-4.771-9.694-6.621-15.92c-1.851-6.227-3.412-13.078-4.682-20.552c-1.191-7.028-2.187-14.519-2.979-22.475
			s-1.39-16.03-1.776-24.227c-1.088,0.184-1.63,0.276-2.718,0.46c-7.331,30.875-14.437,61.798-21.311,92.777
			c-2.234,5.227-5.083,8.988-8.557,11.286c-3.478,2.299-7.679,3.901-12.62,4.816c-3.767,0.698-6.948,0.283-9.547-1.242
			c-2.599-1.524-4.81-3.698-6.624-6.524c-1.815-2.823-3.28-6.031-4.391-9.619C1101.81,521.09,1100.929,517.571,1100.274,514.125z"/>
		<path fill="#ED5F57" d="M1446.33,454.106c-2.399,3.881-5.658,8.475-9.761,13.787c-4.104,5.313-8.78,10.466-14.025,15.466
			c-5.247,4.999-10.964,9.38-17.151,13.145c-6.189,3.766-12.534,6.025-19.052,6.786c-7.822,0.913-14.622-0.69-20.425-4.827
			c-5.804-4.138-15.748-19.109-16.132-19.126c-0.672-0.031-5.579,7.146-9.325,10.932c-3.748,3.789-7.908,7.322-12.483,10.603
			c-4.578,3.284-9.415,6.125-14.517,8.528c-5.101,2.403-10.307,3.975-15.629,4.718c-5.678,0.792-11.357,0.484-17.056-0.926
			c-5.699-1.409-10.918-3.849-15.67-7.321c-4.751-3.472-8.82-7.956-12.2-13.455s-5.636-11.938-6.752-19.32
			c-1.268-8.391-1.316-17.197-0.115-26.413c1.223-9.367,3.48-18.6,6.647-27.498c3.253-9.141,7.45-17.958,12.472-26.252
			c4.93-8.143,10.784-15.758,17.493-22.518c6.571-6.619,13.75-12.131,21.497-16.524c7.744-4.393,15.884-7.132,24.391-8.206
			c2.834-0.358,5.116-0.13,6.846,0.681c1.727,0.811,3.196,1.799,4.401,2.959s2.382,2.3,3.518,3.413s2.478,1.862,4.021,2.244
			s3.092,0.563,4.651,0.545c1.558-0.018,3.137-0.122,4.734-0.312c1.353-0.162,2.732-0.354,4.141-0.579
			c1.402-0.225,2.788-0.415,4.144-0.575c1.846-0.217,3.586-0.25,5.227-0.099c1.637,0.15,3.137,0.72,4.494,1.7
			c1.356,0.981,2.492,2.447,3.398,4.393c0.906,1.944,1.562,4.663,1.959,8.146c0.617,5.396,0.69,11.453,0.227,18.167
			c-0.466,6.715-1.028,13.614-1.685,20.695s-1.182,14.148-1.581,21.2c-0.398,7.051-0.232,13.67,0.492,19.849
			c0.62,5.283,1.616,9.354,2.98,12.21c1.366,2.858,3.723,4.093,7.074,3.706c2.514-0.29,5.077-1.181,7.7-2.674
			c2.62-1.492,5.235-3.349,7.843-5.576c2.604-2.224,5.187-4.698,7.746-7.426c2.558-2.726,4.972-5.516,7.216-8.375
			c5.249-6.688,10.502-14.193,15.771-22.469C1438.041,429.694,1442.199,441.896,1446.33,454.106z M1291.085,459.195
			c0.391,2.802,0.977,5.493,1.762,8.065c0.785,2.574,1.86,4.825,3.224,6.749c1.363,1.926,3.027,3.408,4.993,4.45
			c1.967,1.042,4.321,1.377,7.067,1.004c4.412-0.6,8.169-2.928,11.276-6.992s5.655-8.792,7.636-14.185
			c1.979-5.39,3.438-10.886,4.369-16.48c0.933-5.595,1.416-10.217,1.44-13.872c1.586-16.973,3.208-33.941,4.862-50.908
			c-5.02,0.627-9.766,2.4-14.232,5.313c-4.469,2.913-8.551,6.613-12.234,11.094c-3.687,4.481-6.949,9.486-9.789,15.005
			c-2.842,5.521-5.148,11.232-6.928,17.129c-1.776,5.897-2.966,11.745-3.571,17.539
			C1290.353,448.902,1290.398,454.265,1291.085,459.195z"/>
		<path fill="#ED5F57" d="M1425.746,462.368c-0.523-4.949-0.834-10.75-0.927-17.395s-0.013-13.679,0.247-21.102
			c0.26-7.419,0.696-15.005,1.304-22.744c0.607-7.74,1.357-15.126,2.24-22.155c0.883-7.025,1.831-13.495,2.844-19.397
			c1.013-5.9,2.205-10.831,3.363-14.668c0.763-2.526,1.526-4.643,2.369-6.206c0.84-1.56,1.869-2.83,3.083-3.803
			s2.763-1.695,4.652-2.163c1.886-0.468,4.252-0.84,7.097-1.113c3.213-0.308,5.731-0.402,7.55-0.29
			c1.816,0.112,3.213,0.666,4.176,1.655s1.635,2.49,2.008,4.5c0.374,2.01,0.722,4.765,1.045,8.255c0.387,4.17,0.854,9.21,1.4,15.125
			c0.548,5.915,1.207,11.734,1.985,17.457c0.808-0.075,1.21-0.111,2.017-0.186c2.028-4.73,4.323-10.026,6.888-15.88
			c2.562-5.853,5.666-11.382,9.308-16.585c3.641-5.2,7.92-9.688,12.83-13.448c4.909-3.76,10.777-5.92,17.584-6.461
			c2.35-0.188,4.672,0,6.954,0.56c2.284,0.561,4.312,1.453,6.084,2.68c1.771,1.226,3.229,2.792,4.364,4.688
			c1.137,1.898,1.798,4.093,1.983,6.573c0.146,1.92,0.039,4.623-0.316,8.106c-0.356,3.489-0.76,7.15-1.208,10.984
			c-0.45,3.837-0.846,7.555-1.187,11.154s-0.419,6.585-0.237,8.954c0.312,4.061,0.999,7.414,2.059,10.055
			c1.059,2.641,2.349,4.73,3.869,6.259c1.521,1.529,3.189,2.567,5.004,3.114c1.81,0.545,3.688,0.749,5.633,0.606
			c5.469-0.397,11.039-1.928,16.723-4.586c5.684-2.657,10.877-5.574,15.566-8.691c5.49-3.649,10.898-7.722,16.146-12.234
			c-0.116,13.27-0.227,26.537-0.324,39.807c-3.032,2.114-6.466,4.479-10.303,7.105s-7.947,5.133-12.33,7.525
			c-4.385,2.392-8.965,4.465-13.742,6.219c-4.778,1.755-9.694,2.821-14.75,3.196c-9.028,0.671-16.442-0.48-22.256-3.478
			c-5.815-2.997-10.588-7.145-14.315-12.455c-3.728-5.31-6.683-11.364-8.849-18.163c-2.167-6.798-4.045-13.706-5.63-20.724
			c-1.172,0.101-1.761,0.151-2.933,0.252c-8.438,29.042-16.703,58.13-24.768,87.279c-1.259,4.551-2.491,8.335-3.704,11.348
			c-1.213,3.014-2.505,5.5-3.874,7.45c-1.371,1.953-2.911,3.381-4.619,4.288c-1.709,0.907-3.632,1.468-5.769,1.681
			c-4.869,0.486-8.884-0.101-12.054-1.764c-3.171-1.663-5.735-4.069-7.689-7.223c-1.953-3.149-3.422-6.808-4.404-10.971
			C1426.952,471.198,1426.222,466.869,1425.746,462.368z"/>
		<path fill="#ED5F57" d="M1643.798,480.847c-10.005,0.558-20.319-0.552-29.708-4.148c-8.604-3.295-15.956-8.079-21.992-14.211
			s-10.762-13.358-14.159-21.69c-3.396-8.331-5.433-17.181-6.071-26.551c-0.431-6.319-0.221-13.055,0.642-20.2
			c0.86-7.144,2.438-14.198,4.741-21.153c2.304-6.956,5.344-13.645,9.132-20.065c3.784-6.418,8.347-12.144,13.683-17.169
			c5.333-5.021,11.423-9.118,18.263-12.273c6.837-3.155,14.546-4.953,23.097-5.378c6.938-0.346,13.433,0.369,19.469,2.135
			c6.037,1.767,11.332,4.402,15.87,7.894c4.536,3.49,8.142,7.799,10.807,12.9c2.666,5.103,4.114,10.882,4.358,17.327
			c0.266,7.011-1.34,14.09-4.787,21.244c-3.449,7.156-8.324,14-14.615,20.476c-6.676,6.87-14.383,12.757-22.596,17.688
			c-8.992,5.398-28.288,11.846-28.653,12.891c-0.233,0.67,3.896,5.391,5.752,7.329c1.854,1.937,3.718,3.425,5.579,4.457
			c1.863,1.033,3.798,1.725,5.802,2.073c2.005,0.348,4.15,0.465,6.435,0.35c7.207-0.364,14.734-2.084,22.612-5.155
			c7.876-3.07,15.528-6.787,22.969-11.151c7.438-4.366,14.463-9.062,21.079-14.097c6.614-5.031,12.235-9.76,16.847-14.197
			c8.03,7.35,16.042,14.721,24.032,22.113c-10.17,10.333-21.213,19.888-33.002,28.248c-5.021,3.562-10.473,7.08-16.273,10.572
			c-5.802,3.493-11.904,6.643-18.304,9.451c-6.4,2.809-13.05,5.133-19.947,6.979C1657.953,479.377,1650.906,480.45,1643.798,480.847
			z M1615.496,402.499c0.957,0.854,9.07-1.559,14.125-3.927c5.051-2.366,9.717-5.296,13.998-8.798
			c4.279-3.499,7.856-7.24,10.729-11.228c2.869-3.985,4.229-7.784,4.062-11.403c-0.235-5.086-1.438-9.22-3.619-12.404
			c-2.181-3.182-4.75-4.702-7.701-4.558c-5.288,0.258-9.764,1.393-13.414,3.394c-3.654,2.003-6.66,4.518-9.016,7.533
			c-2.357,3.019-4.197,6.408-5.521,10.163c-1.326,3.758-2.274,7.522-2.855,11.293c-0.582,3.771-0.892,7.421-0.936,10.933
			C1615.304,397.014,1615.06,402.111,1615.496,402.499z"/>
		<path fill="#ED5F57" d="M1722.898,442.1c-0.23-7.464-0.019-16.102,0.652-25.914c0.684-10.008,1.603-20.001,2.739-29.965
			c1.123-9.833,2.479-19.644,4.104-29.407c1.573-9.438,3.131-17.524,4.684-24.239c1.212-5.233,3.728-9.666,7.539-13.27
			c3.812-3.604,9.079-5.488,15.775-5.632c6.697-0.145,11.385,1.639,14.054,5.324c2.668,3.687,4.049,8.644,4.155,14.863
			c0.029,1.697-0.115,3.991-0.437,6.882c-0.32,2.892-0.729,6.067-1.221,9.526c-0.492,3.462-1.014,7.038-1.561,10.722
			c-0.549,3.688-1.065,7.093-1.559,10.212c-0.493,3.123-0.898,5.848-1.222,8.172c-0.323,2.325-0.476,3.886-0.461,4.676
			c1.463-0.028,2.19-0.041,3.653-0.067c0.709-1.257,1.834-3.284,3.373-6.084c1.538-2.797,3.319-6.023,5.345-9.679
			c2.022-3.652,4.2-7.505,6.537-11.555c2.336-4.049,4.524-7.926,6.573-11.63c2.045-3.7,3.918-6.977,5.615-9.824
			c1.695-2.847,2.969-4.96,3.822-6.32c3.857-6.142,8.376-10.376,13.443-12.674c5.063-2.297,10.707-3.459,16.911-3.478
			c6.201-0.017,11.138,2.358,14.785,7.113c3.647,4.753,5.454,11.323,5.438,19.694c-0.003,1.247-0.281,3.338-0.841,6.277
			c-0.561,2.943-1.276,6.449-2.142,10.52c-0.864,4.071-1.821,8.542-2.862,13.403c-1.043,4.865-1.988,9.846-2.842,14.936
			c-0.853,5.09-1.553,10.127-2.097,15.104c-0.544,4.98-0.812,9.562-0.81,13.746c0.005,7.018,0.945,12.787,2.812,17.311
			c1.868,4.523,4.783,6.79,8.753,6.798c1.806,0.004,3.883-0.5,6.233-1.509c2.351-1.01,4.883-2.328,7.603-3.953
			c2.718-1.624,5.505-3.502,8.357-5.631c2.85-2.126,5.696-4.306,8.476-6.545c6.448-5.198,13.245-11.17,20.385-17.742
			c0.846,12.685,1.675,25.372,2.505,38.058c-3.646,2.524-5.469,3.787-9.104,6.318c-4.97,3.442-10.014,6.894-15.134,10.351
			c-5.123,3.46-10.438,6.56-15.945,9.3c-5.511,2.744-11.245,4.984-17.207,6.73c-5.965,1.747-12.217,2.629-18.769,2.653
			c-6.556,0.022-12.239-4.491-16.64-13.4c-6.021-12.193-6.74-26.143-7.095-39.398c-0.178-6.668,0.349-14.116,1.25-21.989
			c0.9-7.87,2.044-16.337,3.438-25.402c-1.173,0.01-1.76,0.015-2.933,0.025c-15.664,29.509-31.063,59.147-46.188,88.938
			c-2.297,4.689-4.911,7.911-7.853,9.675c-2.941,1.765-6.374,2.694-10.306,2.793c-4.887,0.124-8.844-0.759-11.878-2.652
			c-3.034-1.895-5.411-4.484-7.124-7.773c-1.712-3.286-2.906-7.043-3.576-11.267C1723.438,450.995,1723.039,446.624,1722.898,442.1z
			"/>
		<path fill="#ED5F57" d="M1989.002,423.161c-0.062-8.492-0.168-15.883-0.312-22.171c-0.144-6.288-0.281-11.983-0.409-17.082
			c-0.128-5.098-0.179-9.798-0.151-14.099c0.025-4.298,0.115-8.712,0.271-13.236c0.402-11.645,1.301-20.7,2.702-27.161
			c1.401-6.458,4.097-9.902,8.084-10.323c8.966-0.961,13.452-1.43,22.431-2.342c0.624-0.085,1.219-0.146,1.777-0.179
			s1.146-0.036,1.77-0.009c4.213,0.181,7.42,1.459,9.606,3.823c2.187,2.362,3.274,5.021,3.263,7.964
			c-4.062,35.658-8.07,71.322-12.019,106.992c1.015-0.023,1.52-0.034,2.534-0.057c17.521-34.774,35.371-69.373,53.552-103.808
			c0.461-1.56,1.353-3.039,2.675-4.438c1.319-1.396,3.002-2.571,5.047-3.529c2.042-0.956,4.292-1.702,6.748-2.233
			c2.456-0.532,5.049-0.713,7.774-0.544c7.182,0.448,12.855,2.153,17.01,5.093c4.151,2.938,6.082,6.506,5.798,10.681
			c-0.215,3.161-0.884,6.123-1.998,8.881c-1.115,2.759-2.613,5.75-4.494,8.967c-1.882,3.219-4.092,6.788-6.623,10.703
			c-2.533,3.916-5.543,8.622-8.358,13.917c-1.01,1.898-1.828,4.066-2.593,6.128c-0.691,1.865-1.387,4.023-1.965,6.423
			c-0.578,2.402-0.947,4.902-1.109,7.498c-0.169,2.71,0.029,5.387,0.594,8.028c0.564,2.645,1.691,5.066,3.374,7.27
			c1.683,2.205,4.055,4.03,7.116,5.478c3.061,1.446,7.065,2.337,12.021,2.677c3.625,0.249,7.883-0.334,12.783-1.742
			c4.898-1.407,9.559-3.101,13.956-5.016c5.128-2.233,10.471-4.765,15.944-7.625c-1.049,13.253-2.092,26.506-3.137,39.759
			c-8.3,4.112-16.768,7.271-25.416,9.478s-16.795,3.061-24.453,2.55c-6.465-0.43-12.179-1.73-17.152-3.91
			c-4.979-2.181-9.143-4.954-12.495-8.323c-3.354-3.37-5.914-7.087-7.677-11.155c-1.761-4.064-2.464-12.548-2.464-12.548
			c-0.231-0.067-8.243,13.312-13.065,20.193c-4.823,6.881-9.736,13.086-14.746,18.612c-5.012,5.528-9.951,10.024-14.826,13.478
			c-4.877,3.455-9.388,5.097-13.553,4.919c-6.904-0.295-12.19-2.178-15.874-5.658c-3.687-3.481-6.365-7.8-8.032-12.954
			c-1.668-5.155-2.666-10.737-2.992-16.75c-0.326-6.011-0.574-11.738-0.744-17.178
			C1989.105,426.427,1989.07,425.339,1989.002,423.161z"/>
		<path fill="#ED5F57" d="M2261.047,460.922c-4.695,3.266-10.459,6.686-17.269,10.27c-6.811,3.585-14.075,6.799-21.795,9.649
			c-7.723,2.851-15.516,5.118-23.396,6.805s-15.26,2.247-22.15,1.674c-6.181-0.514-11.315-1.752-15.406-3.72
			c-4.093-1.969-7.338-4.521-9.733-7.653s-4.006-6.857-4.823-11.173c-0.816-4.315-1.038-9.013-0.658-14.09
			c0.531-7.108,2.014-15.311,4.477-24.596c2.569-9.687,5.479-19.286,8.679-28.784c3.339-9.911,6.834-19.775,10.501-29.567
			c3.374-9.01,6.596-18.229,9.866-27.133c1.042-2.836,3.031-5.231,5.795-7.104c2.763-1.871,5.837-3.319,9.222-4.34
			c3.383-1.02,6.871-1.688,10.447-2.003c3.577-0.312,6.79-0.343,9.636-0.09c5.194,0.463,8.64,1.66,10.33,3.575
			c1.693,1.917,2.404,4.341,2.134,7.27c-0.229,2.479-1.177,6.001-2.836,10.562c-1.659,4.562-3.684,9.717-6.06,15.466
			s-4.908,11.94-7.591,18.571c-2.686,6.633-5.238,13.279-7.659,19.938c-2.421,6.66-4.514,13.18-6.283,19.554
			c-1.771,6.377-2.875,12.158-3.321,17.343c-0.438,5.072-0.184,9.157,0.756,12.245c0.938,3.089,3.263,4.798,6.977,5.127
			c4.312,0.382,9.226-0.596,14.762-2.925c5.532-2.328,11.193-5.235,16.985-8.713c5.79-3.476,11.491-7.092,17.104-10.852
			c5.608-3.758,10.571-6.946,14.873-9.571C2263.42,438.076,2262.234,449.499,2261.047,460.922z M2195.213,279.54
			c0.217-2.593,1.088-5.472,2.615-8.637c1.527-3.163,3.827-6.064,6.899-8.698c3.073-2.633,7.06-4.732,11.951-6.289
			c4.892-1.556,10.868-2.016,17.921-1.364c4.406,0.406,8.521,1.248,12.335,2.521c3.812,1.273,7.08,2.981,9.791,5.122
			c2.707,2.139,4.756,4.817,6.147,8.026c1.392,3.208,1.875,6.896,1.459,11.061c-0.385,3.829-1.443,7.476-3.176,10.939
			c-1.732,3.467-4.232,6.459-7.494,8.979c-3.265,2.521-7.254,4.438-11.957,5.75c-4.707,1.314-10.22,1.677-16.56,1.099
			c-10.939-0.999-18.815-4.035-23.647-9.159C2196.668,293.768,2194.563,287.32,2195.213,279.54z"/>
		<path fill="#ED5F57" d="M2343.947,441.153c7.353-4.566,13.468-8.345,18.156-11.396c4.687-3.049,8.738-5.859,12.156-8.438
			c3.412-2.576,6.567-5.214,9.457-7.911c2.887-2.695,6.311-5.892,10.276-9.581c3.963-3.687,8.793-8.209,14.502-13.519
			c7.257-6.748,15.066-13.234,22.238-19.752c1.877-1.705,3.941-3.491,6.182-5.113c2.238-1.619,4.668-3.01,7.285-4.172
			c2.617-1.161,5.443-2.005,8.476-2.528c3.026-0.522,6.33-0.519,9.897,0.019c5.904,0.888,10.359,2.172,13.375,3.838
			c3.014,1.666,5.129,3.454,6.342,5.361c1.211,1.905,1.791,3.802,1.748,5.684s-0.168,3.495-0.379,4.836
			c-0.42,2.683-2.049,5.463-4.871,8.344c-2.827,2.883-5.873,5.616-9.141,8.204c-3.268,2.589-6.34,4.956-9.213,7.093
			c-2.877,2.14-4.816,3.911-5.137,4.975c-0.871,2.876-0.726,6.67-0.609,9.604c0.116,2.936,0.42,5.844,0.912,8.72
			c0.492,2.879,0.99,5.931,1.488,9.15c0.498,3.222,0.891,6.917,1.18,11.081c0.287,4.164,0.299,8.917,0.033,14.255
			c-0.266,5.341-2.045,18.745-2.045,18.745c0.508,0.395,9.717-3.739,15.021-5.139c5.303-1.4,10.838-2.842,16.604-4.321
			c5.764-1.478,11.727-3.172,17.893-5.077c6.164-1.906,12.47-4.378,18.916-7.415c-2.063,12.503-4.129,25.006-6.184,37.511
			c-9.02,4.422-18.471,7.961-28.086,10.811c-10.662,3.161-21.631,5.714-32.373,7.564c-10.865,1.872-22.164,3.121-33.402,3.625
			c-10.402,0.466-20.899,0.131-31.219-1.286c-6.969-0.958-13.395-2.472-19.266-4.512c-5.873-2.04-10.923-4.673-15.144-7.899
			c-4.223-3.228-7.492-7.152-9.807-11.781c-2.312-4.626-2.392-15.346-3.229-16.144c-0.32-0.308-3.385,0.146-5.01,0.058
			s-3.215-0.229-4.766-0.418c-1.912-0.235-3.699-0.511-5.355-0.826c-1.658-0.314-3.041-0.912-4.145-1.784
			c-1.105-0.874-1.923-2.168-2.445-3.884c-0.521-1.712-0.604-4.089-0.24-7.122c0.322-2.697,1.34-5.108,3.059-7.24
			c1.718-2.128,3.646-3.977,5.787-5.541c2.142-1.562,4.261-2.9,6.351-4.012C2341.307,442.707,2342.885,441.812,2343.947,441.153z
			 M2364.262,465.628c1.436,0.187,2.91,1.234,4.424,3.145c1.512,1.908,3.275,4.024,5.275,6.344c2,2.318,4.381,4.521,7.135,6.604
			c2.752,2.082,6.031,3.385,9.846,3.908c4.646,0.637,8.59,0.442,11.832-0.588c3.24-1.029,5.928-2.619,8.059-4.775
			c2.132-2.153,3.787-4.775,4.961-7.865c1.175-3.09,2.011-6.369,2.509-9.842c0.434-3.024,0.666-6.134,0.694-9.33
			c0.027-3.193-0.086-6.272-0.34-9.22c-0.254-2.949-0.594-5.743-1.02-8.373c-0.428-2.631-0.818-4.887-1.168-6.766
			C2398.98,441.002,2381.578,453.253,2364.262,465.628z"/>
		<path fill="#ED5F57" d="M2568.549,445.248c5.262-4.339,11.051-9.096,17.381-14.26c6.324-5.163,12.535-10.05,18.621-14.665
			c6.082-4.612,11.645-8.682,16.678-12.212c5.031-3.53,8.939-5.823,11.672-6.911c4.248-1.69,9.306-2.887,15.142-3.521
			c5.836-0.636,12.125-0.276,18.844,1.083c3.42,0.69,6.543,2.078,9.359,4.154c2.815,2.077,5.106,4.689,6.873,7.827
			c1.762,3.137,2.924,6.732,3.477,10.773c0.554,4.043,0.338,8.392-0.633,13.044c-0.949,4.542-3.115,8.856-6.483,12.952
			c-3.371,4.096-7.341,8.097-11.908,12.01c-4.566,3.913-9.422,7.773-14.564,11.58s-9.977,7.714-14.504,11.713
			c-4.529,4.001-8.443,8.102-11.744,12.292c-3.305,4.192-5.405,8.625-6.319,13.287c-0.783,3.997-0.308,7.06,1.428,9.188
			c1.733,2.129,4.797,3.625,9.18,4.499c2.367,0.473,5.091,0.24,8.179-0.696c3.084-0.938,6.354-2.322,9.819-4.157
			c3.459-1.834,7.015-3.938,10.66-6.305c3.646-2.368,7.19-4.81,10.637-7.328c3.441-2.518,6.72-4.925,9.818-7.221
			c3.101-2.296,5.873-4.224,8.33-5.783c0.693,14.313,1.363,28.629,2,42.946c-4.736,4.189-10.354,7.818-16.853,10.896
			c-6.5,3.079-13.334,5.52-20.512,7.329c-7.18,1.81-14.438,2.898-21.781,3.267c-7.346,0.369-14.243-0.075-20.702-1.34
			c-8.457-1.656-15.177-3.954-20.156-6.916c-4.981-2.963-8.707-6.341-11.17-10.138s-3.883-7.831-4.254-12.1
			c-0.371-4.267-0.16-8.572,0.644-12.912c0.473-2.558,1.383-5.641,2.727-9.248c1.342-3.604,3.373-7.574,6.092-11.901
			c2.719-4.326,6.275-8.986,10.687-13.971c4.407-4.983,10.041-10.933,16.573-15.597c2.289-1.634,4.879-3.01,6.996-4.271
			c2.115-1.262,3.959-2.402,5.535-3.422c1.572-1.019,2.832-2.014,3.771-2.983c0.938-0.968,1.531-2.062,1.77-3.286
			c0.455-2.332,0.371-4.308-0.254-5.928c-0.623-1.618-1.785-2.597-3.477-2.925c-2.057-0.399-4.955,0.311-8.687,2.127
			c-3.731,1.817-8.116,5.418-13.129,10.801c-23.037,25.291-45.815,50.803-68.338,76.555c-3.502,3.981-6.842,6.585-10.028,7.812
			c-3.189,1.229-6.662,1.518-10.435,0.875c-5.068-0.865-8.904-2.573-11.508-5.13c-2.604-2.559-4.386-5.724-5.338-9.492
			c-0.955-3.771-1.261-8.007-0.912-12.707c0.348-4.698,0.952-9.674,1.817-14.923c1.05-6.364,2.673-14.754,4.888-25.166
			c2.436-11.45,5.118-22.871,7.883-34.22c3.16-12.978,6.707-25.928,10.465-38.776c3.838-13.121,8.019-26.203,12.675-39.005
			c1.606-4.418,3.678-9.795,6.141-16.091c2.463-6.295,5.355-13.007,8.678-20.132c3.324-7.122,7.082-14.486,11.285-22.088
			c4.203-7.6,8.824-14.896,13.863-21.885c5.037-6.986,10.504-13.523,16.404-19.603c5.896-6.077,12.233-11.179,19.004-15.298
			c6.77-4.118,13.934-7.034,21.481-8.737c7.547-1.702,15.463-1.766,23.728-0.182c6.481,1.242,11.643,3.197,15.473,5.848
			c3.832,2.652,6.658,5.865,8.479,9.626c1.822,3.764,2.783,8.023,2.888,12.771c0.104,4.75-0.367,9.807-1.441,15.115
			c-2.074,10.234-5.594,20.305-10.115,29.652c-5.061,10.464-10.617,20.868-16.635,30.709c-6.049,9.891-12.75,19.835-19.549,29.307
			c-6.123,8.53-12.557,17.078-19.156,25.368c-5.973,7.503-11.174,13.812-15.588,18.917c-4.418,5.105-7.326,8.453-8.746,10.029
			c-9.041,8.559-18.041,17.156-27.008,25.793C2566.219,443.275,2566.994,443.933,2568.549,445.248z M2639.422,264.53
			c-4.035-0.764-7.711-0.301-11.021,1.381c-3.313,1.686-6.643,4.347-9.977,7.986c-3.34,3.641-6.834,8.176-10.48,13.604
			c-3.646,5.432-8.385,11.617-12.297,18.119c-3.285,5.456-6.164,12.229-9.057,18.719c-2.896,6.492-5.619,12.989-8.18,19.484
			c-2.562,6.498-4.945,12.942-7.154,19.328c-2.211,6.388-4.178,12.444-5.949,18.078c-4.115,13.087-11.51,39.677-11.51,39.677
			c0.063,0.027,8.287-14.367,12.992-22.438c4.702-8.067,9.375-16.027,14.018-23.871c4.641-7.842,9.039-15.269,13.184-22.276
			c4.146-7.008,7.64-12.951,10.455-17.839c1.316-2.285,3.123-5.121,5.414-8.493s4.767-6.997,7.42-10.877
			c2.654-3.878,5.349-7.921,8.076-12.131c2.729-4.207,5.271-8.274,7.637-12.204c2.363-3.927,4.4-7.631,6.103-11.108
			c1.701-3.476,2.793-6.492,3.281-9.05C2643.051,267.062,2642.068,265.031,2639.422,264.53z"/>
		<path fill="#ED5F57" d="M2863.416,564.81c-3.619,2.797-8.295,5.962-14.021,9.504c-5.729,3.544-11.94,6.736-18.635,9.586
			c-6.693,2.85-13.617,4.955-20.765,6.319c-7.149,1.364-13.92,1.266-20.327-0.299c-7.691-1.878-13.539-5.759-17.562-11.663
			c-4.022-5.905-8.155-23.405-8.524-23.562c-0.625-0.266-7.746,4.748-12.596,6.989c-4.853,2.243-10,4.1-15.453,5.578
			c-5.455,1.479-10.996,2.455-16.635,2.927c-5.638,0.472-11.084,0.129-16.351-1.031c-5.617-1.237-10.854-3.509-15.721-6.816
			c-4.867-3.31-8.925-7.416-12.181-12.328s-5.518-10.533-6.776-16.866s-1.138-13.155,0.389-20.465
			c1.731-8.308,4.758-16.578,9.101-24.798c4.414-8.356,9.754-16.223,15.832-23.458c6.246-7.438,13.266-14.234,20.877-20.258
			c7.479-5.918,15.643-11.01,24.309-15.002c8.49-3.911,17.166-6.573,25.99-7.987c8.82-1.413,17.44-1.139,25.828,0.825
			c2.795,0.654,4.864,1.665,6.211,3.029c1.344,1.363,2.385,2.803,3.114,4.312c0.73,1.509,1.441,2.986,2.123,4.427
			c0.681,1.439,1.683,2.61,3.002,3.507c1.322,0.897,2.718,1.609,4.191,2.138c1.473,0.528,2.998,0.981,4.571,1.361
			c1.33,0.321,2.699,0.623,4.104,0.904c1.399,0.28,2.771,0.583,4.104,0.908c1.813,0.44,3.467,1.02,4.959,1.733
			c1.489,0.714,2.707,1.772,3.645,3.166c0.938,1.395,1.5,3.165,1.676,5.305s-0.158,4.916-0.998,8.319
			c-1.301,5.273-3.346,10.975-6.127,17.105s-5.717,12.399-8.805,18.807c-3.09,6.407-6.057,12.848-8.893,19.317
			c-2.838,6.469-4.988,12.729-6.461,18.774c-1.261,5.168-1.742,9.331-1.453,12.485c0.291,3.156,2.084,5.138,5.379,5.948
			c2.471,0.606,5.197,0.668,8.19,0.186c2.99-0.482,6.103-1.309,9.336-2.484c3.232-1.173,6.533-2.59,9.9-4.251
			c3.362-1.658,6.614-3.43,9.729-5.324c7.287-4.433,14.861-9.628,22.724-15.539C2864.115,539.029,2863.777,551.921,2863.416,564.81z
			 M2715.353,515.325c-0.611,2.764-0.996,5.491-1.154,8.177c-0.157,2.687,0.068,5.171,0.681,7.449
			c0.608,2.281,1.659,4.252,3.146,5.915c1.486,1.664,3.582,2.798,6.297,3.407c4.361,0.979,8.709,0.106,13.054-2.618
			c4.342-2.724,8.389-6.267,12.133-10.629c3.744-4.361,7.035-9.002,9.865-13.921s4.897-9.083,6.194-12.5
			c7.416-15.354,14.859-30.693,22.338-46.015c-4.944-1.165-10.037-1.161-15.26,0.009c-5.226,1.17-10.354,3.213-15.387,6.126
			c-5.033,2.914-9.853,6.464-14.449,10.646c-4.598,4.184-8.758,8.731-12.488,13.639c-3.729,4.906-6.887,9.975-9.479,15.192
			C2718.252,505.425,2716.426,510.466,2715.353,515.325z"/>
		<path fill="#ED5F57" d="M2911.402,589.477c11.011,2.68,21.781,5.076,33.127,5.758c9.632,0.579,19.357,0.258,28.89-1.204
			c8.946-1.373,17.354-3.594,25.205-6.627c7.848-3.031,15.209-6.575,22.08-10.641c-3.117,12.592-6.232,25.184-9.355,37.774
			c-5.002,3.093-10.736,5.822-17.195,8.196c-6.463,2.375-13.256,4.129-20.385,5.271s-14.395,1.611-21.793,1.415
			c-7.4-0.197-14.449-1.244-21.158-3.146c-0.812-0.229-1.793-0.626-2.945-1.187c-1.151-0.562-3.162-1.539-6.02-2.93
			s-6.969-3.335-12.334-5.819c-5.367-2.485-12.689-5.708-21.979-9.631c-0.32,1.18-0.479,1.77-0.798,2.948
			c-5.27,18.141-11.157,36.209-19.899,52.727c-7.043,13.305-14.941,26.331-25.041,37.84c-7.555,8.608-16.465,16.409-26.81,21.386
			c-9,4.331-17.553,5.461-25.539,3.439c-6.414-1.623-11.377-4.496-14.896-8.634c-3.521-4.137-5.912-9.129-7.178-14.971
			c-1.265-5.844-1.588-12.39-0.968-19.631c0.623-7.244,1.882-14.771,3.781-22.573c1.098-4.509,3.078-9.413,5.951-14.707
			c2.877-5.296,6.348-10.739,10.409-16.32c4.066-5.584,8.486-11.194,13.271-16.825c4.781-5.632,9.615-11.124,14.51-16.231
			c12.136-12.663,30.211-25.289,38.263-36.488c4.071-5.665,7.098-16.63,10.791-25.257c3.688-8.624,7.676-16.884,11.959-24.771
			c4.282-7.884,9.006-15.189,14.164-21.903c5.157-6.713,10.979-12.2,17.457-16.446c6.477-4.244,13.662-7.063,21.545-8.442
			c7.881-1.379,16.782-0.704,26.672,2.046c7.354,2.045,13.975,4.875,19.846,8.48c5.869,3.605,10.631,8.119,14.27,13.523
			c3.642,5.404,5.904,11.691,6.802,18.845c0.896,7.153-0.015,15.349-2.711,24.577c-2.16,7.386-5.439,14.18-9.812,20.386
			c-4.373,6.21-9.973,11.739-16.785,16.603c-6.815,4.865-14.856,8.979-24.069,12.272c-10.25,3.664-20.687,5.489-31.427,7.171
			C2911.338,587.24,2911.359,587.987,2911.402,589.477z M2802.455,669.343c-0.222,0.876-0.386,2.354-0.484,4.429
			c-0.1,2.074,0.055,4.215,0.467,6.42c0.41,2.203,1.158,4.26,2.246,6.174c1.086,1.91,2.709,3.143,4.867,3.695
			c1.93,0.494,3.783-0.112,5.555-1.816c1.771-1.703,3.496-4.154,5.168-7.342c1.674-3.189,3.236-6.876,4.685-11.06
			s2.868-8.493,4.26-12.922c1.394-4.432,2.674-8.776,3.84-13.031c1.164-4.255,2.318-8.066,3.41-11.388
			c1.897-5.786,3.438-10.768,4.678-14.829c1.24-4.062,2.281-7.454,3.099-10.154c0.916-3.027,2.354-7.63,2.354-7.63
			c-0.111-0.07-6.385,6.674-9.701,10.9c-3.317,4.228-6.561,8.681-9.729,13.357c-3.168,4.676-6.158,9.403-8.968,14.174
			c-2.809,4.771-5.321,9.242-7.539,13.406c-2.217,4.164-4.051,7.787-5.498,10.863
			C2803.719,665.661,2802.816,667.915,2802.455,669.343z M2893.781,566.905c0.851,0.933,15.004-3.376,21.229-6.007
			c6.225-2.63,11.836-5.715,16.824-9.259c4.987-3.544,9.354-7.433,13.1-11.669c3.74-4.235,7.16-8.738,9.922-13.427
			c1.283-2.177,2.449-4.922,3.535-8.083c1.086-3.16,1.584-6.283,1.488-9.367c-0.094-3.082-0.961-5.946-2.605-8.581
			c-1.643-2.636-4.443-4.51-8.393-5.61c-4.428-1.233-8.631-1.19-12.594,0.122c-3.968,1.314-7.697,3.548-11.187,6.699
			c-3.492,3.153-6.75,7.131-9.779,11.936c-3.028,4.806-5.86,10.078-8.491,15.811c-2.632,5.733-5.029,11.801-7.195,18.185
			C2897.469,554.043,2893.607,566.717,2893.781,566.905z"/>
		<path fill="#ED5F57" d="M3174.486,659.821c-3.85,2.49-8.789,5.257-14.809,8.316c-6.021,3.06-12.502,5.729-19.437,8.017
			c-6.936,2.287-14.037,3.813-21.309,4.583c-7.273,0.771-14.051,0.112-20.348-1.978c-7.558-2.51-13.105-6.859-16.668-13.079
			c-3.562-6.22-6.289-24.001-6.664-24.198c-0.607-0.319-8.14,4.095-13.175,5.929c-5.039,1.836-10.346,3.266-15.926,4.29
			c-5.582,1.026-11.211,1.542-16.896,1.549c-5.685,0.008-11.111-0.782-16.293-2.373c-5.527-1.697-10.593-4.392-15.201-8.09
			c-4.611-3.698-8.348-8.128-11.217-13.293s-4.688-10.955-5.443-17.373c-0.758-6.418-0.088-13.209,2.021-20.372
			c2.398-8.14,6.082-16.142,11.086-23.978c5.091-7.969,11.066-15.377,17.726-22.088c6.848-6.904,14.428-13.105,22.522-18.483
			c7.963-5.289,16.55-9.694,25.539-12.961c8.814-3.203,17.716-5.142,26.666-5.825c8.949-0.683,17.564,0.303,25.81,2.952
			c2.748,0.883,4.744,2.062,5.983,3.533c1.236,1.47,2.162,2.992,2.773,4.556c0.61,1.564,1.205,3.098,1.772,4.591
			c0.568,1.492,1.48,2.74,2.732,3.744c1.252,1.005,2.592,1.829,4.029,2.479c1.434,0.647,2.926,1.226,4.473,1.734
			c1.307,0.429,2.654,0.844,4.039,1.239c1.381,0.396,2.729,0.812,4.041,1.245c1.783,0.59,3.393,1.303,4.832,2.14
			c1.436,0.835,2.57,1.989,3.397,3.457c0.828,1.468,1.248,3.28,1.257,5.429c0.006,2.147-0.552,4.889-1.664,8.213
			c-1.724,5.149-4.224,10.667-7.496,16.55c-3.275,5.884-6.718,11.893-10.322,18.026c-3.605,6.133-7.088,12.311-10.443,18.527
			c-3.357,6.217-6.012,12.282-7.969,18.188c-1.672,5.05-2.484,9.162-2.445,12.331c0.039,3.17,1.676,5.295,4.914,6.375
			c2.426,0.81,5.154,1.095,8.191,0.861c3.034-0.232,6.221-0.8,9.555-1.704c3.332-0.903,6.75-2.042,10.256-3.419
			c3.502-1.377,6.904-2.873,10.178-4.505c7.654-3.815,15.658-8.37,24.006-13.614C3177.228,634.17,3175.866,646.996,3174.486,659.821
			z M3030.073,598.255c-0.83,2.704-1.432,5.393-1.805,8.056c-0.373,2.666-0.344,5.163,0.086,7.484
			c0.432,2.323,1.326,4.376,2.682,6.155c1.357,1.781,3.367,3.085,6.037,3.916c4.289,1.334,8.716,0.823,13.283-1.536
			c4.565-2.358,8.902-5.558,13-9.599c4.098-4.04,7.764-8.396,10.99-13.067c3.226-4.672,5.625-8.652,7.196-11.952
			c8.65-14.699,17.332-29.38,26.041-44.042c-4.86-1.569-9.957-1.984-15.282-1.249c-5.326,0.734-10.634,2.35-15.904,4.84
			c-5.272,2.491-10.381,5.635-15.32,9.426c-4.938,3.792-9.469,7.985-13.596,12.57c-4.125,4.586-7.693,9.378-10.703,14.369
			C3033.768,588.619,3031.537,593.496,3030.073,598.255z"/>
		<path fill="#ED5F57" d="M3152.088,658.51c1.621-4.706,3.795-10.092,6.529-16.149c2.733-6.056,5.795-12.393,9.182-19.004
			c3.387-6.608,7.004-13.293,10.846-20.043s7.662-13.121,11.455-19.109c3.791-5.985,7.408-11.439,10.842-16.352
			c3.435-4.912,6.621-8.865,9.312-11.846c1.771-1.962,3.369-3.555,4.807-4.609c1.434-1.054,2.916-1.763,4.443-2.125
			s3.26-0.354,5.193,0.03c1.932,0.383,4.26,1.057,6.989,2.025c3.082,1.096,5.437,2.086,7.06,2.967
			c1.621,0.879,2.67,1.978,3.135,3.284c0.465,1.309,0.443,2.953-0.066,4.935c-0.51,1.98-1.36,4.623-2.545,7.923
			c-1.414,3.94-3.123,8.706-5.129,14.297c-2.008,5.591-3.868,11.142-5.584,16.658c0.773,0.276,1.16,0.416,1.933,0.694
			c3.871-3.415,8.233-7.229,13.073-11.432c4.841-4.202,10.035-7.882,15.593-11.034c5.555-3.149,11.391-5.383,17.504-6.686
			c6.11-1.302,12.428-0.742,18.922,1.685c2.24,0.838,4.297,2.002,6.16,3.487c1.862,1.487,3.352,3.166,4.463,5.036
			c1.11,1.87,1.789,3.913,2.028,6.118c0.24,2.206-0.088,4.477-0.969,6.803c-0.682,1.8-1.924,4.202-3.731,7.205
			c-1.81,3.006-3.732,6.148-5.773,9.428c-2.043,3.281-3.985,6.478-5.827,9.59c-1.843,3.113-3.181,5.783-4.019,8.007
			c-1.438,3.812-2.229,7.142-2.375,9.987c-0.146,2.845,0.156,5.293,0.906,7.329c0.752,2.036,1.844,3.694,3.28,4.966
			s3.08,2.261,4.933,2.967c5.202,1.986,10.983,2.992,17.35,3.026c6.363,0.033,12.388-0.376,18.033-1.183
			c6.608-0.945,13.322-2.308,20.076-4.137c-5.74,11.965-11.474,23.932-17.197,35.903c-3.693,0.611-7.865,1.276-12.519,2.005
			c-4.649,0.729-9.506,1.233-14.559,1.517c-5.055,0.282-10.156,0.19-15.301-0.271c-5.146-0.462-10.123-1.606-14.937-3.436
			c-8.598-3.267-14.934-7.488-19.012-12.693c-4.08-5.207-6.709-11.01-7.883-17.415c-1.177-6.406-1.322-13.151-0.431-20.235
			c0.894-7.084,2.101-14.146,3.621-21.18c-1.121-0.411-1.684-0.616-2.803-1.024c-20.088,22.682-40.024,45.491-59.809,68.438
			c-3.088,3.583-5.824,6.483-8.217,8.693c-2.394,2.211-4.636,3.909-6.722,5.091c-2.088,1.182-4.11,1.818-6.063,1.909
			s-3.955-0.226-6.008-0.945c-4.679-1.641-8.115-3.887-10.32-6.747s-3.535-6.136-3.992-9.826c-0.455-3.687-0.252-7.626,0.613-11.815
			C3149.446,667.025,3150.615,662.789,3152.088,658.51z"/>
	</g>
</g>
</svg>
