<?xml version="1.0" encoding="utf-8"?>
<!-- Generator: Adobe Illustrator 16.0.3, SVG Export Plug-In . SVG Version: 6.00 Build 0)  -->
<!DOCTYPE svg PUBLIC "-//W3C//DTD SVG 1.1//EN" "http://www.w3.org/Graphics/SVG/1.1/DTD/svg11.dtd">
<svg version="1.1" id="Layer_1" xmlns="http://www.w3.org/2000/svg" xmlns:xlink="http://www.w3.org/1999/xlink" x="0px" y="0px"
	 width="190px" height="190px" viewBox="0 0 190 190" enable-background="new 0 0 190 190" xml:space="preserve">
<g>
	<circle fill="#FFFFFF" cx="95" cy="95" r="95"/>
	<circle fill="#A3DDDF" cx="95" cy="95" r="90"/>
	<g>
		<g>
			<g>
				<defs>
					<circle id="SVGID_1_" cx="95" cy="95" r="90"/>
				</defs>
				<clipPath id="SVGID_2_">
					<use xlink:href="#SVGID_1_"  overflow="visible"/>
				</clipPath>
				<path id="_x34__1_" clip-path="url(#SVGID_2_)" fill="#FFFFFF" d="M137.8,35.3C137.9,35.3,137.9,35.3,137.8,35.3L137.8,35.3
					h10.4l0,0c1.6-0.2,2.8-1.5,2.8-3.1c0-1.6-1.2-2.9-2.8-3.1l0,0H116l0,0l0,0c-1.7,0-3.1,1.4-3.1,3.1c0,1.7,1.4,3.1,3.1,3.1l0,0
					l0,0h1.5c0.7,0,1.3,0.6,1.3,1.3c0,0.7-0.6,1.3-1.3,1.3h-8.8l0,0c-0.1,0-0.2,0-0.2,0c-1.7,0-3.1,1.4-3.1,3.1s1.4,3.1,3.1,3.1
					c0.1,0,0.2,0,0.2,0l0,0h2.9c0.7,0,1.3,0.6,1.3,1.3c0,0.7-0.6,1.3-1.3,1.3h-5.8l0,0c-0.1,0-0.2,0-0.2,0c-1.7,0-3.1,1.4-3.1,3.1
					c0,1.7,1.4,3.1,3.1,3.1c0.1,0,0.2,0,0.2,0l0,0h40.7l0,0c1.7,0,3.1-1.4,3.1-3.1c0-1.7-1.4-3.1-3.1-3.1h-8.7
					c-0.7,0-1.3-0.6-1.3-1.3c0-0.7,0.6-1.3,1.3-1.3h3.1l0,0c1.7,0,3.1-1.4,3.1-3.1s-1.4-3.1-3.1-3.1l0,0h-3.1l0,0c0,0,0,0-0.1,0
					c-0.7,0-1.3-0.6-1.3-1.3C136.5,35.9,137.1,35.3,137.8,35.3z"/>
			</g>
		</g>
		<g>
			<g>
				<defs>
					<circle id="SVGID_3_" cx="95" cy="95" r="90"/>
				</defs>
				<clipPath id="SVGID_4_">
					<use xlink:href="#SVGID_3_"  overflow="visible"/>
				</clipPath>
				<path id="_x34__3_" clip-path="url(#SVGID_4_)" fill="#FFFFFF" d="M57.8,55.3C57.9,55.3,57.9,55.3,57.8,55.3L57.8,55.3h10.4l0,0
					c1.6-0.2,2.8-1.5,2.8-3.1c0-1.6-1.2-2.9-2.8-3.1l0,0H36.1l0,0l0,0c-1.7,0-3.1,1.4-3.1,3.1c0,1.7,1.4,3.1,3.1,3.1l0,0l0,0h1.5
					c0.7,0,1.3,0.6,1.3,1.3c0,0.7-0.6,1.3-1.3,1.3h-8.8l0,0c-0.1,0-0.2,0-0.2,0c-1.7,0-3.1,1.4-3.1,3.1s1.4,3.1,3.1,3.1
					c0.1,0,0.2,0,0.2,0l0,0h2.9c0.7,0,1.3,0.6,1.3,1.3c0,0.7-0.6,1.3-1.3,1.3h-5.8l0,0c-0.1,0-0.2,0-0.2,0c-1.7,0-3.1,1.4-3.1,3.1
					c0,1.7,1.4,3.1,3.1,3.1c0.1,0,0.2,0,0.2,0l0,0h40.7l0,0c1.7,0,3.1-1.4,3.1-3.1c0-1.7-1.4-3.1-3.1-3.1h-8.7
					c-0.7,0-1.3-0.6-1.3-1.3c0-0.7,0.6-1.3,1.3-1.3H61l0,0c1.7,0,3.1-1.4,3.1-3.1s-1.4-3.1-3.1-3.1l0,0h-3.1l0,0c0,0,0,0-0.1,0
					c-0.7,0-1.3-0.6-1.3-1.3C56.5,55.9,57.1,55.3,57.8,55.3z"/>
			</g>
		</g>
		<g>
			<g>
				<defs>
					<circle id="SVGID_5_" cx="95" cy="95" r="90"/>
				</defs>
				<clipPath id="SVGID_6_">
					<use xlink:href="#SVGID_5_"  overflow="visible"/>
				</clipPath>
				<g clip-path="url(#SVGID_6_)">
					<ellipse opacity="3.000000e-02" fill="#111D20" enable-background="new    " cx="93.2" cy="197.6" rx="77.1" ry="9.9"/>
					<g>
						<g>
							<path fill="#20363D" d="M88.3,22.4c18.9,45.9,37.8,91.8,56.8,137.7c5.1,12.5,10.3,25,15.4,37.4c0.5,1.2,2.4,0.7,1.9-0.5
								c-18.9-45.9-37.8-91.8-56.8-137.7c-5.1-12.5-10.3-25-15.4-37.4C89.7,20.7,87.8,21.2,88.3,22.4L88.3,22.4z"/>
						</g>
					</g>
					<g>
						<g>
							<path fill="#20363D" d="M95.1,21.9c-18.7,46-37.4,92-56,138c-5.1,12.5-10.2,25-15.2,37.5c-0.5,1.2,1.5,1.7,1.9,0.5
								c18.7-46,37.4-92,56-138C86.9,47.4,92,34.9,97,22.4C97.5,21.2,95.6,20.7,95.1,21.9L95.1,21.9z"/>
						</g>
					</g>
					<g>
						<g>
							<path fill="#20363D" d="M142.2,197c-13.1-47.8-26.3-95.6-39.4-143.3c-1.2-4.5-2.5-9-3.7-13.5c-0.3-1.2-2.3-0.7-1.9,0.5
								c13.1,47.8,26.3,95.6,39.4,143.3c1.2,4.5,2.5,9,3.7,13.5C140.6,198.8,142.6,198.2,142.2,197L142.2,197z"/>
						</g>
					</g>
					<g>
						<g>
							<path fill="#20363D" d="M87.4,40.2C74.5,88,61.5,135.8,48.6,183.5c-1.2,4.5-2.4,9-3.6,13.5c-0.3,1.2,1.6,1.8,1.9,0.5
								C59.8,149.7,72.8,102,85.7,54.2c1.2-4.5,2.4-9,3.6-13.5C89.7,39.5,87.8,39,87.4,40.2L87.4,40.2z"/>
						</g>
					</g>
					<polygon fill="#E7F5F6" points="85.5,40.5 24.2,194.7 46.7,194.7 88.4,40.5 					"/>
					<polygon fill="#E7F5F6" points="100.8,40.5 97.9,40.5 140.7,194.7 163,194.7 136.1,127.9 115.2,114.4 123.3,96.2 					"/>
					<polygon fill="#E7F5F6" points="98.3,40.5 88.4,40.5 33.5,194.7 75.1,194.7 93.4,185.5 112.1,194.7 153.8,194.7 					"/>
					<polygon fill="#20363D" points="93.4,152.2 93.4,152.2 75.1,194.7 112.1,194.7 					"/>
					<polygon id="shadow_3_" opacity="0.3" fill="#18292D" enable-background="new    " points="93.4,152.2 93.4,152.2 75.1,194.7 
						93.4,194.7 					"/>
					<polygon id="shadow_2_" opacity="5.000000e-02" fill="#18292D" enable-background="new    " points="93.4,152.2 92.1,152.2 
						75.1,194.7 65.8,184.5 					"/>
					<polygon fill="#EC6158" points="93.4,152.2 93.4,152.2 75.1,194.7 68.7,183.2 					"/>
					<polygon fill="#EC6158" points="93.4,152.2 93.4,152.2 112.1,194.7 118.2,183.2 					"/>
					<g>
						<g>
							<g>
								<path fill="#FFFFFF" d="M70.1,176.6c1.1,1.6,2.1,3.2,3.2,4.8c0.2,0.3,0.6,0,0.4-0.3c-1.1-1.6-2.1-3.2-3.2-4.8
									C70.4,176.1,70,176.3,70.1,176.6L70.1,176.6z"/>
							</g>
						</g>
						<g>
							<g>
								<path fill="#FFFFFF" d="M72,174.8c1.1,1.6,2.1,3.2,3.2,4.8c0.2,0.3,0.6,0,0.4-0.3c-1.1-1.6-2.1-3.2-3.2-4.8
									C72.3,174.2,71.8,174.5,72,174.8L72,174.8z"/>
							</g>
						</g>
						<g>
							<g>
								<path fill="#FFFFFF" d="M73.9,172.9c1.1,1.6,2.1,3.2,3.2,4.8c0.2,0.3,0.6,0,0.4-0.3c-1.1-1.6-2.1-3.2-3.2-4.8
									C74.1,172.4,73.7,172.6,73.9,172.9L73.9,172.9z"/>
							</g>
						</g>
						<g>
							<g>
								<path fill="#FFFFFF" d="M116.3,176.4c-1.1,1.6-2.1,3.2-3.2,4.8c-0.2,0.3,0.3,0.5,0.4,0.3c1.1-1.6,2.1-3.2,3.2-4.8
									C117,176.3,116.5,176.1,116.3,176.4L116.3,176.4z"/>
							</g>
						</g>
						<g>
							<g>
								<path fill="#FFFFFF" d="M114.5,174.5c-1.1,1.6-2.1,3.2-3.2,4.8c-0.2,0.3,0.3,0.5,0.4,0.3c1.1-1.6,2.1-3.2,3.2-4.8
									C115.1,174.5,114.6,174.2,114.5,174.5L114.5,174.5z"/>
							</g>
						</g>
						<g>
							<g>
								<path fill="#FFFFFF" d="M112.6,172.7c-1.1,1.6-2.1,3.2-3.2,4.8c-0.2,0.3,0.3,0.5,0.4,0.3c1.1-1.6,2.1-3.2,3.2-4.8
									C113.2,172.6,112.8,172.4,112.6,172.7L112.6,172.7z"/>
							</g>
						</g>
					</g>
					<g>
						<g>
							<g id="pattern_2_">
								<defs>
									<polygon id="SVGID_7_" points="100.8,40.5 98.3,40.5 88.4,40.5 88.4,40.5 85.5,40.5 24.2,194.7 46.7,194.7 140.7,194.7 
										163,194.7 									"/>
								</defs>
								<defs>
									<polygon id="SVGID_8_" points="100.8,40.5 98.3,40.5 88.4,40.5 88.4,40.5 85.5,40.5 24.2,194.7 46.7,194.7 140.7,194.7 
										163,194.7 									"/>
								</defs>
								<defs>
									<polygon id="SVGID_9_" points="100.8,40.5 98.3,40.5 88.4,40.5 88.4,40.5 85.5,40.5 24.2,194.7 46.7,194.7 140.7,194.7 
										163,194.7 									"/>
								</defs>
								<defs>
									<polygon id="SVGID_10_" points="100.8,40.5 98.3,40.5 88.4,40.5 88.4,40.5 85.5,40.5 24.2,194.7 46.7,194.7 140.7,194.7 
										163,194.7 									"/>
								</defs>
								<defs>
									<polygon id="SVGID_11_" points="100.8,40.5 98.3,40.5 88.4,40.5 88.4,40.5 85.5,40.5 24.2,194.7 46.7,194.7 140.7,194.7 
										163,194.7 									"/>
								</defs>
								<defs>
									<polygon id="SVGID_12_" points="100.8,40.5 98.3,40.5 88.4,40.5 88.4,40.5 85.5,40.5 24.2,194.7 46.7,194.7 140.7,194.7 
										163,194.7 									"/>
								</defs>
								<defs>
									<polygon id="SVGID_13_" points="100.8,40.5 98.3,40.5 88.4,40.5 88.4,40.5 85.5,40.5 24.2,194.7 46.7,194.7 140.7,194.7 
										163,194.7 									"/>
								</defs>
								<defs>
									<polygon id="SVGID_14_" points="100.8,40.5 98.3,40.5 88.4,40.5 88.4,40.5 85.5,40.5 24.2,194.7 46.7,194.7 140.7,194.7 
										163,194.7 									"/>
								</defs>
								<defs>
									<polygon id="SVGID_15_" points="100.8,40.5 98.3,40.5 88.4,40.5 88.4,40.5 85.5,40.5 24.2,194.7 46.7,194.7 140.7,194.7 
										163,194.7 									"/>
								</defs>
								<defs>
									<polygon id="SVGID_16_" points="100.8,40.5 98.3,40.5 88.4,40.5 88.4,40.5 85.5,40.5 24.2,194.7 46.7,194.7 140.7,194.7 
										163,194.7 									"/>
								</defs>
								<defs>
									<polygon id="SVGID_17_" points="100.8,40.5 98.3,40.5 88.4,40.5 88.4,40.5 85.5,40.5 24.2,194.7 46.7,194.7 140.7,194.7 
										163,194.7 									"/>
								</defs>
								<defs>
									<polygon id="SVGID_18_" points="100.8,40.5 98.3,40.5 88.4,40.5 88.4,40.5 85.5,40.5 24.2,194.7 46.7,194.7 140.7,194.7 
										163,194.7 									"/>
								</defs>
								<defs>
									<polygon id="SVGID_19_" points="100.8,40.5 98.3,40.5 88.4,40.5 88.4,40.5 85.5,40.5 24.2,194.7 46.7,194.7 140.7,194.7 
										163,194.7 									"/>
								</defs>
								<defs>
									<polygon id="SVGID_20_" points="100.8,40.5 98.3,40.5 88.4,40.5 88.4,40.5 85.5,40.5 24.2,194.7 46.7,194.7 140.7,194.7 
										163,194.7 									"/>
								</defs>
								<defs>
									<polygon id="SVGID_21_" points="100.8,40.5 98.3,40.5 88.4,40.5 88.4,40.5 85.5,40.5 24.2,194.7 46.7,194.7 140.7,194.7 
										163,194.7 									"/>
								</defs>
								<defs>
									<polygon id="SVGID_22_" points="100.8,40.5 98.3,40.5 88.4,40.5 88.4,40.5 85.5,40.5 24.2,194.7 46.7,194.7 140.7,194.7 
										163,194.7 									"/>
								</defs>
								<defs>
									<polygon id="SVGID_23_" points="100.8,40.5 98.3,40.5 88.4,40.5 88.4,40.5 85.5,40.5 24.2,194.7 46.7,194.7 140.7,194.7 
										163,194.7 									"/>
								</defs>
								<defs>
									<polygon id="SVGID_24_" points="100.8,40.5 98.3,40.5 88.4,40.5 88.4,40.5 85.5,40.5 24.2,194.7 46.7,194.7 140.7,194.7 
										163,194.7 									"/>
								</defs>
								<defs>
									<polygon id="SVGID_25_" points="100.8,40.5 98.3,40.5 88.4,40.5 88.4,40.5 85.5,40.5 24.2,194.7 46.7,194.7 140.7,194.7 
										163,194.7 									"/>
								</defs>
								<defs>
									<polygon id="SVGID_26_" points="100.8,40.5 98.3,40.5 88.4,40.5 88.4,40.5 85.5,40.5 24.2,194.7 46.7,194.7 140.7,194.7 
										163,194.7 									"/>
								</defs>
								<defs>
									<polygon id="SVGID_27_" points="100.8,40.5 98.3,40.5 88.4,40.5 88.4,40.5 85.5,40.5 24.2,194.7 46.7,194.7 140.7,194.7 
										163,194.7 									"/>
								</defs>
								<defs>
									<polygon id="SVGID_28_" points="100.8,40.5 98.3,40.5 88.4,40.5 88.4,40.5 85.5,40.5 24.2,194.7 46.7,194.7 140.7,194.7 
										163,194.7 									"/>
								</defs>
								<defs>
									<polygon id="SVGID_29_" points="100.8,40.5 98.3,40.5 88.4,40.5 88.4,40.5 85.5,40.5 24.2,194.7 46.7,194.7 140.7,194.7 
										163,194.7 									"/>
								</defs>
								<defs>
									<polygon id="SVGID_30_" points="100.8,40.5 98.3,40.5 88.4,40.5 88.4,40.5 85.5,40.5 24.2,194.7 46.7,194.7 140.7,194.7 
										163,194.7 									"/>
								</defs>
								<defs>
									<polygon id="SVGID_31_" points="100.8,40.5 98.3,40.5 88.4,40.5 88.4,40.5 85.5,40.5 24.2,194.7 46.7,194.7 140.7,194.7 
										163,194.7 									"/>
								</defs>
								<defs>
									<polygon id="SVGID_32_" points="100.8,40.5 98.3,40.5 88.4,40.5 88.4,40.5 85.5,40.5 24.2,194.7 46.7,194.7 140.7,194.7 
										163,194.7 									"/>
								</defs>
								<defs>
									<polygon id="SVGID_33_" points="100.8,40.5 98.3,40.5 88.4,40.5 88.4,40.5 85.5,40.5 24.2,194.7 46.7,194.7 140.7,194.7 
										163,194.7 									"/>
								</defs>
								<defs>
									<polygon id="SVGID_34_" points="100.8,40.5 98.3,40.5 88.4,40.5 88.4,40.5 85.5,40.5 24.2,194.7 46.7,194.7 140.7,194.7 
										163,194.7 									"/>
								</defs>
								<defs>
									<polygon id="SVGID_35_" points="100.8,40.5 98.3,40.5 88.4,40.5 88.4,40.5 85.5,40.5 24.2,194.7 46.7,194.7 140.7,194.7 
										163,194.7 									"/>
								</defs>
								<defs>
									<polygon id="SVGID_36_" points="100.8,40.5 98.3,40.5 88.4,40.5 88.4,40.5 85.5,40.5 24.2,194.7 46.7,194.7 140.7,194.7 
										163,194.7 									"/>
								</defs>
								<defs>
									<polygon id="SVGID_37_" points="100.8,40.5 98.3,40.5 88.4,40.5 88.4,40.5 85.5,40.5 24.2,194.7 46.7,194.7 140.7,194.7 
										163,194.7 									"/>
								</defs>
								<defs>
									<polygon id="SVGID_38_" points="100.8,40.5 98.3,40.5 88.4,40.5 88.4,40.5 85.5,40.5 24.2,194.7 46.7,194.7 140.7,194.7 
										163,194.7 									"/>
								</defs>
								<defs>
									<polygon id="SVGID_39_" points="100.8,40.5 98.3,40.5 88.4,40.5 88.4,40.5 85.5,40.5 24.2,194.7 46.7,194.7 140.7,194.7 
										163,194.7 									"/>
								</defs>
								<defs>
									<polygon id="SVGID_40_" points="100.8,40.5 98.3,40.5 88.4,40.5 88.4,40.5 85.5,40.5 24.2,194.7 46.7,194.7 140.7,194.7 
										163,194.7 									"/>
								</defs>
								<defs>
									<polygon id="SVGID_41_" points="100.8,40.5 98.3,40.5 88.4,40.5 88.4,40.5 85.5,40.5 24.2,194.7 46.7,194.7 140.7,194.7 
										163,194.7 									"/>
								</defs>
								<defs>
									<polygon id="SVGID_42_" points="100.8,40.5 98.3,40.5 88.4,40.5 88.4,40.5 85.5,40.5 24.2,194.7 46.7,194.7 140.7,194.7 
										163,194.7 									"/>
								</defs>
								<defs>
									<polygon id="SVGID_43_" points="100.8,40.5 98.3,40.5 88.4,40.5 88.4,40.5 85.5,40.5 24.2,194.7 46.7,194.7 140.7,194.7 
										163,194.7 									"/>
								</defs>
								<defs>
									<polygon id="SVGID_44_" points="100.8,40.5 98.3,40.5 88.4,40.5 88.4,40.5 85.5,40.5 24.2,194.7 46.7,194.7 140.7,194.7 
										163,194.7 									"/>
								</defs>
								<defs>
									<polygon id="SVGID_45_" points="100.8,40.5 98.3,40.5 88.4,40.5 88.4,40.5 85.5,40.5 24.2,194.7 46.7,194.7 140.7,194.7 
										163,194.7 									"/>
								</defs>
								<defs>
									<polygon id="SVGID_46_" points="100.8,40.5 98.3,40.5 88.4,40.5 88.4,40.5 85.5,40.5 24.2,194.7 46.7,194.7 140.7,194.7 
										163,194.7 									"/>
								</defs>
								<defs>
									<polygon id="SVGID_47_" points="100.8,40.5 98.3,40.5 88.4,40.5 88.4,40.5 85.5,40.5 24.2,194.7 46.7,194.7 140.7,194.7 
										163,194.7 									"/>
								</defs>
								<defs>
									<polygon id="SVGID_48_" points="100.8,40.5 98.3,40.5 88.4,40.5 88.4,40.5 85.5,40.5 24.2,194.7 46.7,194.7 140.7,194.7 
										163,194.7 									"/>
								</defs>
								<defs>
									<polygon id="SVGID_49_" points="100.8,40.5 98.3,40.5 88.4,40.5 88.4,40.5 85.5,40.5 24.2,194.7 46.7,194.7 140.7,194.7 
										163,194.7 									"/>
								</defs>
								<defs>
									<polygon id="SVGID_50_" points="100.8,40.5 98.3,40.5 88.4,40.5 88.4,40.5 85.5,40.5 24.2,194.7 46.7,194.7 140.7,194.7 
										163,194.7 									"/>
								</defs>
								<defs>
									<polygon id="SVGID_51_" points="100.8,40.5 98.3,40.5 88.4,40.5 88.4,40.5 85.5,40.5 24.2,194.7 46.7,194.7 140.7,194.7 
										163,194.7 									"/>
								</defs>
								<defs>
									<polygon id="SVGID_52_" points="100.8,40.5 98.3,40.5 88.4,40.5 88.4,40.5 85.5,40.5 24.2,194.7 46.7,194.7 140.7,194.7 
										163,194.7 									"/>
								</defs>
								<defs>
									<polygon id="SVGID_53_" points="100.8,40.5 98.3,40.5 88.4,40.5 88.4,40.5 85.5,40.5 24.2,194.7 46.7,194.7 140.7,194.7 
										163,194.7 									"/>
								</defs>
								<defs>
									<polygon id="SVGID_54_" points="100.8,40.5 98.3,40.5 88.4,40.5 88.4,40.5 85.5,40.5 24.2,194.7 46.7,194.7 140.7,194.7 
										163,194.7 									"/>
								</defs>
								<defs>
									<polygon id="SVGID_55_" points="100.8,40.5 98.3,40.5 88.4,40.5 88.4,40.5 85.5,40.5 24.2,194.7 46.7,194.7 140.7,194.7 
										163,194.7 									"/>
								</defs>
								<defs>
									<polygon id="SVGID_56_" points="100.8,40.5 98.3,40.5 88.4,40.5 88.4,40.5 85.5,40.5 24.2,194.7 46.7,194.7 140.7,194.7 
										163,194.7 									"/>
								</defs>
								<defs>
									<polygon id="SVGID_57_" points="100.8,40.5 98.3,40.5 88.4,40.5 88.4,40.5 85.5,40.5 24.2,194.7 46.7,194.7 140.7,194.7 
										163,194.7 									"/>
								</defs>
								<defs>
									<polygon id="SVGID_58_" points="100.8,40.5 98.3,40.5 88.4,40.5 88.4,40.5 85.5,40.5 24.2,194.7 46.7,194.7 140.7,194.7 
										163,194.7 									"/>
								</defs>
								<defs>
									<polygon id="SVGID_59_" points="100.8,40.5 98.3,40.5 88.4,40.5 88.4,40.5 85.5,40.5 24.2,194.7 46.7,194.7 140.7,194.7 
										163,194.7 									"/>
								</defs>
								<defs>
									<polygon id="SVGID_60_" points="100.8,40.5 98.3,40.5 88.4,40.5 88.4,40.5 85.5,40.5 24.2,194.7 46.7,194.7 140.7,194.7 
										163,194.7 									"/>
								</defs>
								<defs>
									<polygon id="SVGID_61_" points="100.8,40.5 98.3,40.5 88.4,40.5 88.4,40.5 85.5,40.5 24.2,194.7 46.7,194.7 140.7,194.7 
										163,194.7 									"/>
								</defs>
								<defs>
									<polygon id="SVGID_62_" points="100.8,40.5 98.3,40.5 88.4,40.5 88.4,40.5 85.5,40.5 24.2,194.7 46.7,194.7 140.7,194.7 
										163,194.7 									"/>
								</defs>
								<defs>
									<polygon id="SVGID_63_" points="100.8,40.5 98.3,40.5 88.4,40.5 88.4,40.5 85.5,40.5 24.2,194.7 46.7,194.7 140.7,194.7 
										163,194.7 									"/>
								</defs>
								<defs>
									<polygon id="SVGID_64_" points="100.8,40.5 98.3,40.5 88.4,40.5 88.4,40.5 85.5,40.5 24.2,194.7 46.7,194.7 140.7,194.7 
										163,194.7 									"/>
								</defs>
								<defs>
									<polygon id="SVGID_65_" points="100.8,40.5 98.3,40.5 88.4,40.5 88.4,40.5 85.5,40.5 24.2,194.7 46.7,194.7 140.7,194.7 
										163,194.7 									"/>
								</defs>
								<defs>
									<polygon id="SVGID_66_" points="100.8,40.5 98.3,40.5 88.4,40.5 88.4,40.5 85.5,40.5 24.2,194.7 46.7,194.7 140.7,194.7 
										163,194.7 									"/>
								</defs>
								<defs>
									<polygon id="SVGID_67_" points="100.8,40.5 98.3,40.5 88.4,40.5 88.4,40.5 85.5,40.5 24.2,194.7 46.7,194.7 140.7,194.7 
										163,194.7 									"/>
								</defs>
								<defs>
									<polygon id="SVGID_68_" points="100.8,40.5 98.3,40.5 88.4,40.5 88.4,40.5 85.5,40.5 24.2,194.7 46.7,194.7 140.7,194.7 
										163,194.7 									"/>
								</defs>
								<defs>
									<polygon id="SVGID_69_" points="100.8,40.5 98.3,40.5 88.4,40.5 88.4,40.5 85.5,40.5 24.2,194.7 46.7,194.7 140.7,194.7 
										163,194.7 									"/>
								</defs>
								<defs>
									<polygon id="SVGID_70_" points="100.8,40.5 98.3,40.5 88.4,40.5 88.4,40.5 85.5,40.5 24.2,194.7 46.7,194.7 140.7,194.7 
										163,194.7 									"/>
								</defs>
								<defs>
									<polygon id="SVGID_71_" points="100.8,40.5 98.3,40.5 88.4,40.5 88.4,40.5 85.5,40.5 24.2,194.7 46.7,194.7 140.7,194.7 
										163,194.7 									"/>
								</defs>
								<defs>
									<polygon id="SVGID_72_" points="100.8,40.5 98.3,40.5 88.4,40.5 88.4,40.5 85.5,40.5 24.2,194.7 46.7,194.7 140.7,194.7 
										163,194.7 									"/>
								</defs>
								<defs>
									<polygon id="SVGID_73_" points="100.8,40.5 98.3,40.5 88.4,40.5 88.4,40.5 85.5,40.5 24.2,194.7 46.7,194.7 140.7,194.7 
										163,194.7 									"/>
								</defs>
								<defs>
									<polygon id="SVGID_74_" points="100.8,40.5 98.3,40.5 88.4,40.5 88.4,40.5 85.5,40.5 24.2,194.7 46.7,194.7 140.7,194.7 
										163,194.7 									"/>
								</defs>
								<defs>
									<polygon id="SVGID_75_" points="100.8,40.5 98.3,40.5 88.4,40.5 88.4,40.5 85.5,40.5 24.2,194.7 46.7,194.7 140.7,194.7 
										163,194.7 									"/>
								</defs>
								<defs>
									<polygon id="SVGID_76_" points="100.8,40.5 98.3,40.5 88.4,40.5 88.4,40.5 85.5,40.5 24.2,194.7 46.7,194.7 140.7,194.7 
										163,194.7 									"/>
								</defs>
								<defs>
									<polygon id="SVGID_77_" points="100.8,40.5 98.3,40.5 88.4,40.5 88.4,40.5 85.5,40.5 24.2,194.7 46.7,194.7 140.7,194.7 
										163,194.7 									"/>
								</defs>
								<defs>
									<polygon id="SVGID_78_" points="100.8,40.5 98.3,40.5 88.4,40.5 88.4,40.5 85.5,40.5 24.2,194.7 46.7,194.7 140.7,194.7 
										163,194.7 									"/>
								</defs>
								<defs>
									<polygon id="SVGID_79_" points="100.8,40.5 98.3,40.5 88.4,40.5 88.4,40.5 85.5,40.5 24.2,194.7 46.7,194.7 140.7,194.7 
										163,194.7 									"/>
								</defs>
								<defs>
									<polygon id="SVGID_80_" points="100.8,40.5 98.3,40.5 88.4,40.5 88.4,40.5 85.5,40.5 24.2,194.7 46.7,194.7 140.7,194.7 
										163,194.7 									"/>
								</defs>
								<defs>
									<polygon id="SVGID_81_" points="100.8,40.5 98.3,40.5 88.4,40.5 88.4,40.5 85.5,40.5 24.2,194.7 46.7,194.7 140.7,194.7 
										163,194.7 									"/>
								</defs>
								<defs>
									<polygon id="SVGID_82_" points="100.8,40.5 98.3,40.5 88.4,40.5 88.4,40.5 85.5,40.5 24.2,194.7 46.7,194.7 140.7,194.7 
										163,194.7 									"/>
								</defs>
								<defs>
									<polygon id="SVGID_83_" points="100.8,40.5 98.3,40.5 88.4,40.5 88.4,40.5 85.5,40.5 24.2,194.7 46.7,194.7 140.7,194.7 
										163,194.7 									"/>
								</defs>
								<defs>
									<polygon id="SVGID_84_" points="100.8,40.5 98.3,40.5 88.4,40.5 88.4,40.5 85.5,40.5 24.2,194.7 46.7,194.7 140.7,194.7 
										163,194.7 									"/>
								</defs>
								<defs>
									<polygon id="SVGID_85_" points="100.8,40.5 98.3,40.5 88.4,40.5 88.4,40.5 85.5,40.5 24.2,194.7 46.7,194.7 140.7,194.7 
										163,194.7 									"/>
								</defs>
								<defs>
									<polygon id="SVGID_86_" points="100.8,40.5 98.3,40.5 88.4,40.5 88.4,40.5 85.5,40.5 24.2,194.7 46.7,194.7 140.7,194.7 
										163,194.7 									"/>
								</defs>
								<defs>
									<polygon id="SVGID_87_" points="100.8,40.5 98.3,40.5 88.4,40.5 88.4,40.5 85.5,40.5 24.2,194.7 46.7,194.7 140.7,194.7 
										163,194.7 									"/>
								</defs>
								<defs>
									<polygon id="SVGID_88_" points="100.8,40.5 98.3,40.5 88.4,40.5 88.4,40.5 85.5,40.5 24.2,194.7 46.7,194.7 140.7,194.7 
										163,194.7 									"/>
								</defs>
								<defs>
									<polygon id="SVGID_89_" points="100.8,40.5 98.3,40.5 88.4,40.5 88.4,40.5 85.5,40.5 24.2,194.7 46.7,194.7 140.7,194.7 
										163,194.7 									"/>
								</defs>
								<defs>
									<polygon id="SVGID_90_" points="100.8,40.5 98.3,40.5 88.4,40.5 88.4,40.5 85.5,40.5 24.2,194.7 46.7,194.7 140.7,194.7 
										163,194.7 									"/>
								</defs>
								<defs>
									<polygon id="SVGID_91_" points="100.8,40.5 98.3,40.5 88.4,40.5 88.4,40.5 85.5,40.5 24.2,194.7 46.7,194.7 140.7,194.7 
										163,194.7 									"/>
								</defs>
								<defs>
									<polygon id="SVGID_92_" points="100.8,40.5 98.3,40.5 88.4,40.5 88.4,40.5 85.5,40.5 24.2,194.7 46.7,194.7 140.7,194.7 
										163,194.7 									"/>
								</defs>
								<defs>
									<polygon id="SVGID_93_" points="100.8,40.5 98.3,40.5 88.4,40.5 88.4,40.5 85.5,40.5 24.2,194.7 46.7,194.7 140.7,194.7 
										163,194.7 									"/>
								</defs>
								<defs>
									<polygon id="SVGID_94_" points="100.8,40.5 98.3,40.5 88.4,40.5 88.4,40.5 85.5,40.5 24.2,194.7 46.7,194.7 140.7,194.7 
										163,194.7 									"/>
								</defs>
								<defs>
									<polygon id="SVGID_95_" points="100.8,40.5 98.3,40.5 88.4,40.5 88.4,40.5 85.5,40.5 24.2,194.7 46.7,194.7 140.7,194.7 
										163,194.7 									"/>
								</defs>
								<defs>
									<polygon id="SVGID_96_" points="100.8,40.5 98.3,40.5 88.4,40.5 88.4,40.5 85.5,40.5 24.2,194.7 46.7,194.7 140.7,194.7 
										163,194.7 									"/>
								</defs>
								<defs>
									<polygon id="SVGID_97_" points="100.8,40.5 98.3,40.5 88.4,40.5 88.4,40.5 85.5,40.5 24.2,194.7 46.7,194.7 140.7,194.7 
										163,194.7 									"/>
								</defs>
								<defs>
									<polygon id="SVGID_98_" points="100.8,40.5 98.3,40.5 88.4,40.5 88.4,40.5 85.5,40.5 24.2,194.7 46.7,194.7 140.7,194.7 
										163,194.7 									"/>
								</defs>
								<clipPath id="SVGID_99_">
									<use xlink:href="#SVGID_7_"  overflow="visible"/>
								</clipPath>
								<clipPath id="SVGID_100_" clip-path="url(#SVGID_99_)">
									<use xlink:href="#SVGID_8_"  overflow="visible"/>
								</clipPath>
								<clipPath id="SVGID_101_" clip-path="url(#SVGID_100_)">
									<use xlink:href="#SVGID_9_"  overflow="visible"/>
								</clipPath>
								<clipPath id="SVGID_102_" clip-path="url(#SVGID_101_)">
									<use xlink:href="#SVGID_10_"  overflow="visible"/>
								</clipPath>
								<clipPath id="SVGID_103_" clip-path="url(#SVGID_102_)">
									<use xlink:href="#SVGID_11_"  overflow="visible"/>
								</clipPath>
								<clipPath id="SVGID_104_" clip-path="url(#SVGID_103_)">
									<use xlink:href="#SVGID_12_"  overflow="visible"/>
								</clipPath>
								<clipPath id="SVGID_105_" clip-path="url(#SVGID_104_)">
									<use xlink:href="#SVGID_13_"  overflow="visible"/>
								</clipPath>
								<clipPath id="SVGID_106_" clip-path="url(#SVGID_105_)">
									<use xlink:href="#SVGID_14_"  overflow="visible"/>
								</clipPath>
								<clipPath id="SVGID_107_" clip-path="url(#SVGID_106_)">
									<use xlink:href="#SVGID_15_"  overflow="visible"/>
								</clipPath>
								<clipPath id="SVGID_108_" clip-path="url(#SVGID_107_)">
									<use xlink:href="#SVGID_16_"  overflow="visible"/>
								</clipPath>
								<clipPath id="SVGID_109_" clip-path="url(#SVGID_108_)">
									<use xlink:href="#SVGID_17_"  overflow="visible"/>
								</clipPath>
								<clipPath id="SVGID_110_" clip-path="url(#SVGID_109_)">
									<use xlink:href="#SVGID_18_"  overflow="visible"/>
								</clipPath>
								<clipPath id="SVGID_111_" clip-path="url(#SVGID_110_)">
									<use xlink:href="#SVGID_19_"  overflow="visible"/>
								</clipPath>
								<clipPath id="SVGID_112_" clip-path="url(#SVGID_111_)">
									<use xlink:href="#SVGID_20_"  overflow="visible"/>
								</clipPath>
								<clipPath id="SVGID_113_" clip-path="url(#SVGID_112_)">
									<use xlink:href="#SVGID_21_"  overflow="visible"/>
								</clipPath>
								<clipPath id="SVGID_114_" clip-path="url(#SVGID_113_)">
									<use xlink:href="#SVGID_22_"  overflow="visible"/>
								</clipPath>
								<clipPath id="SVGID_115_" clip-path="url(#SVGID_114_)">
									<use xlink:href="#SVGID_23_"  overflow="visible"/>
								</clipPath>
								<clipPath id="SVGID_116_" clip-path="url(#SVGID_115_)">
									<use xlink:href="#SVGID_24_"  overflow="visible"/>
								</clipPath>
								<clipPath id="SVGID_117_" clip-path="url(#SVGID_116_)">
									<use xlink:href="#SVGID_25_"  overflow="visible"/>
								</clipPath>
								<clipPath id="SVGID_118_" clip-path="url(#SVGID_117_)">
									<use xlink:href="#SVGID_26_"  overflow="visible"/>
								</clipPath>
								<clipPath id="SVGID_119_" clip-path="url(#SVGID_118_)">
									<use xlink:href="#SVGID_27_"  overflow="visible"/>
								</clipPath>
								<clipPath id="SVGID_120_" clip-path="url(#SVGID_119_)">
									<use xlink:href="#SVGID_28_"  overflow="visible"/>
								</clipPath>
								<clipPath id="SVGID_121_" clip-path="url(#SVGID_120_)">
									<use xlink:href="#SVGID_29_"  overflow="visible"/>
								</clipPath>
								<clipPath id="SVGID_122_" clip-path="url(#SVGID_121_)">
									<use xlink:href="#SVGID_30_"  overflow="visible"/>
								</clipPath>
								<clipPath id="SVGID_123_" clip-path="url(#SVGID_122_)">
									<use xlink:href="#SVGID_31_"  overflow="visible"/>
								</clipPath>
								<clipPath id="SVGID_124_" clip-path="url(#SVGID_123_)">
									<use xlink:href="#SVGID_32_"  overflow="visible"/>
								</clipPath>
								<clipPath id="SVGID_125_" clip-path="url(#SVGID_124_)">
									<use xlink:href="#SVGID_33_"  overflow="visible"/>
								</clipPath>
								<clipPath id="SVGID_126_" clip-path="url(#SVGID_125_)">
									<use xlink:href="#SVGID_34_"  overflow="visible"/>
								</clipPath>
								<clipPath id="SVGID_127_" clip-path="url(#SVGID_126_)">
									<use xlink:href="#SVGID_35_"  overflow="visible"/>
								</clipPath>
								<clipPath id="SVGID_128_" clip-path="url(#SVGID_127_)">
									<use xlink:href="#SVGID_36_"  overflow="visible"/>
								</clipPath>
								<clipPath id="SVGID_129_" clip-path="url(#SVGID_128_)">
									<use xlink:href="#SVGID_37_"  overflow="visible"/>
								</clipPath>
								<clipPath id="SVGID_130_" clip-path="url(#SVGID_129_)">
									<use xlink:href="#SVGID_38_"  overflow="visible"/>
								</clipPath>
								<clipPath id="SVGID_131_" clip-path="url(#SVGID_130_)">
									<use xlink:href="#SVGID_39_"  overflow="visible"/>
								</clipPath>
								<clipPath id="SVGID_132_" clip-path="url(#SVGID_131_)">
									<use xlink:href="#SVGID_40_"  overflow="visible"/>
								</clipPath>
								<clipPath id="SVGID_133_" clip-path="url(#SVGID_132_)">
									<use xlink:href="#SVGID_41_"  overflow="visible"/>
								</clipPath>
								<clipPath id="SVGID_134_" clip-path="url(#SVGID_133_)">
									<use xlink:href="#SVGID_42_"  overflow="visible"/>
								</clipPath>
								<clipPath id="SVGID_135_" clip-path="url(#SVGID_134_)">
									<use xlink:href="#SVGID_43_"  overflow="visible"/>
								</clipPath>
								<clipPath id="SVGID_136_" clip-path="url(#SVGID_135_)">
									<use xlink:href="#SVGID_44_"  overflow="visible"/>
								</clipPath>
								<clipPath id="SVGID_137_" clip-path="url(#SVGID_136_)">
									<use xlink:href="#SVGID_45_"  overflow="visible"/>
								</clipPath>
								<clipPath id="SVGID_138_" clip-path="url(#SVGID_137_)">
									<use xlink:href="#SVGID_46_"  overflow="visible"/>
								</clipPath>
								<clipPath id="SVGID_139_" clip-path="url(#SVGID_138_)">
									<use xlink:href="#SVGID_47_"  overflow="visible"/>
								</clipPath>
								<clipPath id="SVGID_140_" clip-path="url(#SVGID_139_)">
									<use xlink:href="#SVGID_48_"  overflow="visible"/>
								</clipPath>
								<clipPath id="SVGID_141_" clip-path="url(#SVGID_140_)">
									<use xlink:href="#SVGID_49_"  overflow="visible"/>
								</clipPath>
								<clipPath id="SVGID_142_" clip-path="url(#SVGID_141_)">
									<use xlink:href="#SVGID_50_"  overflow="visible"/>
								</clipPath>
								<clipPath id="SVGID_143_" clip-path="url(#SVGID_142_)">
									<use xlink:href="#SVGID_51_"  overflow="visible"/>
								</clipPath>
								<clipPath id="SVGID_144_" clip-path="url(#SVGID_143_)">
									<use xlink:href="#SVGID_52_"  overflow="visible"/>
								</clipPath>
								<clipPath id="SVGID_145_" clip-path="url(#SVGID_144_)">
									<use xlink:href="#SVGID_53_"  overflow="visible"/>
								</clipPath>
								<clipPath id="SVGID_146_" clip-path="url(#SVGID_145_)">
									<use xlink:href="#SVGID_54_"  overflow="visible"/>
								</clipPath>
								<clipPath id="SVGID_147_" clip-path="url(#SVGID_146_)">
									<use xlink:href="#SVGID_55_"  overflow="visible"/>
								</clipPath>
								<clipPath id="SVGID_148_" clip-path="url(#SVGID_147_)">
									<use xlink:href="#SVGID_56_"  overflow="visible"/>
								</clipPath>
								<clipPath id="SVGID_149_" clip-path="url(#SVGID_148_)">
									<use xlink:href="#SVGID_57_"  overflow="visible"/>
								</clipPath>
								<clipPath id="SVGID_150_" clip-path="url(#SVGID_149_)">
									<use xlink:href="#SVGID_58_"  overflow="visible"/>
								</clipPath>
								<clipPath id="SVGID_151_" clip-path="url(#SVGID_150_)">
									<use xlink:href="#SVGID_59_"  overflow="visible"/>
								</clipPath>
								<clipPath id="SVGID_152_" clip-path="url(#SVGID_151_)">
									<use xlink:href="#SVGID_60_"  overflow="visible"/>
								</clipPath>
								<clipPath id="SVGID_153_" clip-path="url(#SVGID_152_)">
									<use xlink:href="#SVGID_61_"  overflow="visible"/>
								</clipPath>
								<clipPath id="SVGID_154_" clip-path="url(#SVGID_153_)">
									<use xlink:href="#SVGID_62_"  overflow="visible"/>
								</clipPath>
								<clipPath id="SVGID_155_" clip-path="url(#SVGID_154_)">
									<use xlink:href="#SVGID_63_"  overflow="visible"/>
								</clipPath>
								<clipPath id="SVGID_156_" clip-path="url(#SVGID_155_)">
									<use xlink:href="#SVGID_64_"  overflow="visible"/>
								</clipPath>
								<clipPath id="SVGID_157_" clip-path="url(#SVGID_156_)">
									<use xlink:href="#SVGID_65_"  overflow="visible"/>
								</clipPath>
								<clipPath id="SVGID_158_" clip-path="url(#SVGID_157_)">
									<use xlink:href="#SVGID_66_"  overflow="visible"/>
								</clipPath>
								<clipPath id="SVGID_159_" clip-path="url(#SVGID_158_)">
									<use xlink:href="#SVGID_67_"  overflow="visible"/>
								</clipPath>
								<clipPath id="SVGID_160_" clip-path="url(#SVGID_159_)">
									<use xlink:href="#SVGID_68_"  overflow="visible"/>
								</clipPath>
								<clipPath id="SVGID_161_" clip-path="url(#SVGID_160_)">
									<use xlink:href="#SVGID_69_"  overflow="visible"/>
								</clipPath>
								<clipPath id="SVGID_162_" clip-path="url(#SVGID_161_)">
									<use xlink:href="#SVGID_70_"  overflow="visible"/>
								</clipPath>
								<clipPath id="SVGID_163_" clip-path="url(#SVGID_162_)">
									<use xlink:href="#SVGID_71_"  overflow="visible"/>
								</clipPath>
								<clipPath id="SVGID_164_" clip-path="url(#SVGID_163_)">
									<use xlink:href="#SVGID_72_"  overflow="visible"/>
								</clipPath>
								<clipPath id="SVGID_165_" clip-path="url(#SVGID_164_)">
									<use xlink:href="#SVGID_73_"  overflow="visible"/>
								</clipPath>
								<clipPath id="SVGID_166_" clip-path="url(#SVGID_165_)">
									<use xlink:href="#SVGID_74_"  overflow="visible"/>
								</clipPath>
								<clipPath id="SVGID_167_" clip-path="url(#SVGID_166_)">
									<use xlink:href="#SVGID_75_"  overflow="visible"/>
								</clipPath>
								<clipPath id="SVGID_168_" clip-path="url(#SVGID_167_)">
									<use xlink:href="#SVGID_76_"  overflow="visible"/>
								</clipPath>
								<clipPath id="SVGID_169_" clip-path="url(#SVGID_168_)">
									<use xlink:href="#SVGID_77_"  overflow="visible"/>
								</clipPath>
								<clipPath id="SVGID_170_" clip-path="url(#SVGID_169_)">
									<use xlink:href="#SVGID_78_"  overflow="visible"/>
								</clipPath>
								<clipPath id="SVGID_171_" clip-path="url(#SVGID_170_)">
									<use xlink:href="#SVGID_79_"  overflow="visible"/>
								</clipPath>
								<clipPath id="SVGID_172_" clip-path="url(#SVGID_171_)">
									<use xlink:href="#SVGID_80_"  overflow="visible"/>
								</clipPath>
								<clipPath id="SVGID_173_" clip-path="url(#SVGID_172_)">
									<use xlink:href="#SVGID_81_"  overflow="visible"/>
								</clipPath>
								<clipPath id="SVGID_174_" clip-path="url(#SVGID_173_)">
									<use xlink:href="#SVGID_82_"  overflow="visible"/>
								</clipPath>
								<clipPath id="SVGID_175_" clip-path="url(#SVGID_174_)">
									<use xlink:href="#SVGID_83_"  overflow="visible"/>
								</clipPath>
								<clipPath id="SVGID_176_" clip-path="url(#SVGID_175_)">
									<use xlink:href="#SVGID_84_"  overflow="visible"/>
								</clipPath>
								<clipPath id="SVGID_177_" clip-path="url(#SVGID_176_)">
									<use xlink:href="#SVGID_85_"  overflow="visible"/>
								</clipPath>
								<clipPath id="SVGID_178_" clip-path="url(#SVGID_177_)">
									<use xlink:href="#SVGID_86_"  overflow="visible"/>
								</clipPath>
								<clipPath id="SVGID_179_" clip-path="url(#SVGID_178_)">
									<use xlink:href="#SVGID_87_"  overflow="visible"/>
								</clipPath>
								<clipPath id="SVGID_180_" clip-path="url(#SVGID_179_)">
									<use xlink:href="#SVGID_88_"  overflow="visible"/>
								</clipPath>
								<clipPath id="SVGID_181_" clip-path="url(#SVGID_180_)">
									<use xlink:href="#SVGID_89_"  overflow="visible"/>
								</clipPath>
								<clipPath id="SVGID_182_" clip-path="url(#SVGID_181_)">
									<use xlink:href="#SVGID_90_"  overflow="visible"/>
								</clipPath>
								<clipPath id="SVGID_183_" clip-path="url(#SVGID_182_)">
									<use xlink:href="#SVGID_91_"  overflow="visible"/>
								</clipPath>
								<clipPath id="SVGID_184_" clip-path="url(#SVGID_183_)">
									<use xlink:href="#SVGID_92_"  overflow="visible"/>
								</clipPath>
								<clipPath id="SVGID_185_" clip-path="url(#SVGID_184_)">
									<use xlink:href="#SVGID_93_"  overflow="visible"/>
								</clipPath>
								<clipPath id="SVGID_186_" clip-path="url(#SVGID_185_)">
									<use xlink:href="#SVGID_94_"  overflow="visible"/>
								</clipPath>
								<clipPath id="SVGID_187_" clip-path="url(#SVGID_186_)">
									<use xlink:href="#SVGID_95_"  overflow="visible"/>
								</clipPath>
								<clipPath id="SVGID_188_" clip-path="url(#SVGID_187_)">
									<use xlink:href="#SVGID_96_"  overflow="visible"/>
								</clipPath>
								<clipPath id="SVGID_189_" clip-path="url(#SVGID_188_)">
									<use xlink:href="#SVGID_97_"  overflow="visible"/>
								</clipPath>
								<clipPath id="SVGID_190_" clip-path="url(#SVGID_189_)">
									<use xlink:href="#SVGID_98_"  overflow="visible"/>
								</clipPath>
								<rect x="43.4" y="96.9" clip-path="url(#SVGID_190_)" fill="#EC6158" width="97.1" height="30.3"/>
								<g clip-path="url(#SVGID_190_)">
									<polygon fill="#2B4B58" points="135,97.6 125.9,97.6 130.5,90.9 130.5,90.9 									"/>
									<polygon fill="#2B4B58" points="126.5,97.6 117.4,97.6 121.9,90.9 121.9,90.9 									"/>
									<polygon fill="#2B4B58" points="118,97.6 108.8,97.6 113.4,90.9 113.4,90.9 									"/>
									<polygon fill="#2B4B58" points="109.5,97.6 100.3,97.6 104.9,90.9 104.9,90.9 									"/>
									<polygon fill="#2B4B58" points="100.9,97.6 91.8,97.6 96.4,90.9 96.4,90.9 									"/>
									<polygon fill="#2B4B58" points="92.4,97.6 83.3,97.6 87.8,90.9 87.8,90.9 									"/>
									<polygon fill="#2B4B58" points="83.9,97.6 74.7,97.6 79.3,90.9 79.3,90.9 									"/>
									<polygon fill="#2B4B58" points="75.4,97.6 66.2,97.6 70.8,90.9 70.8,90.9 									"/>
									<polygon fill="#2B4B58" points="66.9,97.6 57.7,97.6 62.3,90.9 62.3,90.9 									"/>
									<polygon fill="#2B4B58" points="58.3,97.6 49.2,97.6 53.8,90.9 53.8,90.9 									"/>
								</g>
								
									<line clip-path="url(#SVGID_190_)" fill="none" stroke="#FFFFFF" stroke-width="2" stroke-miterlimit="10" x1="48.8" y1="85.9" x2="135.1" y2="85.9"/>
								
									<line clip-path="url(#SVGID_190_)" fill="none" stroke="#FFFFFF" stroke-width="2" stroke-miterlimit="10" x1="48.8" y1="126.7" x2="141.2" y2="126.7"/>
								<g clip-path="url(#SVGID_190_)">
									<g>
										<g>
											<polygon fill="#2B4B58" points="54.7,134.5 48.8,134.5 51.7,130.7 51.7,130.7 											"/>
										</g>
										<g>
											<polyline fill="#2B4B58" points="40.9,130.3 40.9,130.3 43.4,134.5 40.9,134.5 											"/>
										</g>
										<g>
											<polygon fill="#2B4B58" points="64.6,134.5 58.7,134.5 61.8,130.6 61.8,130.6 											"/>
										</g>
										<g>
											<polygon fill="#2B4B58" points="75.1,134.5 68.5,134.5 71.8,130.6 71.8,130.6 											"/>
										</g>
										<g>
											<polygon fill="#2B4B58" points="85,134.5 79.1,134.5 81.9,130.8 81.9,130.8 											"/>
										</g>
										<g>
											<polygon fill="#2B4B58" points="94.9,134.5 89,134.5 92,130.6 92,130.6 											"/>
										</g>
										<g>
											<polygon fill="#2B4B58" points="115.4,134.5 108.8,134.5 112.1,130.6 112.1,130.6 											"/>
										</g>
										<g>
											<polygon fill="#2B4B58" points="104.8,134.5 98.9,134.5 102,130.6 102,130.6 											"/>
										</g>
										<g>
											<polygon fill="#2B4B58" points="125.2,134.5 119.3,134.5 122.2,130.6 122.2,130.6 											"/>
										</g>
										<g>
											<polygon fill="#2B4B58" points="135.8,134.5 129.9,134.5 132.8,130.6 132.8,130.6 											"/>
										</g>
										<g>
											<polyline fill="#2B4B58" points="143,134.5 139.7,134.5 143,130.6 143,130.6 											"/>
										</g>
									</g>
								</g>
								
									<line clip-path="url(#SVGID_190_)" fill="none" stroke="#FFFFFF" stroke-width="2" stroke-miterlimit="10" x1="48.8" y1="96.9" x2="135.1" y2="96.9"/>
								<polyline clip-path="url(#SVGID_190_)" fill="none" stroke="#FFFFFF" stroke-width="2" stroke-miterlimit="10" points="
									109.2,58.4 110.2,60 76.3,60 77.2,58.4 								"/>
								
									<line clip-path="url(#SVGID_190_)" fill="none" stroke="#FFFFFF" stroke-width="2" stroke-miterlimit="10" x1="34.1" y1="139.2" x2="149.8" y2="139.2"/>
							</g>
							<polyline opacity="5.000000e-02" fill="#18292D" enable-background="new    " points="73.6,94.9 88.4,40.5 85.5,40.5 
								63.8,94.9 							"/>
							<polyline opacity="5.000000e-02" fill="#18292D" enable-background="new    " points="50.5,128.6 24.2,194.7 46.7,194.7 
								64.5,128.6 							"/>
							<polyline id="shadow_1_" opacity="0.1" fill="#FF0000" enable-background="new    " points="65.6,124.7 72.6,98.8 62.3,98.8 
								52,124.7 							"/>
							<rect id="top_2_" x="85.1" y="38.1" fill="#3A626B" width="16.2" height="2.7"/>
							<polygon id="light_3_" opacity="0.1" fill="#CEEEF2" enable-background="new    " points="100.8,40.5 97.9,40.5 140.7,194.7 
								163,194.7 							"/>
						</g>
					</g>
				</g>
			</g>
		</g>
	</g>
</g>
</svg>
