<?xml version="1.0" encoding="utf-8"?>
<!-- Generator: Adobe Illustrator 16.0.3, SVG Export Plug-In . SVG Version: 6.00 Build 0)  -->
<!DOCTYPE svg PUBLIC "-//W3C//DTD SVG 1.1//EN" "http://www.w3.org/Graphics/SVG/1.1/DTD/svg11.dtd">
<svg version="1.1" id="Layer_1" xmlns="http://www.w3.org/2000/svg" xmlns:xlink="http://www.w3.org/1999/xlink" x="0px" y="0px"
	 width="189.9px" height="190px" viewBox="0 0 189.9 190" enable-background="new 0 0 189.9 190" xml:space="preserve">
<circle fill="#FFFFFF" cx="94.9" cy="95" r="95"/>
<g>
	<g>
		<defs>
			<circle id="SVGID_1_" cx="94.9" cy="95" r="90"/>
		</defs>
		<clipPath id="SVGID_2_">
			<use xlink:href="#SVGID_1_"  overflow="visible"/>
		</clipPath>
		<g clip-path="url(#SVGID_2_)">
			<rect x="-22.5" y="-22.5" fill="#ED5F57" width="234.9" height="234.9"/>
			<g>
				<path fill="#FFFFFF" d="M80.5,74l-2.5-1.7c-2.8,3.5-5.8,5.8-10.8,5.8c-6.7,0-11.4-5.6-11.4-12.7v-0.1c0-6.6,4.2-12,10.4-12.5
					c0.4,0,0.6,0,1,0c4.6,0,7.7,2.2,10.4,5.6l9.9-7.7c-4.2-5.8-10.5-9.9-20.3-9.9c-3,0-5.7,0.5-8.3,1.2C49.1,45,42.3,54.2,42.3,65.3
					v0.1c0,14.2,11,24.6,24.6,24.6c9,0,14.7-3.3,18.9-8c0.7-0.9,1.5-1.7,2.1-2.7L80.5,74z"/>
			</g>
			<polygon fill="#FFFFFF" points="74.6,126.2 54.9,101.1 42.7,101.1 42.7,148.7 55.7,148.7 55.7,122.5 76.1,148.7 87.7,148.7 
				87.7,101.1 74.6,101.1 			"/>
			<path fill="#FFFFFF" d="M133.5,100.6v26.8c0,6.7-3.5,9.8-8.8,9.8c-0.6,0-1.2,0-1.9-0.1c-4.3-0.7-6.9-4-6.9-10v-0.5v-26h-13.4v5.8
				v21c0,15,8.5,21.8,22,21.8c2.1,0,4.1-0.1,5.9-0.5c10.1-1.9,16.3-8.7,16.3-21.6v-26.5H133.5z"/>
			<path fill="#FFFFFF" d="M98.1,89.3H112l3.5-8.5h18.4l3.5,8.5h14.2l-20.3-48h-12.7L98.1,89.3z M129.9,70.5h-10.6l5.4-13.6
				L129.9,70.5z"/>
		</g>
	</g>
</g>
</svg>
