<?xml version="1.0" encoding="utf-8"?>
<!-- Generator: Adobe Illustrator 16.0.3, SVG Export Plug-In . SVG Version: 6.00 Build 0)  -->
<!DOCTYPE svg PUBLIC "-//W3C//DTD SVG 1.1//EN" "http://www.w3.org/Graphics/SVG/1.1/DTD/svg11.dtd">
<svg version="1.1" id="Layer_1" xmlns="http://www.w3.org/2000/svg" xmlns:xlink="http://www.w3.org/1999/xlink" x="0px" y="0px"
	 width="190px" height="190px" viewBox="0 0 190 190" enable-background="new 0 0 190 190" xml:space="preserve">
<circle fill="#FFFFFF" cx="95" cy="95" r="95"/>
<circle fill="#A3DADD" cx="95" cy="95" r="90"/>
<g>
	<g>
		<g>
			<defs>
				<circle id="SVGID_1_" cx="95" cy="95" r="90"/>
			</defs>
			<clipPath id="SVGID_2_">
				<use xlink:href="#SVGID_1_"  overflow="visible"/>
			</clipPath>
			<g clip-path="url(#SVGID_2_)">
				<rect x="35.9" y="130.4" fill="#EC6158" width="4.6" height="46.5"/>
				<polygon fill="#3B636C" points="70.1,150.6 6.3,150.6 38.2,39.6 38.2,39.6 				"/>
				<ellipse fill="#3B636C" cx="46.1" cy="150.6" rx="8" ry="7.8"/>
				<ellipse fill="#3B636C" cx="62.1" cy="150.6" rx="8" ry="7.8"/>
				<line fill="none" x1="70.1" y1="135.3" x2="70.1" y2="135.3"/>
				<line fill="none" x1="54.1" y1="135.3" x2="54.1" y2="135.3"/>
				<rect x="132.3" y="130.4" fill="#EC6158" width="4.6" height="46.5"/>
				<polygon fill="#E5F3F4" points="166.5,159.7 102.7,159.7 134.6,39.6 134.6,39.6 				"/>
				<line fill="none" x1="166.5" y1="135.3" x2="166.5" y2="135.3"/>
				<line fill="none" x1="150.6" y1="135.3" x2="150.6" y2="135.3"/>
				<rect x="82.6" y="102.9" fill="#3B636C" width="4.6" height="55.7"/>
				<polyline fill="#5C868D" points="84.9,16.7 116.8,150.6 53,150.6 84.9,16.7 				"/>
				<ellipse fill="#5C868D" cx="60.9" cy="107.9" rx="8" ry="7.8"/>
				<ellipse fill="#5C868D" cx="92.8" cy="132.3" rx="8" ry="7.8"/>
				<ellipse fill="#5C868D" cx="108.8" cy="132.3" rx="8" ry="7.8"/>
				<line fill="none" x1="116.8" y1="107.8" x2="116.8" y2="107.8"/>
				<line fill="none" x1="100.8" y1="107.8" x2="100.8" y2="107.8"/>
				<rect x="172" y="151.8" fill="#EC6158" width="4.6" height="25.2"/>
				<polygon fill="#5C868D" points="195,166.4 153.6,166.4 174.6,86.9 174.6,86.9 				"/>
				<line fill="none" x1="193.8" y1="160.3" x2="193.8" y2="160.3"/>
				<rect x="57.2" y="142.6" fill="#EC6158" width="4.6" height="44.3"/>
				<polygon fill="#E5F3F4" points="91.4,162.8 27.6,162.8 59.2,73.8 59.2,73.8 				"/>
				<line fill="none" x1="91.4" y1="162.8" x2="91.4" y2="162.8"/>
				<line fill="none" x1="75.5" y1="162.8" x2="75.5" y2="162.8"/>
				<rect x="109.1" y="121.3" fill="#EC6158" width="4.6" height="75.7"/>
				<polygon fill="#3B636C" points="143.3,168.4 79.5,168.4 111.3,65.5 111.3,65.5 				"/>
				<line fill="none" x1="127.4" y1="141.4" x2="127.4" y2="141.4"/>
				<rect x="23.4" y="154.8" fill="#EC6158" width="4.6" height="22.1"/>
				<polygon fill="#5C868D" points="46.4,169.4 5,169.4 25.7,111 25.7,111 				"/>
				<line fill="none" x1="145.5" y1="159.7" x2="145.5" y2="159.7"/>
				<line fill="none" x1="105.6" y1="169.4" x2="105.6" y2="169.4"/>
			</g>
		</g>
	</g>
</g>
</svg>
