<?xml version="1.0" encoding="utf-8"?>
<!-- Generator: Adobe Illustrator 16.0.3, SVG Export Plug-In . SVG Version: 6.00 Build 0)  -->
<!DOCTYPE svg PUBLIC "-//W3C//DTD SVG 1.1//EN" "http://www.w3.org/Graphics/SVG/1.1/DTD/svg11.dtd">
<svg version="1.1" id="Layer_1" xmlns="http://www.w3.org/2000/svg" xmlns:xlink="http://www.w3.org/1999/xlink" x="0px" y="0px"
	 width="190px" height="190px" viewBox="0 0 190 190" enable-background="new 0 0 190 190" xml:space="preserve">
<g>
	<circle fill="#FFFFFF" cx="95" cy="95" r="95"/>
	<circle fill="#A3DADD" cx="95" cy="95" r="90"/>
	<g>
		<g>
			<g>
				<g>
					<defs>
						<circle id="SVGID_1_" cx="95" cy="95" r="90"/>
					</defs>
					<clipPath id="SVGID_2_">
						<use xlink:href="#SVGID_1_"  overflow="visible"/>
					</clipPath>
					<g clip-path="url(#SVGID_2_)">
						<path fill="#EFF8F8" d="M127.6,43.3c2.7-5.4,1.4-12.1-3.4-15.7c-5.3-4-12.8-2.6-16.7,3c-0.1,0.1-0.2,0.2-0.2,0.3
							c-4.1-1-8.6,0.6-11.2,4.4c-3.5,5-2.5,11.9,2.2,15.4c3.7,2.8,8.6,2.6,12.2,0c-0.6,3.9,0.9,7.9,4.1,10.4
							c4.7,3.5,11.3,2.3,14.8-2.7C132.7,53.5,131.9,46.9,127.6,43.3z"/>
						<path fill="#EFF8F8" d="M107.2,43c-0.9-6-5.9-10.7-12-10.7c-6.7,0-12.2,5.6-12.2,12.5c0,0.1,0,0.3,0,0.4
							c-4,1.6-6.6,6.1-6.6,10.8c0,6.1,4.6,10.7,10.6,10.7c4.7,0,8.7-3.1,10.2-7.4c1.8,3.5,5.4,5.9,9.5,5.9c6,0,10.8-5,10.8-11.1
							C117.5,48.1,112.9,43.2,107.2,43z"/>
						<path fill="#EFF8F8" d="M111.6,55.4c0,8,20.2,13.9,28,13.9c0,0,0-3.9,0-11.9s-6-16.5-13.8-16.5
							C117.9,40.9,111.6,47.4,111.6,55.4z"/>
						<g>
							<path fill="none" stroke="#E5F3F4" stroke-width="8" stroke-miterlimit="10" d="M120,123.4c0,5.5-4.5,10-10,10H67.5
								c-5.5,0-10-4.5-10-10V80.9c0-5.5,4.5-10,10-10H110c5.5,0,10,4.5,10,10V123.4z"/>
						</g>
						<ellipse fill="#EFF8F8" cx="104.1" cy="32.3" rx="13" ry="13.5"/>
						<path fill="#E9F5F5" d="M107.5,19.4c-1.2-0.4-2.5-0.6-3.8-0.6c-7.1,0-12.9,6-12.9,13.5c0,0.3,0,0.5,0,0.8
							c-4.7,1.7-8.1,6.4-8.1,11.8c0,0.1,0,0.3,0,0.4c-4,1.6-6.5,6.1-6.5,10.8c0,10.4,0,10.4,0,10.4c4.7,0,19.1-2.8,20.5-7.2
							c1.8,3.5,5.3,5.9,9.4,5.9c0.6,0,1.1,0,1.6-0.1"/>
						<path fill="#E5F3F4" d="M139.6,57.4l-63.3,0.2c0,0,0,92.6,0,92.7c0,1.4,1.4,2.7,2.7,2.7h57.9c1.3,0,2.7-1.3,2.7-2.7
							C139.6,150.2,139.6,57.4,139.6,57.4z"/>
						<rect x="76.4" y="57.4" fill="#FCC921" width="63.3" height="86.1"/>
						<path fill="#FCC921" d="M139.6,143.6c0,1.5-1.2,2.7-2.7,2.7H79c-1.5,0-2.7-1.2-2.7-2.7l0,0c0-1.5,1.2-2.7,2.7-2.7h57.9
							C138.4,140.9,139.6,142.1,139.6,143.6L139.6,143.6z"/>
						<path opacity="0.19" fill="#EA2227" enable-background="new    " d="M108.7,57.4H76.4c0,0,0,84.8,0,86.1
							c0,1.5,1.2,2.7,2.7,2.7h29.6V57.4z"/>
						<path opacity="0.3" fill="#F3F9F9" enable-background="new    " d="M122.4,133.1c0,3.6,2.9,6.6,6.6,6.6l0,0
							c3.6,0,6.6-2.9,6.6-6.6V69.4c0-3.6-2.9-6.6-6.6-6.6l0,0c-3.6,0-6.6,2.9-6.6,6.6V133.1z"/>
						<path opacity="0.3" fill="#F3F9F9" enable-background="new    " d="M101.6,133.1c0,3.6,2.9,6.6,6.6,6.6l0,0
							c3.6,0,6.6-2.9,6.6-6.6V69.4c0-3.6-2.9-6.6-6.6-6.6l0,0c-3.6,0-6.6,2.9-6.6,6.6V133.1z"/>
						<path opacity="0.3" fill="#F3F9F9" enable-background="new    " d="M80.9,133.1c0,3.6,2.9,6.6,6.6,6.6l0,0
							c3.6,0,6.6-2.9,6.6-6.6V69.4c0-3.6-2.9-6.6-6.6-6.6l0,0c-3.6,0-6.6,2.9-6.6,6.6V133.1z"/>
						<path fill="#E9F5F5" d="M88.5,45.3v28.9c0,2.3,1.7,4.1,3.8,4.1l0,0c2.1,0,3.8-1.8,3.8-4.1V45.3"/>
						<path fill="#E9F5F5" d="M95.8,34.2v28.9c0,2.3,1.7,4.1,3.8,4.1l0,0c2.1,0,3.8-1.8,3.8-4.1V34.2"/>
						<path opacity="0.6" fill="#FFFFFF" enable-background="new    " d="M103.3,63.1c0,2.4-1.7,4.1-3.8,4.1l0,0
							C99.5,67.2,101.9,66.8,103.3,63.1z"/>
						<path opacity="0.6" fill="#FFFFFF" enable-background="new    " d="M96.1,74.2c0,2.4-1.7,4.1-3.8,4.1l0,0
							C92.3,78.3,94.8,77.8,96.1,74.2z"/>
						<path fill="#FFFFFF" d="M114.9,24.7c-2.3-3.6-6.3-5.9-10.8-5.9C113.2,21.8,116.3,26.9,114.9,24.7z"/>
						<path fill="#FFFFFF" d="M128.8,39.6c0.8-4.5-0.9-9.2-4.6-12.1c-1.6-1.2-3.4-1.9-5.2-2.2C126.5,28.8,128.9,34.2,128.8,39.6z"/>
						<path fill="#FFFFFF" d="M138.7,52.1c-1.4-5-5.2-9.2-10-10.7C136.1,45.3,139.1,53.5,138.7,52.1z"/>
						<path id="shadow_34_" opacity="5.000000e-02" fill="#1B2F33" enable-background="new    " d="M-47.4,19.8
							C-168.2,187.1,12.2,281.6,66.1,126.1c1.5-4.3,8.2-8.2,7-12.2c-0.9-2.8-0.6,0.8-6.5,1.6c5.9-0.8-9.4-0.3-9.7-4.6
							c-0.4-2.7,13.7-7.7,9.3-7.4l-6.8,2c5-0.6,7.4-9.1,0.2-8c-2.9,0.5-4.9-3-7.9-3c-6.3-17.7-13.2-10.6-10.8,5.8
							c0.1,0.9-0.6,2.7-0.9,3.5c-25.7,66-117.2,58.7-68.8-27.7"/>
						<path id="base_173_" fill="#2B4C59" d="M41.1,92.9c-24.5,68.5-115.3,64.5-66.4-23l-22.2-54.8
							c-120.8,167.3,58.2,262.2,112,106.8c1.5-4.3,9.4-3.6,8.6-9.4c-0.4-2.9-0.6-5.2-6.5-4.4c5.9-0.8,6.6-3.6,6.4-7.8
							c-0.4-2.7-2.4-4.4-6.8-4.1l2.6-0.4c5-0.6,3.7-11-3.4-9.9c-2.7,0.4-10.4,1.3-13.5,1.2C45.6,69.4,38.7,76.5,41.1,92.9z"/>
						<path id="base_172_" opacity="0.5" fill="#28434C" enable-background="new    " d="M41.1,92.9c-24.5,68.5-115.3,64.5-66.4-23
							l-22.2-54.4C-168.3,182.8,10.7,277.3,64.6,121.9c1.5-4.3,9.4-3.6,8.6-9.4c-0.4-2.9-0.6-5.2-6.5-4.4c5.9-0.8,6.6-3.6,6.4-7.8
							c-0.4-2.7-2.4-4.4-6.8-4.1l2.6-0.4c5-0.6,3.7-11-3.4-9.9c-2.8,0.4-10.5,1.3-13.6,1.2C45.6,69.4,38.7,76.5,41.1,92.9z"/>
						<path id="base_171_" opacity="0.1" fill="#528192" enable-background="new    " d="M-73.1,171.9c25.5,35.9,84.2,43.5,122.3-17
							C12.7,197.1-31.3,209.4-73.1,171.9z"/>
						<g id="base_169_">
							<g>
								<path fill="#1D3135" d="M-47.2,14.8c-9,13-17.2,26.5-23.8,40.9c-3.3,7.2-6.2,14.5-8.6,22c-2.3,7.5-4.4,15.1-5.8,22.8
									c-1.3,7.7-2,15.6-1.9,23.4c0.1,7.8,1.2,15.6,3.1,23.2c2,7.5,5,14.8,9.1,21.5c4.1,6.6,9.3,12.6,15.3,17.5
									c6.1,4.9,13,8.6,20.5,10.9c7.4,2.3,15.3,3.2,23,2.6c7.8-0.6,15.4-2.6,22.5-5.8c7.1-3.2,13.7-7.5,19.7-12.6
									c5.9-5.1,11.3-10.9,15.9-17.2c4.7-6.3,8.8-13,12.3-20c3.6-7,6.6-14.3,9.2-21.7l0.3-0.7l0.1-0.3l0.2-0.5
									c0.3-0.5,0.7-1,1.1-1.4c0.9-0.8,1.8-1.3,2.7-1.7c1.8-0.9,3.6-1.7,4.1-3.1c0.1-0.3,0.2-0.7,0.2-1.1c0-0.4,0-0.8-0.1-1.3
									c-0.1-0.9-0.3-1.8-0.7-2.3c-0.3-0.5-1-0.7-1.9-0.8c-0.9-0.1-1.8,0-2.7,0.1l-0.3-2c0.4-0.1,0.9-0.1,1.3-0.3
									c0.2-0.1,0.4-0.1,0.6-0.2l0.6-0.2l0.6-0.3l0.5-0.3c0.3-0.2,0.6-0.5,0.9-0.8c0.2-0.3,0.4-0.6,0.6-1c0.2-0.4,0.2-0.8,0.3-1.2
									c0.1-0.8,0.1-1.8,0.1-2.7v0.1c-0.1-0.6-0.3-1.2-0.6-1.6c-0.3-0.5-0.7-0.8-1.3-1.1c-1.1-0.5-2.5-0.6-3.8-0.6l-0.2-2l2-0.3
									l0.5-0.1l0.5-0.1c0.2,0,0.2-0.1,0.3-0.1c0.1,0,0.2-0.1,0.3-0.1c0.8-0.5,1.2-1.5,1.3-2.6c0.1-1.1-0.3-2.3-0.9-3.2
									s-1.5-1.6-2.6-1.8c-0.5-0.1-1.1-0.1-1.7-0.1l-2,0.3c-1.3,0.2-2.7,0.3-4,0.5c-1.3,0.1-2.7,0.3-4,0.4c-0.7,0.1-1.3,0.1-2,0.1
									c-0.7,0-1.4,0-2.1,0.1h-0.7l-0.2-0.7c-0.8-2.4-1.8-4.7-3.1-6.8c-0.6-1-1.4-2-2.3-2.5c-0.4-0.3-0.8-0.4-1.1-0.3
									c-0.3,0-0.7,0.3-1,0.7c-0.6,0.8-1,1.9-1.3,3.1c-0.3,1.2-0.4,2.4-0.5,3.7c-0.1,2.5,0.1,5,0.4,7.5v0.1l0,0
									c0,1.3-0.3,2-0.6,2.9c-0.2,0.4-0.3,0.8-0.5,1.3l-0.5,1.2c-0.6,1.6-1.4,3.2-2.1,4.8c-1.5,3.2-3.3,6.2-5.2,9.2
									c-3.8,5.9-8.4,11.3-13.8,15.9c-5.3,4.6-11.4,8.4-18,10.9c-3.3,1.2-6.8,2.2-10.3,2.6s-7.1,0.5-10.7-0.1c-3.5-0.6-7-2-10-4
									s-5.4-4.9-7.1-8c-1.7-3.2-2.7-6.6-3.1-10.1c-0.4-3.5-0.4-7,0-10.5c0.4-3.5,1.1-6.9,2-10.3c0.9-3.4,2.1-6.7,3.3-9.9
									c1.3-3.2,2.7-6.4,4.3-9.5c1.5-3.1,3.2-6.2,4.9-9.2c-1.6,3.1-3.2,6.1-4.7,9.3c-1.5,3.1-2.8,6.4-4,9.6
									c-1.2,3.3-2.2,6.6-3.1,9.9c-0.8,3.4-1.4,6.8-1.7,10.2c-0.3,3.4-0.3,6.9,0.3,10.2c0.5,3.4,1.6,6.6,3.2,9.6
									c1.7,2.9,4,5.4,6.8,7.2c1.4,0.9,2.9,1.7,4.4,2.2c1.6,0.6,3.2,1,4.8,1.3c3.3,0.6,6.7,0.6,10.1,0.2s6.7-1.3,9.8-2.5
									c6.4-2.4,12.3-6.1,17.4-10.5c5.2-4.5,9.7-9.7,13.4-15.5c1.9-2.9,3.6-5.9,5-9c0.7-1.6,1.4-3.1,2.1-4.7l0.5-1.2
									c0.2-0.4,0.3-0.8,0.4-1.2c0.3-0.7,0.5-1.7,0.5-2.1v0.1c-0.4-2.6-0.6-5.2-0.4-7.9c0.1-1.3,0.2-2.7,0.5-4
									c0.3-1.3,0.7-2.7,1.7-3.9c0.5-0.6,1.2-1.2,2.2-1.4c1-0.1,1.9,0.2,2.5,0.6c1.3,0.9,2.1,2,2.9,3.1c1.4,2.3,2.4,4.8,3.3,7.2
									l-0.3-0.7c0.6,0,1.3,0,1.9-0.1c0.6,0,1.3-0.1,2-0.1c1.3-0.1,2.6-0.2,3.9-0.4c1.3-0.1,2.6-0.3,3.9-0.5l2-0.3
									c0.7-0.1,1.5-0.1,2.3,0.1c1.6,0.3,3,1.3,3.8,2.6c0.9,1.3,1.2,2.8,1.2,4.4c0,0.8-0.2,1.6-0.5,2.3c-0.4,0.7-0.9,1.4-1.7,1.9
									c-0.2,0.1-0.4,0.2-0.6,0.3c-0.2,0.1-0.5,0.2-0.6,0.2L69,96.6l-0.5,0.1l-2,0.3l-0.2-2c0.8,0,1.6,0,2.4,0.1
									c0.8,0.1,1.6,0.3,2.4,0.7c0.8,0.4,1.5,1,2,1.7c0.5,0.8,0.8,1.6,0.9,2.5v0.1l0,0c0,1,0.1,2-0.1,3.1c-0.1,0.5-0.2,1.1-0.4,1.6
									s-0.5,1.1-0.9,1.5c-0.4,0.5-0.8,0.8-1.3,1.2l-0.7,0.4l-0.8,0.3l-0.8,0.3c-0.3,0.1-0.5,0.1-0.8,0.2c-0.5,0.1-1,0.2-1.5,0.3
									l-0.3-2c1-0.1,2.1-0.2,3.2-0.1c0.6,0.1,1.1,0.1,1.7,0.4c0.6,0.2,1.2,0.7,1.6,1.2c0.8,1.1,0.9,2.3,1.1,3.3
									c0.1,0.5,0.1,1.1,0.1,1.7c0,0.6-0.1,1.2-0.4,1.8c-0.5,1.2-1.4,2-2.3,2.6c-0.9,0.6-1.8,1-2.7,1.5c-0.9,0.4-1.7,0.9-2.3,1.4
									c-0.6,0.6-0.9,1.1-1.2,2.1c-2.6,7.5-5.7,14.8-9.3,21.9c-3.6,7.1-7.7,13.9-12.5,20.3c-4.8,6.4-10.2,12.3-16.2,17.5
									c-6.1,5.2-12.8,9.6-20.1,12.9c-7.3,3.3-15.2,5.4-23.2,6c-8,0.6-16.1-0.3-23.8-2.7c-7.7-2.4-14.9-6.2-21.1-11.3
									c-6.3-5-11.6-11.2-15.8-18c-4.2-6.8-7.3-14.3-9.3-22c-2-7.7-3.1-15.7-3.2-23.7c-0.1-8,0.5-15.9,1.9-23.8
									c1.4-7.8,3.3-15.6,6-23.1c2.6-7.5,5.7-14.8,9.2-21.9s7.4-14,11.5-20.7C-56.5,27.7-51.9,21.2-47.2,14.8z"/>
							</g>
						</g>
						<g>
							<path fill="#20363D" d="M-28.6,68.4c-0.5,1.3-1,2.6-1.5,4.4"/>
							<g>
								<path fill="#FFFFFF" d="M-29.2,68.3c-0.6,1.5-1.1,2.9-1.5,4.4c-0.2,0.8,1,1.1,1.2,0.3c0.4-1.5,1-3,1.5-4.4
									C-27.7,67.8-28.9,67.5-29.2,68.3L-29.2,68.3z"/>
							</g>
						</g>
						<g>
							<path fill="#20363D" d="M-27.1,81.6c-1,1.7-1.5,3.1-2,4.8"/>
							<g>
								<path fill="#FFFFFF" d="M-27.7,81.3c-0.9,1.6-1.5,3.3-2.1,5c-0.2,0.8,1,1.1,1.2,0.3c0.5-1.6,1.1-3.2,1.9-4.7
									C-26.2,81.2-27.3,80.6-27.7,81.3L-27.7,81.3z"/>
							</g>
						</g>
						<g>
							<path fill="#20363D" d="M-35.9,74.5c-0.9,1.3-1,3.1-1.1,4.9"/>
							<g>
								<path fill="#FFFFFF" d="M-36.5,74.2c-1,1.5-1.1,3.4-1.2,5.2c0,0.8,1.2,0.8,1.2,0c0.1-1.6,0.1-3.2,1-4.6
									C-35,74.1-36,73.5-36.5,74.2L-36.5,74.2z"/>
							</g>
						</g>
						<g>
							<path fill="#20363D" d="M-31.8,92.9c-0.9,1.3-1.5,3.1-2,4.4"/>
							<g>
								<path fill="#FFFFFF" d="M-32.3,92.6c-1,1.4-1.5,3-2,4.5c-0.3,0.8,0.9,1.1,1.2,0.3c0.5-1.5,1-3,1.9-4.2
									C-30.8,92.6-31.9,91.9-32.3,92.6L-32.3,92.6z"/>
							</g>
						</g>
						<g>
							<path fill="#20363D" d="M-58.4,82.6c-0.1,1.3-0.1,2.2,0.3,3.2"/>
							<g>
								<path fill="#FFFFFF" d="M-59,82.6c-0.1,1.1-0.1,2.3,0.3,3.3c0.3,0.7,1.5,0.4,1.2-0.3c-0.4-1-0.3-2-0.3-3
									C-57.7,81.8-58.9,81.8-59,82.6L-59,82.6z"/>
							</g>
						</g>
						<g>
							<path fill="#20363D" d="M24.2,172.8c-1.3,0.4-2.7,0.8-4,1.1"/>
							<g>
								<path fill="#FFFFFF" d="M24,172.2c-1.3,0.4-2.7,0.8-4,1.1c-0.8,0.2-0.4,1.4,0.3,1.2c1.3-0.4,2.7-0.8,4-1.1
									C25.1,173.1,24.8,171.9,24,172.2L24,172.2z"/>
							</g>
						</g>
						<g>
							<path fill="#20363D" d="M18.3,165.2c-1.4,0.8-3.2,2.1-4.6,3.4"/>
							<g>
								<path fill="#FFFFFF" d="M18,164.6c-1.7,1-3.3,2.2-4.7,3.5c-0.6,0.5,0.3,1.4,0.9,0.9c1.4-1.2,2.9-2.3,4.4-3.3
									C19.3,165.3,18.7,164.2,18,164.6L18,164.6z"/>
							</g>
						</g>
						<g>
							<path fill="#20363D" d="M13.4,175.3c-1.8,1.3-4.1,2.5-5.9,3.3"/>
							<g>
								<path fill="#FFFFFF" d="M13.1,174.7c-1.9,1.3-3.8,2.4-5.9,3.3c-0.7,0.3-0.1,1.4,0.6,1.1c2.1-0.9,4-2,5.9-3.3
									C14.4,175.4,13.8,174.3,13.1,174.7L13.1,174.7z"/>
							</g>
						</g>
						<g>
							<path fill="#20363D" d="M3.4,183.3c-0.9,0-2.2,0.3-3.1,0.7"/>
							<g>
								<path fill="#FFFFFF" d="M3.4,182.7c-1.2,0-2.4,0.4-3.4,0.8c-0.7,0.3-0.1,1.4,0.6,1.1c0.9-0.4,1.9-0.7,2.8-0.7
									C4.2,183.9,4.2,182.7,3.4,182.7L3.4,182.7z"/>
							</g>
						</g>
						<g>
							<path fill="#20363D" d="M6.7,137.7c-2,0.9-4.5,1.3-6.5,2.2"/>
							<g>
								<path fill="#FFFFFF" d="M6.4,137.1c-2.1,0.9-4.4,1.3-6.5,2.2c-0.7,0.3-0.1,1.4,0.6,1.1c2.1-0.9,4.4-1.3,6.5-2.2
									C7.7,137.9,7.1,136.8,6.4,137.1L6.4,137.1z"/>
							</g>
						</g>
						<g>
							<path fill="#20363D" d="M3.8,142.9c-2,0.4-4,1.3-5.5,1.7"/>
							<g>
								<path fill="#FFFFFF" d="M3.6,142.3c-1.9,0.4-3.6,1.2-5.5,1.7c-0.8,0.2-0.4,1.4,0.3,1.2c1.8-0.6,3.6-1.3,5.5-1.7
									C4.8,143.3,4.4,142.1,3.6,142.3L3.6,142.3z"/>
							</g>
						</g>
						<g>
							<path fill="#20363D" d="M2.4,151.3c-1,1-2.5,1.4-3.6,2.3"/>
							<g>
								<path fill="#FFFFFF" d="M2,150.9c-1.1,0.9-2.5,1.4-3.6,2.3c-0.6,0.5,0.3,1.4,0.9,0.9c1.1-0.9,2.5-1.4,3.6-2.3
									C3.5,151.2,2.6,150.3,2,150.9L2,150.9z"/>
							</g>
						</g>
						<g>
							<path fill="#20363D" d="M4.4,162.4c-2,0.9-3.5,1.8-5.1,3.3"/>
							<g>
								<path fill="#FFFFFF" d="M4,161.9c-1.9,0.9-3.6,1.9-5.2,3.4c-0.6,0.5,0.3,1.4,0.9,0.9c1.5-1.3,3.1-2.3,4.9-3.2
									C5.4,162.6,4.8,161.5,4,161.9L4,161.9z"/>
							</g>
						</g>
						<g>
							<path fill="#20363D" d="M7.7,165.6c-1.8,0.4-3.6,1.2-5.4,2"/>
							<g>
								<path fill="#FFFFFF" d="M7.6,164.9c-1.9,0.4-3.7,1.2-5.5,2c-0.7,0.3-0.1,1.4,0.6,1.1c1.7-0.8,3.4-1.5,5.2-1.9
									C8.7,166,8.3,164.8,7.6,164.9L7.6,164.9z"/>
							</g>
						</g>
						<g>
							<path fill="#20363D" d="M7,171.8c-1.4,0.8-3.6,1.2-5.4,1.5"/>
							<g>
								<path fill="#FFFFFF" d="M6.7,171.3c-1.6,0.9-3.5,1.1-5.2,1.5C0.7,173,1,174.2,1.8,174c1.9-0.4,3.8-0.6,5.5-1.6
									C8,171.9,7.4,170.9,6.7,171.3L6.7,171.3z"/>
							</g>
						</g>
						<g>
							<path fill="#20363D" d="M10.6,155.7c-1.5-0.1-2.5,0.4-4,0.8"/>
							<g>
								<path fill="#FFFFFF" d="M10.6,155.1c-1.5,0-2.8,0.4-4.1,0.8c-0.8,0.2-0.4,1.4,0.3,1.2c1.3-0.4,2.5-0.8,3.8-0.8
									C11.4,156.4,11.4,155.1,10.6,155.1L10.6,155.1z"/>
							</g>
						</g>
						<g>
							<path fill="#20363D" d="M10.6,165.7c-1,0.5-1.5,0.4-2.5,0.9"/>
							<g>
								<path fill="#FFFFFF" d="M10.3,165.2c-0.8,0.4-1.7,0.5-2.5,0.9c-0.7,0.3-0.1,1.4,0.6,1.1c0.8-0.4,1.7-0.5,2.5-0.9
									C11.6,165.9,11,164.9,10.3,165.2L10.3,165.2z"/>
							</g>
						</g>
						<g>
							<path fill="#20363D" d="M-9.3,141.2c-1.3-0.1-2.6-0.1-4-0.2"/>
							<g>
								<path fill="#FFFFFF" d="M-9.3,140.5c-1.3-0.1-2.6-0.1-4-0.2c-0.8,0-0.8,1.2,0,1.2c1.3,0.1,2.6,0.1,4,0.2
									C-8.5,141.8-8.5,140.6-9.3,140.5L-9.3,140.5z"/>
							</g>
						</g>
						<g>
							<path fill="#20363D" d="M-9.5,146.3c-1.3-0.1-2.6-0.1-4.4,0.2"/>
							<g>
								<path fill="#FFFFFF" d="M-9.5,145.7c-1.6-0.1-3.1,0-4.6,0.3c-0.8,0.1-0.5,1.4,0.3,1.2c1.4-0.3,2.8-0.3,4.3-0.2
									C-8.6,147-8.6,145.7-9.5,145.7L-9.5,145.7z"/>
							</g>
						</g>
						<g>
							<path fill="#20363D" d="M-7.6,154c-1.8,0.8-3.1,1.2-4.9,1.1"/>
							<g>
								<path fill="#FFFFFF" d="M-7.9,153.5c-1.5,0.7-2.9,1.1-4.6,1c-0.8,0-0.8,1.2,0,1.2c1.9,0.1,3.5-0.4,5.2-1.2
									C-6.6,154.2-7.2,153.2-7.9,153.5L-7.9,153.5z"/>
							</g>
						</g>
						<g>
							<path fill="#20363D" d="M-0.7,147.2c-1.3,0.4-2.2,0.8-3.6,0.7"/>
							<g>
								<path fill="#FFFFFF" d="M-0.8,146.6c-1.1,0.3-2.2,0.7-3.4,0.7c-0.8,0-0.8,1.2,0,1.2c1.3,0,2.5-0.4,3.7-0.7
									C0.3,147.5-0.1,146.3-0.8,146.6L-0.8,146.6z"/>
							</g>
						</g>
						<g>
							<path fill="#20363D" d="M-1.1,138.6c-0.9,0.4-2.2,0.3-3.1,0.7"/>
							<g>
								<path fill="#FFFFFF" d="M-1.3,138c-1,0.4-2.1,0.3-3.1,0.7c-0.7,0.3-0.4,1.5,0.3,1.2c1-0.4,2.1-0.3,3.1-0.7
									C-0.2,138.9-0.6,137.7-1.3,138L-1.3,138z"/>
							</g>
						</g>
						<g>
							<path fill="#20363D" d="M-3.6,162.7c-1.8,0.8-4.5,1.1-6.7,1"/>
							<g>
								<path fill="#FFFFFF" d="M-3.8,162.1c-2.1,0.9-4.3,1.1-6.5,1c-0.8,0-0.8,1.2,0,1.2c2.3,0.1,4.7-0.1,6.8-1
									C-2.7,163-3,161.8-3.8,162.1L-3.8,162.1z"/>
							</g>
						</g>
						<g>
							<path fill="#20363D" d="M0.3,155.3c0.9,0.5-1.8,0.8-2.7,1.2"/>
							<g>
								<path fill="#FFFFFF" d="M0,155.8c-0.3-0.2-0.2-0.6,0-0.7c-0.1,0-0.1,0.1-0.2,0.1c-0.3,0.1-0.6,0.2-0.8,0.2
									c-0.6,0.1-1.2,0.3-1.7,0.5c-0.7,0.3-0.1,1.4,0.6,1.1c0.7-0.3,1.6-0.4,2.3-0.7c0.8-0.3,1.2-1.1,0.4-1.6
									C-0.1,154.3-0.7,155.4,0,155.8L0,155.8z"/>
							</g>
						</g>
						<g>
							<path fill="#20363D" d="M-3.8,175.3c-1.8-0.1-3.5,0.3-5.3,0.2"/>
							<g>
								<path fill="#FFFFFF" d="M-3.8,174.7c-1.8-0.1-3.5,0.2-5.3,0.2c-0.8,0-0.8,1.2,0,1.2c1.8,0.1,3.5-0.2,5.3-0.2
									C-3,176-3,174.7-3.8,174.7L-3.8,174.7z"/>
							</g>
						</g>
						<g>
							<path fill="#20363D" d="M-8.1,183.2c-2.2,0.3-4,0.3-6.2-0.3"/>
							<g>
								<path fill="#FFFFFF" d="M-8.3,182.6c-2,0.3-3.9,0.2-5.8-0.3c-0.8-0.2-1.1,1-0.3,1.2c2.2,0.5,4.3,0.6,6.5,0.3
									C-7.2,183.7-7.5,182.5-8.3,182.6L-8.3,182.6z"/>
							</g>
						</g>
						<g>
							<path fill="#20363D" d="M-22,186.1c-2.2-0.6-3.9-1.1-6.1-1.6"/>
							<g>
								<path fill="#FFFFFF" d="M-21.9,185.5c-2-0.5-4.1-1.1-6.1-1.6c-0.8-0.2-1.1,1-0.3,1.2c2,0.5,4.1,1.1,6.1,1.6
									C-21.4,186.9-21.1,185.7-21.9,185.5L-21.9,185.5z"/>
							</g>
						</g>
						<g>
							<path fill="#20363D" d="M-9.7,169.6c-1.7-0.5-3.5-0.6-5.3-0.7"/>
							<g>
								<path fill="#FFFFFF" d="M-9.5,169c-1.8-0.5-3.6-0.6-5.4-0.7c-0.8,0-0.8,1.2,0,1.2c1.7,0.1,3.4,0.2,5.1,0.7
									C-9.1,170.5-8.7,169.3-9.5,169L-9.5,169z"/>
							</g>
						</g>
						<g>
							<path fill="#20363D" d="M-18.9,176.4c-2.6-0.1-5.3-0.7-7.4-1.7"/>
							<g>
								<path fill="#FFFFFF" d="M-18.9,175.8c-2.5-0.1-4.9-0.6-7.1-1.6c-0.7-0.3-1.4,0.8-0.6,1.1c2.5,1.1,5.1,1.6,7.7,1.8
									C-18.1,177.1-18.1,175.8-18.9,175.8L-18.9,175.8z"/>
							</g>
						</g>
						<g>
							<path fill="#20363D" d="M-34,132.1c1.7,1.4,3.9,2,5.6,2.5"/>
							<g>
								<path fill="#FFFFFF" d="M-34.5,132.5c1.7,1.4,3.8,2,5.9,2.7c0.8,0.2,1.1-1,0.3-1.2c-1.9-0.6-3.8-1.1-5.3-2.4
									C-34.2,131.1-35.1,132-34.5,132.5L-34.5,132.5z"/>
							</g>
						</g>
						<g>
							<path fill="#20363D" d="M-23,137.8c1.3,0.1,2.6,0.1,3.9,0.6"/>
							<g>
								<path fill="#FFFFFF" d="M-23,138.5c1.3,0.1,2.5,0.2,3.8,0.6c0.8,0.3,1.1-0.9,0.3-1.2c-1.3-0.5-2.7-0.6-4.1-0.7
									C-23.8,137.2-23.8,138.4-23,138.5L-23,138.5z"/>
							</g>
						</g>
						<g>
							<path fill="#20363D" d="M-28.3,140.9c1.3,0.5,3,1,4.4,1.1"/>
							<g>
								<path fill="#FFFFFF" d="M-28.4,141.5c1.5,0.6,3,1,4.5,1.1c0.8,0.1,0.8-1.2,0-1.2c-1.4-0.1-2.9-0.6-4.2-1.1
									C-28.8,140-29.2,141.2-28.4,141.5L-28.4,141.5z"/>
							</g>
						</g>
						<g>
							<path fill="#20363D" d="M-17.3,151.8c-1.3,0.4-3.1,0.3-4.4-0.2"/>
							<g>
								<path fill="#FFFFFF" d="M-17.5,151.2c-1.4,0.3-2.8,0.3-4.1-0.2c-0.8-0.3-1.1,0.9-0.3,1.2c1.5,0.6,3.2,0.6,4.7,0.2
									C-16.4,152.2-16.7,151-17.5,151.2L-17.5,151.2z"/>
							</g>
						</g>
						<g>
							<path fill="#20363D" d="M-18.5,160.2c-2.2-0.1-4.8-0.7-7-1.2"/>
							<g>
								<path fill="#FFFFFF" d="M-18.5,159.6c-2.3-0.1-4.6-0.7-6.8-1.2c-0.8-0.2-1.1,1-0.3,1.2c2.4,0.6,4.7,1.1,7.2,1.3
									C-17.7,160.9-17.7,159.6-18.5,159.6L-18.5,159.6z"/>
							</g>
						</g>
						<g>
							<path fill="#20363D" d="M-27.7,166.1c-1.7-0.5-3.5-1.1-5.7-1.6"/>
							<g>
								<path fill="#FFFFFF" d="M-27.5,165.5c-1.9-0.6-3.8-1.1-5.7-1.6c-0.8-0.2-1.1,1-0.3,1.2c1.9,0.5,3.8,1,5.7,1.6
									C-27.1,166.9-26.8,165.7-27.5,165.5L-27.5,165.5z"/>
							</g>
						</g>
						<g>
							<path fill="#20363D" d="M-32.4,152.8c-1.3-0.5-2.2-1-3.5-1.5"/>
							<g>
								<path fill="#FFFFFF" d="M-32.2,152.2c-1.2-0.5-2.3-1-3.5-1.5c-0.7-0.3-1.1,0.9-0.3,1.2c1.2,0.5,2.3,1,3.5,1.5
									C-31.8,153.7-31.5,152.5-32.2,152.2L-32.2,152.2z"/>
							</g>
						</g>
						<g>
							<path fill="#20363D" d="M-34.1,180.1c-2.2-0.1-4.4-0.7-6.1-1.6"/>
							<g>
								<path fill="#FFFFFF" d="M-34.1,179.5c-2-0.1-4-0.6-5.8-1.6c-0.7-0.4-1.3,0.7-0.6,1.1c2,1.1,4.2,1.6,6.4,1.7
									C-33.3,180.8-33.3,179.6-34.1,179.5L-34.1,179.5z"/>
							</g>
						</g>
						<g>
							<path fill="#20363D" d="M-33.7,172.5c-2.6-0.6-4.8-1.6-7.4-3.1"/>
							<g>
								<path fill="#FFFFFF" d="M-33.6,171.9c-2.6-0.6-4.9-1.7-7.2-3c-0.7-0.4-1.3,0.7-0.6,1.1c2.4,1.4,4.8,2.5,7.5,3.1
									C-33.1,173.3-32.8,172.1-33.6,171.9L-33.6,171.9z"/>
							</g>
						</g>
						<g>
							<path fill="#20363D" d="M-37.5,159.3c-2.2-1-3.9-2-6-3"/>
							<g>
								<path fill="#FFFFFF" d="M-37.2,158.8c-2-1-4-2-6-3c-0.7-0.3-1.4,0.7-0.6,1.1c2,1,4,2,6,3C-37.1,160.2-36.5,159.1-37.2,158.8
									L-37.2,158.8z"/>
							</g>
						</g>
						<g>
							<path fill="#20363D" d="M-49.4,168.1c-2.2-1-4.3-2-6.4-3.9"/>
							<g>
								<path fill="#FFFFFF" d="M-49.1,167.6c-2.3-1-4.4-2.2-6.3-3.8c-0.6-0.5-1.5,0.4-0.9,0.9c2,1.7,4.2,2.9,6.6,4
									C-49,169-48.4,167.9-49.1,167.6L-49.1,167.6z"/>
							</g>
						</g>
						<g>
							<path fill="#20363D" d="M-39,144c-1.7-0.5-3-1.5-4.3-2.9"/>
							<g>
								<path fill="#FFFFFF" d="M-38.8,143.4c-1.6-0.5-2.9-1.5-4-2.7c-0.5-0.6-1.4,0.3-0.9,0.9c1.3,1.4,2.7,2.5,4.6,3.1
									C-38.4,144.8-38.1,143.6-38.8,143.4L-38.8,143.4z"/>
							</g>
						</g>
						<g>
							<path fill="#20363D" d="M-36.5,128.9c-1.3-1-2.5-2.4-3.8-3.8"/>
							<g>
								<path fill="#FFFFFF" d="M-36.2,128.3c-1.4-1.1-2.5-2.4-3.7-3.7c-0.5-0.6-1.4,0.3-0.9,0.9c1.2,1.4,2.5,2.7,3.9,3.9
									C-36.2,129.9-35.6,128.8-36.2,128.3L-36.2,128.3z"/>
							</g>
						</g>
						<g>
							<path fill="#20363D" d="M-33.7,104.1c-0.5,1.8-0.6,4-0.7,6.3"/>
							<g>
								<path fill="#FFFFFF" d="M-34.3,103.9c-0.6,2.1-0.7,4.3-0.8,6.4c0,0.8,1.2,0.8,1.2,0c0.1-2,0.2-4.1,0.7-6.1
									C-32.9,103.5-34.1,103.2-34.3,103.9L-34.3,103.9z"/>
							</g>
						</g>
						<g>
							<path fill="#20363D" d="M-36.9,116.8c-0.1,1.8,0.3,4.1,1,5.9"/>
							<g>
								<path fill="#FFFFFF" d="M-37.6,116.8c-0.1,2.1,0.3,4.1,1.1,6.1c0.3,0.7,1.5,0.4,1.2-0.3c-0.7-1.8-1.1-3.8-1-5.7
									C-36.3,116-37.5,116-37.6,116.8L-37.6,116.8z"/>
							</g>
						</g>
						<g>
							<path fill="#20363D" d="M-40,63.6c-1,1.7-1.5,3.5-1.6,5.8"/>
							<g>
								<path fill="#FFFFFF" d="M-40.6,63.3c-1,1.9-1.6,3.9-1.7,6.1c0,0.8,1.2,0.8,1.2,0c0.1-1.9,0.6-3.7,1.5-5.4
									C-39.1,63.2-40.2,62.6-40.6,63.3L-40.6,63.3z"/>
							</g>
						</g>
						<g>
							<path fill="#20363D" d="M-34.1,64.2c-1,1.7-1.1,3.5-1.1,5.3"/>
							<g>
								<path fill="#FFFFFF" d="M-34.7,63.9c-0.9,1.8-1.1,3.7-1.2,5.6c0,0.8,1.2,0.8,1.2,0c0.1-1.8,0.2-3.4,1.1-5
									C-33.2,63.8-34.3,63.1-34.7,63.9L-34.7,63.9z"/>
							</g>
						</g>
						<g>
							<path fill="#20363D" d="M-56.9,65.4c-1,1.8-1.9,3.5-2.5,5.3"/>
							<g>
								<path fill="#FFFFFF" d="M-57.4,65.1c-1,1.7-1.9,3.5-2.5,5.4c-0.2,0.8,1,1.1,1.2,0.3c0.6-1.8,1.5-3.5,2.4-5.1
									C-56,65-57,64.4-57.4,65.1L-57.4,65.1z"/>
							</g>
						</g>
						<g>
							<path fill="#20363D" d="M-55.5,73.1c-1.4,1.7-1.9,3.5-2.5,5.3"/>
							<g>
								<path fill="#FFFFFF" d="M-55.9,72.6c-1.3,1.7-2,3.5-2.6,5.5c-0.2,0.8,1,1.1,1.2,0.3c0.5-1.8,1.1-3.5,2.3-5
									C-54.5,72.9-55.4,72-55.9,72.6L-55.9,72.6z"/>
							</g>
						</g>
						<g>
							<path fill="#20363D" d="M-35,83.7c-1.4,2.2-2.4,4.8-3,7.5"/>
							<g>
								<path fill="#FFFFFF" d="M-35.5,83.4c-1.5,2.3-2.5,4.9-3.1,7.6c-0.2,0.8,1,1.1,1.2,0.3c0.6-2.6,1.5-5.1,2.9-7.3
									C-34,83.4-35.1,82.7-35.5,83.4L-35.5,83.4z"/>
							</g>
						</g>
						<g>
							<path fill="#20363D" d="M-62.4,78.6c-1.4,2.2-2.4,4.8-2.6,7.5"/>
							<g>
								<path fill="#FFFFFF" d="M-62.9,78.3c-1.5,2.4-2.5,5-2.6,7.8c-0.1,0.8,1.2,0.8,1.2,0c0.2-2.6,1.1-5,2.5-7.2
									C-61.4,78.2-62.5,77.6-62.9,78.3L-62.9,78.3z"/>
							</g>
						</g>
						<g>
							<path fill="#20363D" d="M-47.9,68.1c-1.4,2.2-2.4,4.8-3,7.5"/>
							<g>
								<path fill="#FFFFFF" d="M-48.5,67.8c-1.5,2.3-2.5,4.9-3.1,7.6c-0.2,0.8,1,1.1,1.2,0.3c0.6-2.6,1.5-5.1,2.9-7.3
									C-46.9,67.8-48,67.2-48.5,67.8L-48.5,67.8z"/>
							</g>
						</g>
						<g>
							<path fill="#20363D" d="M-43.8,74.7c-0.5,1.8-1.1,4-1.2,5.8"/>
							<g>
								<path fill="#FFFFFF" d="M-44.4,74.6c-0.6,1.9-1.1,3.9-1.2,5.9c-0.1,0.8,1.2,0.8,1.2,0c0.1-1.9,0.6-3.8,1.1-5.6
									C-42.9,74.1-44.2,73.8-44.4,74.6L-44.4,74.6z"/>
							</g>
						</g>
						<g>
							<path fill="#20363D" d="M-43.6,84.8c-1,1.7-0.6,4,0.6,5.4"/>
							<g>
								<path fill="#FFFFFF" d="M-44.1,84.5c-1,2.1-0.7,4.4,0.7,6.2c0.5,0.6,1.4-0.3,0.9-0.9c-1.1-1.3-1.3-3.1-0.5-4.7
									C-42.7,84.4-43.8,83.7-44.1,84.5L-44.1,84.5z"/>
							</g>
						</g>
						<g>
							<path fill="#20363D" d="M-50.4,79.6c-0.5,1.8-0.6,3.6-0.7,5.4"/>
							<g>
								<path fill="#FFFFFF" d="M-51,79.5c-0.5,1.8-0.6,3.7-0.7,5.5c0,0.8,1.2,0.8,1.2,0c0.1-1.8,0.2-3.5,0.7-5.2
									C-49.5,79-50.8,78.7-51,79.5L-51,79.5z"/>
							</g>
						</g>
						<g>
							<path fill="#20363D" d="M-59,91.8c-0.5,1.8-1.1,3.5-1.6,5.3"/>
							<g>
								<path fill="#FFFFFF" d="M-59.6,91.6c-0.5,1.8-1.1,3.5-1.6,5.3c-0.2,0.8,1,1.1,1.2,0.3c0.5-1.8,1.1-3.5,1.6-5.3
									C-58.2,91.2-59.4,90.8-59.6,91.6L-59.6,91.6z"/>
							</g>
						</g>
						<g>
							<path fill="#20363D" d="M-65.8,94.1c-1,2.2-1.1,4.4-0.3,6.3"/>
							<g>
								<path fill="#FFFFFF" d="M-66.3,93.8c-0.9,2.2-1.3,4.5-0.4,6.8c0.3,0.7,1.5,0.4,1.2-0.3c-0.8-1.9-0.6-3.9,0.2-5.8
									C-64.9,93.7-66,93.1-66.3,93.8L-66.3,93.8z"/>
							</g>
						</g>
						<g>
							<path fill="#20363D" d="M-57.3,102.6c-0.1,2.2-0.2,4.9,0.5,7.2"/>
							<g>
								<path fill="#FFFFFF" d="M-58,102.6c-0.1,2.5-0.2,5,0.6,7.4c0.2,0.8,1.4,0.4,1.2-0.3c-0.7-2.3-0.6-4.7-0.5-7
									C-56.7,101.8-57.9,101.8-58,102.6L-58,102.6z"/>
							</g>
						</g>
						<g>
							<path fill="#20363D" d="M-53.6,88.8c-0.5,2.2-0.7,4.9,0.1,7.6"/>
							<g>
								<path fill="#FFFFFF" d="M-54.2,88.6c-0.6,2.7-0.6,5.3,0.1,8c0.2,0.8,1.4,0.4,1.2-0.3c-0.6-2.4-0.6-4.9-0.1-7.3
									C-52.9,88.1-54.1,87.8-54.2,88.6L-54.2,88.6z"/>
							</g>
						</g>
						<g>
							<path fill="#20363D" d="M-41.8,96c-0.6,2.7-0.3,5.4,1,7.7"/>
							<g>
								<path fill="#FFFFFF" d="M-42.4,95.8c-0.5,2.8-0.3,5.6,1,8.2c0.4,0.7,1.4,0.1,1.1-0.6c-1.1-2.3-1.4-4.7-0.9-7.2
									C-41.1,95.4-42.3,95-42.4,95.8L-42.4,95.8z"/>
							</g>
						</g>
						<g>
							<path fill="#20363D" d="M-70.6,94.8c-0.1,2.2,0.3,4.1,0.6,6.3"/>
							<g>
								<path fill="#FFFFFF" d="M-71.2,94.8c-0.1,2.2,0.3,4.3,0.6,6.5c0.1,0.8,1.3,0.5,1.2-0.3c-0.3-2-0.6-4.1-0.6-6.1
									C-70,94-71.2,94-71.2,94.8L-71.2,94.8z"/>
							</g>
						</g>
						<g>
							<path fill="#20363D" d="M-52.3,101.5c-0.1,2.7,0.2,5.8,1.4,8.2"/>
							<g>
								<path fill="#FFFFFF" d="M-52.9,101.5c-0.1,2.9,0.2,5.8,1.5,8.5c0.4,0.7,1.4,0.1,1.1-0.6c-1.2-2.4-1.4-5.2-1.3-7.8
									C-51.7,100.7-52.9,100.7-52.9,101.5L-52.9,101.5z"/>
							</g>
						</g>
						<g>
							<path fill="#20363D" d="M-48.9,91.5c0.3,2.3,0.6,5,1.4,7.3"/>
							<g>
								<path fill="#FFFFFF" d="M-49.5,91.6c0.4,2.4,0.7,4.9,1.4,7.3c0.2,0.8,1.5,0.4,1.2-0.3c-0.8-2.4-1.1-4.8-1.4-7.3
									C-48.4,90.5-49.6,90.9-49.5,91.6L-49.5,91.6z"/>
							</g>
						</g>
						<g>
							<path fill="#20363D" d="M-65,115c-0.1,1.8,0.2,4.1,1,5.9"/>
							<g>
								<path fill="#FFFFFF" d="M-65.7,115c-0.1,2.1,0.3,4.1,1.1,6.1c0.3,0.7,1.5,0.4,1.2-0.3c-0.8-1.8-1.1-3.8-1-5.7
									C-64.4,114.2-65.6,114.2-65.7,115L-65.7,115z"/>
							</g>
						</g>
						<g>
							<path fill="#20363D" d="M-73.2,112.6c-0.1,2.2,0.7,4.1,1.9,5.9"/>
							<g>
								<path fill="#FFFFFF" d="M-73.9,112.6c-0.1,2.3,0.8,4.3,2,6.3c0.4,0.7,1.5,0,1.1-0.6c-1.1-1.7-1.9-3.5-1.8-5.6
									C-72.6,111.8-73.9,111.8-73.9,112.6L-73.9,112.6z"/>
							</g>
						</g>
						<g>
							<path fill="#20363D" d="M-55.7,113.9c0.3,2.3,1.1,4.5,2.3,6.4"/>
							<g>
								<path fill="#FFFFFF" d="M-56.3,114.1c0.4,2.3,1.1,4.6,2.4,6.6c0.4,0.7,1.5,0.1,1.1-0.6c-1.2-1.9-1.9-4-2.3-6.3
									C-55.2,113-56.4,113.3-56.3,114.1L-56.3,114.1z"/>
							</g>
						</g>
						<g>
							<path fill="#20363D" d="M-59.7,124.1c0.8,1.4,1.2,2.8,2.5,3.7"/>
							<g>
								<path fill="#FFFFFF" d="M-60.2,124.4c0.8,1.4,1.3,2.8,2.6,3.8c0.6,0.5,1.5-0.4,0.9-0.9c-1.2-0.9-1.6-2.3-2.4-3.6
									C-59.5,123.1-60.6,123.7-60.2,124.4L-60.2,124.4z"/>
							</g>
						</g>
						<g>
							<path fill="#20363D" d="M-47.1,129.6c0.8,1.4,2.1,2.8,3.8,3.8"/>
							<g>
								<path fill="#FFFFFF" d="M-47.7,129.9c1,1.7,2.4,3,4,4c0.7,0.4,1.3-0.7,0.6-1.1c-1.5-0.9-2.7-2.1-3.6-3.6
									C-47,128.6-48.1,129.3-47.7,129.9L-47.7,129.9z"/>
							</g>
						</g>
						<g>
							<path fill="#20363D" d="M-72.3,126.2c0.4,1.8,1.2,3.2,2,4.1"/>
							<g>
								<path fill="#FFFFFF" d="M-72.9,126.4c0.3,1.6,1.1,3.1,2.2,4.4c0.5,0.6,1.4-0.3,0.9-0.9c-1-1.1-1.5-2.4-1.8-3.9
									C-71.9,125.3-73.1,125.6-72.9,126.4L-72.9,126.4z"/>
							</g>
						</g>
						<g>
							<path fill="#20363D" d="M-67.7,125c0.8,1.8,1.6,3.7,2.8,5.5"/>
							<g>
								<path fill="#FFFFFF" d="M-68.2,125.3c0.8,1.9,1.7,3.8,2.8,5.5c0.4,0.7,1.5,0,1.1-0.6c-1.1-1.7-2-3.6-2.8-5.5
									C-67.4,124-68.5,124.6-68.2,125.3L-68.2,125.3z"/>
							</g>
						</g>
						<g>
							<path fill="#20363D" d="M-70.3,104.9c0.8,2.3,1.5,4.6,3.2,6.4"/>
							<g>
								<path fill="#FFFFFF" d="M-70.9,105.1c0.8,2.4,1.7,4.8,3.4,6.7c0.5,0.6,1.4-0.3,0.9-0.9c-1.5-1.8-2.3-4-3.1-6.2
									C-69.9,104-71.2,104.3-70.9,105.1L-70.9,105.1z"/>
							</g>
						</g>
						<g>
							<path fill="#20363D" d="M-63.8,108c0.8,1.8,2,3.7,3.3,5.1"/>
							<g>
								<path fill="#FFFFFF" d="M-64.4,108.3c0.9,1.9,2,3.7,3.4,5.2c0.5,0.6,1.4-0.3,0.9-0.9c-1.3-1.5-2.4-3.2-3.2-5
									C-63.6,107-64.7,107.6-64.4,108.3L-64.4,108.3z"/>
							</g>
						</g>
						<g>
							<path fill="#20363D" d="M-45.2,106.5c0.8,2.7,2,5,3.6,6.9"/>
							<g>
								<path fill="#FFFFFF" d="M-45.8,106.6c0.8,2.7,2,5.1,3.8,7.2c0.5,0.6,1.4-0.3,0.9-0.9c-1.7-1.9-2.8-4.2-3.5-6.6
									C-44.8,105.5-46,105.8-45.8,106.6L-45.8,106.6z"/>
							</g>
						</g>
						<g>
							<path fill="#20363D" d="M-70.8,135.7c0.9,0.5,1.3,1,2.1,1.5"/>
							<g>
								<path fill="#FFFFFF" d="M-71.1,136.2c0.7,0.4,1.4,1,2.1,1.5c0.7,0.4,1.3-0.7,0.6-1.1c-0.7-0.4-1.4-1-2.1-1.5
									C-71.2,134.7-71.8,135.8-71.1,136.2L-71.1,136.2z"/>
							</g>
						</g>
						<g>
							<path fill="#20363D" d="M-50,118.5c1.2,2.8,2.8,5.1,5.4,7"/>
							<g>
								<path fill="#FFFFFF" d="M-50.6,118.8c1.3,2.8,3,5.2,5.5,7.1c0.6,0.5,1.5-0.4,0.9-0.9c-2.4-1.8-4.1-4.1-5.3-6.9
									C-49.8,117.5-50.9,118.1-50.6,118.8L-50.6,118.8z"/>
							</g>
						</g>
						<g>
							<path fill="#20363D" d="M-49.8,172.2c1.3,1.4,3,2.8,4.2,3.8"/>
							<g>
								<path fill="#FFFFFF" d="M-50.2,172.6c1.3,1.4,2.8,2.7,4.4,3.9c0.6,0.5,1.3-0.6,0.6-1.1c-1.5-1.1-2.9-2.3-4.1-3.7
									C-49.9,171.1-50.8,172-50.2,172.6L-50.2,172.6z"/>
							</g>
						</g>
						<g>
							<path fill="#20363D" d="M-66.6,150.4c1.7,1.4,3.4,2.4,5.1,3.4"/>
							<g>
								<path fill="#FFFFFF" d="M-67,150.9c1.6,1.4,3.4,2.4,5.3,3.5c0.7,0.4,1.3-0.7,0.6-1.1c-1.7-1-3.5-2-5-3.3
									C-66.7,149.5-67.6,150.3-67,150.9L-67,150.9z"/>
							</g>
						</g>
						<g>
							<path fill="#20363D" d="M-65.8,141.5c1.7,1.9,3.8,3.3,6.4,3.9"/>
							<g>
								<path fill="#FFFFFF" d="M-66.3,141.9c1.8,2,4.1,3.4,6.7,4.1c0.8,0.2,1.1-1,0.3-1.2c-2.5-0.6-4.5-1.9-6.2-3.8
									C-65.9,140.5-66.8,141.3-66.3,141.9L-66.3,141.9z"/>
							</g>
						</g>
						<g>
							<path fill="#20363D" d="M-62.3,132.9c1.7,1.9,3.8,3.3,6,4.3"/>
							<g>
								<path fill="#FFFFFF" d="M-62.7,133.4c1.7,1.9,3.8,3.3,6.1,4.4c0.7,0.3,1.4-0.7,0.6-1.1c-2.2-1.1-4.2-2.4-5.8-4.2
									C-62.4,131.9-63.3,132.8-62.7,133.4L-62.7,133.4z"/>
							</g>
						</g>
						<g>
							<path fill="#20363D" d="M-53.9,141c1.3,1.4,2.5,2.4,4.3,3.4"/>
							<g>
								<path fill="#FFFFFF" d="M-54.3,141.4c1.3,1.4,2.7,2.5,4.4,3.4c0.7,0.4,1.3-0.7,0.6-1.1c-1.5-0.9-2.9-1.9-4.1-3.3
									C-54,139.9-54.8,140.8-54.3,141.4L-54.3,141.4z"/>
							</g>
						</g>
						<g>
							<path fill="#20363D" d="M-59.6,150.1c1.3,1,2.6,1.9,4.3,2.5"/>
							<g>
								<path fill="#FFFFFF" d="M-59.9,150.7c1.4,1,2.8,2,4.4,2.5c0.8,0.2,1.1-1,0.3-1.2c-1.6-0.5-2.9-1.4-4.1-2.4
									C-59.9,149.1-60.5,150.2-59.9,150.7L-59.9,150.7z"/>
							</g>
						</g>
						<g>
							<path fill="#20363D" d="M-64.4,158c1.7,1.9,3.8,2.9,6.5,3"/>
							<g>
								<path fill="#FFFFFF" d="M-64.8,158.4c1.9,2,4.2,3,6.9,3.2c0.8,0.1,0.8-1.2,0-1.2c-2.4-0.2-4.4-1.1-6-2.8
									C-64.5,156.9-65.4,157.8-64.8,158.4L-64.8,158.4z"/>
							</g>
						</g>
						<g>
							<path fill="#20363D" d="M-47.6,148c2.2,0.6,4.4,1.1,6.1,1.6"/>
							<g>
								<path fill="#FFFFFF" d="M-47.7,148.6c2,0.5,4.1,1,6.1,1.6c0.8,0.2,1.1-1,0.3-1.2c-2-0.6-4.1-1.1-6.1-1.6
									C-48.2,147.2-48.5,148.4-47.7,148.6L-47.7,148.6z"/>
							</g>
						</g>
						<g>
							<path fill="#20363D" d="M-51.3,160.9c0.9,0,1.7,0.5,3.1,0.6"/>
							<g>
								<path fill="#FFFFFF" d="M-51.3,161.5c1,0.1,2,0.5,3.1,0.6c0.8,0.1,0.8-1.2,0-1.2c-1-0.1-2-0.5-3.1-0.6
									C-52.1,160.2-52.1,161.4-51.3,161.5L-51.3,161.5z"/>
							</g>
						</g>
						<g>
							<path fill="#20363D" d="M-24.4,71.3c-0.4,1-0.7,1.6-1.5,2.6"/>
							<g>
								<path fill="#FFFFFF" d="M-25,71.1c-0.3,0.9-0.8,1.7-1.4,2.5c-0.5,0.7,0.6,1.3,1.1,0.6c0.6-0.9,1.1-1.8,1.5-2.8
									C-23.5,70.7-24.7,70.4-25,71.1L-25,71.1z"/>
							</g>
						</g>
						<g>
							<path fill="#20363D" d="M-25.2,36.9c0.3,1.7,0.3,3,0.3,4.7"/>
							<g>
								<path fill="#FFFFFF" d="M-25.8,37.1c0.3,1.5,0.3,3,0.3,4.5c0,0.8,1.2,0.8,1.2,0c0-1.6-0.1-3.3-0.4-4.9
									C-24.8,35.9-26,36.3-25.8,37.1L-25.8,37.1z"/>
							</g>
						</g>
						<g>
							<path fill="#20363D" d="M-13.1,53.4c0,2.4-0.3,4.4-0.7,6.4"/>
							<g>
								<path fill="#FFFFFF" d="M-13.8,53.4c0,2.1-0.3,4.2-0.7,6.2c-0.1,0.8,1.1,1.1,1.2,0.3c0.4-2.2,0.7-4.3,0.7-6.6
									C-12.5,52.6-13.8,52.6-13.8,53.4L-13.8,53.4z"/>
							</g>
						</g>
						<g>
							<path fill="#20363D" d="M-46.3,38.5c-0.9,1.3-1.4,2.2-1.9,3.5"/>
							<g>
								<path fill="#FFFFFF" d="M-46.8,38.2c-0.8,1.1-1.5,2.3-2,3.6c-0.3,0.8,0.9,1.1,1.2,0.3c0.5-1.2,1.1-2.3,1.9-3.3
									C-45.2,38.2-46.3,37.6-46.8,38.2L-46.8,38.2z"/>
							</g>
						</g>
						<g>
							<path fill="#20363D" d="M-55,55.3c-0.5,0.9-0.5,1.3-1,2.2"/>
							<g>
								<path fill="#FFFFFF" d="M-55.5,55c-0.4,0.7-0.6,1.5-1,2.2c-0.4,0.7,0.7,1.3,1.1,0.6c0.4-0.7,0.6-1.5,1-2.2
									C-54.1,54.9-55.1,54.3-55.5,55L-55.5,55z"/>
							</g>
						</g>
						<g>
							<path fill="#20363D" d="M-47.5,45.2c-0.9,0.9-1.9,2.2-1.9,3.5"/>
							<g>
								<path fill="#FFFFFF" d="M-48,44.7c-1.1,1.1-2,2.4-2.1,3.9c-0.1,0.8,1.2,0.8,1.2,0c0.1-1.2,0.9-2.2,1.7-3.1
									C-46.5,45.1-47.4,44.2-48,44.7L-48,44.7z"/>
							</g>
						</g>
						<g>
							<path fill="#20363D" d="M-40.9,41.7c-0.5,1.3-0.6,3.1-1.1,4.4"/>
							<g>
								<path fill="#FFFFFF" d="M-41.5,41.6c-0.5,1.4-0.6,3-1.1,4.4c-0.3,0.8,0.9,1.1,1.2,0.3c0.5-1.4,0.6-3,1.1-4.4
									C-40.1,41.2-41.3,40.8-41.5,41.6L-41.5,41.6z"/>
							</g>
						</g>
						<g>
							<path fill="#20363D" d="M-50.6,54.5c-0.5,0.9-1,1.8-1,2.6"/>
							<g>
								<path fill="#FFFFFF" d="M-51.2,54.1c-0.5,0.9-1,1.9-1.1,3c-0.1,0.8,1.2,0.8,1.2,0c0.1-0.8,0.5-1.6,0.9-2.3
									C-49.7,54.1-50.8,53.4-51.2,54.1L-51.2,54.1z"/>
							</g>
						</g>
						<g>
							<path fill="#20363D" d="M-49.6,61.7c-0.5,1.3-1,2.6-1.1,4"/>
							<g>
								<path fill="#FFFFFF" d="M-50.2,61.5c-0.5,1.4-1,2.7-1.1,4.2c-0.1,0.8,1.2,0.8,1.2,0c0.1-1.3,0.6-2.6,1.1-3.8
									C-48.8,61.1-50,60.8-50.2,61.5L-50.2,61.5z"/>
							</g>
						</g>
						<g>
							<path fill="#20363D" d="M-32.6,52.9c-1,1.8-1.5,3.1-1.6,4.9"/>
							<g>
								<path fill="#FFFFFF" d="M-33.1,52.6c-0.9,1.6-1.5,3.3-1.6,5.2c-0.1,0.8,1.2,0.8,1.2,0c0.1-1.7,0.7-3.1,1.5-4.5
									C-31.6,52.5-32.7,51.9-33.1,52.6L-33.1,52.6z"/>
							</g>
						</g>
						<g>
							<path fill="#20363D" d="M-39.7,55.8c-1.4,1.3-2.4,3-2.9,5.2"/>
							<g>
								<path fill="#FFFFFF" d="M-40.1,55.4c-1.6,1.5-2.5,3.4-3.1,5.5c-0.2,0.8,1,1.1,1.2,0.3c0.5-1.9,1.3-3.6,2.7-5
									C-38.7,55.7-39.5,54.8-40.1,55.4L-40.1,55.4z"/>
							</g>
						</g>
						<g>
							<path fill="#20363D" d="M-34.7,44.7c-1,2.2-2,4.4-3,6.6"/>
							<g>
								<path fill="#FFFFFF" d="M-35.3,44.4c-1,2.2-2,4.4-3,6.6c-0.3,0.7,0.7,1.4,1.1,0.6c1-2.2,2-4.4,3-6.6
									C-33.9,44.3-34.9,43.6-35.3,44.4L-35.3,44.4z"/>
							</g>
						</g>
						<g>
							<path fill="#20363D" d="M-28.9,61.3c-0.4,0.7-0.4,1-0.4,1.7"/>
							<g>
								<path fill="#FFFFFF" d="M-29.5,61c-0.3,0.6-0.5,1.3-0.5,2c0,0.8,1.2,0.8,1.2,0c0-0.5,0.1-0.9,0.3-1.3
									C-28,60.9-29.1,60.3-29.5,61L-29.5,61z"/>
							</g>
						</g>
						<g>
							<path fill="#20363D" d="M-36.8,33.5c-0.9,1.3-1.5,3.1-2,4.4"/>
							<g>
								<path fill="#FFFFFF" d="M-37.3,33.2c-1,1.4-1.5,3-2,4.5c-0.3,0.8,0.9,1.1,1.2,0.3c0.5-1.5,1-2.9,1.9-4.2
									C-35.8,33.2-36.8,32.6-37.3,33.2L-37.3,33.2z"/>
							</g>
						</g>
						<g>
							<path fill="#20363D" d="M-44.7,51.2c-0.9,1.3-1.5,3.1-2,4.4"/>
							<g>
								<path fill="#FFFFFF" d="M-45.2,50.9c-1,1.4-1.5,3-2,4.5c-0.3,0.8,0.9,1.1,1.2,0.3c0.5-1.5,1-3,1.9-4.2
									C-43.7,50.8-44.8,50.2-45.2,50.9L-45.2,50.9z"/>
							</g>
						</g>
						<g>
							<path fill="#20363D" d="M-22,62.3c-0.9,1.3-1.5,3.1-2,4.4"/>
							<g>
								<path fill="#FFFFFF" d="M-22.5,62c-1,1.4-1.5,3-2,4.5c-0.3,0.8,0.9,1.1,1.2,0.3c0.5-1.5,1-3,1.9-4.2
									C-21,61.9-22.1,61.3-22.5,62L-22.5,62z"/>
							</g>
						</g>
						<g>
							<path fill="#20363D" d="M-27.1,49c-0.9,1.3-1.5,3.1-2,4.4"/>
							<g>
								<path fill="#FFFFFF" d="M-27.7,48.7c-1,1.4-1.5,3-2,4.5c-0.3,0.8,0.9,1.1,1.2,0.3c0.5-1.5,1-3,1.9-4.2
									C-26.1,48.6-27.2,48-27.7,48.7L-27.7,48.7z"/>
							</g>
						</g>
						<g>
							<path fill="#20363D" d="M-30.8,35c-0.9,1.3-1.5,3.1-2,4.4"/>
							<g>
								<path fill="#FFFFFF" d="M-31.3,34.7c-1,1.4-1.5,3-2,4.5c-0.3,0.8,0.9,1.1,1.2,0.3c0.5-1.5,1-3,1.9-4.2
									C-29.8,34.7-30.9,34.1-31.3,34.7L-31.3,34.7z"/>
							</g>
						</g>
						<g opacity="3.000000e-02">
							<g>
								<path fill="#20363D" d="M62.4,89.2c-0.5,1-0.6,2-1.1,2.4"/>
								<g>
									<path fill="#FFFFFF" d="M61.9,88.9c-0.2,0.4-0.4,0.8-0.5,1.3c-0.1,0.4-0.2,0.8-0.5,1.1c-0.6,0.6,0.3,1.5,0.9,0.9
										c0.7-0.7,0.8-1.7,1.2-2.6C63.3,88.8,62.3,88.2,61.9,88.9L61.9,88.9z"/>
								</g>
							</g>
							<g>
								<path fill="#20363D" d="M57.6,89.4c-1.5,0.9-2.1,2.4-2.7,4.4"/>
								<g>
									<path fill="#FFFFFF" d="M57.3,88.9c-1.7,1.1-2.4,2.9-3,4.7c-0.2,0.8,1,1.1,1.2,0.3c0.5-1.5,1-3.1,2.4-4
										C58.6,89.5,58,88.4,57.3,88.9L57.3,88.9z"/>
								</g>
							</g>
							<g>
								<path fill="#20363D" d="M60.2,95.1c-0.5,1-0.6,2-1.1,2.9"/>
								<g>
									<path fill="#FFFFFF" d="M59.6,94.8c-0.5,0.9-0.6,2-1.1,2.9c-0.4,0.7,0.7,1.3,1.1,0.6c0.5-0.9,0.6-2,1.1-2.9
										C61.1,94.7,60,94.1,59.6,94.8L59.6,94.8z"/>
								</g>
							</g>
							<g>
								<path fill="#20363D" d="M44.6,80.3c0.4,1.5,1.3,3.1,1.7,4.6"/>
								<g>
									<path fill="#FFFFFF" d="M44,80.5c0.5,1.6,1.3,3,1.7,4.6c0.2,0.8,1.4,0.4,1.2-0.3c-0.5-1.6-1.3-3-1.7-4.6
										C45,79.4,43.8,79.7,44,80.5L44,80.5z"/>
								</g>
							</g>
							<g>
								<path fill="#20363D" d="M50.6,90.1c-0.1,1.5-0.1,3,0.8,4"/>
								<g>
									<path fill="#FFFFFF" d="M49.9,90.1c-0.1,1.6-0.1,3.2,1,4.5c0.5,0.6,1.4-0.3,0.9-0.9c-0.8-1-0.7-2.4-0.6-3.6
										C51.2,89.3,50,89.3,49.9,90.1L49.9,90.1z"/>
								</g>
							</g>
							<g>
								<path fill="#20363D" d="M69.6,89.2c-1,1-1.6,2.4-2.6,3.4"/>
								<g>
									<path fill="#FFFFFF" d="M69.1,88.8c-1,1-1.6,2.4-2.6,3.4c-0.6,0.6,0.3,1.4,0.9,0.9c1-1,1.6-2.4,2.6-3.4
										C70.6,89.1,69.7,88.2,69.1,88.8L69.1,88.8z"/>
								</g>
							</g>
							<g>
								<path fill="#20363D" d="M70.4,100.2c-1.6,2.9-1.5,2.2-2.2,3.9"/>
								<g>
									<path fill="#FFFFFF" d="M69.9,99.9c-0.8,1.4-1.7,2.6-2.2,4c-0.3,0.8,0.9,1.1,1.2,0.3c0.5-1.3,1.4-2.5,2.1-3.7
										C71.3,99.8,70.3,99.2,69.9,99.9L69.9,99.9z"/>
								</g>
							</g>
							<g>
								<path fill="#20363D" d="M67,109.6c-0.5,1-1.1,1.9-1.6,2.9"/>
								<g>
									<path fill="#FFFFFF" d="M66.4,109.3c-0.5,1-1.1,1.9-1.6,2.9c-0.4,0.7,0.7,1.3,1.1,0.6c0.5-1,1.1-1.9,1.6-2.9
										C67.9,109.2,66.8,108.5,66.4,109.3L66.4,109.3z"/>
								</g>
							</g>
							<g>
								<path fill="#20363D" d="M68.8,114.2c-0.5,0.5-0.5,1-1.1,1.4"/>
								<g>
									<path fill="#FFFFFF" d="M68.3,113.7c-0.4,0.4-0.6,1-1.1,1.4c-0.6,0.6,0.3,1.5,0.9,0.9c0.4-0.4,0.6-1,1.1-1.4
										C69.8,114,68.9,113.2,68.3,113.7L68.3,113.7z"/>
								</g>
							</g>
							<g>
								<path fill="#20363D" d="M62.7,113.8c-0.5,1-1.1,2.4-1.6,3.4"/>
								<g>
									<path fill="#FFFFFF" d="M62.2,113.5c-0.6,1.1-1,2.3-1.6,3.4c-0.4,0.7,0.7,1.3,1.1,0.6c0.6-1.1,1-2.3,1.6-3.4
										C63.6,113.4,62.5,112.8,62.2,113.5L62.2,113.5z"/>
								</g>
							</g>
							<g>
								<path fill="#20363D" d="M63.5,122.5c-1,1.4-2.1,3.4-2.7,4.9"/>
								<g>
									<path fill="#FFFFFF" d="M62.9,122.2c-1.1,1.6-2.1,3.2-2.8,5c-0.3,0.8,0.9,1.1,1.2,0.3c0.7-1.7,1.6-3.3,2.6-4.7
										C64.5,122.2,63.4,121.6,62.9,122.2L62.9,122.2z"/>
								</g>
							</g>
							<g>
								<path fill="#20363D" d="M62.2,107.7c-1.5,1.4-2.6,2.9-3.6,4.3"/>
								<g>
									<path fill="#FFFFFF" d="M61.8,107.3c-1.4,1.3-2.6,2.9-3.7,4.5c-0.5,0.7,0.6,1.3,1.1,0.6c1.1-1.5,2.2-2.9,3.5-4.2
										C63.3,107.6,62.4,106.7,61.8,107.3L61.8,107.3z"/>
								</g>
							</g>
							<g>
								<path fill="#20363D" d="M63.3,100.8c-0.6,1.5-1.6,3.4-2.7,4.9"/>
								<g>
									<path fill="#FFFFFF" d="M62.7,100.6c-0.7,1.7-1.6,3.3-2.6,4.7c-0.5,0.7,0.6,1.3,1.1,0.6c1.1-1.6,2.1-3.2,2.8-5
										C64.2,100.2,63,99.9,62.7,100.6L62.7,100.6z"/>
								</g>
							</g>
							<g>
								<path fill="#20363D" d="M53.5,100.3c-1.1,2-2.1,3.4-3.2,5.3"/>
								<g>
									<path fill="#FFFFFF" d="M53,100c-1,1.8-2.2,3.5-3.2,5.3c-0.4,0.7,0.7,1.3,1.1,0.6c1-1.8,2.2-3.5,3.2-5.3
										C54.5,99.9,53.4,99.3,53,100L53,100z"/>
								</g>
							</g>
							<g>
								<path fill="#20363D" d="M54,111.8c-1,1-1.6,2.4-2.6,3.4"/>
								<g>
									<path fill="#FFFFFF" d="M53.5,111.4c-1,1-1.6,2.4-2.6,3.4c-0.6,0.6,0.3,1.4,0.9,0.9c1-1,1.6-2.4,2.6-3.4
										C55,111.7,54.1,110.8,53.5,111.4L53.5,111.4z"/>
								</g>
							</g>
							<g>
								<path fill="#20363D" d="M56.5,120.4c-1.5,1.4-2.6,2.9-3.2,4.8"/>
								<g>
									<path fill="#FFFFFF" d="M56.1,120c-1.5,1.4-2.7,3.1-3.3,5.1c-0.2,0.8,1,1.1,1.2,0.3c0.6-1.8,1.6-3.3,3-4.6
										C57.5,120.3,56.6,119.4,56.1,120L56.1,120z"/>
								</g>
							</g>
							<g>
								<path fill="#20363D" d="M56.5,131.4c-1,0.9-1.6,2.4-1.6,3.4"/>
								<g>
									<path fill="#FFFFFF" d="M56,131c-1,1-1.7,2.4-1.8,3.9c-0.1,0.8,1.2,0.8,1.2,0c0.1-1.1,0.7-2.2,1.5-3
										C57.5,131.3,56.6,130.4,56,131L56,131z"/>
								</g>
							</g>
							<g>
								<path fill="#20363D" d="M55.5,140.4c-0.5,1-1.1,1.4-1.6,1.9"/>
								<g>
									<path fill="#FFFFFF" d="M55,140.1c-0.4,0.7-0.9,1.3-1.5,1.8s0.3,1.4,0.9,0.9c0.7-0.6,1.2-1.3,1.7-2.1
										C56.5,140,55.4,139.4,55,140.1L55,140.1z"/>
								</g>
							</g>
							<g>
								<path fill="#20363D" d="M43.3,97.8c-0.6,2.5-1.7,4.4-2.8,6.4"/>
								<g>
									<path fill="#FFFFFF" d="M42.7,97.6c-0.6,2.2-1.6,4.2-2.7,6.2c-0.4,0.7,0.7,1.3,1.1,0.6c1.2-2.1,2.2-4.2,2.8-6.5
										C44.1,97.2,42.9,96.8,42.7,97.6L42.7,97.6z"/>
								</g>
							</g>
							<g>
								<path fill="#20363D" d="M44.3,108.8c-1.1,1.4-1.6,3.4-2.2,5.4"/>
								<g>
									<path fill="#FFFFFF" d="M43.7,108.5c-1.1,1.7-1.7,3.6-2.3,5.5c-0.2,0.8,1,1.1,1.2,0.3c0.5-1.8,1.1-3.7,2.2-5.2
										C45.3,108.5,44.2,107.9,43.7,108.5L43.7,108.5z"/>
								</g>
							</g>
							<g>
								<path fill="#20363D" d="M44.8,118.9c-1,1.4-1.6,2.4-2.2,3.9"/>
								<g>
									<path fill="#FFFFFF" d="M44.2,118.5c-0.9,1.3-1.6,2.6-2.2,4c-0.3,0.8,0.9,1.1,1.2,0.3c0.5-1.4,1.2-2.6,2.1-3.7
										C45.8,118.5,44.7,117.9,44.2,118.5L44.2,118.5z"/>
								</g>
							</g>
							<g>
								<path fill="#20363D" d="M46.4,126.4c-0.1,1.5-1.1,2.9-2.7,4.4"/>
								<g>
									<path fill="#FFFFFF" d="M45.8,126.4c-0.1,1.6-1.4,2.9-2.5,3.9c-0.6,0.6,0.3,1.4,0.9,0.9c1.4-1.3,2.7-2.8,2.8-4.8
										C47.1,125.6,45.8,125.6,45.8,126.4L45.8,126.4z"/>
								</g>
							</g>
							<g>
								<path fill="#20363D" d="M35.7,112.4c-1.1,1.4-1.6,3.4-3.2,4.9"/>
								<g>
									<path fill="#FFFFFF" d="M35.2,112.1c-1.1,1.6-1.7,3.4-3.1,4.7c-0.6,0.6,0.3,1.4,0.9,0.9c1.5-1.4,2.1-3.3,3.3-5
										C36.7,112.1,35.7,111.4,35.2,112.1L35.2,112.1z"/>
								</g>
							</g>
							<g>
								<path fill="#20363D" d="M35.3,122.4c-1,0.9-1.6,2.4-2.6,3.4"/>
								<g>
									<path fill="#FFFFFF" d="M34.8,122c-1,1-1.6,2.4-2.6,3.4c-0.6,0.6,0.3,1.4,0.9,0.9c1-1,1.6-2.4,2.6-3.4
										C36.3,122.3,35.4,121.4,34.8,122L34.8,122z"/>
								</g>
							</g>
							<g>
								<path fill="#20363D" d="M34.9,130.9c-0.5,0-0.5,0.5-1,0.5"/>
								<g>
									<path fill="#FFFFFF" d="M34.9,130.3c-0.2,0-0.4,0.1-0.6,0.2c-0.1,0.1-0.3,0.3-0.4,0.3c-0.8,0-0.8,1.3,0,1.2
										c0.2,0,0.4-0.1,0.6-0.2c0.1-0.1,0.3-0.3,0.4-0.3C35.7,131.5,35.7,130.2,34.9,130.3L34.9,130.3z"/>
								</g>
							</g>
							<g>
								<path fill="#20363D" d="M46.4,136.5c-0.5,1-1.5,1.4-2.1,2.4"/>
								<g>
									<path fill="#FFFFFF" d="M45.9,136.1c-0.5,0.9-1.5,1.5-2.1,2.4c-0.4,0.7,0.7,1.3,1.1,0.6c0.5-0.9,1.5-1.5,2.1-2.4
										C47.3,136.1,46.3,135.4,45.9,136.1L45.9,136.1z"/>
								</g>
							</g>
							<g>
								<path fill="#20363D" d="M48.9,147.9c-1.5,1.4-2.6,3.4-3.2,4.8"/>
								<g>
									<path fill="#FFFFFF" d="M48.4,147.4c-1.5,1.4-2.6,3.2-3.3,5.1c-0.3,0.8,0.9,1.1,1.2,0.3c0.7-1.7,1.7-3.3,3-4.6
										C49.9,147.7,49,146.9,48.4,147.4L48.4,147.4z"/>
								</g>
							</g>
							<g>
								<path fill="#20363D" d="M41.4,159.7c-1,1-2.5,1.9-4,2.3"/>
								<g>
									<path fill="#FFFFFF" d="M40.9,159.3c-1.1,1-2.4,1.7-3.8,2.1c-0.8,0.2-0.4,1.4,0.3,1.2c1.6-0.5,3.1-1.3,4.3-2.5
										C42.4,159.6,41.5,158.7,40.9,159.3L40.9,159.3z"/>
								</g>
							</g>
							<g>
								<path fill="#20363D" d="M27,123.5c-1,0.9-2.1,1.9-3.6,2.8"/>
								<g>
									<path fill="#FFFFFF" d="M26.6,123c-1.1,1-2.2,1.9-3.5,2.7c-0.7,0.4-0.1,1.5,0.6,1.1c1.3-0.8,2.5-1.9,3.7-2.9
										C28,123.4,27.1,122.5,26.6,123L26.6,123z"/>
								</g>
							</g>
							<g>
								<path fill="#20363D" d="M25,131.4c-1.5,0.9-2.5,1.9-2.6,2.9"/>
								<g>
									<path fill="#FFFFFF" d="M24.7,130.9c-1.3,0.8-2.8,1.8-2.9,3.4c-0.1,0.8,1.2,0.8,1.2,0c0.1-1.1,1.5-1.8,2.3-2.3
										C26,131.5,25.4,130.4,24.7,130.9L24.7,130.9z"/>
								</g>
							</g>
							<g>
								<path fill="#20363D" d="M27.1,139c-1,0.5-1.5,1.4-2.5,1.9"/>
								<g>
									<path fill="#FFFFFF" d="M26.8,138.5c-1,0.5-1.6,1.4-2.5,1.9c-0.7,0.4-0.1,1.4,0.6,1.1c1-0.5,1.6-1.4,2.5-1.9
										C28.1,139.2,27.5,138.1,26.8,138.5L26.8,138.5z"/>
								</g>
							</g>
							<g>
								<path fill="#20363D" d="M36.2,143.5c-2,1.4-4.1,2.8-6.1,4.2"/>
								<g>
									<path fill="#FFFFFF" d="M35.9,142.9c-2,1.4-4.1,2.8-6.1,4.2c-0.7,0.5,0,1.5,0.6,1.1c2-1.4,4.1-2.8,6.1-4.2
										C37.2,143.5,36.6,142.5,35.9,142.9L35.9,142.9z"/>
								</g>
							</g>
							<g>
								<path fill="#20363D" d="M36.8,151.5c-2.5,1.4-5.1,3.3-7.1,4.7"/>
								<g>
									<path fill="#FFFFFF" d="M36.5,151c-2.5,1.4-4.8,3-7.1,4.7c-0.7,0.5,0,1.5,0.6,1.1c2.3-1.6,4.6-3.3,7.1-4.7
										C37.9,151.6,37.2,150.6,36.5,151L36.5,151z"/>
								</g>
							</g>
							<g>
								<path fill="#20363D" d="M39.6,133.6c-1,0.9-2.1,1.9-3.1,2.4"/>
								<g>
									<path fill="#FFFFFF" d="M39.2,133.2c-0.9,0.8-1.8,1.7-2.9,2.3c-0.7,0.3-0.1,1.4,0.6,1.1c1.2-0.6,2.2-1.5,3.2-2.4
										C40.7,133.5,39.8,132.6,39.2,133.2L39.2,133.2z"/>
								</g>
							</g>
							<g>
								<path fill="#20363D" d="M26.8,167c-0.5,0-1,1-1.5,1.4"/>
								<g>
									<path fill="#FFFFFF" d="M26.8,166.4c-0.9,0.1-1.4,1-2,1.6c-0.6,0.6,0.3,1.4,0.9,0.9c0.2-0.2,0.4-0.5,0.6-0.7
										c0.1-0.1,0.2-0.2,0.3-0.3c0.1-0.1,0.3-0.2,0.2-0.2C27.6,167.6,27.6,166.3,26.8,166.4L26.8,166.4z"/>
								</g>
							</g>
							<g>
								<path fill="#20363D" d="M33,172.2c-1.5,1.4-3.1,2.4-4.1,3.8"/>
								<g>
									<path fill="#FFFFFF" d="M32.6,171.7c-1.4,1.3-3,2.4-4.2,3.9c-0.5,0.6,0.6,1.3,1.1,0.6c1.1-1.4,2.7-2.5,4-3.7
										C34,172.1,33.2,171.2,32.6,171.7L32.6,171.7z"/>
								</g>
							</g>
							<g>
								<path fill="#20363D" d="M17.3,131.8c-1.5,0.9-2.5,1.9-4.1,2.8"/>
								<g>
									<path fill="#FFFFFF" d="M16.9,131.2c-1.4,0.9-2.7,1.9-4.1,2.8c-0.7,0.4-0.1,1.5,0.6,1.1c1.4-0.9,2.7-1.9,4.1-2.8
										C18.3,131.9,17.6,130.8,16.9,131.2L16.9,131.2z"/>
								</g>
							</g>
							<g>
								<path fill="#20363D" d="M15.8,138.3c-1.1,1.9-3.1,3.4-5.1,4.2"/>
								<g>
									<path fill="#FFFFFF" d="M15.3,138c-1.1,1.9-2.9,3.1-4.9,4c-0.7,0.3-0.1,1.4,0.6,1.1c2.2-1,4.1-2.4,5.3-4.5
										C16.8,137.9,15.7,137.3,15.3,138L15.3,138z"/>
								</g>
							</g>
							<g>
								<path fill="#20363D" d="M19,144.6c-2.1,1.9-4.6,3.8-6.7,5.7"/>
								<g>
									<path fill="#FFFFFF" d="M18.5,144.2c-2.2,2-4.5,3.7-6.7,5.7c-0.6,0.5,0.3,1.4,0.9,0.9c2.2-2,4.5-3.7,6.7-5.7
										C20,144.5,19.1,143.6,18.5,144.2L18.5,144.2z"/>
								</g>
							</g>
							<g>
								<path fill="#20363D" d="M20,153.7c-2,0.9-3.5,1.8-5.1,3.3"/>
								<g>
									<path fill="#FFFFFF" d="M19.7,153.1c-1.9,0.9-3.6,1.9-5.2,3.3c-0.6,0.5,0.3,1.4,0.9,0.9c1.5-1.3,3.1-2.3,4.9-3.2
										C21.1,153.9,20.4,152.8,19.7,153.1L19.7,153.1z"/>
								</g>
							</g>
							<g>
								<path fill="#20363D" d="M21.1,161.7c-2,0.9-4,1.8-5.5,2.7"/>
								<g>
									<path fill="#FFFFFF" d="M20.8,161.2c-1.9,0.8-3.8,1.7-5.5,2.7c-0.7,0.4-0.1,1.5,0.6,1.1c1.8-1.1,3.7-1.9,5.5-2.7
										C22.2,161.9,21.5,160.9,20.8,161.2L20.8,161.2z"/>
								</g>
							</g>
							<g>
								<path fill="#20363D" d="M43.1,90.8c0.5,0.5,0.4,1.5,0.4,2.5"/>
								<g>
									<path fill="#FFFFFF" d="M42.6,91.2c0.4,0.5,0.2,1.5,0.2,2.1c0,0.8,1.2,0.8,1.2,0c0-1,0.1-2.1-0.6-3
										C43,89.7,42.1,90.6,42.6,91.2L42.6,91.2z"/>
								</g>
							</g>
						</g>
						<g>
							<path fill="#20363D" d="M-62.6,167.5"/>
							<g>
								<path fill="#FFFFFF" d="M-62.6,168.1c0.8,0,0.8-1.2,0-1.2C-63.4,166.9-63.4,168.1-62.6,168.1L-62.6,168.1z"/>
							</g>
						</g>
						<g>
							<path fill="#20363D" d="M-64.7,174.6c0.4,0,1.3,0.1,2.2,0.6"/>
							<g>
								<path fill="#FFFFFF" d="M-64.7,175.2c0.7,0,1.3,0.2,1.9,0.5c0.7,0.4,1.3-0.7,0.6-1.1c-0.8-0.4-1.6-0.6-2.5-0.6
									C-65.5,173.9-65.5,175.2-64.7,175.2L-64.7,175.2z"/>
							</g>
						</g>
					</g>
				</g>
			</g>
		</g>
	</g>
</g>
</svg>
