<?xml version="1.0" encoding="utf-8"?>
<!-- Generator: Adobe Illustrator 16.0.3, SVG Export Plug-In . SVG Version: 6.00 Build 0)  -->
<!DOCTYPE svg PUBLIC "-//W3C//DTD SVG 1.1//EN" "http://www.w3.org/Graphics/SVG/1.1/DTD/svg11.dtd">
<svg version="1.1" id="Layer_1" xmlns="http://www.w3.org/2000/svg" xmlns:xlink="http://www.w3.org/1999/xlink" x="0px" y="0px"
	 width="189.9px" height="190px" viewBox="0 0 189.9 190" enable-background="new 0 0 189.9 190" xml:space="preserve">
<circle fill="#FFFFFF" cx="94.9" cy="95" r="95"/>
<circle fill="#A3DADD" cx="94.9" cy="95" r="90"/>
<g>
	<g>
		<g>
			<defs>
				<circle id="SVGID_1_" cx="94.9" cy="95" r="90"/>
			</defs>
			<clipPath id="SVGID_2_">
				<use xlink:href="#SVGID_1_"  overflow="visible"/>
			</clipPath>
			<g clip-path="url(#SVGID_2_)">
				
					<rect x="23" y="71.7" transform="matrix(0.9603 -0.279 0.279 0.9603 -26.7677 15.1217)" fill="#E5F3F4" width="33.4" height="59.8"/>
				<polygon fill="#E5F3F4" points="32.1,135 43.1,107.7 93.4,127.7 82.4,155.2 				"/>
				<path fill="#E5F3F4" d="M101.7,146.8c-3,7.6-11.6,11.3-19.1,8.3s-11.2-11.6-8.2-19.1c3-7.6,11.6-11.3,19.1-8.3
					S104.7,139.3,101.7,146.8z"/>
				<path fill="#2B4C59" d="M93.4,127.7c7.5,3,11.2,11.6,8.2,19.1c-3,7.6-11.6,11.3-19.1,8.3"/>
				
					<rect x="15.5" y="72.9" transform="matrix(0.9603 -0.279 0.279 0.9603 -19.8236 11.9964)" fill="#2B4C59" width="33.4" height="5.5"/>
				
					<rect x="15.8" y="75.2" transform="matrix(0.9603 -0.279 0.279 0.9603 -20.7815 9.8249)" opacity="0.1" fill="#E92628" enable-background="new    " width="16.7" height="5.5"/>
				<polygon opacity="0.15" fill="#69A3A2" enable-background="new    " points="47.4,128.2 32.9,78.4 16.9,83 32.1,135 32.1,135 
					32.1,135.1 82.4,155.2 86.9,143.9 				"/>
				<path fill="#EA6157" d="M42.4,139.1c0.9-2.2,1.1-4.7,0.4-7.2c-1.7-5.9-7.9-9.3-13.7-7.6l3.1,10.7"/>
				<path opacity="0.1" fill="#E92628" enable-background="new    " d="M100.7,148.9c-3.6,6.2-11.3,9-18.1,6.2l4.4-11.2"/>
			</g>
		</g>
	</g>
	<g>
		<g>
			<defs>
				<circle id="SVGID_3_" cx="94.9" cy="95" r="90"/>
			</defs>
			<clipPath id="SVGID_4_">
				<use xlink:href="#SVGID_3_"  overflow="visible"/>
			</clipPath>
			<g clip-path="url(#SVGID_4_)">
				
					<rect x="72.3" y="15" transform="matrix(0.2441 -0.9698 0.9698 0.2441 25.9351 115.1309)" fill="#E5F3F4" width="29" height="51.8"/>
				<polygon fill="#E5F3F4" points="108.4,61.2 92.7,41.1 129.7,12.1 145.6,32.3 				"/>
				<path fill="#E5F3F4" d="M147.7,14.3c4.3,5.6,3.4,13.6-2.2,17.9c-5.5,4.3-13.6,3.3-17.9-2.2c-4.3-5.6-3.4-13.6,2.2-17.9
					C135.4,7.8,143.4,8.8,147.7,14.3z"/>
				<path fill="#2B4C59" d="M129.7,12.1c5.5-4.3,13.6-3.3,17.9,2.2c4.3,5.6,3.4,13.6-2.2,17.9"/>
				
					<rect x="49.5" y="32.7" transform="matrix(0.2441 -0.9698 0.9698 0.2441 14.3336 88.5747)" fill="#2B4C59" width="29" height="4.8"/>
				
					<rect x="55" y="39.7" transform="matrix(0.244 -0.9698 0.9698 0.244 6.1782 92.1976)" opacity="0.1" fill="#E92628" enable-background="new    " width="14.5" height="4.8"/>
				<polygon opacity="0.15" fill="#69A3A2" enable-background="new    " points="110.1,46.7 66.4,35.7 62.9,49.8 108.4,61.2 
					108.4,61.2 108.4,61.3 145.6,32.3 139.2,24 				"/>
				<path fill="#EA6157" d="M115.9,55.3c-1.3-1.6-3.1-2.9-5.2-3.4c-5.2-1.3-10.4,1.8-11.7,7l9.3,2.3"/>
				<path opacity="0.1" fill="#E92628" enable-background="new    " d="M148.9,16c3,5.4,1.8,12.4-3.3,16.3l-6.4-8.2"/>
			</g>
		</g>
	</g>
	<g>
		<g>
			<defs>
				<circle id="SVGID_5_" cx="94.9" cy="95" r="90"/>
			</defs>
			<clipPath id="SVGID_6_">
				<use xlink:href="#SVGID_5_"  overflow="visible"/>
			</clipPath>
			<g clip-path="url(#SVGID_6_)">
				
					<rect x="138.2" y="121.3" transform="matrix(-0.9873 0.159 -0.159 -0.9873 318.3296 255.4489)" fill="#E5F3F4" width="21.4" height="38.3"/>
				<polygon fill="#E5F3F4" points="162.6,157.7 148.7,144.9 125.1,170.3 138.9,183.2 				"/>
				<ellipse fill="#E5F3F4" cx="132" cy="176.7" rx="9.4" ry="9.4"/>
				<path fill="#2B4C59" d="M125.1,170.3c-3.5,3.8-3.3,9.8,0.5,13.3c3.8,3.6,9.8,3.4,13.3-0.5"/>
				
					<rect x="135.5" y="121.6" transform="matrix(-0.9873 0.1591 -0.1591 -0.9873 310.0834 221.8981)" fill="#2B4C59" width="21.4" height="3.5"/>
				
					<rect x="146.1" y="120.7" transform="matrix(-0.9873 0.159 -0.159 -0.9873 320.5381 219.2597)" opacity="0.1" fill="#E92628" enable-background="new    " width="10.7" height="3.5"/>
				<polygon opacity="0.15" fill="#69A3A2" enable-background="new    " points="151.7,158 146.4,125.2 157.1,123.5 162.6,157.7 
					162.6,157.7 162.6,157.7 138.9,183.2 133.2,177.9 				"/>
				<path fill="#EA6157" d="M157.7,162.9c-1.1-1-1.9-2.5-2.2-4.1c-0.6-3.9,2-7.5,5.9-8.1l1.1,7"/>
				<path opacity="0.1" fill="#E92628" enable-background="new    " d="M126.7,184.5c3.8,2.6,9,2.1,12.2-1.4l-5.6-5.3"/>
			</g>
		</g>
	</g>
	<g>
		<g>
			<defs>
				<circle id="SVGID_7_" cx="94.9" cy="95" r="90"/>
			</defs>
			<clipPath id="SVGID_8_">
				<use xlink:href="#SVGID_7_"  overflow="visible"/>
			</clipPath>
			<g clip-path="url(#SVGID_8_)">
				
					<rect x="123" y="79.2" transform="matrix(-0.5215 -0.8533 0.8533 -0.5215 119.4282 258.5406)" fill="#E5F3F4" width="18.5" height="33.1"/>
				<polygon fill="#E5F3F4" points="122.9,112.3 128.6,97 100.4,86.4 94.7,101.7 				"/>
				<ellipse fill="#E5F3F4" cx="97.6" cy="94" rx="8.2" ry="8.2"/>
				<path fill="#2B4C59" d="M100.4,86.4c-4.2-1.6-8.9,0.5-10.5,4.8c-1.6,4.2,0.5,8.9,4.7,10.5"/>
				
					<rect x="135.7" y="86.4" transform="matrix(-0.5215 -0.8532 0.8532 -0.5215 145.5931 257.4831)" fill="#2B4C59" width="18.5" height="3.1"/>
				
					<rect x="142.8" y="90.3" transform="matrix(-0.5216 -0.8532 0.8532 -0.5216 145.9768 265.5222)" opacity="0.1" fill="#E92628" enable-background="new    " width="9.3" height="3.1"/>
				<polygon opacity="0.15" fill="#69A3A2" enable-background="new    " points="119.1,103.8 143.7,88.8 148.4,96.7 122.9,112.3 
					122.9,112.3 122.9,112.4 94.7,101.7 97.1,95.5 				"/>
				<path fill="#EA6157" d="M117.2,110.2c0.5-1.2,1.3-2.3,2.6-3.1c2.9-1.8,6.7-0.9,8.5,2l-5.2,3.2"/>
				<path opacity="0.1" fill="#E92628" enable-background="new    " d="M89.6,92.4c-0.8,3.9,1.3,7.9,5.1,9.3l2.4-6.2"/>
			</g>
		</g>
	</g>
</g>
</svg>
