<?xml version="1.0" encoding="utf-8"?>
<!-- Generator: Adobe Illustrator 16.0.3, SVG Export Plug-In . SVG Version: 6.00 Build 0)  -->
<!DOCTYPE svg PUBLIC "-//W3C//DTD SVG 1.1//EN" "http://www.w3.org/Graphics/SVG/1.1/DTD/svg11.dtd">
<svg version="1.1" id="Layer_1" xmlns="http://www.w3.org/2000/svg" xmlns:xlink="http://www.w3.org/1999/xlink" x="0px" y="0px"
	 width="190px" height="190px" viewBox="0 0 190 190" enable-background="new 0 0 190 190" xml:space="preserve">
<g>
	<path fill="#FFFFFF" d="M190,95c0,52.5-42.5,95-95,95c-49.1,0-95-42.4-95-95C0,42.5,42.5,0,95,0C147.5,0,190,42.5,190,95z"/>
	<circle fill="#A5DBDE" cx="95" cy="95" r="90"/>
	<g>
		<g>
			<g>
				<g>
					<g>
						<defs>
							<circle id="SVGID_1_" cx="95" cy="95" r="90"/>
						</defs>
						<clipPath id="SVGID_2_">
							<use xlink:href="#SVGID_1_"  overflow="visible"/>
						</clipPath>
						<g clip-path="url(#SVGID_2_)">
							<path fill="#FFFFFF" d="M18-184.2L94.6,55.1l2.6-0.9L20.1-186.6l0,0c-0.3-0.6-0.9-1.1-1.6-1.1c-0.4,0-0.8,0.2-1.1,0.4l0,0
								l-0.1,0.1c0,0,0,0-0.1,0.1l-252.1,215l1.8,2.1"/>
							<g>
								<path fill="#EC6157" d="M-39.9-131.9c-0.4,0.4-1.1,0.3-1.4-0.1l-6.2-7.3c-0.4-0.4-0.3-1.1,0.1-1.4l2.7-2.3
									c0.4-0.4,1.1-0.3,1.4,0.1l6.2,7.3c0.4,0.4,0.3,1.1-0.1,1.4L-39.9-131.9z"/>
							</g>
							<g>
								<path fill="#EC6157" d="M-82.2-95.8c-0.4,0.4-1.1,0.3-1.4-0.1l-6.2-7.3c-0.4-0.4-0.3-1.1,0.1-1.4l2.7-2.3
									c0.4-0.4,1.1-0.3,1.4,0.1l6.2,7.3c0.4,0.4,0.3,1.1-0.1,1.4L-82.2-95.8z"/>
							</g>
							<g>
								<path fill="#EC6157" d="M-124.5-59.7c-0.4,0.4-1.1,0.3-1.4-0.1l-6.2-7.3c-0.4-0.4-0.3-1.1,0.1-1.4l2.7-2.3
									c0.4-0.4,1.1-0.3,1.4,0.1l6.2,7.3c0.4,0.4,0.3,1.1-0.1,1.4L-124.5-59.7z"/>
							</g>
							<g>
								<path fill="#EC6157" d="M-177.4-14.6c-0.4,0.4-1.1,0.3-1.4-0.1L-185-22c-0.4-0.4-0.3-1.1,0.1-1.4l2.7-2.3
									c0.4-0.4,1.1-0.3,1.4,0.1l6.2,7.3c0.4,0.4,0.3,1.1-0.1,1.4L-177.4-14.6z"/>
							</g>
							<g>
								<path fill="#EC6157" d="M10-175.2c-0.4,0.4-1.1,0.3-1.4-0.1l-6.2-7.3C2-183,2-183.7,2.5-184l2.7-2.3
									c0.4-0.4,1.1-0.3,1.4,0.1l6.2,7.3c0.4,0.4,0.3,1.1-0.1,1.4L10-175.2z"/>
							</g>
							
								<rect x="-371.3" y="127.9" transform="matrix(0.6488 0.7609 -0.7609 0.6488 -28.378 322.6893)" fill="#FCD51A" width="14.9" height="5.3"/>
							
								<rect x="-46.3" y="-143" transform="matrix(0.6489 0.7609 -0.7609 0.6489 -122.3558 -15.3391)" opacity="0.1" fill="#EB2427" enable-background="new    " width="3.4" height="5.6"/>
							
								<rect x="-88.8" y="-107" transform="matrix(0.6486 0.7611 -0.7611 0.6486 -109.9241 29.6312)" opacity="0.1" fill="#EB2427" enable-background="new    " width="3.4" height="5.6"/>
							
								<rect x="-184.2" y="-26.1" transform="matrix(0.6487 0.761 -0.761 0.6487 -81.8312 130.7026)" opacity="0.1" fill="#EB2427" enable-background="new    " width="3.4" height="5.6"/>
							
								<rect x="-130.9" y="-71" transform="matrix(0.6488 0.761 -0.761 0.6488 -97.3029 74.4827)" opacity="0.1" fill="#EB2427" enable-background="new    " width="3.2" height="5.6"/>
							
								<rect x="3.9" y="-186.1" transform="matrix(0.6488 0.761 -0.761 0.6488 -137.5069 -68.5947)" opacity="0.1" fill="#EB2427" enable-background="new    " width="3.4" height="5.6"/>
							<path fill="#E6F4F4" d="M19.4-194.5c-1.5,1.3-3.8,1.1-5-0.4c-1.3-1.5-1.1-3.8,0.4-5c1.5-1.3,3.8-1.1,5.1,0.4
								C21-198.1,20.9-195.8,19.4-194.5z"/>
							
								<rect x="-152.9" y="-273.8" transform="matrix(0.6489 0.7609 -0.7609 0.6489 -94.69 94.0902)" fill="#E6F4F4" width="7.2" height="436.4"/>
							<polygon opacity="0.1" fill="#FFFFFF" enable-background="new    " points="-312.9,88.8 -314.1,87.4 20.5,-198 19.4,-194.5 
															"/>
							
								<rect x="-278.1" y="-0.5" transform="matrix(-4.100179e-02 0.9992 -0.9992 -4.100179e-02 -258.8889 302.15)" fill="#85D1D4" width="7.3" height="54.7"/>
							
								<rect x="-275.3" y="2.3" transform="matrix(-4.028498e-02 0.9992 -0.9992 -4.028498e-02 -256.0132 305.1176)" opacity="0.3" fill="#FFFFFF" enable-background="new    " width="1.6" height="54.7"/>
							<polygon fill="#85D1D4" points="-357,134.6 -366.7,123.3 -252.2,25.6 -242.5,36.9 							"/>
							
								<rect x="-301.5" y="9.7" transform="matrix(0.649 0.7608 -0.7608 0.649 -40.8059 258.4003)" opacity="0.3" fill="#FFFFFF" enable-background="new    " width="2.1" height="150.6"/>
							<path opacity="0.4" fill="#6AA3A3" enable-background="new    " d="M-252.3,45.3c-2.1-1-4.1-2.5-5.7-4.4
								c-1.8-2.2-3.1-4.7-3.7-7.3l2.1-1.8l11.4,9.9L-252.3,45.3z"/>
							<path opacity="0.4" fill="#6AA3A3" enable-background="new    " d="M-231.7,18.5c-6.2-7.3-13.5-2.1-20.8,4.1
								c-2.3,2-5.9,1.2-8.6,1.1c-0.9,2.3-1.2,4.8-1,7.3l5.4,0.3"/>
							<path fill="#FCD51A" d="M-232.2,41.5c-7.3,6.2-18.2,5.3-24.3-1.9c-6.2-7.3-5.3-18.2,1.9-24.3c7.3-6.2,18.2-5.3,24.3,1.9
								C-224.1,24.4-225,35.3-232.2,41.5z"/>
							<path fill="#1E3235" d="M-236.5,36.4c-4.5,3.8-11.2,3.3-15.1-1.2c-3.8-4.5-3.3-11.2,1.2-15.1c4.5-3.8,11.2-3.3,15.1,1.2
								C-231.5,25.9-232,32.6-236.5,36.4z"/>
							<circle fill="#FCD51A" cx="-298.9" cy="25.9" r="6.1"/>
							<circle fill="#1E3235" cx="-298.9" cy="25.9" r="3.4"/>
							<path opacity="0.3" fill="#FFFFFF" enable-background="new    " d="M-242.8,11.1c4.7,0.2,9.2,2.2,12.5,6.1
								c4.4,5.1,5.2,12,2.8,17.8C-226.2,20.2-233.8,15-242.8,11.1z"/>
							<path opacity="0.1" fill="#EB2427" enable-background="new    " d="M-245.6,45.4c-4.1-0.5-8-2.5-10.9-5.9
								c-2.6-3.1-4-6.9-4.1-10.7C-258.2,37.2-254.1,42.8-245.6,45.4z"/>
							<path opacity="0.3" fill="#FFFFFF" enable-background="new    " d="M-299.6,19.9c1.9-0.2,4,0.5,5.3,2.1
								c1.4,1.6,1.8,3.7,1.2,5.6C-293.5,23.2-295.2,20.7-299.6,19.9z"/>
							<path opacity="0.1" fill="#EB2427" enable-background="new    " d="M-300.2,31.9c-1.3-0.3-2.5-0.9-3.4-2
								c-1-1.1-1.5-2.5-1.5-3.9C-303.5,29.1-303,29.8-300.2,31.9z"/>
							
								<rect x="-360.8" y="132.8" transform="matrix(0.6497 0.7602 -0.7602 0.6497 -23.0447 320.9394)" opacity="0.3" fill="#FFFFFF" enable-background="new    " width="2.2" height="5.3"/>
							<path id="base_13_" opacity="0.3" fill="#1B2F33" enable-background="new    " d="M-278.9,41.4
								c-59.3,47.2-130.3-9.8-46.6-59.1l9-59.1c-115,47.3-124.8,128.3-88.5,169c26.4,29.7,76.3,39.1,132.4-6.4
								c3.7-3,12.9-0.4,15.4-6c1.3-2.8-0.8-6.5-6.5-8.9c5.7,2.5,8.4,1.7,10.6-2.2c1.1-2.6-0.3-6.4-4.3-8.6l2.6,1.1
								c7.2,1,7.5-8.5,0.5-11.4c-2.8-1.2-10.7-3.8-13.4-5.6C-263.4,25-272,25.7-278.9,41.4z"/>
							<path id="base_12_" fill="#2C4C59" d="M-280.6,37.7c-59.3,47.2-136.3-4.8-44.8-55.4l12-63.1C-512.3,0.9-407.1,189.6-274,81.6
								c3.7-3,11.3-0.5,13.8-6.1c1.3-2.8,0.8-6.3-4.9-8.8c5.7,2.5,7.9,0.5,10-3.4c1.1-2.6,0.3-5.2-3.7-7.4l2.6,1.1
								c4.8,2.2,7.9-8.3,1-11.3c-2.8-1.2-11.1-4-13.8-5.7C-264.8,20.9-273.7,21.9-280.6,37.7z"/>
							<path id="base_11_" opacity="0.5" fill="#28444D" enable-background="new    " d="M-280.3,37.2c-59.3,47.2-136.6-4.4-45.2-55
								l12-63.1C-512.3,0.9-407.1,189.6-274,81.6c3.7-3,12.9-0.4,15.4-6c1.3-2.8-0.8-6.5-6.5-8.9c5.7,2.5,8.4,1.7,10.6-2.2
								c1.1-2.6-0.3-6.4-4.3-8.6l2.6,1.1c7.2,1,7.5-8.5,0.5-11.4c-2.8-1.2-10.7-3.8-13.4-5.6C-264.8,20.9-273.4,21.5-280.3,37.2z"/>
							<path id="base_10_" opacity="0.1" fill="#528293" enable-background="new    " d="M-423.8,46.3
								c2.9,45.8,45.9,90.1,118.7,55.2C-360.7,118.8-407.5,102.5-423.8,46.3z"/>
							<g id="base_4_">
								<g>
									<path fill="#1C3135" d="M-313.4-80.8c-7.8,3.3-15.4,6.9-22.8,10.9c-7.4,3.9-14.7,8.3-21.7,12.9c-7,4.7-13.7,9.8-20,15.3
										c-6.3,5.6-12.3,11.4-17.8,17.8c-5.4,6.4-10.3,13.2-14.4,20.5c-4.1,7.3-7.4,15-9.6,23.1c-2.2,8-3.4,16.4-3.3,24.7
										c0.2,8.3,1.6,16.7,4.4,24.5c2.8,7.8,7.1,15.1,12.5,21.4s12.1,11.5,19.5,15.4c7.4,3.8,15.5,6.3,23.7,7.3
										c8.3,1,16.7,0.7,24.9-0.7c8.2-1.4,16.3-3.9,24-7.1s15.1-7.3,22.2-11.8c3.5-2.3,7-4.7,10.3-7.2c1.7-1.3,3.3-2.5,5-3.9l1.3-1
										l0.3-0.2l0.4-0.3c0.3-0.1,0.5-0.3,0.8-0.4c1.1-0.4,2.2-0.7,3.3-0.9c2.1-0.4,4.2-0.6,6.2-1.1c1.9-0.5,3.7-1.3,4.5-2.9
										c0.9-1.5,0.3-3.3-0.9-4.7c-1.2-1.4-3-2.5-4.8-3.3l0.8-1.8c1.9,0.8,4.1,1.4,6,1c0.9-0.2,1.8-0.6,2.4-1.3
										c0.6-0.7,1-1.6,1.3-2.6v0.1c0-0.3,0-0.7,0-1c0-0.3-0.1-0.6-0.3-1c-0.1-0.3-0.3-0.6-0.5-0.9c-0.2-0.3-0.5-0.6-0.7-0.9
										c-1.1-1.1-2.5-2-3.9-2.8l0.8-1.8l3.8,1.3h-0.2c1.2,0.1,2.3,0,3.2-0.6c0.8-0.6,1.4-1.6,1.5-2.7c0.1-1.1-0.2-2.2-0.8-3.2
										s-1.5-1.8-2.5-2.4c-0.5-0.3-1.1-0.5-1.7-0.8l-1.9-0.7l-3.8-1.4c-1.3-0.5-2.5-1-3.8-1.5c-1.3-0.5-2.5-1.1-3.8-1.9l-0.6-0.4
										l0.1-0.7c0.5-2.5,1-5.1,1.1-7.6c0-1.3,0-2.5-0.3-3.7c-0.1-0.6-0.3-1.1-0.6-1.5c-0.3-0.4-0.5-0.5-0.9-0.5
										c-0.4,0-0.8,0.1-1.3,0.4c-0.5,0.3-0.9,0.7-1.4,1.1c-0.9,0.8-1.7,1.8-2.4,2.9c-1.4,2.1-2.6,4.4-3.7,6.8l0,0l0,0
										c-0.2,0.4-0.4,0.6-0.6,0.8c-0.2,0.2-0.4,0.3-0.6,0.5c-0.4,0.3-0.8,0.6-1.1,0.8c-0.8,0.5-1.5,1-2.2,1.5c-1.4,1-3,2.1-4.5,3
										c-3.1,1.9-6.2,3.7-9.5,5.2c-6.6,3.1-13.5,5.4-20.7,6.6c-7.2,1.2-14.5,1.4-21.7,0.1c-3.6-0.6-7.1-1.6-10.5-3
										s-6.6-3.3-9.4-5.7c-2.8-2.4-5.2-5.4-6.6-8.9c-1.5-3.4-2-7.2-1.7-10.9c0.3-3.7,1.5-7.2,3.1-10.5c1.6-3.3,3.7-6.3,6-9.1
										c4.6-5.6,10.1-10.3,15.9-14.5c5.8-4.2,12-7.9,18.3-11.3c-6.2,3.6-12.3,7.4-17.9,11.8c-5.7,4.4-11,9.2-15.4,14.8
										c-2.2,2.8-4.1,5.8-5.6,9c-1.5,3.2-2.5,6.6-2.7,10.1c-0.2,3.5,0.4,6.9,1.8,10c1.4,3.1,3.6,5.8,6.3,8.1
										c2.6,2.3,5.7,4,8.9,5.4c3.2,1.4,6.6,2.3,10.1,2.9c6.9,1.2,14.1,1,21-0.1c7-1.2,13.8-3.4,20.2-6.4c3.2-1.5,6.3-3.2,9.3-5.1
										c1.5-1,2.9-1.9,4.4-3c0.8-0.6,1.5-1,2.3-1.5c0.4-0.2,0.7-0.5,1-0.7c0.2-0.1,0.3-0.3,0.4-0.4s0.2-0.3,0.2-0.2v0.1
										c1.1-2.4,2.3-4.8,3.8-7.1c0.8-1.1,1.6-2.2,2.6-3.2c0.5-0.5,1.1-1,1.7-1.3c0.7-0.4,1.4-0.7,2.4-0.7s1.9,0.7,2.4,1.4
										c0.5,0.7,0.7,1.4,0.9,2.2c0.3,1.4,0.4,2.8,0.3,4.2c-0.1,2.7-0.6,5.4-1.1,8l-0.4-1.1c1,0.6,2.2,1.2,3.4,1.7
										c1.2,0.5,2.4,1,3.7,1.5l3.7,1.4l1.9,0.7c0.6,0.2,1.3,0.5,1.9,0.9c1.3,0.7,2.4,1.8,3.2,3.1s1.2,2.9,1.1,4.4
										c-0.1,1.6-0.9,3.2-2.3,4.1c-1.4,1-3,1.1-4.5,1h-0.1h-0.1l-3.8-1.3l0.8-1.8c1.5,0.9,3,1.8,4.4,3.1c0.6,0.7,1.2,1.4,1.6,2.4
										c0.2,0.5,0.4,1,0.4,1.5c0.1,0.5,0.1,1,0,1.5l0,0v0.1c-0.3,1.2-0.8,2.4-1.7,3.4c-0.9,1-2.2,1.7-3.5,1.9
										c-1.3,0.3-2.6,0.2-3.8-0.1c-1.2-0.2-2.3-0.6-3.4-1.1l0.8-1.8c2,0.9,4,2,5.5,3.8c0.8,0.9,1.4,1.9,1.7,3.2
										c0.2,0.6,0.2,1.3,0.1,1.9c-0.1,0.3-0.2,0.8-0.2,1l-0.1,0.2V76l-0.1,0.2l-0.2,0.4c-0.6,1.1-1.5,2-2.6,2.6
										c-1,0.6-2.1,1-3.2,1.2c-2.2,0.5-4.3,0.7-6.3,1.1c-1,0.2-2,0.4-2.8,0.7c-0.2,0.1-0.4,0.2-0.6,0.3l-0.2,0.1l-0.3,0.2l-1.2,1
										c-1.6,1.3-3.3,2.6-5,3.9c-3.4,2.5-6.9,5-10.5,7.3c-7.1,4.6-14.6,8.7-22.5,12c-7.8,3.3-16,5.8-24.4,7.3s-17,1.8-25.5,0.7
										s-16.8-3.6-24.4-7.5s-14.5-9.3-20.1-15.8c-5.6-6.5-10-14-12.9-22.1c-2.9-8-4.4-16.6-4.6-25.1c-0.1-8.5,1-17.1,3.3-25.3
										c2.3-8.2,5.6-16.1,9.8-23.5c4.2-7.4,9.1-14.4,14.6-20.8s11.5-12.5,18.1-17.9c6.5-5.4,13.4-10.4,20.5-15
										c7.1-4.5,14.5-8.7,22.1-12.5C-329-74.3-321.2-77.7-313.4-80.8z"/>
								</g>
							</g>
							<g>
								<path fill="#21363D" d="M-326-68.5c-1.7,0.7-3.1,1.7-4.5,3.1"/>
								<g>
									<path fill="#FFFFFF" d="M-326.1-69.1c-1.8,0.8-3.4,1.9-4.8,3.3c-0.6,0.6,0.3,1.5,0.9,0.9c1.2-1.2,2.6-2.3,4.2-3
										C-325.1-68.2-325.4-69.4-326.1-69.1L-326.1-69.1z"/>
								</g>
							</g>
							<g>
								<path fill="#21363D" d="M-326.3-60.8c-1.4,0.7-2.8,1.7-3.8,3.1"/>
								<g>
									<path fill="#FFFFFF" d="M-326.6-61.4c-1.6,0.8-3,1.9-4,3.4c-0.5,0.6,0.6,1.3,1.1,0.6c1-1.2,2.2-2.2,3.6-2.9
										C-325.3-60.7-325.9-61.7-326.6-61.4L-326.6-61.4z"/>
								</g>
							</g>
							<g>
								<path fill="#21363D" d="M-337.1-63.6c-1.7,1-3.1,2.1-4.5,3.1"/>
								<g>
									<path fill="#FFFFFF" d="M-337.4-64.2c-1.6,1-3.1,2-4.5,3.1c-0.6,0.5,0,1.6,0.6,1.1c1.5-1.1,2.9-2.2,4.5-3.1
										C-336.1-63.5-336.7-64.6-337.4-64.2L-337.4-64.2z"/>
								</g>
							</g>
							<g>
								<path fill="#21363D" d="M-318.7-73.7c-1.4,0.3-3.1,0.7-4.5,1.4"/>
								<g>
									<path fill="#FFFFFF" d="M-318.8-74.3c-1.6,0.4-3.2,0.7-4.7,1.5c-0.7,0.3-0.1,1.4,0.6,1.1c1.4-0.7,2.9-1,4.4-1.3
										C-317.7-73.3-318-74.5-318.8-74.3L-318.8-74.3z"/>
								</g>
							</g>
							<g>
								<path fill="#21363D" d="M-322.8-55.3c-1.7,0.7-3.5,1.7-4.9,2.4"/>
								<g>
									<path fill="#FFFFFF" d="M-323-55.9c-1.7,0.7-3.3,1.6-5,2.5c-0.7,0.4-0.1,1.4,0.6,1.1c1.6-0.8,3.1-1.7,4.7-2.4
										C-321.9-55-322.3-56.2-323-55.9L-323-55.9z"/>
								</g>
							</g>
							<g>
								<path fill="#21363D" d="M-327.4-44.8c-0.3,0-1,0.4-1.4,0.7"/>
								<g>
									<path fill="#FFFFFF" d="M-327.4-45.5c-0.7,0.1-1.3,0.4-1.8,0.9c-0.6,0.5,0.3,1.4,0.9,0.9c0.2-0.2,0.6-0.5,0.9-0.5
										C-326.6-44.3-326.5-45.5-327.4-45.5L-327.4-45.5z"/>
								</g>
							</g>
							<g>
								<path fill="#21363D" d="M-328.4-29.5c-2.1,0.3-3.8,1.4-5.6,2.8"/>
								<g>
									<path fill="#FFFFFF" d="M-328.6-30.1c-2.2,0.4-4.1,1.6-5.8,2.9c-0.6,0.5,0.3,1.4,0.9,0.9c1.6-1.3,3.3-2.2,5.3-2.6
										C-327.4-29.1-327.8-30.3-328.6-30.1L-328.6-30.1z"/>
								</g>
							</g>
							<g>
								<path fill="#21363D" d="M-331.5-21.9c-0.7,0.3-1,0.7-1.7,1"/>
								<g>
									<path fill="#FFFFFF" d="M-331.8-22.4c-0.6,0.3-1.1,0.7-1.7,1c-0.7,0.4-0.1,1.5,0.6,1.1c0.6-0.3,1.1-0.7,1.7-1
										C-330.5-21.7-331.1-22.8-331.8-22.4L-331.8-22.4z"/>
								</g>
							</g>
							<g>
								<path fill="#21363D" d="M-348.9-57.7c-1.4,1.4-3.1,2.8-4.2,4.5"/>
								<g>
									<path fill="#FFFFFF" d="M-349.3-58.1c-1.5,1.5-3.1,2.8-4.3,4.6c-0.4,0.7,0.7,1.3,1.1,0.6c1.1-1.7,2.7-3,4.1-4.4
										C-347.9-57.8-348.8-58.7-349.3-58.1L-349.3-58.1z"/>
								</g>
							</g>
							<g>
								<path fill="#21363D" d="M-337.8-52.5c-1,1-2.1,1.7-3.1,2.8"/>
								<g>
									<path fill="#FFFFFF" d="M-338.2-52.9c-1,1-2.1,1.8-3.1,2.8c-0.6,0.6,0.3,1.4,0.9,0.9c1-1,2.1-1.8,3.1-2.8
										C-336.8-52.6-337.6-53.5-338.2-52.9L-338.2-52.9z"/>
								</g>
							</g>
							<g>
								<path fill="#21363D" d="M-335.3-43.4c-1.7,1-3.1,2.1-4.9,3.1"/>
								<g>
									<path fill="#FFFFFF" d="M-335.7-44c-1.6,1-3.2,2.1-4.9,3.1c-0.7,0.4-0.1,1.5,0.6,1.1c1.6-1,3.2-2.1,4.9-3.1
										C-334.3-43.3-335-44.4-335.7-44L-335.7-44z"/>
								</g>
							</g>
							<g>
								<path fill="#21363D" d="M-349.6-48c-1.7,1.4-3.5,2.8-5.2,4.2"/>
								<g>
									<path fill="#FFFFFF" d="M-350-48.4c-1.7,1.4-3.5,2.8-5.2,4.2c-0.6,0.5,0.3,1.4,0.9,0.9c1.7-1.4,3.5-2.8,5.2-4.2
										C-348.5-48-349.4-48.9-350-48.4L-350-48.4z"/>
								</g>
							</g>
							<g>
								<path fill="#21363D" d="M-359.7-50.7c-2.1,1-4.2,2.4-5.6,4.5"/>
								<g>
									<path fill="#FFFFFF" d="M-360-51.3c-2.3,1.2-4.3,2.6-5.8,4.7c-0.5,0.7,0.6,1.3,1.1,0.6c1.3-1.9,3.3-3.2,5.3-4.3
										C-358.7-50.6-359.3-51.7-360-51.3L-360-51.3z"/>
								</g>
							</g>
							<g>
								<path fill="#21363D" d="M-346.8-37.9c-1.4,1.4-3.1,2.8-4.9,3.8"/>
								<g>
									<path fill="#FFFFFF" d="M-347.3-38.3c-1.4,1.4-3,2.7-4.7,3.7c-0.7,0.4-0.1,1.5,0.6,1.1c1.8-1.1,3.5-2.4,5-3.9
										C-345.8-38-346.7-38.9-347.3-38.3L-347.3-38.3z"/>
								</g>
							</g>
							<g>
								<path fill="#21363D" d="M-337.8-33.7c-1.4,0.7-2.8,1.4-4.2,2.4"/>
								<g>
									<path fill="#FFFFFF" d="M-338.1-34.3c-1.4,0.7-2.9,1.5-4.2,2.4c-0.6,0.5,0,1.6,0.6,1.1c1.3-1,2.7-1.7,4.2-2.4
										C-336.7-33.5-337.4-34.6-338.1-34.3L-338.1-34.3z"/>
								</g>
							</g>
							<g>
								<path fill="#21363D" d="M-341.6-22.2c-2.4,1.4-4.5,2.1-6.6,3.5"/>
								<g>
									<path fill="#FFFFFF" d="M-341.9-22.8c-2.2,1.2-4.5,2.1-6.6,3.5c-0.7,0.4,0,1.5,0.6,1.1c2.1-1.4,4.4-2.3,6.6-3.5
										C-340.6-22.1-341.2-23.2-341.9-22.8L-341.9-22.8z"/>
								</g>
							</g>
							<g>
								<path fill="#21363D" d="M-342.6-13.2c-1,0.7-2.1,1.4-3.1,2.4"/>
								<g>
									<path fill="#FFFFFF" d="M-343-13.7c-1.1,0.8-2.3,1.6-3.3,2.5c-0.6,0.6,0.3,1.4,0.9,0.9c0.9-0.9,1.9-1.6,3-2.3
										C-341.7-13.1-342.3-14.2-343-13.7L-343-13.7z"/>
								</g>
							</g>
							<g>
								<path fill="#21363D" d="M-371.2-42.8c-1.4,1.4-3.1,2.8-4.5,4.5"/>
								<g>
									<path fill="#FFFFFF" d="M-371.6-43.2c-1.5,1.5-3.2,2.9-4.5,4.5c-0.5,0.6,0.4,1.5,0.9,0.9c1.4-1.7,3-3,4.5-4.5
										C-370.1-42.9-371-43.8-371.6-43.2L-371.6-43.2z"/>
								</g>
							</g>
							<g>
								<path fill="#21363D" d="M-363.9-36.5c-1,1-1.7,1.7-2.8,2.8"/>
								<g>
									<path fill="#FFFFFF" d="M-364.3-36.9c-0.9,0.9-1.9,1.9-2.8,2.8c-0.6,0.6,0.3,1.5,0.9,0.9c0.9-0.9,1.9-1.9,2.8-2.8
										C-362.8-36.6-363.7-37.5-364.3-36.9L-364.3-36.9z"/>
								</g>
							</g>
							<g>
								<path fill="#21363D" d="M-358.3-29.2c-1.7,1-3.1,2.1-4.5,3.5"/>
								<g>
									<path fill="#FFFFFF" d="M-358.6-29.7c-1.7,1-3.2,2.2-4.6,3.6c-0.6,0.6,0.3,1.4,0.9,0.9c1.3-1.3,2.8-2.4,4.4-3.4
										C-357.3-29.1-357.9-30.2-358.6-29.7L-358.6-29.7z"/>
								</g>
							</g>
							<g>
								<path fill="#21363D" d="M-373.2-33.4c-1.7,1.7-3.8,3.1-4.9,5.2"/>
								<g>
									<path fill="#FFFFFF" d="M-373.7-33.8c-1.7,1.7-3.8,3.1-5,5.3c-0.4,0.7,0.7,1.3,1.1,0.6c1.1-2.1,3.1-3.5,4.8-5.1
										C-372.2-33.5-373.1-34.4-373.7-33.8L-373.7-33.8z"/>
								</g>
							</g>
							<g>
								<path fill="#21363D" d="M-381.2-32.3c-2.1,1.4-3.5,3.5-4.9,5.2"/>
								<g>
									<path fill="#FFFFFF" d="M-381.6-32.9c-2,1.4-3.5,3.4-5,5.3c-0.5,0.6,0.4,1.5,0.9,0.9c1.5-1.8,2.8-3.8,4.7-5.1
										C-380.3-32.2-380.9-33.3-381.6-32.9L-381.6-32.9z"/>
								</g>
							</g>
							<g>
								<path fill="#21363D" d="M-372.2-25.4c-1,2.1-2.8,3.5-4.2,5.2"/>
								<g>
									<path fill="#FFFFFF" d="M-372.7-25.7c-1,2-2.7,3.4-4.1,5.1c-0.5,0.6,0.4,1.5,0.9,0.9c1.5-1.8,3.2-3.3,4.3-5.3
										C-371.3-25.8-372.4-26.4-372.7-25.7L-372.7-25.7z"/>
								</g>
							</g>
							<g>
								<path fill="#21363D" d="M-358.3-21.9c-1.7,1.7-3.5,3.1-4.9,5.2"/>
								<g>
									<path fill="#FFFFFF" d="M-358.7-22.3c-1.7,1.7-3.6,3.3-5,5.3c-0.5,0.7,0.6,1.3,1.1,0.6c1.3-1.9,3.1-3.4,4.8-5.1
										C-357.3-22-358.2-22.9-358.7-22.3L-358.7-22.3z"/>
								</g>
							</g>
							<g>
								<path fill="#21363D" d="M-356.2-11.5c-1.4,1.4-2.8,2.8-3.5,4.2"/>
								<g>
									<path fill="#FFFFFF" d="M-356.6-11.9c-1.3,1.3-2.7,2.6-3.6,4.3c-0.4,0.7,0.7,1.3,1.1,0.6c0.8-1.6,2.1-2.8,3.4-4
										C-355.2-11.6-356.1-12.5-356.6-11.9L-356.6-11.9z"/>
								</g>
							</g>
							<g>
								<path fill="#21363D" d="M-354.8-4.2"/>
								<g>
									<path fill="#FFFFFF" d="M-354.8-3.5c0.8,0,0.8-1.2,0-1.2C-355.6-4.8-355.6-3.5-354.8-3.5L-354.8-3.5z"/>
								</g>
							</g>
							<g>
								<path fill="#21363D" d="M-370.1-16.7c-2.1,2.4-4.2,4.5-5.9,7.3"/>
								<g>
									<path fill="#FFFFFF" d="M-370.6-17.1c-2.1,2.4-4.3,4.7-6,7.4c-0.4,0.7,0.6,1.3,1.1,0.6c1.7-2.6,3.8-4.8,5.8-7.2
										C-369.2-16.8-370-17.7-370.6-17.1L-370.6-17.1z"/>
								</g>
							</g>
							<g>
								<path fill="#21363D" d="M-367.3-5.5c-1.4,1.4-2.8,3.1-3.8,4.9"/>
								<g>
									<path fill="#FFFFFF" d="M-367.8-6c-1.5,1.5-2.8,3.2-3.9,5c-0.4,0.7,0.7,1.3,1.1,0.6c1.1-1.7,2.3-3.3,3.7-4.7
										C-366.3-5.7-367.2-6.6-367.8-6L-367.8-6z"/>
								</g>
							</g>
							<g>
								<path fill="#21363D" d="M-363.2,2.4c-2.8,2.8-5.6,5.6-6.6,9"/>
								<g>
									<path fill="#FFFFFF" d="M-363.6,2c-2.7,2.7-5.5,5.5-6.8,9.3c-0.3,0.8,1,1.1,1.2,0.3c1.2-3.5,3.9-6.2,6.4-8.8
										C-362.2,2.3-363,1.4-363.6,2L-363.6,2z"/>
								</g>
							</g>
							<g>
								<path fill="#21363D" d="M-273.8,31.3c-0.3,2.4-1.4,4.2-2.8,6.3"/>
								<g>
									<path fill="#FFFFFF" d="M-274.4,31.1c-0.4,2.3-1.4,4.2-2.7,6.1c-0.4,0.7,0.6,1.3,1.1,0.6c1.3-2,2.5-4,2.8-6.4
										C-273.1,30.7-274.3,30.3-274.4,31.1L-274.4,31.1z"/>
								</g>
							</g>
							<g>
								<path fill="#21363D" d="M-274.2,41c-0.3,1.4-1.4,2.8-2.1,3.8"/>
								<g>
									<path fill="#FFFFFF" d="M-274.8,40.9c-0.4,1.4-1.2,2.5-2,3.7c-0.5,0.7,0.6,1.3,1.1,0.6c0.8-1.3,1.7-2.5,2.2-4
										C-273.3,40.4-274.5,40.1-274.8,40.9L-274.8,40.9z"/>
								</g>
							</g>
							<g>
								<path fill="#21363D" d="M-256.8,50.4c-1.4-1-3.1-1.4-4.9-2.1"/>
								<g>
									<path fill="#FFFFFF" d="M-256.5,49.9c-1.5-1.1-3.3-1.5-5-2.1c-0.8-0.3-1.1,0.9-0.3,1.2c1.6,0.6,3.3,1,4.7,2
										C-256.4,51.4-255.8,50.4-256.5,49.9L-256.5,49.9z"/>
								</g>
							</g>
							<g>
								<path fill="#21363D" d="M-267.3,47c-0.7,0.5-1.6,0.7-2.6,0.5"/>
								<g>
									<path fill="#FFFFFF" d="M-267.6,46.4c-0.6,0.4-1.3,0.6-2.1,0.4c-0.8-0.2-1.1,1-0.3,1.2c1.1,0.2,2.1,0.1,3-0.5
										C-266.3,47.1-266.9,46-267.6,46.4L-267.6,46.4z"/>
								</g>
							</g>
							<g>
								<path fill="#21363D" d="M-262.9,52.5c-1.6,0.2-3.5,0.2-5.1,0.2"/>
								<g>
									<path fill="#FFFFFF" d="M-262.9,51.9c-1.7,0.2-3.4,0.2-5.1,0.2c-0.8,0-0.8,1.2,0,1.2c1.7,0,3.4,0,5.1-0.2
										C-262.1,53-262.1,51.8-262.9,51.9L-262.9,51.9z"/>
								</g>
							</g>
							<g>
								<path fill="#21363D" d="M-270.8,51.6c-1.2,0-2.1,0-3,0"/>
								<g>
									<path fill="#FFFFFF" d="M-270.8,51c-1,0-2,0-3,0c-0.8,0-0.8,1.2,0,1.2c1,0,2,0,3,0C-270,52.2-270,51-270.8,51L-270.8,51z"
										/>
								</g>
							</g>
							<g>
								<path fill="#21363D" d="M-260.1,61.3c-1.4-0.7-3.2-1.2-4.6-1.4"/>
								<g>
									<path fill="#FFFFFF" d="M-259.8,60.8c-1.5-0.7-3.1-1.2-4.8-1.5c-0.8-0.1-1.1,1.1-0.3,1.2c1.5,0.3,3.1,0.6,4.5,1.3
										C-259.7,62.2-259.1,61.1-259.8,60.8L-259.8,60.8z"/>
								</g>
							</g>
							<g>
								<path fill="#21363D" d="M-265,63.6"/>
								<g>
									<path fill="#FFFFFF" d="M-265,64.3c0.8,0,0.8-1.2,0-1.2S-265.8,64.3-265,64.3L-265,64.3z"/>
								</g>
							</g>
							<g>
								<path fill="#21363D" d="M-270.3,57.2c-1.4,0.2-2.5,0.2-3.9,0.2"/>
								<g>
									<path fill="#FFFFFF" d="M-270.5,56.5c-1.3,0.2-2.5,0.2-3.8,0.2c-0.8,0-0.8,1.2,0,1.2c1.4,0,2.7,0,4.1-0.3
										C-269.4,57.6-269.7,56.4-270.5,56.5L-270.5,56.5z"/>
								</g>
							</g>
							<g>
								<path fill="#21363D" d="M-271.3,62.7c-1.4,0-2.6,0.2-3.9,0.2"/>
								<g>
									<path fill="#FFFFFF" d="M-271.3,62.1c-1.3,0-2.6,0.2-3.9,0.2c-0.8,0-0.8,1.3,0,1.2c1.3,0,2.6-0.2,3.9-0.2
										C-270.5,63.3-270.5,62.1-271.3,62.1L-271.3,62.1z"/>
								</g>
							</g>
							<g>
								<path fill="#21363D" d="M-266.9,72c-2.1,0.2-4.2,0.2-6.3,0.5"/>
								<g>
									<path fill="#FFFFFF" d="M-266.9,71.4c-2.1,0.2-4.2,0.2-6.3,0.5c-0.8,0.1-0.8,1.3,0,1.2c2.1-0.2,4.2-0.2,6.3-0.5
										C-266.1,72.5-266.1,71.3-266.9,71.4L-266.9,71.4z"/>
								</g>
							</g>
							<g>
								<path fill="#21363D" d="M-269.2,76.4c-2.1,0.2-3.9,0.7-6,1.2"/>
								<g>
									<path fill="#FFFFFF" d="M-269.2,75.8c-2.1,0.2-4.1,0.7-6.2,1.2c-0.8,0.2-0.5,1.4,0.3,1.2c1.9-0.4,3.9-0.9,5.9-1.1
										C-268.4,76.9-268.4,75.7-269.2,75.8L-269.2,75.8z"/>
								</g>
							</g>
							<g>
								<path fill="#21363D" d="M-282.2,43.5c-1.9,1.2-3.7,2.1-5.6,3.2"/>
								<g>
									<path fill="#FFFFFF" d="M-282.5,42.9c-1.8,1.1-3.7,2.1-5.6,3.2c-0.7,0.4-0.1,1.5,0.6,1.1c1.8-1.1,3.7-2.1,5.6-3.2
										C-281.2,43.6-281.8,42.5-282.5,42.9L-282.5,42.9z"/>
								</g>
							</g>
							<g>
								<path fill="#21363D" d="M-283.3,51.1c-1.6,0.7-3,1.4-4.6,2.1"/>
								<g>
									<path fill="#FFFFFF" d="M-283.6,50.6c-1.6,0.7-3.1,1.4-4.6,2.1c-0.7,0.3-0.1,1.4,0.6,1.1c1.6-0.7,3.1-1.4,4.6-2.1
										C-282.3,51.3-282.9,50.3-283.6,50.6L-283.6,50.6z"/>
								</g>
							</g>
							<g>
								<path fill="#21363D" d="M-292.6,50c-1.4,1.2-3.2,1.4-5.1,1.9"/>
								<g>
									<path fill="#FFFFFF" d="M-293,49.5c-1.4,1.1-3.2,1.3-4.8,1.7c-0.8,0.2-0.5,1.4,0.3,1.2c1.9-0.5,3.8-0.8,5.4-2
										C-291.5,49.9-292.4,49-293,49.5L-293,49.5z"/>
								</g>
							</g>
							<g>
								<path fill="#21363D" d="M-281.2,57.6c-1.6,1.2-3.5,1.9-5.3,2.5"/>
								<g>
									<path fill="#FFFFFF" d="M-281.5,57.1c-1.6,1.1-3.4,1.8-5.2,2.5c-0.7,0.3-0.4,1.5,0.3,1.2c1.9-0.7,3.8-1.5,5.5-2.6
										C-280.2,57.7-280.9,56.6-281.5,57.1L-281.5,57.1z"/>
								</g>
							</g>
							<g>
								<path fill="#21363D" d="M-281.7,64.8c-1.9,0.9-3.9,1.6-5.8,2.3"/>
								<g>
									<path fill="#FFFFFF" d="M-282,64.3c-1.8,0.9-3.7,1.5-5.6,2.3c-0.7,0.3-0.4,1.5,0.3,1.2c2-0.7,4-1.4,5.9-2.4
										C-280.6,65-281.3,63.9-282,64.3L-282,64.3z"/>
								</g>
							</g>
							<g>
								<path fill="#21363D" d="M-275.9,69.4c-1.9,0.9-3.5,1.6-5.3,2.3"/>
								<g>
									<path fill="#FFFFFF" d="M-276.2,68.9c-1.7,0.8-3.4,1.6-5.2,2.3c-0.7,0.3-0.4,1.5,0.3,1.2c1.9-0.7,3.7-1.5,5.5-2.4
										C-274.9,69.6-275.5,68.5-276.2,68.9L-276.2,68.9z"/>
								</g>
							</g>
							<g>
								<path fill="#21363D" d="M-280.1,77.8c-2.1,1.4-4.4,1.9-6.5,2.8"/>
								<g>
									<path fill="#FFFFFF" d="M-280.4,77.2c-2,1.3-4.3,1.9-6.5,2.8c-0.7,0.3-0.1,1.4,0.6,1.1c2.2-0.9,4.5-1.5,6.5-2.8
										C-279.1,77.9-279.7,76.8-280.4,77.2L-280.4,77.2z"/>
								</g>
							</g>
							<g>
								<path fill="#21363D" d="M-287.2,84.5c-1.4,0.7-2.8,1.2-4.2,1.9"/>
								<g>
									<path fill="#FFFFFF" d="M-287.6,84c-1.4,0.7-2.8,1.2-4.2,1.9c-0.7,0.4-0.1,1.4,0.6,1.1c1.4-0.7,2.8-1.2,4.2-1.9
										C-286.2,84.7-286.8,83.6-287.6,84L-287.6,84z"/>
								</g>
							</g>
							<g>
								<path fill="#21363D" d="M-303.7,55.5c-1.6,1.2-3.5,1.6-5.1,1.9"/>
								<g>
									<path fill="#FFFFFF" d="M-304,55c-1.5,1-3.2,1.5-5,1.8c-0.8,0.1-0.5,1.3,0.3,1.2c1.9-0.3,3.7-0.8,5.2-1.9
										C-302.7,55.6-303.4,54.5-304,55L-304,55z"/>
								</g>
							</g>
							<g>
								<path fill="#21363D" d="M-294.9,59.7c-1.6,1.2-3.5,1.6-5.3,1.9"/>
								<g>
									<path fill="#FFFFFF" d="M-295.2,59.2c-1.5,1-3.2,1.5-5,1.8c-0.8,0.1-0.8,1.4,0,1.2c2-0.3,3.9-0.8,5.6-1.9
										C-293.9,59.8-294.5,58.7-295.2,59.2L-295.2,59.2z"/>
								</g>
							</g>
							<g>
								<path fill="#21363D" d="M-294.7,66.4c-1.6,0.7-3.5,1.4-5.1,2.1"/>
								<g>
									<path fill="#FFFFFF" d="M-295,65.9c-1.7,0.7-3.4,1.4-5.1,2.1c-0.7,0.3-0.1,1.4,0.6,1.1c1.7-0.7,3.4-1.4,5.1-2.1
										C-293.6,66.6-294.2,65.6-295,65.9L-295,65.9z"/>
								</g>
							</g>
							<g>
								<path fill="#21363D" d="M-290.5,74.3c-1.9,1.2-4.2,1.9-6.3,2.5"/>
								<g>
									<path fill="#FFFFFF" d="M-290.8,73.8c-1.9,1.1-4,1.8-6.1,2.5c-0.8,0.3-0.4,1.5,0.3,1.2c2.2-0.7,4.4-1.4,6.4-2.6
										C-289.5,74.4-290.1,73.3-290.8,73.8L-290.8,73.8z"/>
								</g>
							</g>
							<g>
								<path fill="#21363D" d="M-297.7,88c-1.9,1.6-4.9,2.1-7.4,2.6"/>
								<g>
									<path fill="#FFFFFF" d="M-298.1,87.5c-2,1.6-4.7,2-7.1,2.4c-0.8,0.1-0.5,1.3,0.3,1.2c2.7-0.5,5.5-0.9,7.7-2.7
										C-296.6,87.9-297.5,87-298.1,87.5L-298.1,87.5z"/>
								</g>
							</g>
							<g>
								<path fill="#21363D" d="M-306,90.8"/>
								<g>
									<path fill="#FFFFFF" d="M-306,91.4c0.8,0,0.8-1.2,0-1.2C-306.8,90.1-306.8,91.4-306,91.4L-306,91.4z"/>
								</g>
							</g>
							<g>
								<path fill="#21363D" d="M-305.6,90.1"/>
								<g>
									<path fill="#FFFFFF" d="M-305.6,90.7c0.8,0,0.8-1.2,0-1.2C-306.4,89.5-306.4,90.7-305.6,90.7L-305.6,90.7z"/>
								</g>
							</g>
							<g>
								<path fill="#21363D" d="M-315.5,60.4c-1.4,1.2-3.2,1.6-5.1,2.1"/>
								<g>
									<path fill="#FFFFFF" d="M-316,60c-1.4,1.1-3.1,1.5-4.8,1.9c-0.8,0.2-0.5,1.4,0.3,1.2c1.9-0.5,3.8-1,5.4-2.2
										C-314.5,60.3-315.3,59.5-316,60L-316,60z"/>
								</g>
							</g>
							<g>
								<path fill="#21363D" d="M-307.9,65.7c-2.3,1.4-5.1,1.9-7.9,2.5"/>
								<g>
									<path fill="#FFFFFF" d="M-308.2,65.2c-2.4,1.4-5.1,1.8-7.7,2.5c-0.8,0.2-0.5,1.4,0.3,1.2c2.8-0.7,5.5-1.2,8-2.6
										C-306.9,65.9-307.5,64.8-308.2,65.2L-308.2,65.2z"/>
								</g>
							</g>
							<g>
								<path fill="#21363D" d="M-308.6,75.9c-1.6,0.2-3,0.5-4.6,0.7"/>
								<g>
									<path fill="#FFFFFF" d="M-308.7,75.3c-1.5,0.2-3.1,0.5-4.6,0.7c-0.8,0.1-0.5,1.3,0.3,1.2c1.5-0.2,3.1-0.5,4.6-0.7
										C-307.6,76.4-308,75.2-308.7,75.3L-308.7,75.3z"/>
								</g>
							</g>
							<g>
								<path fill="#21363D" d="M-305.6,83.1c-1.9,0.5-3.7,0.9-5.8,1.2"/>
								<g>
									<path fill="#FFFFFF" d="M-305.7,82.5c-1.9,0.5-3.7,0.9-5.6,1.1c-0.8,0.1-0.8,1.3,0,1.2c2-0.2,4-0.7,6-1.2
										C-304.6,83.5-304.9,82.3-305.7,82.5L-305.7,82.5z"/>
								</g>
							</g>
							<g>
								<path fill="#21363D" d="M-307,97.5c-2.6,3.5-7.4,3.2-11.4,4.2"/>
								<g>
									<path fill="#FFFFFF" d="M-307.4,97c-2.7,3.3-7.2,3.2-11.1,4c-0.8,0.2-0.5,1.4,0.3,1.2c4.1-0.9,8.8-0.8,11.6-4.3
										C-306,97.3-306.9,96.4-307.4,97L-307.4,97z"/>
								</g>
							</g>
							<g>
								<path fill="#21363D" d="M-317.4,94.7c-1.9,0.5-3.9,0.7-6,0.7"/>
								<g>
									<path fill="#FFFFFF" d="M-317.5,94.1c-1.9,0.5-3.9,0.7-5.9,0.7c-0.8,0-0.8,1.3,0,1.3c2.1,0,4.2-0.2,6.2-0.7
										C-316.4,95.1-316.8,93.9-317.5,94.1L-317.5,94.1z"/>
								</g>
							</g>
							<g>
								<path fill="#21363D" d="M-303,73.1c-0.7,0.5-1.6,0.7-2.5,0.9"/>
								<g>
									<path fill="#FFFFFF" d="M-303.3,72.6c-0.7,0.5-1.6,0.7-2.4,0.9c-0.8,0.2-0.5,1.4,0.3,1.2c0.9-0.2,1.9-0.5,2.7-1
										C-302,73.3-302.6,72.2-303.3,72.6L-303.3,72.6z"/>
								</g>
							</g>
							<g>
								<path fill="#21363D" d="M-327.4,60.9c-1.9,0.5-3.7,0.5-5.6,0.7"/>
								<g>
									<path fill="#FFFFFF" d="M-327.5,60.3c-1.8,0.4-3.6,0.5-5.4,0.7c-0.8,0.1-0.8,1.3,0,1.2c1.9-0.2,3.8-0.3,5.7-0.7
										C-326.4,61.3-326.7,60.1-327.5,60.3L-327.5,60.3z"/>
								</g>
							</g>
							<g>
								<path fill="#21363D" d="M-322.9,69c-2.3,0.7-4.4,0.7-6.5,0.5"/>
								<g>
									<path fill="#FFFFFF" d="M-323.1,68.4c-2.1,0.6-4.2,0.7-6.3,0.4c-0.8-0.1-0.8,1.2,0,1.2c2.3,0.2,4.5,0.1,6.7-0.5
										C-322,69.4-322.3,68.2-323.1,68.4L-323.1,68.4z"/>
								</g>
							</g>
							<g>
								<path fill="#21363D" d="M-320.6,78.5c-2.5,0.7-5.1,0.7-7.6,0.2"/>
								<g>
									<path fill="#FFFFFF" d="M-320.8,77.9c-2.4,0.6-4.8,0.6-7.3,0.2c-0.8-0.1-1.1,1.1-0.3,1.2c2.7,0.5,5.3,0.4,8-0.2
										C-319.7,78.9-320,77.7-320.8,77.9L-320.8,77.9z"/>
								</g>
							</g>
							<g>
								<path fill="#21363D" d="M-321.3,87.1c-2.5,0.7-5.1,0.7-7.6,0.2"/>
								<g>
									<path fill="#FFFFFF" d="M-321.5,86.5c-2.4,0.6-4.8,0.6-7.3,0.2c-0.8-0.1-1.1,1.1-0.3,1.2c2.7,0.5,5.3,0.4,8-0.2
										C-320.4,87.5-320.7,86.3-321.5,86.5L-321.5,86.5z"/>
								</g>
							</g>
							<g>
								<path fill="#21363D" d="M-326.4,103c-3,0.9-6,0.7-9,0.9"/>
								<g>
									<path fill="#FFFFFF" d="M-326.6,102.4c-2.9,0.8-5.9,0.7-8.9,0.9c-0.8,0.1-0.8,1.3,0,1.2c3.1-0.2,6.2-0.1,9.2-1
										C-325.5,103.4-325.8,102.2-326.6,102.4L-326.6,102.4z"/>
								</g>
							</g>
							<g>
								<path fill="#21363D" d="M-337.1,109.5c-0.9,0-1.6,0-2.5,0"/>
								<g>
									<path fill="#FFFFFF" d="M-337.1,108.9c-0.9,0-1.7,0-2.5,0c-0.8,0-0.8,1.2,0,1.2c0.9,0,1.7,0,2.5,0
										C-336.3,110.2-336.3,108.9-337.1,108.9L-337.1,108.9z"/>
								</g>
							</g>
							<g>
								<path fill="#21363D" d="M-347.5,57.6c2.1,1.2,4.4,1.4,6.7,1.9"/>
								<g>
									<path fill="#FFFFFF" d="M-347.8,58.2c2.2,1.1,4.5,1.5,6.9,1.9c0.8,0.2,1.1-1.1,0.3-1.2c-2.2-0.4-4.5-0.7-6.6-1.8
										C-347.9,56.7-348.5,57.8-347.8,58.2L-347.8,58.2z"/>
								</g>
							</g>
							<g>
								<path fill="#21363D" d="M-344,65.5c2.3,0.7,4.9,0.9,7.4,1.2"/>
								<g>
									<path fill="#FFFFFF" d="M-344.2,66.1c2.5,0.7,5,0.9,7.6,1.2c0.8,0.1,0.8-1.2,0-1.2c-2.4-0.2-4.9-0.5-7.3-1.1
										C-344.7,64.7-345,65.9-344.2,66.1L-344.2,66.1z"/>
								</g>
							</g>
							<g>
								<path fill="#21363D" d="M-343.3,73.6c2.3,0.2,4.9,0.5,7.4,0.5"/>
								<g>
									<path fill="#FFFFFF" d="M-343.3,74.2c2.5,0.2,4.9,0.4,7.4,0.5c0.8,0,0.8-1.2,0-1.2c-2.5,0-4.9-0.2-7.4-0.5
										C-344.1,72.9-344.1,74.2-343.3,74.2L-343.3,74.2z"/>
								</g>
							</g>
							<g>
								<path fill="#21363D" d="M-345,84c2.3,0.2,4.9,0.5,7.2,0.7"/>
								<g>
									<path fill="#FFFFFF" d="M-345,84.7c2.4,0.2,4.8,0.5,7.2,0.7c0.8,0.1,0.8-1.2,0-1.2c-2.4-0.2-4.8-0.5-7.2-0.7
										C-345.8,83.3-345.8,84.6-345,84.7L-345,84.7z"/>
								</g>
							</g>
							<g>
								<path fill="#21363D" d="M-344,94c3,0.9,6.5,1.2,9.5,1.2"/>
								<g>
									<path fill="#FFFFFF" d="M-344.2,94.6c3.1,0.9,6.4,1.2,9.7,1.2c0.8,0,0.8-1.2,0-1.2c-3.2,0-6.3-0.3-9.3-1.1
										C-344.6,93.2-345,94.4-344.2,94.6L-344.2,94.6z"/>
								</g>
							</g>
							<g>
								<path fill="#21363D" d="M-351,101.7c2.5,0.5,5.1,0.5,7.6,0.7"/>
								<g>
									<path fill="#FFFFFF" d="M-351.2,102.3c2.6,0.4,5.2,0.5,7.8,0.7c0.8,0.1,0.8-1.2,0-1.2c-2.5-0.2-5-0.3-7.5-0.7
										C-351.6,100.9-352,102.1-351.2,102.3L-351.2,102.3z"/>
								</g>
							</g>
							<g>
								<path fill="#21363D" d="M-357.5,108.8c2.1,0.9,4.2,0.7,6.5,0.7"/>
								<g>
									<path fill="#FFFFFF" d="M-357.6,109.4c2.1,0.9,4.4,0.7,6.7,0.7c0.8,0,0.8-1.3,0-1.2c-2.2,0-4.3,0.2-6.3-0.7
										C-358.1,107.9-358.4,109.1-357.6,109.4L-357.6,109.4z"/>
								</g>
							</g>
							<g>
								<path fill="#21363D" d="M-359.8,53.7c2.1,1.6,4.6,3,7.2,3.5"/>
								<g>
									<path fill="#FFFFFF" d="M-360.1,54.2c2.2,1.7,4.6,3,7.3,3.5c0.8,0.2,1.1-1,0.3-1.2c-2.6-0.5-4.9-1.8-7-3.4
										C-360.1,52.6-360.8,53.7-360.1,54.2L-360.1,54.2z"/>
								</g>
							</g>
							<g>
								<path fill="#21363D" d="M-361.4,62.7c2.5,0.9,4.9,2.1,7.4,2.8"/>
								<g>
									<path fill="#FFFFFF" d="M-361.6,63.3c2.5,0.9,4.9,2.1,7.4,2.8c0.8,0.2,1.1-1,0.3-1.2c-2.5-0.7-4.9-1.9-7.4-2.8
										C-362,61.8-362.3,63-361.6,63.3L-361.6,63.3z"/>
								</g>
							</g>
							<g>
								<path fill="#21363D" d="M-360,73.1c3,1.6,6.3,2.8,9.7,3.2"/>
								<g>
									<path fill="#FFFFFF" d="M-360.3,73.7c3.1,1.6,6.4,2.8,9.9,3.3c0.8,0.1,1.1-1.1,0.3-1.2c-3.4-0.5-6.6-1.6-9.6-3.2
										C-360.4,72.2-361.1,73.3-360.3,73.7L-360.3,73.7z"/>
								</g>
							</g>
							<g>
								<path fill="#21363D" d="M-362.1,82.7c2.8,1.6,5.6,3,8.8,3"/>
								<g>
									<path fill="#FFFFFF" d="M-362.4,83.2c2.9,1.6,5.8,3,9.1,3.1c0.8,0,0.8-1.2,0-1.2c-3.1-0.1-5.8-1.4-8.5-2.9
										C-362.5,81.7-363.1,82.8-362.4,83.2L-362.4,83.2z"/>
								</g>
							</g>
							<g>
								<path fill="#21363D" d="M-368.4,93.8c1.6,0.9,3.5,1.6,5.1,2.3"/>
								<g>
									<path fill="#FFFFFF" d="M-368.7,94.3c1.6,0.9,3.4,1.6,5.1,2.3c0.7,0.3,1.4-0.8,0.6-1.1c-1.7-0.7-3.5-1.4-5.1-2.3
										C-368.8,92.8-369.4,93.9-368.7,94.3L-368.7,94.3z"/>
								</g>
							</g>
							<g>
								<path fill="#21363D" d="M-377.7,102.8c2.8,1.6,6.3,2.8,9.5,3.7"/>
								<g>
									<path fill="#FFFFFF" d="M-378,103.4c3,1.7,6.3,2.8,9.7,3.8c0.8,0.2,1.1-1,0.3-1.2c-3.2-0.9-6.4-2-9.4-3.6
										C-378,101.9-378.7,103-378,103.4L-378,103.4z"/>
								</g>
							</g>
							<g>
								<path fill="#21363D" d="M-357.9,93.8c1.6,0.2,3.5,0.5,5.1,0.9"/>
								<g>
									<path fill="#FFFFFF" d="M-358.1,94.4c1.7,0.2,3.4,0.5,5.1,0.9c0.8,0.2,1.1-1,0.3-1.2c-1.7-0.5-3.4-0.7-5.1-0.9
										C-358.6,93.1-358.9,94.3-358.1,94.4L-358.1,94.4z"/>
								</g>
							</g>
							<g>
								<path fill="#21363D" d="M-363,101c1.2,0.2,2.3,0.5,3.5,0.7"/>
								<g>
									<path fill="#FFFFFF" d="M-363.2,101.6c1.2,0.2,2.3,0.5,3.5,0.7c0.8,0.2,1.1-1,0.3-1.2c-1.2-0.2-2.3-0.5-3.5-0.7
										C-363.7,100.2-364,101.4-363.2,101.6L-363.2,101.6z"/>
								</g>
							</g>
							<g>
								<path fill="#21363D" d="M-394.1,97.9c1.9,1.9,3.9,2.8,6.3,3.7"/>
								<g>
									<path fill="#FFFFFF" d="M-394.5,98.4c1.9,1.8,4.1,2.9,6.5,3.9c0.7,0.3,1.1-0.9,0.3-1.2c-2.2-0.9-4.3-1.9-6-3.5
										C-394.2,96.9-395.1,97.8-394.5,98.4L-394.5,98.4z"/>
								</g>
							</g>
							<g>
								<path fill="#21363D" d="M-389.5,92.8c1.6,1.4,3.7,2.3,6,3"/>
								<g>
									<path fill="#FFFFFF" d="M-389.9,93.3c1.9,1.5,4,2.5,6.3,3.2c0.8,0.2,1.1-1,0.3-1.2c-2.1-0.6-4.1-1.5-5.8-2.9
										C-389.6,91.9-390.5,92.8-389.9,93.3L-389.9,93.3z"/>
								</g>
							</g>
							<g>
								<path fill="#21363D" d="M-381.1,82c2.5,1.9,5.6,3,8.6,3.9"/>
								<g>
									<path fill="#FFFFFF" d="M-381.4,82.5c2.7,1.9,5.6,3,8.7,4c0.8,0.2,1.1-1,0.3-1.2c-3-0.9-5.9-2.1-8.4-3.9
										C-381.5,81-382.1,82-381.4,82.5L-381.4,82.5z"/>
								</g>
							</g>
							<g>
								<path fill="#21363D" d="M-381.4,89.6c1.6,0.7,3.5,1.4,5.3,1.9"/>
								<g>
									<path fill="#FFFFFF" d="M-381.7,90.1c1.8,0.8,3.6,1.4,5.5,1.9c0.8,0.2,1.1-1,0.3-1.2c-1.8-0.5-3.5-1.1-5.2-1.8
										C-381.8,88.8-382.4,89.8-381.7,90.1L-381.7,90.1z"/>
								</g>
							</g>
							<g>
								<path fill="#21363D" d="M-377,72.4c2.1,1.6,4.9,2.6,7.4,3.5"/>
								<g>
									<path fill="#FFFFFF" d="M-377.3,73c2.3,1.7,4.9,2.6,7.6,3.5c0.8,0.3,1.1-0.9,0.3-1.2c-2.5-0.9-5.1-1.8-7.3-3.4
										C-377.3,71.4-377.9,72.5-377.3,73L-377.3,73z"/>
								</g>
							</g>
							<g>
								<path fill="#21363D" d="M-377.2,60.2c2.8,1.6,5.8,2.8,8.8,4.2"/>
								<g>
									<path fill="#FFFFFF" d="M-377.5,60.7c2.8,1.6,5.9,2.8,8.8,4.2c0.7,0.3,1.4-0.7,0.6-1.1c-3-1.4-6-2.6-8.8-4.2
										C-377.6,59.2-378.2,60.3-377.5,60.7L-377.5,60.7z"/>
								</g>
							</g>
							<g>
								<path fill="#21363D" d="M-372.1,43.2c0.9,3,3.5,5.1,6,6.5"/>
								<g>
									<path fill="#FFFFFF" d="M-372.7,43.4c1,3.1,3.5,5.3,6.3,6.9c0.7,0.4,1.3-0.7,0.6-1.1c-2.5-1.4-4.8-3.3-5.7-6.1
										C-371.7,42.3-372.9,42.6-372.7,43.4L-372.7,43.4z"/>
								</g>
							</g>
							<g>
								<path fill="#21363D" d="M-389.9,56.9c1.9,3.5,4.9,5.6,8.6,6.7"/>
								<g>
									<path fill="#FFFFFF" d="M-390.5,57.2c2,3.5,5.1,5.8,9,7c0.8,0.2,1.1-1,0.3-1.2c-3.5-1.1-6.4-3.2-8.2-6.4
										C-389.8,55.9-390.9,56.5-390.5,57.2L-390.5,57.2z"/>
								</g>
							</g>
							<g>
								<path fill="#21363D" d="M-393.4,71.3c1.9,2.3,3.7,4.4,6.3,5.6"/>
								<g>
									<path fill="#FFFFFF" d="M-393.9,71.7c1.8,2.2,3.7,4.4,6.4,5.7c0.7,0.3,1.4-0.7,0.6-1.1c-2.6-1.2-4.4-3.3-6.1-5.5
										C-393.5,70.2-394.4,71.1-393.9,71.7L-393.9,71.7z"/>
								</g>
							</g>
							<g>
								<path fill="#21363D" d="M-396.9,81.3c1.2,1.9,2.8,3.2,4.6,4.4"/>
								<g>
									<path fill="#FFFFFF" d="M-397.4,81.6c1.2,1.9,2.9,3.4,4.9,4.6c0.7,0.4,1.3-0.6,0.6-1.1c-1.7-1.1-3.3-2.4-4.4-4.2
										C-396.8,80.3-397.9,80.9-397.4,81.6L-397.4,81.6z"/>
								</g>
							</g>
							<g>
								<path fill="#21363D" d="M-406.2,81.7c1.4,2.1,3,4.2,5.3,5.3"/>
								<g>
									<path fill="#FFFFFF" d="M-406.7,82c1.5,2.2,3.2,4.3,5.6,5.6c0.7,0.4,1.3-0.7,0.6-1.1c-2.2-1.2-3.7-3.1-5.1-5.1
										C-406.1,80.7-407.2,81.4-406.7,82L-406.7,82z"/>
								</g>
							</g>
							<g>
								<path fill="#21363D" d="M-376-0.1c-1.6,1.6-2.8,3.5-3,5.8"/>
								<g>
									<path fill="#FFFFFF" d="M-376.5-0.5c-1.7,1.8-2.9,3.8-3.2,6.2c-0.1,0.8,1.2,0.8,1.2,0c0.3-2.1,1.4-3.9,2.8-5.4
										C-375-0.2-375.9-1.1-376.5-0.5L-376.5-0.5z"/>
								</g>
							</g>
							<g>
								<path fill="#21363D" d="M-390.2-20.7c-1.4,1.6-3,3.5-3.7,5.6"/>
								<g>
									<path fill="#FFFFFF" d="M-390.6-21.2c-1.5,1.8-3.1,3.6-3.9,5.8c-0.3,0.8,0.9,1.1,1.2,0.3c0.7-2,2.2-3.7,3.5-5.3
										C-389.2-20.9-390.1-21.8-390.6-21.2L-390.6-21.2z"/>
								</g>
							</g>
							<g>
								<path fill="#21363D" d="M-385.1-14.7c-1.2,1.4-1.9,2.8-2.5,4.4"/>
								<g>
									<path fill="#FFFFFF" d="M-385.5-15.1c-1.1,1.4-1.9,2.9-2.6,4.5c-0.3,0.7,0.8,1.4,1.1,0.6c0.7-1.5,1.4-3,2.5-4.3
										C-384.1-14.9-385-15.8-385.5-15.1L-385.5-15.1z"/>
								</g>
							</g>
							<g>
								<path fill="#21363D" d="M-383.4-6.1c0,0.9-0.2,1.6-0.5,2.3"/>
								<g>
									<path fill="#FFFFFF" d="M-384.1-6.1c0,0.8-0.2,1.4-0.4,2.2c-0.3,0.8,1,1.1,1.2,0.3c0.3-0.8,0.5-1.6,0.5-2.5
										C-382.8-6.9-384.1-6.9-384.1-6.1L-384.1-6.1z"/>
								</g>
							</g>
							<g>
								<path fill="#21363D" d="M-401.1-12.6c-1.4,2.3-4.2,5.3-3.2,8.3"/>
								<g>
									<path fill="#FFFFFF" d="M-401.6-12.9c-1.7,2.7-4.1,5.4-3.3,8.8c0.2,0.8,1.4,0.5,1.2-0.3c-0.7-3,1.7-5.5,3.2-7.9
										C-400.1-13-401.2-13.6-401.6-12.9L-401.6-12.9z"/>
								</g>
							</g>
							<g>
								<path fill="#21363D" d="M-394.8-3.8c-1.2,1.9-2.5,3.9-2.8,6.3"/>
								<g>
									<path fill="#FFFFFF" d="M-395.3-4.1c-1.3,2.1-2.5,4.1-2.9,6.6c-0.1,0.8,1.1,0.8,1.2,0c0.3-2.2,1.5-4.1,2.7-5.9
										C-393.8-4.2-394.9-4.8-395.3-4.1L-395.3-4.1z"/>
								</g>
							</g>
							<g>
								<path fill="#21363D" d="M-389,2.4c-0.9,1.9-1.9,3.7-1.6,5.8"/>
								<g>
									<path fill="#FFFFFF" d="M-389.5,2.1c-1,1.9-1.9,3.9-1.7,6.1c0.1,0.8,1.3,0.8,1.2,0c-0.2-2,0.7-3.7,1.5-5.5
										C-388.1,2-389.2,1.4-389.5,2.1L-389.5,2.1z"/>
								</g>
							</g>
							<g>
								<path fill="#21363D" d="M-383.4,8.9c-0.5,1.6-0.7,3-0.2,4.6"/>
								<g>
									<path fill="#FFFFFF" d="M-384,8.8c-0.5,1.7-0.7,3.3-0.2,5c0.2,0.8,1.4,0.4,1.2-0.3c-0.4-1.5-0.2-2.9,0.2-4.3
										C-382.6,8.3-383.8,8-384,8.8L-384,8.8z"/>
								</g>
							</g>
							<g>
								<path fill="#21363D" d="M-375.3,17.1c-0.7,1.6-1.2,3.2-1.2,4.9"/>
								<g>
									<path fill="#FFFFFF" d="M-375.9,16.9c-0.7,1.6-1.1,3.3-1.2,5c0,0.8,1.2,0.8,1.2,0c0-1.6,0.5-3.2,1.1-4.7
										C-374.4,16.5-375.6,16.2-375.9,16.9L-375.9,16.9z"/>
								</g>
							</g>
							<g>
								<path fill="#21363D" d="M-383.9,21.5c-0.5,2.8-1.4,6.3,0.7,8.6"/>
								<g>
									<path fill="#FFFFFF" d="M-384.5,21.3c-0.5,3.1-1.3,6.5,0.9,9.2c0.5,0.6,1.4-0.3,0.9-0.9c-1.8-2.3-1-5.4-0.5-8
										C-383.2,20.8-384.4,20.5-384.5,21.3L-384.5,21.3z"/>
								</g>
							</g>
							<g>
								<path fill="#21363D" d="M-376.7,33.3"/>
								<g>
									<path fill="#FFFFFF" d="M-376.7,33.9c0.8,0,0.8-1.2,0-1.2C-377.5,32.7-377.5,33.9-376.7,33.9L-376.7,33.9z"/>
								</g>
							</g>
							<g>
								<path fill="#21363D" d="M-374.2,26.3c-0.2,1.9-0.5,3.7,0.5,5.3"/>
								<g>
									<path fill="#FFFFFF" d="M-374.8,26.3c-0.2,2-0.4,3.8,0.6,5.6c0.4,0.7,1.5,0.1,1.1-0.6c-0.8-1.6-0.6-3.3-0.4-5
										C-373.5,25.5-374.7,25.5-374.8,26.3L-374.8,26.3z"/>
								</g>
							</g>
							<g>
								<path fill="#21363D" d="M-381.6,44.2c-0.2,3,1.2,5.3,3.7,7.2"/>
								<g>
									<path fill="#FFFFFF" d="M-382.2,44.2c-0.2,3.3,1.5,5.8,4,7.7c0.6,0.5,1.3-0.6,0.6-1.1c-2.2-1.7-3.5-3.8-3.4-6.6
										C-380.9,43.4-382.2,43.4-382.2,44.2L-382.2,44.2z"/>
								</g>
							</g>
							<g>
								<path fill="#21363D" d="M-407.8,0.8c-1.2,2.1-2.8,5.1-1.2,7.2"/>
								<g>
									<path fill="#FFFFFF" d="M-408.3,0.5c-1.3,2.3-2.9,5.3-1.2,7.8c0.4,0.7,1.5,0,1.1-0.6c-1.4-2.1,0.1-4.6,1.2-6.6
										C-406.9,0.4-407.9-0.2-408.3,0.5L-408.3,0.5z"/>
								</g>
							</g>
							<g>
								<path fill="#21363D" d="M-403.4,8.2c-0.5,1.6-0.7,3.2-0.2,4.9"/>
								<g>
									<path fill="#FFFFFF" d="M-404,8.1c-0.5,1.7-0.7,3.4-0.2,5.2c0.2,0.8,1.4,0.4,1.2-0.3c-0.4-1.5-0.2-3,0.2-4.5
										C-402.6,7.6-403.8,7.3-404,8.1L-404,8.1z"/>
								</g>
							</g>
							<g>
								<path fill="#21363D" d="M-397.4,13.3c-0.2,1.4-0.5,2.8-0.7,4.2"/>
								<g>
									<path fill="#FFFFFF" d="M-398,13.2c-0.2,1.4-0.5,2.8-0.7,4.2c-0.1,0.8,1.1,1.1,1.2,0.3c0.2-1.4,0.5-2.8,0.7-4.2
										C-396.6,12.7-397.8,12.4-398,13.2L-398,13.2z"/>
								</g>
							</g>
							<g>
								<path fill="#21363D" d="M-391.6,20.8c0,0.7-0.2,1.6-0.2,2.3"/>
								<g>
									<path fill="#FFFFFF" d="M-392.2,20.8c0,0.8-0.2,1.5-0.2,2.3c0,0.8,1.2,0.8,1.2,0c0-0.8,0.2-1.5,0.2-2.3
										C-390.9,20-392.2,20-392.2,20.8L-392.2,20.8z"/>
								</g>
							</g>
							<g>
								<path fill="#21363D" d="M-402.2,22.8c-0.5,3-1.2,6.7,0.2,9.7"/>
								<g>
									<path fill="#FFFFFF" d="M-402.8,22.7c-0.5,3.4-1.1,6.8,0.2,10.1c0.3,0.7,1.5,0.4,1.2-0.3c-1.3-3-0.7-6.2-0.2-9.4
										C-401.5,22.2-402.7,21.9-402.8,22.7L-402.8,22.7z"/>
								</g>
							</g>
							<g>
								<path fill="#21363D" d="M-395.5,33c0.2,1.9,0.7,3.9,1.9,5.8"/>
								<g>
									<path fill="#FFFFFF" d="M-396.1,33c0.3,2.2,0.8,4.2,1.9,6.1c0.4,0.7,1.5,0.1,1.1-0.6c-1-1.7-1.5-3.5-1.8-5.5
										C-395,32.3-396.2,32.2-396.1,33L-396.1,33z"/>
								</g>
							</g>
							<g>
								<path fill="#21363D" d="M-389.5,33.5c0.5,2.1,1.2,4.2,2.1,6.3"/>
								<g>
									<path fill="#FFFFFF" d="M-390.1,33.7c0.5,2.2,1.2,4.3,2.2,6.4c0.3,0.7,1.4,0.1,1.1-0.6c-0.9-2-1.5-4-2-6.1
										C-389.1,32.6-390.3,32.9-390.1,33.7L-390.1,33.7z"/>
								</g>
							</g>
							<g>
								<path fill="#21363D" d="M-413.8,11.3c-1.4,3-2.3,7-1.2,10.2"/>
								<g>
									<path fill="#FFFFFF" d="M-414.4,10.9c-1.5,3.4-2.4,7.1-1.2,10.7c0.2,0.8,1.4,0.4,1.2-0.3c-1-3.3-0.3-6.7,1.1-9.7
										C-412.9,10.8-414,10.2-414.4,10.9L-414.4,10.9z"/>
								</g>
							</g>
							<g>
								<path fill="#21363D" d="M-410.6,23.3c0,2.1,0,4.2,0,6"/>
								<g>
									<path fill="#FFFFFF" d="M-411.2,23.3c0,2,0,4,0,6c0,0.8,1.2,0.8,1.2,0c0-2,0-4,0-6C-409.9,22.5-411.2,22.5-411.2,23.3
										L-411.2,23.3z"/>
								</g>
							</g>
							<g>
								<path fill="#21363D" d="M-417.5,29.3c0,2.8-0.9,6.7,0.7,9.3"/>
								<g>
									<path fill="#FFFFFF" d="M-418.1,29.3c-0.1,3.2-0.9,6.6,0.8,9.6c0.4,0.7,1.5,0.1,1.1-0.6c-1.5-2.7-0.7-6-0.6-9
										C-416.9,28.5-418.1,28.5-418.1,29.3L-418.1,29.3z"/>
								</g>
							</g>
							<g>
								<path fill="#21363D" d="M-409.2,36.5c0,2.1,0.2,4.2,1.2,6.3"/>
								<g>
									<path fill="#FFFFFF" d="M-409.8,36.5c0,2.2,0.3,4.4,1.2,6.4c0.3,0.7,1.5,0.4,1.2-0.3c-0.8-2-1.1-4-1.1-6.1
										C-408.6,35.7-409.8,35.7-409.8,36.5L-409.8,36.5z"/>
								</g>
							</g>
							<g>
								<path fill="#21363D" d="M-419.4,47.4c0.2,2.3,0,5.1,1.6,7"/>
								<g>
									<path fill="#FFFFFF" d="M-420,47.4c0.2,2.6,0.1,5.3,1.8,7.4c0.5,0.6,1.4-0.3,0.9-0.9c-1.5-1.8-1.2-4.3-1.4-6.5
										C-418.8,46.6-420.1,46.6-420,47.4L-420,47.4z"/>
								</g>
							</g>
							<g>
								<path fill="#21363D" d="M-414.7,49.5c0.5,1.9,1.2,3.9,2.8,5.3"/>
								<g>
									<path fill="#FFFFFF" d="M-415.3,49.7c0.5,2.1,1.3,4.1,2.9,5.6c0.6,0.5,1.5-0.3,0.9-0.9c-1.5-1.3-2.1-3.2-2.6-5.1
										C-414.3,48.6-415.5,48.9-415.3,49.7L-415.3,49.7z"/>
								</g>
							</g>
							<g>
								<path fill="#21363D" d="M-402,42.5c0.5,2.6,1.2,5.3,2.8,7"/>
								<g>
									<path fill="#FFFFFF" d="M-402.6,42.7c0.5,2.6,1.1,5.3,2.9,7.2c0.5,0.6,1.4-0.3,0.9-0.9c-1.7-1.8-2.2-4.3-2.6-6.7
										C-401.5,41.6-402.7,41.9-402.6,42.7L-402.6,42.7z"/>
								</g>
							</g>
							<g>
								<path fill="#21363D" d="M-391.3,46.7c0.5,0.7,0.9,1.4,1.4,2.1"/>
								<g>
									<path fill="#FFFFFF" d="M-391.9,47c0.5,0.7,0.9,1.4,1.4,2.1c0.4,0.7,1.5,0,1.1-0.6c-0.5-0.7-0.9-1.4-1.4-2.1
										C-391.2,45.7-392.3,46.4-391.9,47L-391.9,47z"/>
								</g>
							</g>
							<g>
								<path fill="#21363D" d="M-406.2,51.4c0.9,3,2.6,5.8,5.1,7.9"/>
								<g>
									<path fill="#FFFFFF" d="M-406.8,51.5c1,3.2,2.7,6,5.3,8.2c0.6,0.5,1.5-0.4,0.9-0.9c-2.4-2-4-4.6-4.9-7.6
										C-405.8,50.4-407,50.8-406.8,51.5L-406.8,51.5z"/>
								</g>
							</g>
							<g>
								<path fill="#21363D" d="M-397.6,58.1c0.9,1.9,2.1,3.7,3.7,5.1"/>
								<g>
									<path fill="#FFFFFF" d="M-398.1,58.4c1,1.9,2.2,3.8,3.8,5.2c0.6,0.5,1.5-0.3,0.9-0.9c-1.6-1.4-2.7-3.1-3.6-5
										C-397.4,57-398.5,57.7-398.1,58.4L-398.1,58.4z"/>
								</g>
							</g>
							<g>
								<path fill="#21363D" d="M-409.2,59c1.2,2.6,2.5,5.1,4.6,7"/>
								<g>
									<path fill="#FFFFFF" d="M-409.7,59.3c1.2,2.6,2.6,5.1,4.7,7.1c0.6,0.5,1.5-0.3,0.9-0.9c-2.1-1.9-3.4-4.3-4.5-6.8
										C-409,58-410,58.6-409.7,59.3L-409.7,59.3z"/>
								</g>
							</g>
							<g>
								<path fill="#21363D" d="M-417.3,63.2c0.7,2.1,1.9,3.7,3,5.3"/>
								<g>
									<path fill="#FFFFFF" d="M-417.9,63.3c0.7,2,1.8,3.8,3.1,5.5c0.5,0.6,1.5,0,1.1-0.6c-1.2-1.6-2.3-3.3-3-5.2
										C-416.9,62.3-418.2,62.6-417.9,63.3L-417.9,63.3z"/>
								</g>
							</g>
							<g>
								<path fill="#21363D" d="M-409.9,70.8c1.6,1.9,3,3.7,5.3,5.1"/>
								<g>
									<path fill="#FFFFFF" d="M-410.3,71.3c1.7,1.9,3.3,3.8,5.5,5.2c0.7,0.4,1.3-0.7,0.6-1.1c-2.1-1.3-3.6-3.2-5.2-5
										C-410,69.8-410.8,70.7-410.3,71.3L-410.3,71.3z"/>
								</g>
							</g>
							<g>
								<path fill="#21363D" d="M-389.7,66.4c0.9,0.7,1.6,1.4,2.3,2.1"/>
								<g>
									<path fill="#FFFFFF" d="M-390,67c0.8,0.6,1.5,1.3,2.2,2c0.6,0.6,1.5-0.3,0.9-0.9c-0.8-0.8-1.6-1.5-2.4-2.2
										c-0.3-0.2-0.7,0-0.9,0.2C-390.4,66.4-390.3,66.8-390,67L-390,67z"/>
								</g>
							</g>
						</g>
					</g>
				</g>
			</g>
		</g>
		<g>
			<g>
				<g>
					<g>
						<defs>
							<circle id="SVGID_3_" cx="95" cy="95" r="90"/>
						</defs>
						<clipPath id="SVGID_4_">
							<use xlink:href="#SVGID_3_"  overflow="visible"/>
						</clipPath>
						<g clip-path="url(#SVGID_4_)">
							<path opacity="5.000000e-02" fill="#2C4C59" enable-background="new    " d="M66.5,107.5c0,22.2,29.1,36.2,29.1,36.2
								s29.1-14,29.1-36.2"/>
							<path fill="#E6F4F4" d="M66.5,107.7c0-22.2,13-40.2,29.1-40.2s29.1,18,29.1,40.2"/>
							<ellipse fill="#E6F4F4" cx="95.7" cy="107.1" rx="29.1" ry="8"/>
							<path fill="none" stroke="#2C4C59" stroke-miterlimit="10" d="M52.8,107.1"/>
							<path fill="none" stroke="#2C4C59" stroke-miterlimit="10" d="M83.3,121.2"/>
							<g>
								<g>
									<path fill="#FFFFFF" d="M129.6,101.6c2.6,1.1,4.9,2.4,7,4.3c3.5,3.2,0.4,6.9-2.4,8.9c-3.9,2.7-8.9,4-13.4,5.1
										c-12.4,3-25.8,3.2-38.4,1.9c-1.6-0.2-1.6,2.3,0,2.5c16,1.6,33.7,1.2,48.7-5.1c4.3-1.8,9-4.6,9.7-9.5
										c0.8-5.2-6.1-8.6-9.9-10.3C129.4,98.8,128.2,101,129.6,101.6L129.6,101.6z"/>
								</g>
							</g>
							<g>
								<g>
									<path fill="#FFFFFF" d="M54.8,112.9c-4.3-4.7,1-8.4,5.1-10.5c1.4-0.7,0.2-2.9-1.3-2.2c-5.8,2.9-11.2,8.4-5.6,14.5
										C54.1,115.9,55.9,114.1,54.8,112.9L54.8,112.9z"/>
								</g>
							</g>
							<g>
								<g>
									<path fill="#FFFFFF" d="M124.7,94.1c6.9,1.8,14.2,4.1,19.7,8.9c1.2,1,3-0.7,1.8-1.8c-5.9-5-13.4-7.6-20.8-9.5
										C123.8,91.3,123.1,93.7,124.7,94.1L124.7,94.1z"/>
								</g>
							</g>
							<g>
								<g>
									<path fill="#FFFFFF" d="M137,121.8c-16.1,7.4-35,8.3-52.5,7.1c-8.7-0.6-17.3-2.2-25.5-5.1c-6.2-2.1-15.6-6.2-16.2-13.8
										c-0.1-1.6-2.6-1.6-2.5,0c1.2,15,25.5,18.9,36.7,20.5c19.9,2.8,42.6,1.8,61.1-6.6C139.7,123.3,138.5,121.2,137,121.8
										L137,121.8z"/>
								</g>
							</g>
							<g>
								<g>
									<path fill="#FFFFFF" d="M62.2,131.9c-10.5-2.4-29.1-6.5-32.8-18.6c-1.8-5.9,3.8-10.8,8.1-13.7c6.4-4.3,14.1-6.6,21.6-8.5
										c1.6-0.4,0.9-2.8-0.7-2.4C47.7,91.4,26,97.4,26.7,112c0.2,5.4,4.8,9.6,8.9,12.4c7.5,5.3,17.1,7.9,25.9,9.9
										C63.1,134.6,63.8,132.2,62.2,131.9L62.2,131.9z"/>
								</g>
							</g>
							<g>
								<g>
									<path fill="#FFFFFF" d="M145.1,95.1c6.1,2.6,12.7,5.8,16.1,11.8c2.8,4.9-0.3,9.8-3.9,13.2c-10.3,9.4-27.2,12.2-40.5,13.9
										c-1.6,0.2-1.6,2.7,0,2.5c14.7-1.9,33.6-5,44.2-16.6c10.8-11.8-4.6-22.7-14.7-26.9C144.9,92.3,143.6,94.5,145.1,95.1
										L145.1,95.1z"/>
								</g>
							</g>
							<g>
								<g>
									<g>
										<g>
											<g>
												<defs>
													<path id="SVGID_5_" d="M66.5,107.7c0-22.2,13-40.2,29.1-40.2s29.1,18,29.1,40.2"/>
												</defs>
												<clipPath id="SVGID_6_">
													<use xlink:href="#SVGID_5_"  overflow="visible"/>
												</clipPath>
												<g clip-path="url(#SVGID_6_)">
													<ellipse fill="#2C4C59" cx="95.7" cy="95.3" rx="31.5" ry="8.7"/>
													<ellipse fill="#E6F4F4" cx="95.7" cy="89.9" rx="29" ry="8.7"/>
													<path fill="#EC6157" d="M122.2,80.1c0,4.4-11.9,8-26.6,8c-14.7,0-26.6-3.6-26.6-8c0-1.3,0.9-2,2.8-3.1
														c4.6,3.1,14.5,5.8,24.7,5.8c10.3,0,16.8-1.4,23-5.3C121.5,78.5,122.2,78.8,122.2,80.1z"/>
													<ellipse fill="#E6F4F4" cx="95.7" cy="75.1" rx="24.4" ry="8"/>
												</g>
											</g>
											<rect x="91.2" y="54.6" fill="#2C4C59" width="9" height="15.5"/>
											<ellipse fill="#2C4C59" cx="95.7" cy="70" rx="4.5" ry="1.5"/>
											<path fill="none" stroke="#2C4C59" stroke-width="4" stroke-miterlimit="10" d="M-49.7,32.4"/>
											<path fill="none" stroke="#2C4C59" stroke-width="4" stroke-miterlimit="10" d="M-49.7,0"/>
										</g>
										<g>
											<g>
												<g>
													<g>
														<defs>
															<circle id="SVGID_7_" cx="95" cy="95" r="90"/>
														</defs>
														<clipPath id="SVGID_8_">
															<use xlink:href="#SVGID_7_"  overflow="visible"/>
														</clipPath>
														<path display="none" clip-path="url(#SVGID_8_)" fill="#EC6157" d="M114.7,53.2l58.7-81.7l2.2,1.6l-58.7,81.7
															c1.5,1.8,1.7,4.5,0.2,6.5c-1.7,2.4-5.1,2.9-7.4,1.2c-2.4-1.7-2.9-5.1-1.2-7.4C109.9,53,112.5,52.3,114.7,53.2z"/>
													</g>
													<g>
														<g id="Layer_14">
															<g>
																<g>
																	<defs>
																		<circle id="SVGID_9_" cx="95" cy="95" r="90"/>
																	</defs>
																	<clipPath id="SVGID_10_">
																		<use xlink:href="#SVGID_9_"  overflow="visible"/>
																	</clipPath>
																	<path display="none" clip-path="url(#SVGID_10_)" fill="#EC6157" d="M76.3,53.2L17.6-28.5L15.4-27l58.7,81.7
																		c-1.5,1.8-1.7,4.5-0.2,6.5c1.7,2.4,5.1,2.9,7.4,1.2c2.4-1.7,2.9-5.1,1.2-7.4C81.1,53,78.5,52.3,76.3,53.2z"/>
																</g>
															</g>
														</g>
														<g id="Layer_4">
														</g>
													</g>
												</g>
											</g>
										</g>
									</g>
								</g>
							</g>
						</g>
					</g>
				</g>
			</g>
		</g>
	</g>
</g>
</svg>
