<?xml version="1.0" encoding="utf-8"?>
<!-- Generator: Adobe Illustrator 16.0.3, SVG Export Plug-In . SVG Version: 6.00 Build 0)  -->
<!DOCTYPE svg PUBLIC "-//W3C//DTD SVG 1.1//EN" "http://www.w3.org/Graphics/SVG/1.1/DTD/svg11.dtd">
<svg version="1.1" id="Layer_1" xmlns="http://www.w3.org/2000/svg" xmlns:xlink="http://www.w3.org/1999/xlink" x="0px" y="0px"
	 width="190px" height="190px" viewBox="0 0 190 190" enable-background="new 0 0 190 190" xml:space="preserve">
<circle fill="#FFFFFF" cx="95" cy="95" r="95"/>
<circle fill="#A3DADD" cx="95" cy="95" r="90"/>
<g>
	<g>
		<g>
			<defs>
				<circle id="SVGID_1_" cx="95" cy="95" r="90"/>
			</defs>
			<clipPath id="SVGID_2_">
				<use xlink:href="#SVGID_1_"  overflow="visible"/>
			</clipPath>
			<g clip-path="url(#SVGID_2_)">
				<polygon fill="#5C868D" points="163.1,52.4 146.8,47.8 124.4,70.2 140.7,74.8 				"/>
				<polygon fill="#5C868D" points="120.3,66.1 115.4,49.5 137.8,27.1 142.7,43.7 				"/>
				
					<rect x="70" y="15.9" transform="matrix(0.7069 0.7074 -0.7074 0.7069 104.5393 -17.0799)" fill="#E5F3F4" width="5.8" height="203.3"/>
				<polygon fill="#FCD417" points="17.4,189.1 -12.4,202.9 1.4,173.1 1.4,173.1 18.1,172.3 				"/>
				<polyline opacity="0.1" fill="#EA2227" enable-background="new    " points="-12.4,202.9 1.4,173.1 1.4,173.1 18.1,172.3 				
					"/>
				<polygon opacity="0.3" fill="#FFFFFF" enable-background="new    " points="17.4,189.1 -12.4,202.9 17.6,185 				"/>
				
					<rect x="14" y="168.3" transform="matrix(0.7072 0.707 -0.707 0.7072 127.1946 37.6496)" fill="#2B4C59" width="8.2" height="8.2"/>
				
					<rect x="143" y="42.9" transform="matrix(0.7073 0.7069 -0.7069 0.7073 74.2359 -90.1039)" fill="#EC6158" width="5.8" height="3.3"/>
				
					<rect x="19.2" y="166.8" transform="matrix(0.7083 -0.7059 0.7059 0.7083 -114.9036 63.674)" fill="#FFFFFF" width="0.8" height="8.2"/>
				
					<rect x="17.8" y="168.2" transform="matrix(0.7062 -0.708 0.708 0.7062 -116.6647 63.5273)" fill="#FFFFFF" width="0.8" height="8.2"/>
				
					<rect x="16.3" y="169.7" transform="matrix(0.7062 -0.708 0.708 0.7062 -118.148 62.8777)" fill="#FFFFFF" width="0.8" height="8.2"/>
				
					<rect x="14.7" y="166.8" transform="matrix(0.7073 0.7069 -0.7069 0.7073 125.7114 38.1943)" opacity="0.2" fill="#14272D" enable-background="new    " width="4.1" height="8.2"/>
				<polygon fill="#2B4C59" points="152.1,101.5 135.8,96.9 113.4,119.3 129.7,123.9 				"/>
				<polygon fill="#2B4C59" points="109.3,115.2 104.3,98.6 126.8,76.2 131.7,92.8 				"/>
				
					<rect x="58.8" y="65.1" transform="matrix(0.7071 0.7071 -0.7071 0.7071 135.9831 5.1768)" fill="#5C868D" width="5.8" height="203.3"/>
				
					<rect x="3" y="217.4" transform="matrix(0.7073 0.7069 -0.7069 0.7073 158.6573 59.7915)" fill="#EC6158" width="8.2" height="8.2"/>
				
					<rect x="132" y="92" transform="matrix(0.707 0.7072 -0.7072 0.707 105.7734 -67.951)" fill="#EC6158" width="5.8" height="3.3"/>
				
					<rect x="8.2" y="215.9" transform="matrix(0.7083 -0.7059 0.7059 0.7083 -152.7944 70.2052)" fill="#FFFFFF" width="0.8" height="8.2"/>
				
					<rect x="6.8" y="217.4" transform="matrix(0.7062 -0.708 0.708 0.7062 -154.6842 70.1413)" fill="#FFFFFF" width="0.8" height="8.2"/>
				
					<rect x="5.2" y="218.8" transform="matrix(0.7077 -0.7065 0.7065 0.7077 -155.843 69.1458)" fill="#FFFFFF" width="0.8" height="8.2"/>
				
					<rect x="3.6" y="215.9" transform="matrix(0.7073 0.7069 -0.7069 0.7073 157.1969 60.3701)" opacity="0.19" fill="#EA2227" enable-background="new    " width="4.1" height="8.2"/>
				<polygon fill="#E5F3F4" points="114.5,63.5 98.2,58.8 75.8,81.2 92.1,85.9 				"/>
				<polygon fill="#E5F3F4" points="71.7,77.2 66.8,60.6 89.2,38.2 94.1,54.8 				"/>
				<polygon opacity="0.3" fill="#FFFFFF" enable-background="new    " points="-31.2,200.1 -61,214 -31,196 				"/>
				
					<rect x="21.3" y="27" transform="matrix(0.7071 0.7071 -0.7071 0.7071 98.087 20.569)" fill="#5C868D" width="5.8" height="203.3"/>
				
					<rect x="-34.5" y="179.3" transform="matrix(0.7073 0.707 -0.707 0.7073 120.7571 75.206)" fill="#84D0D3" width="8.2" height="8.2"/>
				
					<rect x="94.5" y="54" transform="matrix(0.7074 0.7069 -0.7069 0.7074 67.8121 -52.5334)" fill="#EC6158" width="5.8" height="3.3"/>
				
					<rect x="-29.4" y="177.9" transform="matrix(0.7068 -0.7074 0.7074 0.7068 -137.2269 32.8599)" fill="#FFFFFF" width="0.8" height="8.2"/>
				
					<rect x="-30.8" y="179.3" transform="matrix(0.7062 -0.708 0.708 0.7062 -138.7635 32.3305)" fill="#FFFFFF" width="0.8" height="8.2"/>
				
					<rect x="-32.3" y="180.8" transform="matrix(0.7086 -0.7056 0.7056 0.7086 -139.7546 31.3798)" fill="#FFFFFF" width="0.8" height="8.2"/>
				
					<rect x="-34" y="177.9" transform="matrix(0.7073 0.7069 -0.7069 0.7073 119.3026 75.8332)" opacity="0.15" fill="#6AA3A2" enable-background="new    " width="4.1" height="8.2"/>
				<g>
					<polygon fill="#E5F3F4" points="86.8,156.7 34.4,104.3 -18.6,157.3 -20.7,183 -50.8,189.5 -128.3,267 -75.9,319.4 1.6,241.8 
						8.2,214.4 33.8,209.7 					"/>
					<path fill="#E5F3F4" d="M-135.8,326.8c14.5,14.5,37.9,14.5,52.2,0.1l-52.4-52.4C-150.3,289-150.2,312.4-135.8,326.8z"/>
				</g>
				
					<rect x="-142.9" y="291.6" transform="matrix(0.7071 0.7071 -0.7071 0.7071 179.0007 161.8444)" fill="#FCD417" width="74.1" height="10.7"/>
				
					<rect x="31.6" y="110.8" transform="matrix(0.7071 0.7071 -0.7071 0.7071 106.7165 -12.6372)" fill="#2B4C59" width="74.1" height="23.5"/>
				
					<rect x="-48.6" y="177.7" transform="matrix(0.7071 0.7071 -0.7071 0.7071 139.8604 67.4818)" fill="#B7DCDF" width="74.1" height="49.8"/>
				<line fill="none" stroke="#F3F4F5" stroke-width="5" stroke-miterlimit="10" x1="-19.3" y1="158" x2="33.1" y2="210.4"/>
				<line fill="none" stroke="#F3F4F5" stroke-width="5" stroke-miterlimit="10" x1="-56" y1="194.7" x2="-3.6" y2="247.1"/>
				<line fill="none" stroke="#F3F4F5" stroke-width="5" stroke-miterlimit="10" x1="-83.9" y1="222.6" x2="-31.6" y2="275"/>
				<line fill="none" stroke="#F3F4F5" stroke-width="5" stroke-miterlimit="10" x1="-74.6" y1="213.3" x2="-22.2" y2="265.7"/>
				
					<rect x="11.4" y="87.1" transform="matrix(0.7071 0.7071 -0.7071 0.7071 104.207 18.3801)" opacity="0.15" fill="#69A3A2" enable-background="new    " width="37" height="95.7"/>
				
					<rect x="-102.4" y="193.8" transform="matrix(0.7071 0.7071 -0.7071 0.7071 151.3356 132.1914)" opacity="0.19" fill="#EA2227" enable-background="new    " width="37" height="110"/>
				<path opacity="0.19" fill="#EA2227" enable-background="new    " d="M-109.7,300.8l-26.2-26.2c-14.4,14.4-14.3,37.8,0.1,52.2"/>
				
					<rect x="-42.9" y="160.3" transform="matrix(0.7071 0.7071 -0.7071 0.7071 126.7673 72.7576)" opacity="0.15" fill="#6AA3A2" enable-background="new    " width="37" height="58.1"/>
				<line fill="none" stroke="#EC6158" stroke-width="4" stroke-miterlimit="10" x1="17.1" y1="121.6" x2="69.5" y2="174"/>
			</g>
		</g>
	</g>
</g>
</svg>
