<?xml version="1.0" encoding="utf-8"?>
<!-- Generator: Adobe Illustrator 16.0.3, SVG Export Plug-In . SVG Version: 6.00 Build 0)  -->
<!DOCTYPE svg PUBLIC "-//W3C//DTD SVG 1.1//EN" "http://www.w3.org/Graphics/SVG/1.1/DTD/svg11.dtd">
<svg version="1.1" id="Layer_1" xmlns="http://www.w3.org/2000/svg" xmlns:xlink="http://www.w3.org/1999/xlink" x="0px" y="0px"
	 width="190px" height="190px" viewBox="0 0 190 190" enable-background="new 0 0 190 190" xml:space="preserve">
<circle fill="#FFFFFF" cx="95" cy="95" r="95"/>
<circle fill="#A3DADD" cx="95" cy="95" r="90"/>
<g>
	<g>
		<g>
			<defs>
				<circle id="SVGID_1_" cx="95" cy="95" r="90"/>
			</defs>
			<clipPath id="SVGID_2_">
				<use xlink:href="#SVGID_1_"  overflow="visible"/>
			</clipPath>
			<g clip-path="url(#SVGID_2_)">
				<ellipse opacity="3.000000e-02" fill="#111E20" enable-background="new    " cx="95" cy="151.5" rx="44.4" ry="6.1"/>
				<line fill="none" stroke="#E5F3F4" stroke-width="4" stroke-miterlimit="10" x1="14.2" y1="134" x2="58.4" y2="134"/>
				<rect x="53.1" y="131" fill="#5C868D" width="6" height="6.5"/>
				<g>
					<path fill="#E5F3F4" d="M133,150c0,0.6-0.4,1-1,1H57.1c-0.5,0-1-0.4-1-1v-34.7c0-0.5,0.5-1,1-1H132c0.6,0,1,0.5,1,1V150z"/>
				</g>
				<g>
					<path fill="#2B4C59" d="M128.6,145.8c0,0.5-0.4,1-1,1H61.4c-0.5,0-1-0.5-1-1v-26.2c0-0.5,0.5-1,1-1h66.2c0.6,0,1,0.5,1,1V145.8
						L128.6,145.8z"/>
				</g>
				<g>
					<path fill="#E5F3F4" d="M104.4,118.2c0,0,0,0.7,0,1.5s-0.9,1.5-2,1.5H86.7c-1.1,0-2-0.7-2-1.5s0-1.5,0-1.5"/>
				</g>
				<g>
					<path fill="#E5F3F4" d="M104.4,147.5c0,0,0-0.8,0-1.8s-0.9-1.8-2-1.8H86.7c-1.1,0-2,0.9-2,2c0,1.1,0,2,0,2"/>
				</g>
				<g>
					<path fill="#E5F3F4" d="M102.4,122.5c1.1,0,2,0.9,2,2v0.6c0,1.1-0.9,2-2,2H86.7c-1.1,0-2-0.9-2-2v-0.6c0-1.1,0.9-2,2-2H102.4z"
						/>
				</g>
				<g>
					<path fill="#FFFFFF" d="M103.4,135.5c0.6,0,1,0.5,1,1v4.6c0,0.6-0.4,1-1,1H85.7c-0.6,0-1-0.4-1-1v-4.6c0-0.5,0.4-1,1-1H103.4z"
						/>
				</g>
				<g>
					<path fill="#20363D" d="M92.6,138.9c0,0.6-0.4,1-1,1h-4.5c-0.5,0-1-0.4-1-1v-0.2c0-0.6,0.5-1,1-1h4.5c0.6,0,1,0.4,1,1V138.9z"
						/>
				</g>
				<g>
					<path fill="#20363D" d="M103,138.9c0,0.6-0.4,1-1,1h-4.5c-0.6,0-1-0.4-1-1v-0.2c0-0.6,0.4-1,1-1h4.5c0.6,0,1,0.4,1,1V138.9z"/>
				</g>
				<g>
					<path fill="#E5F3F4" d="M102.4,129.2c1.1,0,2,0.9,2,2v0.6c0,1.1-0.9,2-2,2H86.7c-1.1,0-2-0.9-2-2v-0.6c0-1.1,0.9-2,2-2H102.4z"
						/>
				</g>
				<g>
					<path fill="#FFFFFF" d="M79.9,130c0-0.6-0.4-1-1-1h-2.8c-0.5,0-1-0.5-1-1v-2.8c0-0.6-0.4-1-1-1h-3.3c-0.5,0-1,0.4-1,1v2.8
						c0,0.5-0.4,1-1,1H66c-0.5,0-1,0.4-1,1v3.3c0,0.5,0.5,1,1,1h2.8c0.6,0,1,0.4,1,1v2.8c0,0.5,0.5,1,1,1h3.3c0.6,0,1-0.5,1-1v-2.8
						c0-0.6,0.5-1,1-1h2.8c0.6,0,1-0.5,1-1V130L79.9,130z"/>
				</g>
				<g>
					<path fill="#20363D" d="M79.2,130.7c0-0.6-0.5-1-1-1h-2.8c-0.5,0-1-0.5-1-1v-2.8c0-0.6-0.4-1-1-1h-1.9c-0.5,0-1,0.4-1,1v2.8
						c0,0.5-0.4,1-1,1h-2.8c-0.6,0-1,0.4-1,1v1.9c0,0.6,0.4,1,1,1h2.8c0.6,0,1,0.5,1,1v2.8c0,0.5,0.5,1,1,1h1.9c0.6,0,1-0.5,1-1
						v-2.8c0-0.5,0.5-1,1-1h2.8c0.5,0,1-0.4,1-1V130.7L79.2,130.7z"/>
				</g>
				<g>
					<path fill="#FFFFFF" d="M116.3,141.1c0,0.6-0.4,1-1,1h-4.6c-0.6,0-1-0.4-1-1v-4.6c0-0.5,0.4-1,1-1h4.6c0.6,0,1,0.5,1,1V141.1z"
						/>
				</g>
				<circle fill="#EC6158" cx="113" cy="138.8" r="2.2"/>
				<g>
					<path fill="#FFFFFF" d="M125.1,141.1c0,0.6-0.5,1-1,1h-4.6c-0.5,0-1-0.4-1-1v-4.6c0-0.5,0.5-1,1-1h4.6c0.5,0,1,0.5,1,1V141.1z"
						/>
				</g>
				<circle fill="#EC6158" cx="121.8" cy="138.8" r="2.2"/>
				<rect x="109.7" y="124.5" fill="#EC6158" width="12" height="1.7"/>
				<path fill="none" stroke="#E5F3F4" stroke-width="4" stroke-miterlimit="10" d="M15.2,134C7.4,134,1,127.7,1,119.9
					c0-7.8,6.3-14.2,14.2-14.2"/>
				<line fill="none" stroke="#E5F3F4" stroke-width="4" stroke-miterlimit="10" x1="58.9" y1="105.7" x2="14.7" y2="105.7"/>
				<path fill="none" stroke="#E5F3F4" stroke-width="4" stroke-miterlimit="10" d="M58,105.7c7.8,0,14.2-6.3,14.2-14.2
					c0-7.8-6.3-14.2-14.2-14.2"/>
				<line fill="none" stroke="#E5F3F4" stroke-width="4" stroke-miterlimit="10" x1="58" y1="77.4" x2="-25.3" y2="77.4"/>
				<path fill="none" stroke="#A3BDC1" stroke-width="4" stroke-miterlimit="10" d="M-25,77.4c-10.1,0-18.2-8.2-18.2-18.2
					C-43.2,49.1-35,41-25,41"/>
				<line fill="none" stroke="#A3BDC1" stroke-width="4" stroke-miterlimit="10" x1="18.9" y1="41" x2="-25.4" y2="41"/>
				<line fill="none" stroke="#A3BDC1" stroke-width="4" stroke-miterlimit="10" x1="3.1" y1="30" x2="47.3" y2="30"/>
				<path fill="none" stroke="#A3BDC1" stroke-width="4" stroke-miterlimit="10" d="M4.1,30c-7.9,0-14.2-6.3-14.2-14.1
					C-10.1,8-3.8,1.7,4.1,1.7"/>
				<path fill="none" stroke="#A3BDC1" stroke-width="4" stroke-miterlimit="10" d="M87.1,1.7c7.8,0,14.2-6.3,14.2-14.2
					c0-7.8-6.3-14.2-14.2-14.2"/>
				<line fill="none" stroke="#A3BDC1" stroke-width="4" stroke-miterlimit="10" x1="87.1" y1="-26.6" x2="33.5" y2="-26.6"/>
				<line fill="none" stroke="#A3BDC1" stroke-width="4" stroke-miterlimit="10" x1="87.7" y1="1.7" x2="3.4" y2="1.7"/>
				<path fill="none" stroke="#A3BDC1" stroke-width="4" stroke-miterlimit="10" d="M34-26.6c-7.8,0-14.2-6.3-14.2-14.2
					C19.8-48.6,26.1-55,34-55"/>
				<line fill="none" stroke="#A3BDC1" stroke-width="4" stroke-miterlimit="10" x1="176.1" y1="-54.9" x2="33.3" y2="-54.9"/>
				<ellipse opacity="3.000000e-02" fill="#111E20" enable-background="new    " cx="94.4" cy="67.2" rx="77.1" ry="7.4"/>
				<rect x="12.8" y="37.7" fill="#5C868D" width="6" height="6.5"/>
				<rect x="12.8" y="26.9" fill="#5C868D" width="6" height="6.5"/>
				<polygon fill="#5C868D" points="165.4,67.2 21.9,67.2 15.2,46.4 172.1,46.4 				"/>
				<rect x="15.2" y="21.1" fill="#E5F3F4" width="157" height="25.3"/>
				<polyline fill="none" stroke="#FFFFFF" stroke-width="2" stroke-miterlimit="10" points="163.2,21.1 163.2,32.5 24.1,32.5 
					24.1,21.1 				"/>
				<rect x="111.5" y="21.1" fill="#2B4C59" width="31.1" height="46.1"/>
				<rect x="24.1" y="54.8" fill="#FFFFFF" width="12.2" height="4.7"/>
				<rect x="38.2" y="54.8" fill="#FFFFFF" width="12.2" height="4.7"/>
				<rect x="114.9" y="54.8" opacity="0.1" fill="#FFFFFF" enable-background="new    " width="9.9" height="4.5"/>
				<rect x="129.5" y="54.8" opacity="0.1" fill="#FFFFFF" enable-background="new    " width="9.9" height="4.5"/>
				<rect x="38.9" y="55.3" fill="#A3BDC1" width="10.8" height="3.7"/>
				<rect x="130.5" y="55.8" fill="#20363D" width="7.8" height="2.5"/>
				<rect x="116" y="55.8" fill="#20363D" width="7.9" height="2.5"/>
				<rect x="24.8" y="55.3" fill="#A3BDC1" width="10.8" height="3.7"/>
			</g>
		</g>
	</g>
</g>
</svg>
