<?xml version="1.0" encoding="utf-8"?>
<!-- Generator: Adobe Illustrator 16.0.3, SVG Export Plug-In . SVG Version: 6.00 Build 0)  -->
<!DOCTYPE svg PUBLIC "-//W3C//DTD SVG 1.1//EN" "http://www.w3.org/Graphics/SVG/1.1/DTD/svg11.dtd">
<svg version="1.1" id="Layer_1" xmlns="http://www.w3.org/2000/svg" xmlns:xlink="http://www.w3.org/1999/xlink" x="0px" y="0px"
	 width="190px" height="190px" viewBox="0 0 190 190" enable-background="new 0 0 190 190" xml:space="preserve">
<path fill="#FFFFFF" d="M190,95c0,52.5-42.5,95-95,95c-49.1,0-95-42.4-95-95C0,42.5,42.5,0,95,0C147.5,0,190,42.5,190,95z"/>
<circle fill="#A3DADD" cx="95" cy="95" r="90"/>
<g>
	<g>
		<g>
			<g>
				<defs>
					<circle id="SVGID_1_" cx="95" cy="95" r="90"/>
				</defs>
				<clipPath id="SVGID_2_">
					<use xlink:href="#SVGID_1_"  overflow="visible"/>
				</clipPath>
				<g clip-path="url(#SVGID_2_)">
					<rect x="32.6" y="129" fill="#5C868D" width="126" height="7.1"/>
					<ellipse fill="#5C868D" cx="95.6" cy="136.1" rx="63" ry="20.6"/>
					<rect x="32.6" y="60.1" fill="#2B4C59" width="126" height="68.9"/>
					<ellipse fill="#2B4C59" cx="95.6" cy="128.1" rx="63" ry="20.6"/>
					<path fill="#5C868D" d="M158.6,68.6c0,11.4-28.2,20.6-63,20.6c-18.8,0-35.6-2.7-47.2-7c-9.8-3.6-15.8-8.4-15.8-13.7
						c0-11.4,28.2-20.6,63-20.6C130.4,47.9,158.6,57.2,158.6,68.6z"/>
					<rect x="32.6" y="60.1" fill="#5C868D" width="126" height="8.2"/>
					<ellipse fill="#FFFFFF" cx="95.6" cy="60.1" rx="63" ry="20.6"/>
					<polyline fill="none" stroke="#FFFFFF" stroke-miterlimit="10" points="72.3,151.2 95.7,84.7 119.1,151.2 					"/>
					<polyline fill="none" stroke="#FFFFFF" stroke-miterlimit="10" points="51.6,145.8 72.3,83.1 95.6,152.5 					"/>
					<polyline fill="none" stroke="#FFFFFF" stroke-miterlimit="10" points="36.4,138.8 50.5,83 51.5,79.1 72.3,151.2 					"/>
					<polyline fill="none" stroke="#FFFFFF" stroke-miterlimit="10" points="95.6,152.5 119.1,82.9 139.8,146.6 					"/>
					<polyline fill="none" stroke="#FFFFFF" stroke-miterlimit="10" points="119.1,151.2 139.8,79 155.6,137.8 					"/>
					<line fill="none" stroke="#FFFFFF" stroke-miterlimit="10" x1="139.8" y1="146.6" x2="155.7" y2="70"/>
					<line fill="none" stroke="#FFFFFF" stroke-miterlimit="10" x1="36.4" y1="70.8" x2="51.5" y2="145.8"/>
					<path opacity="0.4" fill="#EA2227" enable-background="new    " d="M157.3,138.5c-0.1-0.3-0.6-1.1-1.6-1.6
						C156.6,136.8,157.3,137.6,157.3,138.5z"/>
					<path opacity="0.4" fill="#EA2227" enable-background="new    " d="M141.5,147.2c-0.1-0.3-0.6-1.1-1.6-1.6
						C140.7,145.6,141.5,146.3,141.5,147.2z"/>
					<path opacity="0.4" fill="#EA2227" enable-background="new    " d="M120.7,151.3c-0.1-0.3-0.6-1.1-1.6-1.6
						C120,149.7,120.7,150.4,120.7,151.3z"/>
					<path opacity="0.4" fill="#EA2227" enable-background="new    " d="M97.4,153.2c-0.1-0.3-0.6-1.1-1.6-1.6
						C96.6,151.5,97.4,152.3,97.4,153.2z"/>
					<path opacity="0.4" fill="#EA2227" enable-background="new    " d="M73.9,151.5c-0.1-0.3-0.6-1.1-1.6-1.6
						C73.2,149.9,73.9,150.6,73.9,151.5z"/>
					<path opacity="0.4" fill="#EA2227" enable-background="new    " d="M53.2,147.3c-0.1-0.3-0.6-1.1-1.6-1.6
						C52.4,145.6,53.2,146.4,53.2,147.3z"/>
					<path opacity="0.4" fill="#EA2227" enable-background="new    " d="M38,139.3c-0.1-0.3-0.6-1.1-1.6-1.6
						C37.3,137.6,38,138.4,38,139.3z"/>
					<circle fill="#EC6158" cx="119.1" cy="150.9" r="1.6"/>
					<circle fill="#EC6158" cx="139.8" cy="146.7" r="1.6"/>
					<circle fill="#EC6158" cx="95.7" cy="152.7" r="1.6"/>
					<circle fill="#EC6158" cx="72.3" cy="151.1" r="1.6"/>
					<circle fill="#EC6158" cx="51.5" cy="146.8" r="1.6"/>
					<circle fill="#EC6158" cx="36.4" cy="138.8" r="1.6"/>
					<circle fill="#EC6158" cx="155.7" cy="138" r="1.6"/>
					<circle fill="#EC6158" cx="119.1" cy="82.9" r="1.6"/>
					<circle fill="#EC6158" cx="139.8" cy="78.7" r="1.6"/>
					<circle fill="#EC6158" cx="95.7" cy="84.7" r="1.6"/>
					<circle fill="#EC6158" cx="72.3" cy="83.1" r="1.6"/>
					<circle fill="#EC6158" cx="51.5" cy="78.8" r="1.6"/>
					<circle fill="#EC6158" cx="36.4" cy="70.8" r="1.6"/>
					<circle fill="#EC6158" cx="155.7" cy="70" r="1.6"/>
					<path opacity="0.8" fill="#FFFFFF" enable-background="new    " d="M158.6,60.1c-4.2-7.4-15.2-15.8-63-20.6
						C130.4,39.4,158.6,48.7,158.6,60.1z"/>
					<path fill="#FFFFFF" d="M95.6,80.7c-34.8,0-63-9.2-63-20.6s28.2-20.6,63-20.6"/>
					<path fill="#F0F2F2" d="M95.6,80.7c-34.8,0-63-9.2-63-20.6C40.9,70.3,56.8,76.3,95.6,80.7z"/>
					<path opacity="0.19" fill="#EA2227" enable-background="new    " d="M158.6,68.3"/>
				</g>
			</g>
		</g>
	</g>
	<g>
		<g>
			<g>
				<defs>
					<circle id="SVGID_3_" cx="95" cy="95" r="90"/>
				</defs>
				<clipPath id="SVGID_4_">
					<use xlink:href="#SVGID_3_"  overflow="visible"/>
				</clipPath>
				<g clip-path="url(#SVGID_4_)">
					<g>
						<g>
							<g>
								<defs>
									<circle id="SVGID_5_" cx="95" cy="95" r="90"/>
								</defs>
								<clipPath id="SVGID_6_">
									<use xlink:href="#SVGID_5_"  overflow="visible"/>
								</clipPath>
								<path clip-path="url(#SVGID_6_)" fill="#EC6158" d="M114.7,53.2l58.7-81.7l2.2,1.6l-58.7,81.7c1.5,1.8,1.7,4.5,0.2,6.5
									c-1.7,2.4-5.1,2.9-7.4,1.2c-2.4-1.7-2.9-5.1-1.2-7.4C109.9,53,112.5,52.3,114.7,53.2z"/>
							</g>
							<g>
								<g>
									<g>
										<defs>
											<circle id="SVGID_7_" cx="95" cy="95" r="90"/>
										</defs>
										<clipPath id="SVGID_8_">
											<use xlink:href="#SVGID_7_"  overflow="visible"/>
										</clipPath>
										<path clip-path="url(#SVGID_8_)" fill="#EC6158" d="M76.3,53.2L17.6-28.5L15.4-27l58.7,81.7c-1.5,1.8-1.7,4.5-0.2,6.5
											c1.7,2.4,5.1,2.9,7.4,1.2c2.4-1.7,2.9-5.1,1.2-7.4C81.1,53,78.5,52.3,76.3,53.2z"/>
									</g>
								</g>
							</g>
						</g>
					</g>
				</g>
			</g>
		</g>
	</g>
</g>
</svg>
