<?xml version="1.0" encoding="utf-8"?>
<!-- Generator: Adobe Illustrator 16.0.3, SVG Export Plug-In . SVG Version: 6.00 Build 0)  -->
<!DOCTYPE svg PUBLIC "-//W3C//DTD SVG 1.1//EN" "http://www.w3.org/Graphics/SVG/1.1/DTD/svg11.dtd">
<svg version="1.1" id="Layer_1" xmlns="http://www.w3.org/2000/svg" xmlns:xlink="http://www.w3.org/1999/xlink" x="0px" y="0px"
	 width="190px" height="190px" viewBox="0 0 190 190" enable-background="new 0 0 190 190" xml:space="preserve">
<g>
	<circle fill="#FFFFFF" cx="95" cy="95.5" r="95"/>
	<circle fill="#FFFFFF" cx="95" cy="94.5" r="95"/>
	<circle fill="#A3DADD" cx="95" cy="94.5" r="90"/>
	<g>
		<g>
			<g>
				<defs>
					<circle id="SVGID_1_" cx="95" cy="94.5" r="90"/>
				</defs>
				<clipPath id="SVGID_2_">
					<use xlink:href="#SVGID_1_"  overflow="visible"/>
				</clipPath>
				<g clip-path="url(#SVGID_2_)">
					<rect x="-27.2" y="136.4" fill="#E5F3F4" width="177.9" height="10.4"/>
					<rect x="-73.9" y="138.7" fill="#CB4140" width="37.2" height="5.8"/>
					
						<rect id="shadow_1_" x="-73.9" y="138.7" opacity="0.2" fill="#9A1C22" enable-background="new    " width="37.2" height="2.9"/>
					<rect x="-64.4" y="136.4" fill="#FCD417" width="37.2" height="10.4"/>
					<rect x="149.8" y="136.4" fill="#EC6158" width="5.2" height="10.4"/>
					<path fill="#FFFFFF" d="M51.3,79.3h27.3c0.9,0,1.6,0.7,1.6,1.6s-0.7,1.6-1.6,1.6h-1.8l0,0c-0.1,0-0.2,0-0.3,0
						c-2.1,0-3.8,1.7-3.8,3.8c0,2.1,1.7,3.8,3.8,3.8c0.1,0,0.2,0,0.3,0l0,0h30.8l0,0c2.1,0,3.8-1.7,3.8-3.8c0-2.1-1.7-3.8-3.8-3.8
						l0,0H90.7l0,0h-0.1c-0.9,0-1.6-0.7-1.6-1.6s0.7-1.6,1.6-1.6h0.1l0,0h2.1l0,0c2.1,0,3.8-1.7,3.8-3.8s-1.7-3.8-3.8-3.8H73
						c-0.9,0-1.6-0.7-1.6-1.6s0.7-1.6,1.6-1.6h3.9l0,0c2.1,0,3.8-1.7,3.8-3.8c0-2.1-1.7-3.8-3.8-3.8l0,0H37l0,0c-0.1,0-0.2,0-0.3,0
						c-2.1,0-3.8,1.7-3.8,3.8c0,2.1,1.7,3.8,3.8,3.8c0.1,0,0.2,0,0.3,0l0,0h3.6c0.9,0,1.6,0.7,1.6,1.6s-0.7,1.6-1.6,1.6H24.3l0,0
						l0,0c-2.1,0-3.8,1.7-3.8,3.8s1.7,3.8,3.8,3.8l0,0h1.8"/>
					<path fill="#FFFFFF" d="M141.8,53.4L141.8,53.4h-6.1l0,0c0,0,0,0-0.1,0c-0.7,0-1.3-0.6-1.3-1.4c0-0.7,0.6-1.3,1.3-1.3
						c0,0,0,0,0.1,0l0,0h1.6l0,0c1.6-0.2,2.8-1.5,2.8-3.1s-1.2-3-2.8-3.1l0,0h-33l0,0l0,0c-1.7,0-3.1,1.4-3.1,3.1
						c0,1.7,1.4,3.1,3.1,3.1l0,0h10.5c0.7,0,1.3,0.6,1.3,1.3s-0.6,1.4-1.3,1.4h-6l0,0c-0.1,0-0.2,0-0.2,0c-1.7,0-3.1,1.4-3.1,3.1
						s1.4,3.1,3.1,3.1c0.1,0,0.2,0,0.2,0l0,0h33l0,0c1.7,0,3.1-1.4,3.1-3.1S143.5,53.4,141.8,53.4z"/>
					<path fill="#FFFFFF" d="M54.3,33.4L54.3,33.4h6.1l0,0c0,0,0,0,0.1,0c0.7,0,1.3-0.6,1.3-1.4c0-0.7-0.6-1.3-1.3-1.3
						c0,0,0,0-0.1,0l0,0h-1.6l0,0c-1.6-0.2-2.8-1.5-2.8-3.1s1.2-3,2.8-3.1l0,0h33l0,0l0,0c1.7,0,3.1,1.4,3.1,3.1
						c0,1.7-1.4,3.1-3.1,3.1l0,0H81.3c-0.7,0-1.3,0.6-1.3,1.3s0.6,1.4,1.3,1.4h6l0,0c0.1,0,0.2,0,0.2,0c1.7,0,3.1,1.4,3.1,3.1
						s-1.4,3.1-3.1,3.1c-0.1,0-0.2,0-0.2,0l0,0h-33l0,0c-1.7,0-3.1-1.4-3.1-3.1C51.1,34.8,52.6,33.4,54.3,33.4z"/>
					<polygon fill="#2B4C59" points="110.3,135.9 92.4,135.9 83.7,103.3 118.9,103.3 					"/>
					<polygon opacity="0.2" fill="#14272D" enable-background="new    " points="101.1,136.4 92.4,135.9 83.7,103.3 101.1,103.3 
											"/>
					<rect x="79.5" y="134.9" fill="#5C868D" width="4.2" height="13"/>
					<rect x="119.1" y="134.9" fill="#5C868D" width="4.4" height="13"/>
					<rect x="-28.5" y="136.4" fill="#FCD417" width="1.1" height="10.4"/>
					<rect x="-64.4" y="136.4" opacity="0.19" fill="#EA2227" enable-background="new    " width="37.2" height="5"/>
					<rect x="119.1" y="134.9" opacity="5.000000e-02" fill="#528192" enable-background="new    " width="4.4" height="6.6"/>
					<polygon opacity="0.2" fill="#528192" enable-background="new    " points="110.3,135.9 110,135.9 117,103.3 118.9,103.3 					
						"/>
					<rect x="82.9" y="102.3" fill="#5C868D" width="36.8" height="5.3"/>
					<rect x="82.9" y="102.3" opacity="5.000000e-02" fill="#528192" enable-background="new    " width="18.2" height="5.3"/>
					<rect x="83.7" y="134.9" fill="#2B4C59" width="35.4" height="13"/>
					<rect x="83.7" y="134.9" opacity="0.2" fill="#14272D" enable-background="new    " width="35.4" height="6.5"/>
				</g>
			</g>
		</g>
	</g>
</g>
</svg>
