<?xml version="1.0" encoding="utf-8"?>
<!-- Generator: Adobe Illustrator 16.0.3, SVG Export Plug-In . SVG Version: 6.00 Build 0)  -->
<!DOCTYPE svg PUBLIC "-//W3C//DTD SVG 1.1//EN" "http://www.w3.org/Graphics/SVG/1.1/DTD/svg11.dtd">
<svg version="1.1" id="Layer_1" xmlns="http://www.w3.org/2000/svg" xmlns:xlink="http://www.w3.org/1999/xlink" x="0px" y="0px"
	 width="640px" height="960px" viewBox="0 0 640 960" enable-background="new 0 0 640 960" xml:space="preserve">
<g>
	<g>
		<path fill="#2B4B58" d="M234.046,724.031l-8.846-19.803l28.259-163.062h45.564l-14.194,56.316l-17.15,159.694
			c-2.125,19.359-22.619-12.642-22.619-12.642s-28.285,25.068-26.161,5.703l5.395-37.751L234.046,724.031z"/>
	</g>
	<g>
		<path fill="#2B4B58" d="M382.222,724.031l8.845-19.803l-28.26-163.062h-38.498l7.128,56.316l17.15,159.694
			c2.124,19.359,22.162-16.818,22.162-16.818s28.743,29.245,26.618,9.88l-5.395-37.751L382.222,724.031z"/>
	</g>
	<g>
		<path fill="#2B4B58" d="M328.291,722.972l7.667-6.55v-3.921l-11.796,8.037l11.796-15.048V541.167h-26.113h-28.899l-1.038,232.936
			c0,21.592,28.626-15.104,28.626-15.104s27.423,37.447,27.423,15.852v-54.845L328.291,722.972z"/>
	</g>
	<g opacity="0.3">
		<g>
			<path fill="#203A42" d="M234.046,724.031l-8.846-19.803l28.259-163.062h45.564l-14.194,56.316l-17.15,159.694
				c-2.125,19.359-13.697,41.145-27.905,38.956c-14.212-2.188-22.998-26.529-20.874-45.895l5.395-37.751L234.046,724.031z"/>
		</g>
		<g>
			<path fill="#203A42" d="M382.222,724.031l8.845-19.803l-28.26-163.062h-38.498l7.128,56.316l17.15,159.694
				c2.124,19.359,13.697,41.145,27.907,38.956c14.212-2.188,22.998-26.529,20.874-45.895l-5.395-37.751L382.222,724.031z"/>
		</g>
		<g>
			<path fill="#203A42" d="M328.291,722.972l7.667-6.55v-3.921l-11.796,8.037l11.796-15.048V541.167h-26.113h-28.899l-1.038,232.936
				c0,21.592,12.82,47.562,28.626,47.562c15.811,0,27.423-25.218,27.423-46.813v-54.845L328.291,722.972z"/>
		</g>
	</g>
	<g>
		<path fill="#FFFFFF" d="M267.679,757.178c-2.125,19.359-13.697,41.145-27.905,38.956c-14.212-2.188-22.998-26.529-20.874-45.895
			l27.419-11.343L267.679,757.178z"/>
	</g>
	<g>
		<path fill="#FFFFFF" d="M308.266,757.992l-28.358,16.11c0,21.592,12.82,47.562,28.626,47.562
			c15.811,0,27.423-25.218,27.423-46.813L308.266,757.992z"/>
	</g>
	<g>
		<path fill="#FFFFFF" d="M348.586,757.178c2.124,19.359,13.697,41.145,27.907,38.956c14.212-2.188,22.998-26.529,20.874-45.895
			l-26.82-11.343L348.586,757.178z"/>
	</g>
	<g>
		<path fill="#1A2F35" d="M243.2,761.887c0,0,0.174-2.013,0.479-5.536c0.333-3.52,0.754-8.554,1.355-14.584
			c0.606-6.029,1.256-13.07,2.056-20.603c0.798-7.533,1.648-15.568,2.5-23.604c0.91-8.028,1.819-16.057,2.672-23.584
			c0.847-7.527,1.742-14.541,2.456-20.56c0.719-6.018,1.398-11.023,1.837-14.531c0.466-3.505,0.732-5.508,0.732-5.508
			s-0.174,2.013-0.478,5.536c-0.332,3.52-0.752,8.554-1.354,14.584c-0.607,6.029-1.253,13.071-2.057,20.604
			c-0.798,7.532-1.649,15.567-2.5,23.603c-0.91,8.028-1.82,16.057-2.673,23.584c-0.851,7.526-1.742,14.541-2.456,20.56
			c-0.72,6.018-1.398,11.023-1.836,14.531C243.466,759.884,243.2,761.887,243.2,761.887z"/>
	</g>
	<g>
		<path fill="#1A2F35" d="M373.066,761.887c0,0-0.266-2.003-0.732-5.508c-0.438-3.508-1.116-8.514-1.836-14.531
			c-0.714-6.019-1.605-13.033-2.456-20.56c-0.854-7.527-1.763-15.556-2.673-23.584c-0.851-8.035-1.702-16.07-2.5-23.603
			c-0.804-7.532-1.45-14.574-2.057-20.604c-0.602-6.03-1.022-11.064-1.354-14.584c-0.304-3.523-0.478-5.536-0.478-5.536
			s0.267,2.003,0.732,5.508c0.438,3.508,1.118,8.514,1.837,14.531c0.714,6.019,1.608,13.032,2.455,20.56
			c0.853,7.527,1.763,15.556,2.672,23.584c0.851,8.035,1.702,16.07,2.499,23.604c0.8,7.532,1.45,14.573,2.056,20.603
			c0.601,6.03,1.023,11.064,1.355,14.584C372.893,759.874,373.066,761.887,373.066,761.887z"/>
	</g>
	<g>
		<path fill="#1A2F35" d="M308.188,786.104c0,0-0.04-2.28-0.11-6.271c-0.047-3.99-0.115-9.69-0.196-16.53
			c-0.036-6.84-0.136-14.82-0.138-23.37c-0.004-8.55-0.009-17.67-0.014-26.79c0.054-9.12,0.109-18.239,0.16-26.789
			c0.045-8.55,0.192-16.529,0.265-23.369c0.119-6.84,0.218-12.539,0.287-16.529c0.093-3.989,0.146-6.27,0.146-6.27
			s0.041,2.28,0.111,6.271c0.048,3.99,0.116,9.69,0.197,16.53c0.036,6.84,0.139,14.82,0.137,23.37
			c0.004,8.55,0.009,17.67,0.013,26.79c-0.055,9.12-0.109,18.239-0.161,26.789c-0.049,8.55-0.192,16.529-0.265,23.369
			c-0.119,6.84-0.217,12.539-0.287,16.529C308.241,783.824,308.188,786.104,308.188,786.104z"/>
	</g>
	<g opacity="0.1">
		<g>
			<path fill="#15272D" d="M239.774,796.134c-14.212-2.188-22.998-26.529-20.874-45.895l5.395-37.751l9.751,11.543l-8.846-19.803
				l28.259-163.062l0,0"/>
		</g>
		<g>
			<path fill="#15272D" d="M331.436,597.483l17.15,159.694c2.124,19.359,13.697,41.145,27.907,38.956"/>
		</g>
		<g>
			<path fill="#15272D" d="M280.692,598.11l-0.784,175.992c0,21.592,12.82,47.562,28.626,47.562"/>
		</g>
	</g>
	<path fill="#2B4B58" d="M275.52,398.604c0,96.625-17.763,217.372-59.249,217.372c0,0-90.982-120.746-90.982-217.372
		c0-96.625,33.628-132.542,75.113-132.542C241.891,266.062,275.52,301.979,275.52,398.604z"/>
	<path opacity="0.3" fill="none" stroke="#203A42" stroke-width="1.3168" stroke-miterlimit="10" d="M275.52,398.604
		c0,96.625-17.763,217.372-59.249,217.372c0,0-90.982-120.746-90.982-217.372c0-96.625,33.628-132.542,75.113-132.542
		C241.891,266.062,275.52,301.979,275.52,398.604z"/>
	<path fill="#2B4B58" d="M341.586,398.604c0,96.625,17.763,217.372,59.25,217.372c0,0,90.981-120.746,90.981-217.372
		c0-96.625-33.628-132.542-75.115-132.542C375.215,266.062,341.586,301.979,341.586,398.604z"/>
	<path opacity="0.3" fill="#203A42" d="M341.586,398.604c0,96.625,17.763,217.372,59.25,217.372c0,0,90.981-120.746,90.981-217.372
		c0-96.625-33.628-132.542-75.115-132.542C375.215,266.062,341.586,301.979,341.586,398.604z"/>
	<g>
		<g>
			<path fill="#83D3D6" d="M438.957,857.523c0,7.242-5.926,13.168-13.168,13.168H190.077c-7.243,0-13.168-5.926-13.168-13.168
				V706.784c0-7.242,5.926-13.168,13.168-13.168h235.712c7.243,0,13.168,5.926,13.168,13.168V857.523z"/>
		</g>
		<g opacity="0.16">
			<path fill="#69A3A3" d="M318.843,789.527c-6.001-4.056-15.82-4.056-21.821,0l-109.203,73.791
				c-6.001,4.056-4.985,7.373,2.258,7.373h235.712c7.243,0,8.259-3.317,2.258-7.373L318.843,789.527z"/>
		</g>
		<g opacity="0.1">
			<path fill="#69A3A3" d="M317.482,814.219c-5.252,4.986-13.847,4.986-19.1,0L186.458,707.951
				c-5.252-4.987-3.624-9.067,3.619-9.067h235.712c7.243,0,8.871,4.08,3.619,9.067L317.482,814.219z"/>
		</g>
		<g opacity="0.1">
			<path fill="#FFFFFF" d="M438.957,857.306c0,2.897-1.069,5.268-2.376,5.268s-2.376-2.37-2.376-5.268V705.868
				c0-2.897,1.069-5.268,2.376-5.268s2.376,2.37,2.376,5.268V857.306z"/>
		</g>
		<g opacity="0.1">
			<path fill="#69A3A3" d="M176.908,857.854c0,2.897,1.069,5.268,2.376,5.268s2.376-2.37,2.376-5.268V706.416
				c0-2.897-1.069-5.268-2.376-5.268s-2.376,2.37-2.376,5.268V857.854z"/>
		</g>
		<g>
			<path fill="#99E0E0" d="M317.482,808.951c-5.252,4.987-13.847,4.987-19.1,0L186.458,702.684
				c-5.252-4.987-3.624-9.067,3.619-9.067h235.712c7.243,0,8.871,4.08,3.619,9.067L317.482,808.951z"/>
		</g>
	</g>
	<polygon fill="#FDD51C" points="222.601,693.711 250.247,693.711 253.102,627.321 225.68,615.59 	"/>
	<path fill="#FDD51C" d="M236.436,693.266h-21.806c-14.71,0-20.877-1.025-20.69,10.808l-11.422,0.007
		c0-18.023,4.475-22.728,26.084-22.728h27.723L236.436,693.266z"/>
	<path fill="#FDD51C" d="M182.518,703.998c0,9.655,11.877,11.616,15.572,8.089c-3.19-2.015-4.142-4.908-4.15-8.014L182.518,703.998z
		"/>
	<path fill="#FDD51C" d="M253.739,687.119l-15.606,8.111c-13.052,6.785-18.996,8.722-13.371,19.133l-10.132,5.274
		c-8.314-15.992-6.511-22.229,12.663-32.196l19.991-10.395L253.739,687.119z"/>
	<path fill="#FDD51C" d="M214.592,719.566c4.455,8.564,15.896,4.828,17.548-0.008c-3.763-0.316-5.939-2.442-7.379-5.195
		L214.592,719.566z"/>
	<path fill="#FDD51C" d="M230.624,693.724h19.267c12.997,0,18.447-0.905,18.28,9.547l10.092,0.008
		c0-15.926-3.954-20.082-23.047-20.082h-24.495L230.624,693.724z"/>
	<path fill="#FDD51C" d="M278.263,703.203c0,8.531-10.493,10.263-13.76,7.147c2.82-1.779,3.66-4.333,3.667-7.08L278.263,703.203z"/>
	<path opacity="0.19" fill="#EC1E24" d="M182.518,703.998c0,9.655,11.877,11.616,15.572,8.089c-9.633-0.293-9.502-8.049-9.502-8.049
		L182.518,703.998z"/>
	<path opacity="0.19" fill="#EC1E24" d="M214.592,719.566c4.455,8.564,15.896,4.828,17.548-0.008
		c-8.102,5.066-12.924-2.358-12.924-2.358L214.592,719.566z"/>
	<path opacity="0.19" fill="#EC1E24" d="M264.503,710.351c2.82-1.779,3.66-4.333,3.667-7.08l4.892-0.033
		C273.062,703.237,271.895,710.842,264.503,710.351z"/>
	<polyline opacity="0.19" fill="#EC1E24" points="223.088,681.353 238.678,622.334 225.68,615.59 223.088,681.353 	"/>
	<path opacity="0.19" fill="#EC1E24" d="M258.253,693.745c7.009,0.235,10.042,1.687,9.917,9.525l4.889-0.067
		C273.06,694.168,266.074,694.168,258.253,693.745"/>
	<path opacity="0.19" fill="#EC1E24" d="M217.573,693.266c-9.758,7.14-9.539,13.688-2.943,26.372l4.607-2.397
		C213.422,707.499,214.677,696.015,217.573,693.266"/>
	<path opacity="0.19" fill="#EC1E24" d="M208.602,681.353c-21.609,0-26.084,4.704-26.084,22.728l6.067-0.082
		C188.585,689.345,195.803,681.283,208.602,681.353"/>
	<g opacity="0.3">
		<path fill="#1A2F35" d="M252.649,642.916l0.721,0.01l0.714-0.06c0.474-0.069,0.938-0.178,1.391-0.326
			c0.45-0.158,0.88-0.358,1.294-0.589l0.598-0.381l0.557-0.438l0.51-0.49l0.458-0.535c0.283-0.377,0.534-0.773,0.748-1.19
			c0.205-0.422,0.37-0.858,0.499-1.308l0.15-0.682l0.084-0.693l0.002-0.018l0.003-0.014c0.95-4.715,1.968-9.415,2.963-14.12
			c1.007-4.703,1.976-9.414,3.027-14.106l3.104-14.089c1.034-4.696,2.061-9.395,3.145-14.08l3.209-14.065
			c1.058-4.69,2.146-9.375,3.263-14.053l3.33-14.038c1.147-4.671,2.261-9.35,3.445-14.013c-0.92,4.722-1.911,9.428-2.868,14.142
			l-2.983,14.116c-0.986,4.707-2.003,9.407-3.05,14.102l-3.103,14.089c-1.02,4.699-2.098,9.386-3.168,14.074l-3.209,14.065
			c-1.053,4.692-2.189,9.365-3.286,14.048c-1.109,4.68-2.196,9.364-3.35,14.034l0.005-0.031l-0.117,0.734l-0.187,0.718
			c-0.153,0.471-0.346,0.926-0.577,1.361c-0.241,0.431-0.52,0.836-0.83,1.217l-0.499,0.541l-0.548,0.488l-0.593,0.431l-0.631,0.371
			c-0.436,0.22-0.888,0.398-1.354,0.538c-0.468,0.129-0.945,0.215-1.426,0.261l-0.724,0.024L252.649,642.916z"/>
	</g>
	<g opacity="0.3">
		<path fill="#1A2F35" d="M331.264,521.953l3.443,14.013l3.33,14.038c1.116,4.678,2.207,9.361,3.265,14.053l3.209,14.065
			c2.156,9.373,4.162,18.779,6.25,28.168c1.051,4.692,2.022,9.403,3.028,14.105c0.994,4.706,2.014,9.405,2.963,14.121l0.003,0.014
			l0.002,0.018l0.083,0.692l0.15,0.683c0.128,0.448,0.293,0.886,0.498,1.308c0.213,0.417,0.464,0.813,0.747,1.189l0.458,0.535
			l0.509,0.49l0.557,0.438l0.598,0.381c0.414,0.229,0.844,0.43,1.294,0.588c0.452,0.149,0.917,0.258,1.39,0.327l0.715,0.06
			l0.72-0.01l-0.72,0.046l-0.723-0.024c-0.481-0.046-0.958-0.131-1.426-0.26c-0.465-0.14-0.918-0.318-1.354-0.539l-0.631-0.37
			l-0.593-0.431l-0.548-0.488l-0.499-0.541c-0.31-0.381-0.588-0.786-0.83-1.217c-0.232-0.436-0.424-0.891-0.577-1.361l-0.187-0.718
			l-0.117-0.734l0.005,0.031c-1.155-4.669-2.24-9.354-3.351-14.033c-1.099-4.683-2.231-9.356-3.285-14.049
			c-2.121-9.381-4.324-18.743-6.376-28.14l-3.104-14.089c-1.047-4.693-2.061-9.395-3.049-14.102l-2.983-14.115L331.264,521.953z"/>
	</g>
	<g>
		<polygon fill="#2B4B58" points="216.746,631.693 260.612,635.604 285.863,522.987 211.525,514.654 		"/>
		<circle fill="#2B4B58" cx="253.3" cy="634.952" r="7.341"/>
		<path fill="#2B4B58" d="M231.369,632.995c-0.362,4.038,2.621,7.604,6.656,7.963c4.041,0.361,7.603-2.618,7.964-6.658
			c0.359-4.035-2.619-7.604-6.659-7.964C235.292,625.977,231.728,628.957,231.369,632.995z"/>
		<path fill="#2B4B58" d="M216.746,631.693c-0.361,4.035,2.62,7.602,6.657,7.96c4.041,0.363,7.603-2.62,7.965-6.658
			c0.359-4.038-2.623-7.603-6.661-7.963C220.672,624.674,217.105,627.653,216.746,631.693z"/>
	</g>
	<polygon fill="#FDD51C" points="394.524,693.793 366.88,693.793 364.025,627.403 391.448,615.671 	"/>
	<path fill="#FDD51C" d="M380.691,693.348h21.806c14.71,0,20.878-1.024,20.69,10.808l11.422,0.008
		c0-18.024-4.475-22.728-26.084-22.728h-27.723L380.691,693.348z"/>
	<path fill="#FDD51C" d="M434.609,704.08c0,9.655-11.877,11.615-15.572,8.089c3.189-2.015,4.142-4.907,4.15-8.014L434.609,704.08z"
		/>
	<path fill="#FDD51C" d="M364.025,687.533l14.967,7.781c13.054,6.784,18.997,8.72,13.374,19.131l10.131,5.276
		c8.315-15.992,6.512-22.23-12.664-32.196l-19.035-9.897L364.025,687.533z"/>
	<path fill="#FDD51C" d="M402.535,719.648c-4.455,8.565-15.895,4.827-17.546-0.007c3.759-0.315,5.936-2.441,7.377-5.196
		L402.535,719.648z"/>
	<path fill="#FDD51C" d="M386.502,693.806h-19.265c-12.997,0-18.447-0.905-18.281,9.547l-10.09,0.008
		c-0.002-15.926,3.953-20.081,23.045-20.081h24.494L386.502,693.806z"/>
	<path fill="#FDD51C" d="M338.866,703.286c0,8.53,10.492,10.262,13.756,7.147c-2.819-1.78-3.659-4.334-3.667-7.081l-5.78-0.038
		L338.866,703.286z"/>
	<path opacity="0.19" fill="#EC1E24" d="M338.866,703.286c0,8.53,10.492,10.262,13.756,7.147c-8.8,1.442-8.841-7.081-8.841-7.081
		L338.866,703.286z"/>
	<path opacity="0.19" fill="#EC1E24" d="M384.989,719.642c3.759-0.315,5.936-2.441,7.377-5.196l6.12,3.13
		C398.486,717.575,390.264,728.931,384.989,719.642z"/>
	<path opacity="0.19" fill="#EC1E24" d="M419.037,712.169c3.189-2.015,4.142-4.907,4.15-8.014l5.846-0.036
		C429.033,704.119,429.033,712.725,419.037,712.169z"/>
	<path opacity="0.19" fill="#EC1E24" d="M411.993,693.374c7.912,0.27,11.336,1.92,11.194,10.781l5.841,0.008
		c0-7.659-2.878-10.821-24.487-10.821"/>
	<path opacity="0.19" fill="#EC1E24" d="M398.464,717.62l-6.098-3.175c3.243-5.987,2.589-9.15-0.977-12.053
		C391.389,702.393,402.535,707.282,398.464,717.62z"/>
	<path opacity="0.19" fill="#EC1E24" d="M361.911,683.279c-19.092,0-23.047,4.155-23.045,20.081l4.915-0.008
		C344.469,688.31,354.007,683.399,361.911,683.279"/>
	<polyline opacity="0.19" fill="#EC1E24" points="366.513,683.279 374.625,618.971 364.025,627.403 366.429,683.279 	"/>
	<g>
		<polygon fill="#2B4B58" points="400.38,631.777 356.516,635.687 331.264,523.069 405.602,514.736 		"/>
		<path fill="#2B4B58" d="M371.138,634.381c0.36,4.041-2.621,7.605-6.66,7.966c-4.038,0.36-7.601-2.622-7.961-6.66
			c-0.36-4.036,2.617-7.602,6.658-7.962C367.21,627.363,370.779,630.348,371.138,634.381z"/>
		<path fill="#2B4B58" d="M385.758,633.078c0.363,4.037-2.62,7.604-6.656,7.962c-4.041,0.362-7.604-2.618-7.964-6.659
			c-0.359-4.033,2.62-7.603,6.659-7.961C381.834,626.059,385.399,629.041,385.758,633.078z"/>
		<path fill="#2B4B58" d="M400.38,631.777c0.361,4.034-2.619,7.602-6.659,7.96c-4.041,0.361-7.601-2.622-7.964-6.659
			c-0.359-4.037,2.622-7.603,6.661-7.964C396.455,624.757,400.023,627.735,400.38,631.777z"/>
	</g>
	<polygon opacity="0.1" fill="#16282D" points="404.039,549.935 212.243,549.935 189.789,266.078 429.621,266.078 	"/>
	<polygon fill="#2B4B58" points="401.822,576.307 213.649,576.307 197.129,266.062 421.706,266.062 	"/>
	<path fill="#2B4B58" d="M370.819,568.964c-11.146,8.077-34.801,14.687-62.184,14.687c-27.993,0-52.092-5.826-62.91-14.195"/>
	<g opacity="0.4">
		<path fill="#1A2F35" d="M370.819,568.964c0,0-0.416,0.293-1.194,0.843c-0.761,0.576-1.957,1.301-3.492,2.219
			c-0.789,0.416-1.662,0.877-2.613,1.379c-0.974,0.456-2.027,0.95-3.153,1.478c-1.15,0.469-2.366,0.994-3.667,1.495
			c-1.314,0.463-2.681,1.005-4.146,1.446c-1.458,0.465-2.977,0.954-4.572,1.374c-1.585,0.462-3.242,0.866-4.948,1.271
			c-1.7,0.438-3.475,0.749-5.274,1.143c-1.811,0.332-3.665,0.659-5.558,0.936c-1.896,0.257-3.819,0.553-5.78,0.739
			c-0.979,0.104-1.964,0.209-2.954,0.313c-0.992,0.078-1.99,0.156-2.991,0.234c-2.001,0.185-4.026,0.232-6.056,0.345
			c-2.035,0.074-4.066,0.097-6.121,0.125c-4.056-0.048-8.151-0.156-12.158-0.448c-4.009-0.239-7.94-0.682-11.734-1.166
			c-1.895-0.261-3.755-0.543-5.57-0.854c-1.806-0.365-3.585-0.646-5.292-1.056c-1.713-0.377-3.376-0.752-4.969-1.188
			c-1.603-0.394-3.129-0.856-4.594-1.3c-1.474-0.413-2.846-0.945-4.167-1.388c-1.31-0.48-2.528-1.003-3.684-1.457
			c-1.129-0.521-2.185-1.01-3.162-1.462c-0.95-0.505-1.822-0.969-2.61-1.387c-1.524-0.932-2.714-1.67-3.459-2.271
			c-0.766-0.568-1.174-0.871-1.174-0.871s0.422,0.283,1.215,0.812c0.767,0.567,2,1.229,3.541,2.104
			c0.798,0.388,1.681,0.817,2.643,1.284c0.986,0.413,2.052,0.859,3.191,1.336c1.166,0.41,2.392,0.883,3.708,1.312
			c1.329,0.393,2.694,0.902,4.169,1.275c1.464,0.408,2.988,0.834,4.588,1.188c1.589,0.398,3.25,0.734,4.958,1.069
			c1.701,0.37,3.477,0.609,5.276,0.931c1.81,0.256,3.655,0.552,5.54,0.788c3.772,0.453,7.679,0.863,11.664,1.072
			c3.981,0.263,8.021,0.336,12.097,0.359c2.01-0.014,4.047-0.021,6.061-0.079c2.015-0.097,4.026-0.129,6.014-0.299
			c0.995-0.07,1.985-0.141,2.971-0.21c0.983-0.098,1.962-0.194,2.934-0.29c1.948-0.171,3.859-0.451,5.743-0.692
			c1.882-0.254,3.72-0.588,5.527-0.864c1.793-0.352,3.564-0.621,5.259-1.018c1.703-0.365,3.357-0.729,4.939-1.154
			c1.595-0.382,3.111-0.834,4.569-1.263c1.467-0.401,2.828-0.924,4.152-1.334c1.31-0.451,2.534-0.929,3.695-1.354
			c1.137-0.483,2.201-0.936,3.185-1.354c0.963-0.465,1.848-0.892,2.647-1.277c1.547-0.86,2.788-1.509,3.573-2.054
			C370.39,569.236,370.819,568.964,370.819,568.964z"/>
	</g>
	<g opacity="0.4">
		<path fill="#16282D" d="M262.605,272.419c-0.058,8.904-7.086,16.076-15.691,16.017c-8.611-0.055-15.542-7.32-15.482-16.224"/>
		<path fill="#16282D" d="M293.779,272.626c-0.059,8.904-7.083,16.075-15.693,16.018c-8.609-0.057-15.54-7.321-15.481-16.225"/>
		<path fill="#16282D" d="M324.951,272.835c-0.061,8.901-7.084,16.073-15.695,16.018c-8.605-0.055-15.536-7.324-15.477-16.228"/>
		<path fill="#16282D" d="M356.125,273.045c-0.058,8.9-7.084,16.075-15.695,16.014c-8.608-0.058-15.54-7.322-15.479-16.224"/>
		<path fill="#16282D" d="M386.518,271.826c-0.058,8.905-6.777,17.497-15.216,17.439c-8.443-0.055-15.235-7.32-15.177-16.22"/>
	</g>
	<path fill="#FFFFFF" d="M416.923,151.231l-0.017-31.092c-9.282-31.164-32.977-30.83-75.625-30.83
		c-59.283,0-107.67,45.865-110.499,103.484c0,0-0.334,65.148-0.334,76.705c-0.062,8.903,6.803,14.673,15.408,14.727
		c8.223,0.056,14.985-6.497,15.622-14.847l0.113-0.001c0.523,8.359,7.199,15.002,15.417,15.056
		c8.334,0.057,15.163-6.669,15.644-15.174h0.082c0.371,8.511,7.105,15.329,15.433,15.384c8.315,0.056,15.132-6.647,15.64-15.133
		l0.086,0.001c0.386,8.493,7.115,15.283,15.43,15.338c7.949,0.055,14.527-6.062,15.541-14.005
		c1.113,7.834,8.12,13.904,15.976,13.958c8.506,0.057,14.438-6.297,14.629-15.044h0.014c0-0.088,0-0.185,0-0.276v-0.024l0,0
		c-0.055-13.85-3.75-61.617,31.422-61.617h0.188L416.923,151.231z"/>
	<path opacity="0.05" fill="#C6C6C6" d="M262.604,121.63c-18.904,17.137-30.625,46.809-31.821,71.163c0,0-0.334,65.148-0.334,76.705
		c-0.062,8.903,6.803,14.673,15.408,14.727c8.223,0.056,14.985-6.497,15.622-14.847l0.113-0.001
		C262.115,277.736,263.07,166.464,262.604,121.63z"/>
	<circle fill="#2B4B58" cx="385.091" cy="150.066" r="4.388"/>
	<path fill="#FDD51C" d="M416.906,203.451c0,0,4.684-20.433,37.339-20.33c43.662,0.142,45.079,23.759,50.686,52.792
		c10.769-15.217,28.438-115.787-47.869-115.787h-40.156"/>
	<polygon fill="#FDD51C" points="501.212,207.909 416.906,207.909 416.906,182.827 476.555,182.174 	"/>
	<path opacity="0.3" fill="#FFFFFF" d="M511.415,198.282c1.104-42.968-16.908-73.074-52.356-73.074
		C459.059,125.208,502.686,146.517,511.415,198.282z"/>
	<path fill="#EB6057" d="M442.869,132.48c0,2.33-1.812,4.219-4.045,4.219c-2.235,0-4.044-1.889-4.044-4.219
		c0-2.337,1.81-4.225,4.044-4.225C441.057,128.256,442.869,130.144,442.869,132.48z"/>
	<g>
		<path fill="#EB6057" d="M416.906,199.625c0,0,0.345-0.338,1.023-0.941c0.679-0.601,1.687-1.474,3.037-2.501
			c2.689-2.058,6.713-4.832,12.017-7.336c2.651-1.243,5.615-2.435,8.873-3.335c3.246-0.938,6.788-1.579,10.5-1.769
			c1.876-0.097,3.719-0.038,5.573-0.045c1.888,0.064,3.811,0.129,5.725,0.308c3.835,0.322,7.742,0.856,11.572,1.855
			c3.821,1.007,7.571,2.47,10.951,4.521c3.392,2.035,6.252,4.807,8.509,7.796c2.227,3.03,3.779,6.313,4.956,9.476
			c1.181,3.169,1.943,6.258,2.549,9.109c1.19,5.711,1.751,10.513,2.161,13.869c0.369,3.361,0.58,5.281,0.58,5.281
			s-0.396-1.891-1.087-5.199c-0.349-1.651-0.772-3.656-1.257-5.956c-0.503-2.293-1.109-4.868-1.844-7.646
			c-0.747-2.774-1.673-5.743-2.91-8.752c-1.242-3.005-2.87-6.021-4.979-8.794c-2.158-2.73-4.845-5.167-7.992-7.017
			c-3.135-1.868-6.655-3.219-10.297-4.148c-3.642-0.945-7.402-1.518-11.13-1.852c-1.867-0.198-3.714-0.244-5.544-0.366
			c-1.868-0.038-3.704-0.135-5.444-0.088c-3.519,0.111-6.919,0.604-10.084,1.36c-3.169,0.749-6.097,1.766-8.758,2.813
			c-2.646,1.087-5.026,2.218-7.088,3.315c-2.059,1.104-3.82,2.141-5.241,3.042C418.428,198.426,416.906,199.625,416.906,199.625z"/>
	</g>
</g>
</svg>
