<?xml version="1.0" encoding="utf-8"?>
<!-- Generator: Adobe Illustrator 16.0.3, SVG Export Plug-In . SVG Version: 6.00 Build 0)  -->
<!DOCTYPE svg PUBLIC "-//W3C//DTD SVG 1.1//EN" "http://www.w3.org/Graphics/SVG/1.1/DTD/svg11.dtd">
<svg version="1.1" id="Layer_1" xmlns="http://www.w3.org/2000/svg" xmlns:xlink="http://www.w3.org/1999/xlink" x="0px" y="0px"
	 width="50px" height="50px" viewBox="0 0 50 50" enable-background="new 0 0 50 50" xml:space="preserve">
<g id="close-white-circle3046">
	<circle fill="#FFFFFF" cx="25" cy="25" r="23.666"/>
</g>
<path id="close-white-path3050" fill="#203A42" d="M35.875,16.488l-2.418-2.417c-0.445-0.446-1.166-0.446-1.611,0L25,20.917
	l-6.846-6.846c-0.446-0.446-1.167-0.446-1.612,0l-2.416,2.417c-0.443,0.446-0.443,1.166,0,1.612l6.848,6.846l-6.848,6.846
	c-0.443,0.444-0.443,1.167,0,1.612l2.416,2.416c0.445,0.445,1.166,0.445,1.612,0L25,28.973l6.846,6.848
	c0.446,0.445,1.168,0.445,1.612,0l2.418-2.416c0.44-0.445,0.44-1.166,0-1.612l-6.849-6.846l6.849-6.846
	C36.316,17.655,36.316,16.934,35.875,16.488z"/>
</svg>
