<?xml version="1.0" encoding="utf-8"?>
<!-- Generator: Adobe Illustrator 16.0.3, SVG Export Plug-In . SVG Version: 6.00 Build 0)  -->
<!DOCTYPE svg PUBLIC "-//W3C//DTD SVG 1.1//EN" "http://www.w3.org/Graphics/SVG/1.1/DTD/svg11.dtd">
<svg version="1.1" id="Layer_1" xmlns="http://www.w3.org/2000/svg" xmlns:xlink="http://www.w3.org/1999/xlink" x="0px" y="0px"
	 width="1190.559px" height="1683.779px" viewBox="0 0 1190.559 1683.779" enable-background="new 0 0 1190.559 1683.779"
	 xml:space="preserve">
<rect fill="#2B4B58" width="1190.559" height="1683.779"/>
<circle fill="#A4BEC1" cx="360.058" cy="185.123" r="4"/>
<circle fill="#A4BEC1" cx="214" cy="378.375" r="4"/>
<circle fill="#A4BEC1" cx="511.573" cy="309.123" r="4"/>
<circle fill="#A4BEC1" cx="444" cy="581.375" r="4"/>
<circle fill="#A4BEC1" cx="843.573" cy="469.123" r="4"/>
<circle fill="#A4BEC1" cx="680" cy="777.375" r="4"/>
<circle fill="#A4BEC1" cx="348" cy="961.375" r="4"/>
<circle fill="#A4BEC1" cx="260" cy="673.375" r="4"/>
<circle fill="#A4BEC1" cx="900" cy="1125.375" r="4"/>
<circle fill="#A4BEC1" cx="700" cy="1417.375" r="4"/>
<circle fill="#A4BEC1" cx="508" cy="1313.375" r="4"/>
<circle fill="#A4BEC1" cx="172" cy="1337.375" r="4"/>
<circle fill="#A4BEC1" cx="1148" cy="805.375" r="4"/>
<circle fill="#A4BEC1" cx="1172" cy="389.375" r="4"/>
<circle fill="#A4BEC1" cx="964" cy="217.375" r="4"/>
<circle fill="#A4BEC1" cx="740" cy="145.375" r="4"/>
<circle fill="#A4BEC1" cx="304" cy="145.375" r="4"/>
<circle fill="#A4BEC1" cx="180" cy="609.375" r="4"/>
<circle fill="#A4BEC1" cx="12" cy="1205.375" r="4"/>
<circle fill="#A4BEC1" cx="448" cy="1361.375" r="4"/>
<circle fill="#A4BEC1" cx="404" cy="1617.375" r="4"/>
<circle fill="#A4BEC1" cx="684" cy="1565.375" r="4"/>
<circle fill="#A4BEC1" cx="928" cy="1485.375" r="4"/>
<circle fill="#A4BEC1" cx="904" cy="1261.375" r="4"/>
<circle fill="#A4BEC1" cx="987.573" cy="1025.375" r="4"/>
<circle fill="#A4BEC1" cx="760" cy="1061.375" r="4"/>
<circle fill="#A4BEC1" cx="556" cy="985.375" r="4"/>
<circle fill="#A4BEC1" cx="460" cy="1017.375" r="4"/>
<circle fill="#A4BEC1" cx="4" cy="921.375" r="4"/>
<circle fill="#A4BEC1" cx="780" cy="645.375" r="4"/>
<circle fill="#A4BEC1" cx="904" cy="821.375" r="4"/>
<circle fill="#A4BEC1" cx="612" cy="1209.375" r="4"/>
<circle fill="#A4BEC1" cx="416" cy="1121.375" r="4"/>
<circle fill="#A4BEC1" cx="268" cy="1081.375" r="4"/>
<circle fill="#A4BEC1" cx="52" cy="1369.375" r="4"/>
<circle fill="#A4BEC1" cx="580" cy="605.375" r="4"/>
<circle fill="#A4BEC1" cx="272" cy="509.375" r="4"/>
<circle fill="#A4BEC1" cx="132" cy="457.375" r="4"/>
<circle fill="#A4BEC1" cx="160" cy="189.375" r="4"/>
<circle fill="#A4BEC1" cx="136" cy="81.375" r="4"/>
<circle fill="#A4BEC1" cx="892" cy="217.375" r="4"/>
<circle fill="#A4BEC1" cx="900" cy="457.375" r="4"/>
<circle fill="#A4BEC1" cx="968" cy="569.375" r="4"/>
<circle fill="#A4BEC1" cx="705.573" cy="317.123" r="4"/>
<circle fill="#A4BEC1" cx="539.573" cy="89.375" r="4"/>
<circle fill="#A4BEC1" cx="1063.573" cy="89.375" r="4"/>
<circle fill="#A4BEC1" cx="444" cy="785.375" r="4"/>
<circle fill="#A4BEC1" cx="87.573" cy="753.123" r="4"/>
<circle fill="#A4BEC1" cx="385.573" cy="421.123" r="4"/>
<circle fill="#A4BEC1" cx="847.573" cy="975.123" r="4"/>
<circle fill="#A4BEC1" cx="1077.573" cy="1265.375" r="4"/>
<circle fill="#A4BEC1" cx="801.573" cy="1317.375" r="4"/>
<circle fill="#A4BEC1" cx="1063.573" cy="1573.375" r="4"/>
<circle fill="#A4BEC1" cx="168" cy="1527.123" r="4"/>
<circle fill="#A4BEC1" cx="140" cy="989.375" r="4"/>
<circle fill="#A4BEC1" cx="293.573" cy="1321.375" r="4"/>
<circle fill="#A4BEC1" cx="12" cy="607.123" r="4"/>
<circle fill="#A4BEC1" cx="20" cy="275.123" r="4"/>
<ellipse fill="#A4BEC1" cx="575.787" cy="947.123" rx="5.053" ry="4"/>
<path id="_x34__1_" opacity="0.1" fill="#FFFFFF" d="M299.79,110.374c0.152,0,0.301,0.016,0.451,0.023v-0.023h71v-0.107
	c10.615-1.051,18.908-10.002,18.908-20.893s-8.293-19.844-18.908-20.893v-0.105H150.817v0.004l0,0
	c-11.596,0-20.998,9.4-20.998,20.998c0,11.596,9.402,20.996,20.998,20.996l0,0l0,0h9.973c4.938,0,8.939,4.004,8.939,8.939
	c0,4.939-4.002,9.062-8.939,9.062h-59.973v0.084c-0.551-0.043-1.104-0.084-1.666-0.084c-11.596,0-20.996,9.402-20.996,20.998
	s9.4,20.998,20.996,20.998c0.562,0,1.115-0.041,1.666-0.084v0.086h19.973c4.938,0,8.939,4.004,8.939,8.939
	c0,4.939-4.002,9.062-8.939,9.062H80.817v0.084c-0.551-0.043-1.104-0.084-1.666-0.084c-11.596,0-20.996,9.402-20.996,20.998
	s9.4,20.998,20.996,20.998c0.562,0,1.115-0.041,1.666-0.084v0.086h278.334v-0.002c11.598,0,20.998-9.402,20.998-20.998
	s-9.4-20.998-20.998-20.998H299.79c-4.938,0-8.939-4.123-8.939-9.062c0-4.936,4.002-8.939,8.939-8.939h21.451l0,0
	c11.598,0,20.998-9.402,20.998-20.998s-9.4-20.998-20.998-20.998v-0.002h-21v-0.023c-0.15,0.008-0.299,0.023-0.451,0.023
	c-4.938,0-8.939-4.123-8.939-9.062C290.851,114.378,294.853,110.374,299.79,110.374z"/>
<path id="_x33__2_" opacity="0.1" fill="#FFFFFF" d="M623.726,402.378v-0.002h-41v-0.023c-0.15,0.008-0.299,0.023-0.451,0.023
	c-4.938,0-8.939-4.123-8.939-9.062c0-4.937,4.002-8.939,8.939-8.939c0.152,0,0.301,0.016,0.451,0.022v-0.022h11v-0.108
	c10.615-1.05,18.908-10.001,18.908-20.892s-8.293-19.844-18.908-20.893v-0.105H373.302v0.003l0,0
	c-11.596,0-20.998,9.401-20.998,20.998c0,11.596,9.402,20.997,20.998,20.997l0,0h69.973c4.938,0,8.939,4.003,8.939,8.939
	c0,4.939-4.002,9.062-8.939,9.062h-39.973v0.084c-0.551-0.043-1.104-0.084-1.666-0.084c-11.596,0-20.996,9.401-20.996,20.998
	c0,11.596,9.4,20.997,20.996,20.997c0.562,0,1.115-0.041,1.666-0.084v0.087h220.424v-0.001c11.598,0,20.998-9.401,20.998-20.997
	C644.724,411.779,635.323,402.378,623.726,402.378z"/>
<path id="_x33__3_" opacity="0.1" fill="#FFFFFF" d="M1042.653,123.974v0.001h-32.557v0.019c-0.119-0.006-0.237-0.019-0.358-0.019
	c-3.92,0-7.098,3.274-7.098,7.196c0,3.92,3.178,7.099,7.098,7.099c0.121,0,0.239-0.013,0.358-0.018v0.018h8.734v0.086
	c8.43,0.833,15.015,7.941,15.015,16.589c0,8.648-6.585,15.757-15.015,16.59v0.084H843.803v-0.002l0,0
	c-9.208,0-16.674-7.465-16.674-16.673s7.466-16.673,16.674-16.673l0,0h55.562c3.92,0,7.098-3.179,7.098-7.099
	c0-3.922-3.178-7.196-7.098-7.196h-31.741v-0.066c-0.438,0.034-0.876,0.066-1.322,0.066c-9.208,0-16.673-7.465-16.673-16.673
	c0-9.208,7.465-16.673,16.673-16.673c0.446,0,0.885,0.033,1.322,0.067v-0.069h175.029v0.001c9.209,0,16.674,7.465,16.674,16.673
	S1051.862,123.974,1042.653,123.974z"/>
<path id="_x34__2_" opacity="0.1" fill="#FFFFFF" d="M1080.199,501.206c0.152,0,0.301,0.016,0.451,0.023v-0.023h71v-0.107
	c10.615-1.051,18.908-10.002,18.908-20.893s-8.293-19.844-18.908-20.893v-0.105H931.227v0.004l0,0
	c-11.596,0-20.998,9.4-20.998,20.998c0,11.596,9.402,20.996,20.998,20.996l0,0l0,0h9.973c4.938,0,8.939,4.004,8.939,8.939
	c0,4.939-4.002,9.062-8.939,9.062h-59.973v0.084c-0.551-0.043-1.104-0.084-1.666-0.084c-11.596,0-20.996,9.402-20.996,20.998
	s9.4,20.998,20.996,20.998c0.562,0,1.115-0.041,1.666-0.084v0.086h19.973c4.938,0,8.939,4.004,8.939,8.939
	c0,4.939-4.002,9.062-8.939,9.062h-39.973v0.084c-0.551-0.043-1.104-0.084-1.666-0.084c-11.596,0-20.996,9.402-20.996,20.998
	s9.4,20.998,20.996,20.998c0.562,0,1.115-0.041,1.666-0.084v0.086h278.334v-0.002c11.598,0,20.998-9.402,20.998-20.998
	s-9.4-20.998-20.998-20.998h-59.361c-4.938,0-8.939-4.123-8.939-9.062c0-4.936,4.002-8.939,8.939-8.939h21.451l0,0
	c11.598,0,20.998-9.402,20.998-20.998s-9.4-20.998-20.998-20.998v-0.002h-21v-0.023c-0.15,0.008-0.299,0.023-0.451,0.023
	c-4.938,0-8.939-4.123-8.939-9.062C1071.26,505.21,1075.262,501.206,1080.199,501.206z"/>
<path opacity="0.2" fill="#1C333A" d="M1007.566,1389.49c0,29.589-184.59,53.57-412.287,53.57s-412.287-23.981-412.287-53.57
	c0-29.585,184.59-53.569,412.287-53.569S1007.566,1359.905,1007.566,1389.49z"/>
<g>
	<g>
		<path fill="#20363D" d="M569.369,440.508c6.05,14.595,12.101,29.19,18.15,43.785c15.858,38.255,31.717,76.511,47.576,114.766
			c22.228,53.621,44.456,107.241,66.684,160.862c25.16,60.692,50.319,121.384,75.479,182.075
			c24.652,59.469,49.305,118.937,73.957,178.405c20.707,49.951,41.413,99.901,62.12,149.852
			c13.322,32.138,26.646,64.275,39.968,96.414c3.091,7.457,6.182,14.914,9.273,22.37c2.433,5.869,12.112,3.299,9.643-2.658
			c-6.05-14.595-12.101-29.19-18.15-43.785c-15.858-38.255-31.717-76.511-47.576-114.766
			c-22.228-53.621-44.456-107.241-66.684-160.862c-25.16-60.692-50.319-121.384-75.479-182.075
			c-24.652-59.469-49.305-118.937-73.957-178.405c-20.707-49.951-41.413-99.901-62.12-149.852
			c-13.322-32.138-26.646-64.275-39.968-96.414c-3.091-7.457-6.182-14.914-9.273-22.37
			C576.579,431.981,566.899,434.551,569.369,440.508L569.369,440.508z"/>
	</g>
</g>
<g>
	<g>
		<path fill="#20363D" d="M606.035,437.85c-5.896,14.7-11.79,29.399-17.686,44.099c-15.445,38.513-30.891,77.027-46.337,115.541
			c-21.636,53.949-43.271,107.899-64.908,161.849c-24.466,61.008-48.933,122.016-73.399,183.023
			c-23.938,59.688-47.875,119.376-71.813,179.065c-20.048,49.991-40.097,99.982-60.146,149.973
			c-12.8,31.916-25.599,63.832-38.398,95.748c-2.85,7.104-5.698,14.208-8.547,21.312c-2.402,5.99,7.273,8.566,9.643,2.658
			c5.896-14.7,11.79-29.399,17.686-44.099c15.445-38.513,30.891-77.027,46.337-115.541c21.636-53.949,43.271-107.899,64.908-161.849
			c24.466-61.008,48.933-122.016,73.399-183.023c23.938-59.688,47.875-119.376,71.813-179.065
			c20.048-49.991,40.097-99.982,60.146-149.973c12.799-31.916,25.6-63.832,38.398-95.748c2.85-7.104,5.698-14.208,8.547-21.312
			C618.08,434.518,608.404,431.942,606.035,437.85L606.035,437.85z"/>
	</g>
</g>
<g>
	<g>
		<path fill="#20363D" d="M857.219,1386.378c-4.756-17.503-9.511-35.007-14.267-52.51c-12.131-44.65-24.263-89.301-36.394-133.951
			c-16.304-60.007-32.607-120.014-48.91-180.021c-17.272-63.573-34.545-127.147-51.817-190.72
			c-15.038-55.35-30.077-110.7-45.114-166.049c-9.602-35.336-19.201-70.672-28.803-106.008c-1.817-6.691-3.635-13.381-5.453-20.072
			c-1.688-6.216-11.336-3.575-9.643,2.658c4.756,17.503,9.511,35.007,14.267,52.51c12.131,44.65,24.263,89.301,36.394,133.951
			c16.304,60.007,32.607,120.014,48.91,180.021c17.272,63.573,34.545,127.147,51.817,190.72
			c15.038,55.35,30.077,110.7,45.114,166.049c9.602,35.336,19.201,70.672,28.803,106.008c1.817,6.691,3.635,13.381,5.453,20.072
			C849.265,1395.252,858.912,1392.611,857.219,1386.378L857.219,1386.378z"/>
	</g>
</g>
<g>
	<g>
		<path fill="#20363D" d="M564.75,537.046c-4.695,17.553-9.391,35.107-14.086,52.661c-11.973,44.765-23.946,89.53-35.92,134.294
			c-16.084,60.132-32.168,120.265-48.251,180.397c-17.026,63.656-34.053,127.312-51.079,190.967
			c-14.801,55.335-29.602,110.671-44.402,166.006c-9.407,35.171-18.814,70.343-28.222,105.514
			c-1.738,6.498-3.476,12.995-5.214,19.493c-1.669,6.238,7.979,8.882,9.643,2.658c4.695-17.553,9.391-35.107,14.086-52.661
			c11.973-44.765,23.946-89.53,35.92-134.294c16.084-60.132,32.168-120.265,48.251-180.397
			c17.026-63.656,34.053-127.312,51.079-190.967c14.801-55.335,29.602-110.671,44.402-166.006
			c9.407-35.171,18.814-70.343,28.222-105.514c1.738-6.498,3.476-12.995,5.214-19.493
			C576.062,533.466,566.414,530.822,564.75,537.046L564.75,537.046z"/>
	</g>
</g>
<polygon fill="#27434C" points="553.993,538.375 226.397,1373.707 346.394,1373.707 569.584,538.375 "/>
<polygon fill="#27434C" points="636.272,538.708 620.64,538.708 849.397,1374.04 968.522,1374.04 826.604,1017.231 713.022,939.012 
	756.296,840.467 "/>
<polygon fill="#27434C" points="622.64,538.708 569.571,538.375 346.394,1373.707 498.514,1373.808 596.61,1323.873 
	696.283,1373.939 849.397,1374.04 "/>
<polygon fill="#20363D" points="596.609,1143.696 596.609,1143.696 498.514,1373.707 696.281,1373.707 "/>
<polygon id="shadow_16_" opacity="0.3" fill="#18292D" points="596.609,1143.696 596.609,1143.696 498.514,1373.707 
	596.609,1373.707 "/>
<polygon id="shadow_15_" opacity="0.3" fill="#18292D" points="596.609,1143.696 589.609,1143.696 498.514,1373.707 
	448.855,1318.513 "/>
<polygon fill="#406672" points="596.609,1143.696 596.609,1143.696 498.514,1373.707 464.397,1311.707 "/>
<polygon fill="#406672" points="596.609,1143.696 596.609,1143.696 696.281,1373.707 728.821,1311.707 "/>
<g opacity="0.5">
	<g>
		<g>
			<path fill="#6D929E" d="M471.029,1276.439c5.709,8.658,11.418,17.316,17.127,25.975c1.767,2.679,6.099,0.177,4.318-2.523
				c-5.709-8.658-11.418-17.316-17.127-25.975C473.581,1271.237,469.249,1273.739,471.029,1276.439L471.029,1276.439z"/>
		</g>
	</g>
	<g>
		<g>
			<path fill="#6D929E" d="M481.029,1266.439c5.709,8.658,11.418,17.316,17.127,25.975c1.767,2.679,6.099,0.177,4.318-2.523
				c-5.709-8.658-11.418-17.316-17.127-25.975C483.581,1261.237,479.249,1263.739,481.029,1266.439L481.029,1266.439z"/>
		</g>
	</g>
	<g>
		<g>
			<path fill="#6D929E" d="M491.029,1256.439c5.709,8.658,11.418,17.316,17.127,25.975c1.767,2.679,6.099,0.177,4.318-2.523
				c-5.709-8.658-11.418-17.316-17.127-25.975C493.581,1251.237,489.249,1253.739,491.029,1256.439L491.029,1256.439z"/>
		</g>
	</g>
	<g>
		<g>
			<path fill="#6D929E" d="M718.156,1273.916c-5.709,8.658-11.418,17.316-17.127,25.975c-1.78,2.701,2.552,5.202,4.318,2.523
				c5.709-8.658,11.418-17.316,17.127-25.975C724.255,1273.739,719.923,1271.237,718.156,1273.916L718.156,1273.916z"/>
		</g>
	</g>
	<g>
		<g>
			<path fill="#6D929E" d="M708.156,1263.916c-5.709,8.658-11.418,17.316-17.127,25.975c-1.78,2.701,2.552,5.202,4.318,2.523
				c5.709-8.658,11.418-17.316,17.127-25.975C714.255,1263.739,709.923,1261.237,708.156,1263.916L708.156,1263.916z"/>
		</g>
	</g>
	<g>
		<g>
			<path fill="#6D929E" d="M698.156,1253.916c-5.709,8.658-11.418,17.316-17.127,25.975c-1.78,2.701,2.552,5.202,4.318,2.523
				c5.709-8.658,11.418-17.316,17.127-25.975C704.255,1253.739,699.923,1251.237,698.156,1253.916L698.156,1253.916z"/>
		</g>
	</g>
</g>
<g id="pattern_1_">
	<defs>
		<polygon id="SVGID_1_" points="636.272,538.708 622.64,538.708 569.584,538.375 569.584,538.375 553.993,538.375 
			226.397,1373.707 346.394,1373.707 849.397,1374.04 968.522,1374.04 		"/>
	</defs>
	<clipPath id="SVGID_2_">
		<use xlink:href="#SVGID_1_"  overflow="visible"/>
	</clipPath>
	<rect x="328.856" y="843.845" clip-path="url(#SVGID_2_)" fill="#3A626B" width="519.541" height="164"/>
	<g clip-path="url(#SVGID_2_)">
		<polygon fill="#2B4B58" points="819.157,843.845 770.151,843.845 794.655,807.546 794.655,807.546 		"/>
		<polygon fill="#2B4B58" points="773.571,843.845 724.565,843.845 749.071,807.546 749.071,807.546 		"/>
		<polygon fill="#2B4B58" points="727.982,843.845 678.976,843.845 703.479,807.546 703.479,807.546 		"/>
		<polygon fill="#2B4B58" points="682.397,843.845 633.394,843.845 657.888,807.546 657.888,807.546 		"/>
		<polygon fill="#2B4B58" points="636.812,843.845 587.804,843.845 612.306,807.546 612.306,807.546 		"/>
		<polygon fill="#2B4B58" points="591.224,843.845 542.214,843.845 566.714,807.546 566.714,807.546 		"/>
		<polygon fill="#2B4B58" points="545.63,843.845 496.626,843.845 521.133,807.546 521.133,807.546 		"/>
		<polygon fill="#2B4B58" points="500.043,843.845 451.04,843.845 475.546,807.546 475.546,807.546 		"/>
		<polygon fill="#2B4B58" points="454.46,843.845 405.451,843.845 429.95,807.546 429.95,807.546 		"/>
		<polygon fill="#2B4B58" points="408.87,843.845 359.865,843.845 384.368,807.546 384.368,807.546 		"/>
	</g>
	
		<line clip-path="url(#SVGID_2_)" fill="none" stroke="#A4BEC1" stroke-width="6" stroke-miterlimit="10" x1="358.089" y1="805.123" x2="819.278" y2="805.123"/>
	
		<line clip-path="url(#SVGID_2_)" fill="none" stroke="#A4BEC1" stroke-width="8" stroke-miterlimit="10" x1="358.089" y1="1005.279" x2="852.397" y2="1005.279"/>
	<g clip-path="url(#SVGID_2_)">
		<g>
			<g>
				<polygon fill="#2B4B58" points="389.466,1047.959 357.733,1047.959 373.478,1027.132 373.478,1027.132 				"/>
			</g>
			<g>
				<polyline fill="#2B4B58" points="315.442,1024.969 315.442,1024.969 329.206,1047.959 315.423,1047.959 				"/>
			</g>
			<g>
				<polygon fill="#2B4B58" points="442.356,1047.959 410.622,1047.959 427.303,1026.58 427.303,1026.58 				"/>
			</g>
			<g>
				<polygon fill="#2B4B58" points="498.772,1047.959 463.513,1047.959 481.13,1026.58 481.13,1026.58 				"/>
			</g>
			<g>
				<polygon fill="#2B4B58" points="551.661,1047.959 519.927,1047.959 534.954,1027.95 534.954,1027.95 				"/>
			</g>
			<g>
				<polygon fill="#2B4B58" points="604.551,1047.959 572.816,1047.959 588.784,1026.58 588.784,1026.58 				"/>
			</g>
			<g>
				<polygon fill="#2B4B58" points="713.854,1047.959 678.595,1047.959 696.438,1026.58 696.438,1026.58 				"/>
			</g>
			<g>
				<polygon fill="#2B4B58" points="657.439,1047.959 625.706,1047.959 642.609,1026.58 642.609,1026.58 				"/>
			</g>
			<g>
				<polygon fill="#2B4B58" points="766.745,1047.959 735.011,1047.959 750.265,1026.58 750.265,1026.58 				"/>
			</g>
			<g>
				<polygon fill="#2B4B58" points="823.161,1047.959 791.427,1047.959 807.079,1026.58 807.079,1026.58 				"/>
			</g>
			<g>
				<polyline fill="#2B4B58" points="861.945,1047.959 844.315,1047.959 861.774,1026.58 861.774,1026.58 				"/>
			</g>
		</g>
	</g>
	<g clip-path="url(#SVGID_2_)">
		<rect x="459.019" y="893.154" fill="#A4BEC1" width="18.143" height="29.273"/>
		<polygon fill="#A4BEC1" points="505.347,945.416 467.519,908.877 430.839,945.416 430.839,906.085 505.347,906.085 		"/>
		<polygon fill="#A4BEC1" points="468.091,946.695 468.091,946.695 449.503,912.373 486.679,912.373 		"/>
		<polygon fill="#A4BEC1" points="468.091,927.59 468.091,927.59 481.677,958.932 454.508,958.932 		"/>
		<path fill="#5C878E" d="M480.932,898.184l8.996,0.01c0,0,13.966-0.347,14.658,3.627c1.817-3.796,1.227-24.65-11.665-24.65h-11.977
			"/>
		<rect x="459.019" y="877.17" fill="#A4BEC1" width="25.145" height="21.014"/>
		<path fill="#3A626B" d="M477.161,887.062c0,1.54-1.244,2.786-2.785,2.786s-2.785-1.246-2.785-2.786
			c0-1.537,1.244-2.785,2.785-2.785S477.161,885.524,477.161,887.062z"/>
	</g>
	<g clip-path="url(#SVGID_2_)">
		<rect x="580.429" y="893.154" fill="#A4BEC1" width="18.141" height="29.273"/>
		<polygon fill="#A4BEC1" points="626.751,945.416 588.925,908.877 552.247,945.416 552.247,906.085 626.751,906.085 		"/>
		<polygon fill="#A4BEC1" points="589.498,946.695 589.498,946.695 570.909,912.373 608.087,912.373 		"/>
		<polygon fill="#A4BEC1" points="589.498,927.59 589.498,927.59 603.085,958.932 575.913,958.932 		"/>
		<path fill="#5C878E" d="M602.337,898.184l9,0.01c0,0,13.967-0.347,14.659,3.627c1.815-3.796,1.224-24.65-11.667-24.65h-11.979"/>
		<rect x="580.429" y="877.17" fill="#A4BEC1" width="25.143" height="21.014"/>
		<circle fill="#3A626B" cx="595.784" cy="887.062" r="2.785"/>
	</g>
	<g clip-path="url(#SVGID_2_)">
		<rect x="701.835" y="893.154" fill="#A4BEC1" width="18.143" height="29.273"/>
		<polygon fill="#A4BEC1" points="748.16,945.416 710.333,908.877 673.651,945.416 673.651,906.085 748.16,906.085 		"/>
		<polygon fill="#A4BEC1" points="710.907,946.695 710.907,946.695 692.319,912.373 729.495,912.373 		"/>
		<polygon fill="#A4BEC1" points="710.907,927.59 710.907,927.59 724.487,958.932 697.319,958.932 		"/>
		<path fill="#5C878E" d="M723.745,898.184l8.998,0.01c0,0,13.967-0.347,14.662,3.627c1.815-3.796,1.223-24.65-11.668-24.65h-11.979
			"/>
		<rect x="701.835" y="877.17" fill="#A4BEC1" width="25.143" height="21.014"/>
		<circle fill="#3A626B" cx="717.191" cy="887.062" r="2.786"/>
	</g>
	
		<line clip-path="url(#SVGID_2_)" fill="none" stroke="#406672" stroke-width="8" stroke-miterlimit="10" x1="358.089" y1="1011.279" x2="859.804" y2="1011.279"/>
	
		<line clip-path="url(#SVGID_2_)" fill="none" stroke="#A4BEC1" stroke-width="6" stroke-miterlimit="10" x1="358.089" y1="844.123" x2="819.278" y2="844.123"/>
	
		<polyline opacity="0.5" clip-path="url(#SVGID_2_)" fill="none" stroke="#6D929E" stroke-width="8" stroke-miterlimit="10" points="
		680.952,635.559 686.089,644.439 504.743,644.439 509.809,635.559 	"/>
	
		<polyline opacity="0.5" clip-path="url(#SVGID_2_)" fill="none" stroke="#6D929E" stroke-width="8" stroke-miterlimit="10" points="
		680.952,605.559 686.089,614.439 504.743,614.439 509.809,605.559 	"/>
	
		<line clip-path="url(#SVGID_2_)" fill="none" stroke="#A4BEC1" stroke-width="8" stroke-miterlimit="10" x1="278.979" y1="1073.123" x2="898.389" y2="1073.123"/>
</g>
<polyline opacity="0.6" fill="#18292D" points="489.108,839.567 569.584,538.375 553.993,538.375 436.003,839.236 "/>
<polyline opacity="0.6" fill="#18292D" points="372.455,1001.276 226.397,1373.707 346.394,1373.707 445.901,1001.276 "/>
<polyline id="shadow_14_" opacity="0.15" fill="#18292D" points="445.901,1001.276 488.958,840.125 435.642,840.163 
	372.455,1001.276 "/>
<rect id="top_1_" x="552.064" y="525.708" fill="#3A626B" width="86.666" height="14.499"/>
<polygon id="light_1_" opacity="0.04" fill="#CEEEF2" points="636.272,538.708 620.64,538.708 849.397,1374.04 968.522,1374.04 "/>
</svg>
