<?xml version="1.0" encoding="utf-8"?>
<!-- Generator: Adobe Illustrator 16.0.3, SVG Export Plug-In . SVG Version: 6.00 Build 0)  -->
<!DOCTYPE svg PUBLIC "-//W3C//DTD SVG 1.1//EN" "http://www.w3.org/Graphics/SVG/1.1/DTD/svg11.dtd">
<svg version="1.1" id="Layer_1" xmlns="http://www.w3.org/2000/svg" xmlns:xlink="http://www.w3.org/1999/xlink" x="0px" y="0px"
	 width="640px" height="960px" viewBox="0 0 640 960" enable-background="new 0 0 640 960" xml:space="preserve">
<rect fill="#2B4B58" width="640" height="960"/>
<g>
	<g>
		<path fill="#20363D" d="M246.829,771.25l-7.53-16.858l24.056-138.81h38.788l-12.083,47.939l-14.599,135.946
			c-1.809,16.479-19.255-10.764-19.255-10.764s-24.079,21.34-22.27,4.856l4.592-32.137L246.829,771.25z"/>
	</g>
	<g>
		<path fill="#20363D" d="M372.968,771.25l7.529-16.858l-24.057-138.81h-32.772l6.066,47.939l14.6,135.946
			c1.809,16.479,18.867-14.319,18.867-14.319s24.468,24.896,22.659,8.412l-4.593-32.137L372.968,771.25z"/>
	</g>
	<g>
		<path fill="#20363D" d="M327.058,770.348l6.527-5.577v-3.336l-10.043,6.842l10.043-12.811V615.582h-22.229h-24.602l-0.883,198.292
			c0,18.381,24.369-12.856,24.369-12.856s23.346,31.878,23.346,13.493v-46.687L327.058,770.348z"/>
	</g>
	<g opacity="0.3">
		<g>
			<path fill="#18292D" d="M246.829,771.25l-7.53-16.858l24.056-138.81h38.788l-12.083,47.939l-14.599,135.946
				c-1.809,16.479-11.661,35.024-23.756,33.161c-12.099-1.861-19.578-22.584-17.77-39.068l4.592-32.137L246.829,771.25z"/>
		</g>
		<g>
			<path fill="#18292D" d="M372.968,771.25l7.529-16.858l-24.057-138.81h-32.772l6.066,47.939l14.6,135.946
				c1.809,16.479,11.66,35.024,23.758,33.161c12.098-1.861,19.577-22.584,17.769-39.068l-4.593-32.137L372.968,771.25z"/>
		</g>
		<g>
			<path fill="#18292D" d="M327.058,770.348l6.527-5.577v-3.336l-10.043,6.842l10.043-12.811V615.582h-22.229h-24.602
				l-0.883,198.292c0,18.381,10.914,40.489,24.369,40.489c13.459,0,23.346-21.467,23.346-39.852v-46.687L327.058,770.348z"/>
		</g>
	</g>
	<g>
		<path fill="#A4BEC1" d="M275.461,799.468c-1.809,16.479-11.661,35.024-23.756,33.161c-12.099-1.861-19.578-22.584-17.77-39.068
			l23.342-9.656L275.461,799.468z"/>
	</g>
	<g>
		<path fill="#A4BEC1" d="M310.011,800.159l-24.141,13.714c0,18.381,10.914,40.489,24.369,40.489
			c13.459,0,23.346-21.467,23.346-39.852L310.011,800.159z"/>
	</g>
	<g>
		<path fill="#A4BEC1" d="M344.334,799.468c1.809,16.479,11.66,35.024,23.758,33.161c12.098-1.861,19.577-22.584,17.769-39.068
			l-22.831-9.656L344.334,799.468z"/>
	</g>
	<g>
		<path fill="#1A2F35" d="M254.622,803.476c0,0,0.148-1.713,0.407-4.712c0.279-2.997,0.677-7.278,1.154-12.415
			c0.516-5.133,1.069-11.127,1.75-17.539c0.679-6.413,1.403-13.253,2.127-20.093c0.774-6.835,1.549-13.669,2.275-20.077
			c0.721-6.408,1.482-12.379,2.09-17.502c0.647-5.119,1.187-9.384,1.564-12.37c0.397-2.984,0.624-4.689,0.624-4.689
			s-0.148,1.714-0.407,4.712c-0.278,2.997-0.676,7.278-1.153,12.415c-0.517,5.133-1.067,11.127-1.751,17.54
			c-0.679,6.413-1.404,13.252-2.128,20.092c-0.774,6.835-1.549,13.669-2.275,20.077c-0.724,6.408-1.483,12.379-2.091,17.502
			c-0.646,5.119-1.186,9.384-1.563,12.37C254.848,801.771,254.622,803.476,254.622,803.476z"/>
	</g>
	<g>
		<path fill="#1A2F35" d="M365.174,803.476c0,0-0.227-1.705-0.623-4.689c-0.377-2.986-0.916-7.251-1.562-12.37
			c-0.608-5.123-1.367-11.094-2.091-17.502c-0.726-6.407-1.501-13.242-2.275-20.077c-0.725-6.84-1.449-13.68-2.128-20.092
			c-0.685-6.412-1.234-12.406-1.751-17.54c-0.477-5.137-0.874-9.418-1.152-12.415c-0.26-2.999-0.407-4.712-0.407-4.712
			s0.227,1.705,0.624,4.689c0.377,2.986,0.916,7.251,1.563,12.37c0.607,5.123,1.368,11.094,2.09,17.502
			c0.726,6.407,1.5,13.242,2.274,20.077c0.724,6.84,1.448,13.68,2.127,20.093c0.682,6.412,1.234,12.406,1.75,17.539
			c0.478,5.137,0.876,9.418,1.154,12.415C365.025,801.763,365.174,803.476,365.174,803.476z"/>
	</g>
	<g>
		<path fill="#1A2F35" d="M309.945,824.092c0,0-0.034-1.941-0.094-5.338c-0.041-3.396-0.098-8.249-0.167-14.072
			c-0.034-5.823-0.074-12.616-0.117-19.895c-0.004-7.278-0.008-15.042-0.012-22.806c0.046-7.763,0.093-15.527,0.136-22.805
			c0.083-7.278,0.159-14.071,0.225-19.894c0.102-5.823,0.186-10.675,0.245-14.071c0.079-3.396,0.124-5.337,0.124-5.337
			s0.034,1.941,0.094,5.338c0.041,3.396,0.099,8.249,0.168,14.072c0.034,5.823,0.074,12.616,0.116,19.895
			c0.004,7.279,0.008,15.042,0.012,22.806c-0.047,7.763-0.093,15.527-0.137,22.805c-0.083,7.278-0.16,14.071-0.226,19.894
			c-0.101,5.823-0.185,10.675-0.244,14.071C309.99,822.151,309.945,824.092,309.945,824.092z"/>
	</g>
	<g opacity="0.1">
		<g>
			<path fill="#15272D" d="M251.705,832.629c-12.099-1.861-19.578-22.584-17.77-39.068l4.592-32.137l8.301,9.826l-7.53-16.858
				l24.056-138.81l0,0"/>
		</g>
		<g>
			<path fill="#15272D" d="M329.734,663.521l14.6,135.946c1.809,16.479,11.66,35.024,23.758,33.161"/>
		</g>
		<g>
			<path fill="#15272D" d="M286.538,664.056l-0.668,149.818c0,18.381,10.914,40.489,24.369,40.489"/>
		</g>
	</g>
	<path fill="#2B4B58" d="M282.135,494.222c0,82.254-15.121,185.042-50.437,185.042c0,0-77.451-102.787-77.451-185.042
		c0-82.255,28.627-112.831,63.942-112.831C253.507,381.391,282.135,411.967,282.135,494.222z"/>
	<path fill="#20363D" d="M282.135,494.222c0,82.254-15.121,185.042-50.437,185.042c0,0-77.451-102.787-77.451-185.042
		c0-82.255,28.627-112.831,63.942-112.831C253.507,381.391,282.135,411.967,282.135,494.222z"/>
	<path fill="#2B4B58" d="M338.376,494.222c0,82.254,15.121,185.042,50.438,185.042c0,0,77.45-102.787,77.45-185.042
		c0-82.255-28.627-112.831-63.943-112.831S338.376,411.967,338.376,494.222z"/>
	<path fill="#20363D" d="M338.376,494.222c0,82.254,15.121,185.042,50.438,185.042c0,0,77.45-102.787,77.45-185.042
		c0-82.255-28.627-112.831-63.943-112.831S338.376,411.967,338.376,494.222z"/>
	<path opacity="0.3" fill="#18292D" d="M282.135,494.222c0,82.254-15.121,185.042-50.437,185.042c0,0-77.451-102.787-77.451-185.042
		c0-82.255,28.627-112.831,63.942-112.831C253.507,381.391,282.135,411.967,282.135,494.222z"/>
	<path opacity="0.3" fill="#18292D" d="M338.376,494.222c0,82.254,15.121,185.042,50.438,185.042c0,0,77.45-102.787,77.45-185.042
		c0-82.255-28.627-112.831-63.943-112.831S338.376,411.967,338.376,494.222z"/>
	<polygon fill="#5C878E" points="237.086,745.439 260.62,745.439 263.051,688.923 239.707,678.935 	"/>
	<path fill="#5C878E" d="M248.863,745.06H230.3c-12.522,0-17.772-0.874-17.613,9.2l-9.724,0.006c0-15.344,3.81-19.348,22.206-19.348
		h23.6L248.863,745.06z"/>
	<path fill="#4C7175" d="M202.964,754.197c0,8.219,10.111,9.887,13.256,6.886c-2.716-1.717-3.526-4.18-3.532-6.822L202.964,754.197z
		"/>
	<path fill="#5C878E" d="M263.594,739.827l-13.285,6.906c-11.112,5.776-16.171,7.424-11.383,16.287l-8.625,4.491
		c-7.078-13.614-5.543-18.923,10.78-27.41l17.018-8.848L263.594,739.827z"/>
	<path fill="#4C7175" d="M230.269,767.449c3.792,7.291,13.532,4.109,14.938-0.006c-3.203-0.27-5.056-2.081-6.281-4.423
		L230.269,767.449z"/>
	<path fill="#5C878E" d="M243.917,745.45h16.401c11.064,0,15.704-0.771,15.561,8.127l8.591,0.006
		c0-13.557-3.366-17.095-19.619-17.095h-20.852L243.917,745.45z"/>
	<path fill="#4C7175" d="M284.47,753.52c0,7.262-8.933,8.736-11.713,6.084c2.401-1.516,3.116-3.689,3.122-6.027L284.47,753.52z"/>
	<path opacity="0.2" fill="#18292D" d="M202.964,754.197c0,8.219,10.111,9.887,13.256,6.886c-8.2-0.25-8.089-6.854-8.089-6.854
		L202.964,754.197z"/>
	<path opacity="0.2" fill="#18292D" d="M230.269,767.449c3.792,7.291,13.532,4.109,14.938-0.006
		c-6.896,4.313-11.002-2.008-11.002-2.008L230.269,767.449z"/>
	<path opacity="0.2" fill="#18292D" d="M272.756,759.604c2.401-1.516,3.116-3.689,3.122-6.027l4.165-0.029
		C280.043,753.548,279.049,760.022,272.756,759.604z"/>
	<polyline opacity="0.15" fill="#18292D" points="237.501,734.918 250.772,684.678 239.707,678.935 237.501,734.918 	"/>
	<path opacity="0.15" fill="#18292D" d="M267.437,745.467c5.966,0.202,8.548,1.436,8.442,8.11l4.163-0.057
		C280.041,745.828,274.094,745.828,267.437,745.467"/>
	<path opacity="0.15" fill="#18292D" d="M232.806,745.06c-8.307,6.078-8.121,11.652-2.506,22.451l3.922-2.043
		C229.272,757.176,230.341,747.4,232.806,745.06"/>
	<path opacity="0.15" fill="#18292D" d="M225.169,734.918c-18.396,0-22.206,4.004-22.206,19.348l5.166-0.07
		C208.129,741.721,214.274,734.859,225.169,734.918"/>
	<g opacity="0.3">
		<path fill="#1A2F35" d="M262.666,702.198l1.225-0.044c0.398-0.08,0.79-0.188,1.181-0.278c0.373-0.154,0.735-0.336,1.102-0.499
			c0.333-0.226,0.656-0.466,0.983-0.696c0.274-0.293,0.556-0.579,0.823-0.874c0.211-0.34,0.436-0.67,0.635-1.013
			c0.14-0.373,0.295-0.739,0.424-1.112l0.202-1.17l0.004-0.027c0.809-4.014,1.675-8.015,2.522-12.021
			c0.858-4.003,1.682-8.014,2.577-12.008c1.777-7.992,3.488-15.999,5.319-23.979c1.842-7.978,3.597-15.975,5.51-23.937l2.835-11.951
			l2.933-11.928l-2.441,12.039l-2.539,12.017c-1.67,8.017-3.497,15.998-5.238,23.998c-1.751,7.998-3.623,15.969-5.429,23.955
			c-0.896,3.994-1.863,7.973-2.797,11.959c-0.944,3.983-1.869,7.971-2.852,11.946l0.004-0.026l-0.26,1.235
			c-0.15,0.392-0.328,0.774-0.492,1.158c-0.222,0.354-0.471,0.692-0.705,1.036c-0.291,0.299-0.594,0.586-0.89,0.877
			c-0.348,0.228-0.691,0.462-1.042,0.681c-0.385,0.154-0.765,0.319-1.152,0.457c-0.408,0.075-0.813,0.163-1.216,0.222
			L262.666,702.198z"/>
	</g>
	<g opacity="0.3">
		<path fill="#1A2F35" d="M329.589,599.227l2.932,11.929l2.834,11.95c1.912,7.961,3.671,15.958,5.511,23.936
			c1.836,7.979,3.544,15.987,5.321,23.979c0.896,3.995,1.722,8.004,2.578,12.008c0.846,4.005,1.714,8.006,2.521,12.021l0.005,0.027
			l0.2,1.17c0.129,0.373,0.284,0.74,0.424,1.113c0.199,0.342,0.425,0.673,0.636,1.013c0.268,0.295,0.548,0.581,0.822,0.874
			c0.328,0.23,0.651,0.47,0.984,0.696c0.366,0.163,0.728,0.346,1.101,0.5c0.394,0.091,0.786,0.198,1.184,0.278l1.222,0.045
			l-1.229,0.016c-0.403-0.06-0.807-0.148-1.213-0.222c-0.387-0.138-0.768-0.303-1.152-0.457c-0.351-0.218-0.693-0.453-1.042-0.681
			c-0.296-0.291-0.6-0.578-0.89-0.876c-0.234-0.344-0.483-0.683-0.705-1.037c-0.164-0.384-0.342-0.767-0.492-1.158l-0.26-1.236
			l0.005,0.026c-0.983-3.975-1.907-7.963-2.853-11.946c-0.936-3.985-1.9-7.964-2.797-11.959c-1.805-7.985-3.68-15.956-5.428-23.954
			c-1.742-8-3.566-15.981-5.237-23.998l-2.54-12.016L329.589,599.227z"/>
	</g>
	<g>
		<polygon fill="#20363D" points="232.102,692.645 269.444,695.973 290.94,600.106 227.657,593.013 		"/>
		<path fill="#20363D" d="M256.996,694.863c-0.308,3.44,2.232,6.475,5.669,6.781c3.438,0.305,6.471-2.233,6.778-5.671
			c0.306-3.435-2.229-6.469-5.668-6.776C260.338,688.888,257.301,691.428,256.996,694.863z"/>
		<circle fill="#20363D" cx="250.773" cy="694.308" r="6.248"/>
		<path fill="#20363D" d="M232.102,692.645c-0.308,3.435,2.23,6.47,5.667,6.776c3.439,0.31,6.472-2.23,6.78-5.668
			c0.306-3.438-2.233-6.472-5.67-6.779C235.444,686.668,232.407,689.206,232.102,692.645z"/>
	</g>
	<polygon fill="#5C878E" points="383.441,745.509 359.907,745.509 357.478,688.993 380.822,679.005 	"/>
	<path fill="#5C878E" d="M371.665,745.13h18.562c12.523,0,17.772-0.874,17.614,9.199l9.723,0.007
		c0-15.344-3.81-19.348-22.205-19.348h-23.601L371.665,745.13z"/>
	<path fill="#4C7175" d="M417.564,754.267c0,8.219-10.11,9.888-13.257,6.886c2.716-1.716,3.527-4.178,3.534-6.823L417.564,754.267z"
		/>
	<path fill="#5C878E" d="M357.478,740.18l12.741,6.623c11.112,5.776,16.171,7.424,11.385,16.288l8.624,4.49
		c7.08-13.614,5.544-18.923-10.78-27.407l-16.204-8.425L357.478,740.18z"/>
	<path fill="#4C7175" d="M390.26,767.519c-3.791,7.291-13.53,4.11-14.937-0.006c3.2-0.27,5.054-2.078,6.28-4.422L390.26,767.519z"/>
	<path fill="#5C878E" d="M376.612,745.52h-16.4c-11.064,0-15.703-0.77-15.562,8.128l-8.589,0.006
		c-0.002-13.557,3.365-17.095,19.617-17.095h20.852L376.612,745.52z"/>
	<path fill="#4C7175" d="M336.061,753.59c0,7.263,8.933,8.736,11.71,6.084c-2.399-1.515-3.114-3.689-3.121-6.027l-4.92-0.033
		L336.061,753.59z"/>
	<path opacity="0.2" fill="#18292D" d="M336.061,753.59c0,7.263,8.933,8.736,11.71,6.084c-7.491,1.229-7.526-6.027-7.526-6.027
		L336.061,753.59z"/>
	<path opacity="0.2" fill="#18292D" d="M375.323,767.513c3.2-0.27,5.054-2.078,6.28-4.422l5.21,2.664
		C386.813,765.754,379.813,775.421,375.323,767.513z"/>
	<path opacity="0.2" fill="#18292D" d="M404.308,761.152c2.716-1.716,3.527-4.178,3.534-6.823l4.976-0.03
		C412.817,754.299,412.817,761.625,404.308,761.152z"/>
	<path opacity="0.15" fill="#18292D" d="M398.312,745.152c6.735,0.23,9.65,1.633,9.53,9.177l4.972,0.007
		c0-6.521-2.45-9.214-20.847-9.214"/>
	<path opacity="0.15" fill="#18292D" d="M386.795,765.792l-5.191-2.702c2.761-5.097,2.204-7.79-0.832-10.262
		C380.771,752.828,390.26,756.993,386.795,765.792z"/>
	<path opacity="0.15" fill="#18292D" d="M355.678,736.559c-16.252,0-19.619,3.539-19.617,17.095l4.184-0.006
		C340.831,740.841,348.95,736.662,355.678,736.559"/>
	<polyline opacity="0.15" fill="#18292D" points="359.597,736.559 366.502,681.814 357.478,688.993 359.524,736.559 	"/>
	<g>
		<polygon fill="#20363D" points="388.426,692.715 351.086,696.043 329.589,600.176 392.871,593.083 		"/>
		<path fill="#20363D" d="M363.532,694.934c0.307,3.439-2.231,6.474-5.669,6.78s-6.472-2.233-6.777-5.67
			c-0.308-3.435,2.228-6.47,5.667-6.777C360.189,688.958,363.227,691.498,363.532,694.934z"/>
		<path fill="#20363D" d="M375.979,693.823c0.309,3.438-2.23,6.473-5.666,6.779c-3.44,0.309-6.474-2.229-6.78-5.668
			c-0.306-3.436,2.23-6.472,5.669-6.779C372.639,687.848,375.673,690.386,375.979,693.823z"/>
		<path fill="#20363D" d="M388.426,692.715c0.308,3.435-2.229,6.472-5.668,6.776c-3.44,0.309-6.471-2.23-6.779-5.668
			c-0.306-3.437,2.232-6.471,5.67-6.778C385.084,686.741,388.121,689.275,388.426,692.715z"/>
	</g>
	<polygon opacity="0.1" fill="#16282D" points="391.541,623.045 228.268,623.045 209.154,381.404 413.318,381.404 	"/>
	<polygon fill="#20363D" points="389.653,645.496 229.466,645.496 215.402,381.391 406.58,381.391 	"/>
	<path fill="#20363D" d="M363.262,639.245c-9.488,6.875-29.626,12.502-52.937,12.502c-23.83,0-44.344-4.959-53.553-12.084"/>
	<g opacity="0.4">
		<path fill="#16272B" d="M363.262,639.245c0,0-0.354,0.25-1.017,0.717c-0.647,0.491-1.666,1.107-2.973,1.888
			c-0.672,0.354-1.415,0.747-2.225,1.174c-0.829,0.389-1.727,0.809-2.685,1.257c-0.979,0.399-2.014,0.846-3.122,1.273
			c-1.119,0.394-2.282,0.855-3.529,1.231c-1.241,0.395-2.534,0.812-3.893,1.169c-1.349,0.394-2.76,0.738-4.212,1.083
			c-1.447,0.372-2.958,0.637-4.49,0.973c-1.541,0.283-3.12,0.562-4.731,0.796c-1.613,0.218-3.251,0.471-4.92,0.629
			c-0.833,0.088-1.672,0.178-2.515,0.267c-0.845,0.066-1.693,0.133-2.546,0.199c-3.413,0.269-6.879,0.37-10.366,0.4
			c-3.453-0.041-6.939-0.133-10.35-0.381c-3.413-0.204-6.759-0.581-9.989-0.993c-1.612-0.222-3.197-0.462-4.741-0.728
			c-1.537-0.31-3.052-0.549-4.505-0.898c-1.458-0.32-2.875-0.64-4.23-1.012c-1.364-0.334-2.664-0.729-3.911-1.106
			c-1.254-0.351-2.422-0.804-3.547-1.181c-1.115-0.409-2.152-0.854-3.136-1.24c-0.961-0.444-1.86-0.86-2.692-1.244
			c-0.808-0.43-1.551-0.825-2.222-1.181c-1.297-0.793-2.31-1.421-2.945-1.933c-0.651-0.484-0.999-0.742-0.999-0.742
			s0.36,0.241,1.034,0.692c0.653,0.483,1.703,1.045,3.015,1.792c0.679,0.33,1.431,0.695,2.25,1.093
			c0.839,0.352,1.747,0.731,2.717,1.138c1.972,0.73,4.214,1.503,6.706,2.203c1.246,0.347,2.543,0.709,3.906,1.011
			c1.353,0.339,2.767,0.625,4.221,0.911c2.908,0.577,6.001,1.037,9.207,1.463c3.21,0.386,6.537,0.735,9.929,0.913
			c3.389,0.223,6.828,0.286,10.298,0.306c3.436-0.005,6.895-0.08,10.278-0.322c0.847-0.06,1.69-0.12,2.53-0.179
			c0.837-0.083,1.67-0.165,2.497-0.247c1.658-0.145,3.285-0.384,4.889-0.589c1.603-0.216,3.167-0.5,4.705-0.736
			c1.526-0.299,3.034-0.529,4.478-0.867c1.449-0.311,2.857-0.621,4.205-0.982c1.356-0.325,2.647-0.71,3.89-1.075
			c2.479-0.74,4.713-1.538,6.68-2.288c0.968-0.412,1.873-0.796,2.711-1.152c0.82-0.396,1.573-0.759,2.254-1.087
			c1.317-0.732,2.374-1.284,3.042-1.748C362.896,639.477,363.262,639.245,363.262,639.245z"/>
	</g>
	<g opacity="0.4">
		<path fill="#16282D" d="M271.141,386.802c-0.05,7.58-6.032,13.686-13.358,13.635c-7.33-0.048-13.23-6.231-13.18-13.811"/>
		<path fill="#16282D" d="M297.679,386.979c-0.05,7.58-6.03,13.684-13.359,13.636c-7.329-0.048-13.229-6.233-13.179-13.813"/>
		<path fill="#16282D" d="M324.215,387.156c-0.051,7.578-6.031,13.684-13.361,13.636c-7.326-0.046-13.225-6.233-13.174-13.813"/>
		<path fill="#16282D" d="M350.753,387.335c-0.05,7.576-6.031,13.684-13.361,13.632c-7.327-0.048-13.228-6.233-13.177-13.811"/>
		<path fill="#16282D" d="M376.625,386.298c-0.049,7.58-5.769,14.895-12.953,14.844c-7.187-0.046-12.969-6.231-12.919-13.807"/>
	</g>
	<path fill="#A4BEC1" d="M402.509,283.638l-0.014-26.469c-7.902-26.529-28.073-26.244-64.379-26.244
		c-50.466,0-91.657,39.043-94.065,88.094c0,0-0.285,55.459-0.285,65.298c-0.052,7.578,5.792,12.491,13.117,12.537
		c7,0.048,12.757-5.531,13.299-12.639l0.096-0.001c0.445,7.116,6.128,12.771,13.124,12.817c7.095,0.048,12.908-5.677,13.317-12.918
		h0.07c0.315,7.246,6.048,13.05,13.138,13.096c7.078,0.048,12.881-5.658,13.313-12.882l0.074,0.001
		c0.328,7.23,6.057,13.01,13.135,13.056c6.767,0.048,12.366-5.161,13.229-11.921c0.947,6.669,6.913,11.836,13.6,11.882
		c7.241,0.048,12.292-5.362,12.453-12.808h0.014c0-0.075,0-0.157,0-0.235c0-0.006,0-0.014,0-0.021l0,0
		c-0.048-11.79-3.193-52.454,26.749-52.454h0.158L402.509,283.638z"/>
	<path opacity="0.15" fill="#C6C6C6" d="M271.14,258.439c-16.092,14.588-26.071,39.847-27.089,60.579c0,0-0.285,55.459-0.285,65.298
		c-0.052,7.578,5.792,12.491,13.117,12.537c7,0.048,12.757-5.531,13.299-12.639l0.096-0.001
		C270.724,391.329,271.537,296.605,271.14,258.439z"/>
	<circle fill="#2B4B58" cx="375.41" cy="282.646" r="3.735"/>
	<path fill="#5C878E" d="M402.495,328.092c0,0,3.986-17.395,31.785-17.307c37.168,0.12,38.375,20.225,43.146,44.94
		c9.17-12.954,24.209-98.567-40.749-98.567h-34.183"/>
	<polygon fill="#5C878E" points="474.264,331.886 402.495,331.886 402.495,310.535 453.272,309.978 	"/>
	<path opacity="0.1" fill="#FFFFFF" d="M482.946,323.691c0.941-36.578-14.393-62.207-44.568-62.207
		C438.378,261.484,475.518,279.625,482.946,323.691z"/>
	<path fill="#27434C" d="M424.595,267.674c0,1.985-1.542,3.593-3.442,3.593c-1.904,0-3.443-1.608-3.443-3.593
		c0-1.988,1.539-3.595,3.443-3.595C423.053,264.079,424.595,265.686,424.595,267.674z"/>
	<g>
		<path fill="#27434C" d="M402.495,324.833c0,0,1.201-1.127,3.526-2.829c1.168-0.841,2.609-1.836,4.332-2.869
			c1.704-1.067,3.723-2.11,5.966-3.161c2.277-0.969,4.771-1.997,7.532-2.71c2.747-0.723,5.72-1.334,8.844-1.404
			c1.565-0.117,3.134-0.031,4.715-0.03c1.595,0.073,3.214,0.115,4.833,0.271c3.243,0.269,6.535,0.73,9.759,1.556
			c3.214,0.845,6.354,2.074,9.174,3.785c2.83,1.697,5.235,3.971,7.139,6.459c1.879,2.519,3.214,5.26,4.222,7.921
			c1.008,2.667,1.699,5.268,2.249,7.677c1.09,4.826,1.615,8.906,2.04,11.749c0.383,2.85,0.602,4.478,0.602,4.478
			s-0.297-1.616-0.816-4.443c-0.515-2.826-1.261-6.869-2.438-11.636c-0.602-2.379-1.347-4.935-2.397-7.527
			c-1.051-2.589-2.423-5.21-4.234-7.632c-1.854-2.381-4.171-4.54-6.906-6.151c-2.727-1.626-5.774-2.792-8.914-3.596
			c-3.137-0.83-6.37-1.31-9.566-1.6c-1.6-0.166-3.188-0.219-4.759-0.304c-1.587-0.013-3.152-0.11-4.662-0.007
			c-3.041,0.063-5.96,0.572-8.677,1.223c-2.729,0.636-5.211,1.593-7.484,2.498c-2.235,1-4.276,1.952-6.009,2.944
			c-1.75,0.959-3.222,1.895-4.417,2.688C403.762,323.781,402.495,324.833,402.495,324.833z"/>
	</g>
</g>
</svg>
