<?xml version="1.0" encoding="utf-8"?>
<!-- Generator: Adobe Illustrator 16.0.3, SVG Export Plug-In . SVG Version: 6.00 Build 0)  -->
<!DOCTYPE svg PUBLIC "-//W3C//DTD SVG 1.1//EN" "http://www.w3.org/Graphics/SVG/1.1/DTD/svg11.dtd">
<svg version="1.1" id="Layer_1" xmlns="http://www.w3.org/2000/svg" xmlns:xlink="http://www.w3.org/1999/xlink" x="0px" y="0px"
	 width="461px" height="69.5px" viewBox="0 0 461 69.5" enable-background="new 0 0 461 69.5" xml:space="preserve">
<g>
	<g>
		<g>
			<g>
				<path fill="#FFDB20" d="M387.432,16.549c3.273,0,5.952-2.652,5.952-5.95c0-3.292-2.679-5.96-5.952-5.96
					c-3.3,0-5.954,2.668-5.954,5.96C381.478,13.896,384.132,16.549,387.432,16.549z"/>
			</g>
			<g>
				<path fill="#FFDB20" d="M393.524,26.404c0.089,0,0.183,0,0.267,0l3.122,12.487h3.841c0,0-2.33-9.368-3.113-12.487
					c-0.772-3.066-2.899-7.064-10.077-7.064c-7.188,0-9.506,3.953-10.343,7.064c-0.834,3.104-3.111,12.487-3.111,12.487h3.848
					l3.113-12.487c0.091,0,0.172,0,0.268,0l-6.459,22.113h7.007v16.344h4.669V48.518h2.336v16.344h4.67V48.518h7.006L393.524,26.404
					z"/>
			</g>
		</g>
	</g>
	<g>
		<path fill="#A3CCD1" d="M428.088,10.599c0,3.299-2.682,5.949-5.951,5.949c-3.288,0-5.953-2.65-5.953-5.949
			c0-3.291,2.665-5.96,5.953-5.96C425.406,4.639,428.088,7.308,428.088,10.599z"/>
		<path fill="#A3CCD1" d="M422.137,18.725c-11.678,0-11.805,7.68-11.805,7.68v17.157h4.14V26.404c0.083,0,0.257,0,0.344,0v18.541
			v19.916h4.669V46.18h2.652h2.65v18.682h4.669V44.945V26.404c0.089,0,0.26,0,0.344,0v17.157h4.14V26.404
			C433.939,26.404,433.813,18.725,422.137,18.725z"/>
	</g>
	<g>
		<g>
			<g>
				<path fill="#3BC18C" d="M318.021,16.549c3.274,0,5.953-2.652,5.953-5.95c0-3.292-2.679-5.96-5.953-5.96
					c-3.3,0-5.954,2.668-5.954,5.96C312.067,13.896,314.722,16.549,318.021,16.549z"/>
			</g>
			<g>
				<path fill="#3BC18C" d="M324.115,26.404c0.088,0,0.182,0,0.266,0l3.123,12.487h3.84c0,0-2.33-9.368-3.112-12.487
					c-0.772-3.066-2.9-7.064-10.078-7.064c-7.188,0-9.505,3.953-10.342,7.064c-0.834,3.104-3.112,12.487-3.112,12.487h3.849
					l3.112-12.487c0.092,0,0.172,0,0.269,0l-6.46,22.113h7.007v16.344h4.669V48.518h2.336v16.344h4.671V48.518h7.005L324.115,26.404
					z"/>
			</g>
		</g>
	</g>
	<g>
		<g>
			<path fill="#1A90A1" d="M358.678,10.599c0,3.299-2.681,5.949-5.951,5.949c-3.288,0-5.952-2.65-5.952-5.949
				c0-3.291,2.664-5.96,5.952-5.96C355.997,4.639,358.678,7.308,358.678,10.599z"/>
			<path fill="#1A90A1" d="M352.727,18.725c-11.678,0-11.804,7.68-11.804,7.68v17.157h4.139V26.404c0.084,0,0.257,0,0.344,0v18.541
				v19.916h4.67V46.18h2.651h2.651v18.682h4.669V44.945V26.404c0.088,0,0.26,0,0.344,0v17.157h4.139V26.404
				C364.529,26.404,364.404,18.725,352.727,18.725z"/>
		</g>
	</g>
	<g>
		<g>
			<g>
				<path fill="#EA5F57" d="M248.611,16.549c3.275,0,5.953-2.652,5.953-5.95c0-3.292-2.678-5.96-5.953-5.96
					c-3.299,0-5.954,2.668-5.954,5.96C242.657,13.896,245.312,16.549,248.611,16.549z"/>
			</g>
			<g>
				<path fill="#EA5F57" d="M254.705,26.404c0.088,0,0.183,0,0.267,0l3.122,12.487h3.841c0,0-2.33-9.368-3.112-12.487
					c-0.773-3.066-2.9-7.064-10.078-7.064c-7.189,0-9.506,3.953-10.342,7.064c-0.834,3.104-3.113,12.487-3.113,12.487h3.849
					l3.112-12.487c0.092,0,0.172,0,0.27,0l-6.461,22.113h7.008v16.344h4.669V48.518h2.336v16.344h4.67V48.518h7.005L254.705,26.404z
					"/>
			</g>
		</g>
	</g>
	<g>
		<path fill="#D0D2D3" d="M289.269,10.599c0,3.299-2.682,5.949-5.952,5.949c-3.287,0-5.951-2.65-5.951-5.949
			c0-3.291,2.664-5.96,5.951-5.96C286.587,4.639,289.269,7.308,289.269,10.599z"/>
		<path fill="#D0D2D3" d="M283.316,18.725c-11.678,0-11.803,7.68-11.803,7.68v17.157h4.139V26.404c0.083,0,0.256,0,0.344,0v18.541
			v19.916h4.67V46.18h2.65h2.651v18.682h4.669V44.945V26.404c0.088,0,0.26,0,0.344,0v17.157h4.14V26.404
			C295.12,26.404,294.994,18.725,283.316,18.725z"/>
	</g>
	<g>
		<g>
			<g>
				<path fill="#A3CCD1" d="M213.906,16.549c3.275,0,5.953-2.652,5.953-5.95c0-3.292-2.678-5.96-5.953-5.96
					c-3.299,0-5.953,2.668-5.953,5.96C207.953,13.896,210.607,16.549,213.906,16.549z"/>
			</g>
			<g>
				<path fill="#A3CCD1" d="M220,26.404c0.089,0,0.184,0,0.267,0l3.122,12.487h3.841c0,0-2.329-9.368-3.112-12.487
					c-0.773-3.066-2.9-7.064-10.078-7.064c-7.188,0-9.506,3.953-10.342,7.064c-0.834,3.104-3.112,12.487-3.112,12.487h3.849
					l3.111-12.487c0.092,0,0.173,0,0.27,0l-6.46,22.113h7.007v16.344h4.669V48.518h2.336v16.344h4.671V48.518h7.004L220,26.404z"/>
			</g>
		</g>
	</g>
	<g>
		<path fill="#D0D2D3" d="M185.154,10.599c0,3.299-2.682,5.949-5.952,5.949c-3.288,0-5.952-2.65-5.952-5.949
			c0-3.291,2.664-5.96,5.952-5.96C182.473,4.639,185.154,7.308,185.154,10.599z"/>
		<path fill="#D0D2D3" d="M179.202,18.725c-11.678,0-11.804,7.68-11.804,7.68v17.157h4.139V26.404c0.084,0,0.257,0,0.344,0v18.541
			v19.916h4.67V46.18h2.651h2.651v18.682h4.668V44.945V26.404c0.089,0,0.261,0,0.344,0v17.157h4.141V26.404
			C191.006,26.404,190.88,18.725,179.202,18.725z"/>
	</g>
	<g>
		<g>
			<g>
				<path fill="#3BC18C" d="M40.383,16.549c3.274,0,5.953-2.652,5.953-5.95c0-3.292-2.678-5.96-5.953-5.96
					c-3.299,0-5.954,2.668-5.954,5.96C34.429,13.896,37.083,16.549,40.383,16.549z"/>
			</g>
			<g>
				<path fill="#3BC18C" d="M46.476,26.404c0.088,0,0.183,0,0.267,0l3.122,12.487h3.841c0,0-2.33-9.368-3.113-12.487
					c-0.773-3.066-2.9-7.064-10.078-7.064c-7.188,0-9.505,3.953-10.342,7.064c-0.834,3.104-3.112,12.487-3.112,12.487h3.849
					l3.112-12.487c0.091,0,0.172,0,0.269,0l-6.46,22.113h7.007v16.344h4.669V48.518h2.336v16.344h4.671V48.518h7.005L46.476,26.404z
					"/>
			</g>
		</g>
	</g>
	<g>
		<g>
			<path fill="#1A90A1" d="M150.449,10.599c0,3.299-2.682,5.949-5.951,5.949c-3.288,0-5.953-2.65-5.953-5.949
				c0-3.291,2.665-5.96,5.953-5.96C147.768,4.639,150.449,7.308,150.449,10.599z"/>
			<path fill="#1A90A1" d="M144.498,18.725c-11.678,0-11.804,7.68-11.804,7.68v17.157h4.139V26.404c0.083,0,0.257,0,0.344,0v18.541
				v19.916h4.669V46.18h2.652h2.65v18.682h4.669V44.945V26.404c0.088,0,0.261,0,0.344,0v17.157h4.14V26.404
				C156.301,26.404,156.176,18.725,144.498,18.725z"/>
		</g>
	</g>
	<g>
		<g>
			<g>
				<path fill="#EA5F57" d="M75.088,16.549c3.274,0,5.952-2.652,5.952-5.95c0-3.292-2.678-5.96-5.952-5.96
					c-3.299,0-5.954,2.668-5.954,5.96C69.134,13.896,71.789,16.549,75.088,16.549z"/>
			</g>
			<g>
				<path fill="#EA5F57" d="M81.181,26.404c0.088,0,0.183,0,0.267,0l3.122,12.487h3.841c0,0-2.33-9.368-3.113-12.487
					c-0.773-3.066-2.9-7.064-10.078-7.064c-7.188,0-9.506,3.953-10.342,7.064c-0.834,3.104-3.112,12.487-3.112,12.487h3.848
					l3.112-12.487c0.091,0,0.172,0,0.269,0l-6.46,22.113h7.007v16.344h4.669V48.518h2.336v16.344h4.671V48.518h7.005L81.181,26.404z
					"/>
			</g>
		</g>
	</g>
	<g>
		<path fill="#FFDB20" d="M115.745,10.599c0,3.299-2.681,5.949-5.952,5.949c-3.288,0-5.953-2.65-5.953-5.949
			c0-3.291,2.665-5.96,5.953-5.96C113.063,4.639,115.745,7.308,115.745,10.599z"/>
		<path fill="#FFDB20" d="M109.793,18.725c-11.678,0-11.803,7.68-11.803,7.68v17.157h4.138V26.404c0.084,0,0.257,0,0.344,0v18.541
			v19.916h4.67V46.18h2.651h2.651v18.682h4.668V44.945V26.404c0.088,0,0.261,0,0.344,0v17.157h4.14V26.404
			C121.596,26.404,121.471,18.725,109.793,18.725z"/>
	</g>
</g>
</svg>
