<?xml version="1.0" encoding="utf-8"?>
<!-- Generator: Adobe Illustrator 16.0.3, SVG Export Plug-In . SVG Version: 6.00 Build 0)  -->
<!DOCTYPE svg PUBLIC "-//W3C//DTD SVG 1.1//EN" "http://www.w3.org/Graphics/SVG/1.1/DTD/svg11.dtd">
<svg version="1.1" id="Layer_1" xmlns="http://www.w3.org/2000/svg" xmlns:xlink="http://www.w3.org/1999/xlink" x="0px" y="0px"
	 width="160px" height="60px" viewBox="0 0 160 60" enable-background="new 0 0 160 60" xml:space="preserve">
<g>
	<path fill="#90C4C7" d="M153.238,3.453H6.761C3.033,3.453,0,6.485,0,10.214v42.094c0,3.724,3.033,6.752,6.761,6.752h146.478
		c3.729,0,6.762-3.028,6.762-6.752V10.214C160,6.485,156.967,3.453,153.238,3.453z"/>
	<path fill="#FFFFFF" d="M150.203,3.334H9.795c-3.573,0-6.48,2.592-6.48,5.779v35.979c0,3.182,2.908,5.771,6.48,5.771h140.408
		c3.574,0,6.481-2.589,6.481-5.771V9.114C156.685,5.926,153.777,3.334,150.203,3.334z"/>
	<g>
		<path fill="#A4DBDE" d="M21.082,14.052h3.029c0.198,0,0.36-0.163,0.36-0.354c0-0.2-0.162-0.362-0.36-0.362h-3.029
			c-0.192,0-0.357,0.162-0.357,0.362C20.725,13.889,20.89,14.052,21.082,14.052z M22.596,40.602c-0.867,0-1.574,0.709-1.574,1.579
			c0,0.868,0.707,1.575,1.574,1.575c0.871,0,1.576-0.707,1.576-1.575C24.172,41.311,23.467,40.602,22.596,40.602z M14.867,39.251
			h15.461V16.385H14.867V39.251z M64.438,31.742c-0.732,0-1.395,0.242-1.992,0.728c-0.598,0.493-0.986,1.13-1.171,1.919
			c-0.09,0.369-0.135,0.67-0.135,0.909v2.228c0,0.974,0.292,1.797,0.893,2.466c0.595,0.664,1.371,1.001,2.324,1.001
			c1.116,0,1.994-0.428,2.617-1.293c0.623-0.862,0.933-2,0.933-3.416c0-1.299-0.29-2.375-0.878-3.216
			C66.384,32.191,65.522,31.742,64.438,31.742z M118.66,31.558c-1.189,0-2.099,0.528-2.719,1.591
			c-0.538,0.875-0.802,1.942-0.802,3.206c0,1.23,0.264,2.28,0.802,3.157c0.636,1.061,1.535,1.589,2.697,1.589
			c1.13,0,2.023-0.535,2.662-1.622c0.555-0.888,0.831-1.952,0.831-3.176s-0.266-2.279-0.795-3.154
			C120.704,32.086,119.817,31.558,118.66,31.558z M79.139,31.742c-0.736,0-1.395,0.242-1.993,0.728
			c-0.596,0.493-0.988,1.13-1.173,1.919c-0.091,0.369-0.134,0.67-0.134,0.909v2.228c0,0.974,0.293,1.797,0.893,2.466
			c0.595,0.664,1.371,1.001,2.321,1.001c1.125,0,1.995-0.428,2.619-1.293c0.626-0.862,0.939-2,0.939-3.416
			c0-1.299-0.296-2.375-0.881-3.216C81.083,32.191,80.22,31.742,79.139,31.742z M48.423,26.957h-0.052
			c-0.187,0.79-0.476,1.952-0.884,3.496l-1.542,4.845h4.98l-1.562-4.845C49.195,29.955,48.879,28.79,48.423,26.957z M141.204,31.413
			c-0.97,0-1.759,0.414-2.366,1.216c-0.495,0.641-0.792,1.412-0.881,2.307h6.192c0.016-0.878-0.173-1.636-0.576-2.282
			C143.057,31.832,142.267,31.413,141.204,31.413z M61.532,18.212c0.041-0.128,0.041-0.255,0.041-0.383v-0.946
			c-1.23-0.014-2.403,0.239-2.403,1.286c0,0.68,0.438,0.992,0.989,0.992C60.866,19.16,61.361,18.707,61.532,18.212z M45.312,13.882
			c-0.185-0.581-0.34-1.23-0.481-1.782h-0.029c-0.14,0.552-0.296,1.216-0.453,1.782l-0.734,2.349h2.447L45.312,13.882z M153.238,0
			H6.761C3.033,0,0,3.033,0,6.762v42.094c0,3.724,3.033,6.752,6.761,6.752h146.478c3.729,0,6.762-3.028,6.762-6.752V6.762
			C160,3.033,156.967,0,153.238,0z M143.949,13.204c2.234,0,2.971,1.838,2.971,3.353c0,0.326-0.028,0.582-0.057,0.736h-4.612
			c0.042,1.244,1.005,1.781,2.122,1.781c0.806,0,1.373-0.125,1.91-0.31l0.254,1.188c-0.594,0.254-1.414,0.438-2.404,0.438
			c-2.235,0-3.551-1.371-3.551-3.479C140.582,15,141.741,13.204,143.949,13.204z M116.336,13.359l0.084,1.033h0.044
			c0.31-0.538,1.061-1.188,2.206-1.188c1.203,0,2.448,0.778,2.448,2.956v4.089h-1.74v-3.891c0-0.99-0.368-1.74-1.315-1.74
			c-0.693,0-1.175,0.495-1.359,1.02c-0.057,0.141-0.085,0.354-0.085,0.552v4.06h-1.739v-4.837c0-0.793-0.029-1.457-0.058-2.052
			H116.336z M98.062,13.204c2.234,0,2.972,1.838,2.972,3.353c0,0.326-0.029,0.582-0.058,0.736h-4.612
			c0.042,1.244,1.005,1.781,2.122,1.781c0.807,0,1.372-0.125,1.91-0.31l0.254,1.188c-0.594,0.254-1.414,0.438-2.404,0.438
			c-2.235,0-3.551-1.371-3.551-3.479C94.695,15,95.854,13.204,98.062,13.204z M90.931,10.205h1.738v10.044h-1.738V10.205z
			 M77.13,14.433c-0.68,0-1.387,0.214-1.854,0.511l-0.34-1.132c0.509-0.311,1.4-0.608,2.489-0.608c2.208,0,2.846,1.4,2.846,2.914
			v2.477c0,0.623,0.027,1.23,0.111,1.655h-1.57l-0.126-0.763h-0.043c-0.41,0.537-1.132,0.92-2.037,0.92
			c-1.388,0-2.165-1.005-2.165-2.052c0-1.726,1.541-2.618,4.089-2.603v-0.113C78.53,15.185,78.346,14.433,77.13,14.433z
			 M66.841,10.487c0.594,0,0.962,0.411,0.976,0.947c0,0.51-0.382,0.935-0.99,0.935c-0.581,0-0.962-0.425-0.962-0.935
			C65.864,10.898,66.261,10.487,66.841,10.487z M67.703,13.359v6.89h-1.739v-6.89H67.703z M43.77,10.713h2.221l3.098,9.535h-1.881
			l-0.862-2.703h-3.015l-0.821,2.703h-1.797L43.77,10.713z M32.181,42.333c0,1.68-1.37,3.042-3.049,3.042H16.065
			c-1.681,0-3.051-1.362-3.051-3.042V13.296c0-1.68,1.37-3.046,3.051-3.046h13.067c1.679,0,3.049,1.366,3.049,3.046V42.333z
			 M53.186,43.03l-1.732-5.445h-6.029l-1.653,5.445h-3.08l5.967-18.551h3.692l6.003,18.551H53.186z M53.861,20.249h-1.713
			l-2.561-6.89h1.882l1.116,3.495c0.199,0.608,0.34,1.16,0.468,1.727h0.043c0.127-0.566,0.283-1.105,0.467-1.727l1.104-3.495h1.825
			L53.861,20.249z M57.443,18.353c0-1.726,1.542-2.618,4.089-2.603v-0.113c0-0.453-0.185-1.204-1.401-1.204
			c-0.68,0-1.386,0.214-1.853,0.511l-0.34-1.132c0.508-0.311,1.4-0.608,2.49-0.608c2.206,0,2.844,1.4,2.844,2.914v2.477
			c0,0.623,0.027,1.23,0.112,1.655h-1.571l-0.126-0.763h-0.042c-0.411,0.537-1.133,0.92-2.038,0.92
			C58.221,20.405,57.443,19.4,57.443,18.353z M69.081,41.576c-1.104,1.169-2.482,1.757-4.122,1.757
			c-1.775,0-3.046-0.631-3.818-1.902v7.025H58.17V34.049c0-1.431-0.038-2.894-0.114-4.396h2.615l0.164,2.119h0.052
			c0.996-1.591,2.498-2.388,4.52-2.388c1.578,0,2.891,0.619,3.952,1.87c1.052,1.245,1.581,2.891,1.581,4.925
			C70.939,38.461,70.321,40.252,69.081,41.576z M72.175,20.249h-1.739V10.205h1.739V20.249z M83.777,41.576
			c-1.107,1.169-2.479,1.757-4.123,1.757c-1.771,0-3.043-0.631-3.815-1.902v7.025h-2.974V34.049c0-1.431-0.038-2.894-0.11-4.396
			h2.608l0.172,2.119h0.051c0.998-1.591,2.497-2.388,4.516-2.388c1.578,0,2.896,0.619,3.95,1.87
			c1.058,1.245,1.584,2.891,1.584,4.925C85.636,38.461,85.018,40.252,83.777,41.576z M85.819,20.405
			c-0.892,0-1.685-0.339-2.179-1.189h-0.029l-0.084,1.032h-1.485c0.028-0.467,0.057-1.229,0.057-1.938v-8.105h1.739v4.102h0.028
			c0.424-0.665,1.174-1.103,2.207-1.103c1.685,0,2.887,1.4,2.872,3.494C88.945,19.174,87.376,20.405,85.819,20.405z M100.781,41.68
			c-1.215,1.084-2.896,1.623-5.055,1.623c-2.001,0-3.601-0.387-4.808-1.154l0.689-2.477c1.303,0.767,2.732,1.156,4.289,1.156
			c1.124,0,1.993-0.255,2.617-0.756c0.621-0.502,0.934-1.176,0.934-2.031c0-0.742-0.258-1.375-0.769-1.892
			c-0.519-0.514-1.364-0.987-2.559-1.431c-3.244-1.208-4.87-2.979-4.87-5.309c0-1.523,0.567-2.774,1.716-3.746
			c1.147-0.97,2.665-1.458,4.558-1.458c1.687,0,3.091,0.296,4.213,0.879l-0.751,2.423c-1.046-0.567-2.233-0.854-3.56-0.854
			c-1.048,0-1.869,0.266-2.461,0.768c-0.493,0.465-0.742,1.025-0.742,1.684c0,0.729,0.285,1.336,0.853,1.82
			c0.497,0.438,1.396,0.913,2.694,1.426c1.602,0.637,2.772,1.395,3.527,2.26c0.75,0.862,1.128,1.933,1.128,3.216
			C102.426,39.406,101.874,40.694,100.781,41.68z M111.26,31.88h-3.28v6.502c0,1.65,0.582,2.469,1.739,2.469
			c0.532,0,0.968-0.039,1.319-0.129l0.084,2.251c-0.588,0.22-1.356,0.331-2.312,0.331c-1.168,0-2.092-0.353-2.75-1.073
			c-0.667-0.712-0.996-1.916-0.996-3.604V31.88h-1.952v-2.227h1.952v-2.448l2.915-0.881v3.329h3.28V31.88z M109.584,20.405
			c-1.938,0-3.453-1.332-3.453-3.552c0-2.263,1.486-3.65,3.565-3.65c2.052,0,3.425,1.444,3.425,3.537
			C113.121,19.273,111.338,20.405,109.584,20.405z M123.455,41.301c-1.233,1.354-2.866,2.032-4.898,2.032
			c-1.967,0-3.536-0.65-4.699-1.953c-1.164-1.3-1.744-2.949-1.744-4.928c0-2.072,0.599-3.771,1.801-5.09
			c1.204-1.326,2.818-1.978,4.855-1.978c1.971,0,3.547,0.645,4.739,1.954c1.135,1.259,1.704,2.896,1.704,4.895
			C125.213,38.294,124.63,39.975,123.455,41.301z M126.526,13.359h0.977v-1.288l1.712-0.481v1.77h1.655v1.301h-1.655v3.042
			c0,0.85,0.227,1.273,0.891,1.273c0.312,0,0.481-0.015,0.68-0.07l0.028,1.315c-0.255,0.099-0.722,0.185-1.259,0.185
			c-0.65,0-1.175-0.213-1.5-0.566c-0.382-0.396-0.552-1.033-0.552-1.938v-3.24h-0.977V13.359z M134.156,32.267
			c-0.292-0.053-0.607-0.076-0.936-0.076c-1.046,0-1.851,0.395-2.422,1.182c-0.496,0.699-0.743,1.567-0.743,2.639v7.019h-2.973
			v-9.17c0-1.533-0.026-2.937-0.079-4.208h2.587l0.11,2.561h0.082c0.31-0.878,0.803-1.587,1.485-2.115
			c0.661-0.482,1.38-0.714,2.149-0.714c0.273,0,0.522,0.015,0.738,0.05V32.267z M134.607,16.117v4.131h-1.739V10.205h1.739v4.088
			h0.028c0.212-0.325,0.51-0.594,0.863-0.778c0.354-0.199,0.764-0.312,1.203-0.312c1.174,0,2.405,0.778,2.405,2.985v4.06h-1.741
			v-3.876c0-0.991-0.368-1.755-1.329-1.755c-0.68,0-1.161,0.454-1.358,0.976C134.622,15.75,134.607,15.934,134.607,16.117z
			 M146.876,37.062h-8.919c0.035,1.32,0.466,2.326,1.295,3.021c0.75,0.625,1.722,0.938,2.915,0.938c1.324,0,2.523-0.21,3.606-0.638
			l0.468,2.067c-1.262,0.555-2.76,0.824-4.489,0.824c-2.069,0-3.698-0.607-4.881-1.826c-1.183-1.22-1.779-2.857-1.779-4.911
			c0-2.021,0.554-3.697,1.651-5.042c1.161-1.43,2.721-2.144,4.681-2.144c1.933,0,3.389,0.714,4.377,2.144
			c0.786,1.141,1.184,2.546,1.184,4.216C146.984,36.24,146.945,36.689,146.876,37.062z M85.438,14.561
			c-0.707,0-1.358,0.51-1.542,1.273c-0.029,0.127-0.058,0.283-0.058,0.453v1.118c0,0.141,0.015,0.284,0.043,0.411
			c0.184,0.706,0.792,1.217,1.542,1.217c1.09,0,1.754-0.864,1.754-2.264C87.177,15.553,86.597,14.561,85.438,14.561z M97.963,14.392
			c-1.075,0-1.527,0.976-1.599,1.683h3.027C99.405,15.438,99.123,14.392,97.963,14.392z M109.654,14.462
			c-1.231,0-1.727,1.202-1.727,2.348c0,1.331,0.665,2.335,1.713,2.335c0.99,0,1.684-0.962,1.684-2.362
			C111.324,15.708,110.843,14.462,109.654,14.462z M76.167,18.168c0,0.68,0.439,0.992,0.99,0.992c0.708,0,1.203-0.454,1.373-0.948
			c0.042-0.128,0.042-0.255,0.042-0.383v-0.946C77.342,16.869,76.167,17.122,76.167,18.168z M143.85,14.392
			c-1.075,0-1.528,0.976-1.599,1.683h3.027C145.293,15.438,145.009,14.392,143.85,14.392z"/>
	</g>
</g>
</svg>
