<?xml version="1.0" encoding="utf-8"?>
<!-- Generator: Adobe Illustrator 16.0.3, SVG Export Plug-In . SVG Version: 6.00 Build 0)  -->
<!DOCTYPE svg PUBLIC "-//W3C//DTD SVG 1.1//EN" "http://www.w3.org/Graphics/SVG/1.1/DTD/svg11.dtd">
<svg version="1.1" id="_x30_4_x5F_smoking_x5F_bear"
	 xmlns="http://www.w3.org/2000/svg" xmlns:xlink="http://www.w3.org/1999/xlink" x="0px" y="0px" width="400px" height="200px"
	 viewBox="-30 0 400 200" enable-background="new -30 0 400 200" xml:space="preserve">
<path fill="#FFFFFF" d="M105.9,97.7h-31c-1,0-1.8,0.8-1.8,1.8s0.8,1.9,1.8,1.9H77l0,0c0.1,0,0.2,0,0.3,0c2.4,0,4.3,1.9,4.3,4.3
	c0,2.4-1.9,4.3-4.3,4.3c-0.1,0-0.2,0-0.3,0l0,0H42l0,0c-2.4,0-4.3-1.9-4.3-4.3c0-2.4,1.9-4.3,4.3-4.3l0,0h19.3l0,0
	c0.1,0,0.1,0,0.2,0c1,0,1.8-0.8,1.8-1.9c0-1.1-0.8-1.8-1.8-1.8c-0.1,0-0.1,0-0.2,0l0,0h-2.4l0,0c-2.4,0-4.3-1.9-4.3-4.3
	s1.9-4.3,4.3-4.3h22.5c1,0,1.8-0.8,1.8-1.9c0-1-0.8-1.8-1.8-1.8H77l0,0c-2.4,0-4.3-1.9-4.3-4.3s1.9-4.3,4.3-4.3l0,0h45.3l0,0
	c0.1,0,0.2,0,0.3,0c2.4,0,4.3,1.9,4.3,4.3s-1.9,4.3-4.3,4.3c-0.1,0-0.2,0-0.3,0l0,0H118c-1,0-1.8,0.8-1.8,1.8s0.8,1.9,1.8,1.9h18.5
	l0,0l0,0c2.4,0,4.3,1.9,4.3,4.3s-1.9,4.3-4.3,4.3l0,0h-2"/>
<path opacity="0.7" fill="#FFFFFF" d="M238.4,149.3L238.4,149.3h-6.1l0,0c0,0,0,0-0.1,0c-0.7,0-1.3-0.6-1.3-1.4
	c0-0.7,0.6-1.3,1.3-1.3c0,0,0,0,0.1,0l0,0h1.6l0,0c1.6-0.2,2.8-1.5,2.8-3.1s-1.2-3-2.8-3.1l0,0h-33l0,0l0,0c-1.7,0-3.1,1.4-3.1,3.1
	s1.4,3.1,3.1,3.1l0,0h10.5c0.7,0,1.3,0.6,1.3,1.3c0,0.7-0.6,1.4-1.3,1.4h-6l0,0c-0.1,0-0.2,0-0.3,0c-1.7,0-3.1,1.4-3.1,3.1
	c0,1.7,1.4,3.1,3.1,3.1c0.1,0,0.2,0,0.3,0l0,0h33l0,0c1.7,0,3.1-1.4,3.1-3.1C241.5,150.7,240.1,149.3,238.4,149.3z"/>
<path opacity="0.8" fill="#FFFFFF" d="M210.6,76.4H260c1.6,0,2.9,1.3,2.9,2.9c0,1.6-1.3,3-2.9,3h-3.3l0,0c-0.2,0-0.4,0-0.5,0
	c-3.8,0-6.9,3.1-6.9,6.9c0,3.8,3.1,6.9,6.9,6.9c0.2,0,0.4,0,0.5,0l0,0h55.7l0,0c3.8,0,6.9-3.1,6.9-6.9c0-3.8-3.1-6.9-6.9-6.9l0,0
	h-30.6l0,0c-0.1,0-0.2,0-0.2,0c-1.6,0-2.9-1.3-2.9-3c0-1.6,1.3-2.9,2.9-2.9c0.1,0,0.2,0,0.2,0l0,0h3.8l0,0c3.8,0,6.9-3.1,6.9-6.9
	s-3.1-6.9-6.9-6.9h-35.8c-1.6,0-2.9-1.3-2.9-3c0-1.6,1.3-2.9,2.9-2.9h7l0,0c3.8,0,6.9-3.1,6.9-6.9c0-3.8-3.1-6.9-6.9-6.9l0,0h-72.1
	l0,0c-0.2,0-0.4,0-0.5,0c-3.8,0-6.9,3.1-6.9,6.9c0,3.8,3.1,6.9,6.9,6.9c0.2,0,0.4,0,0.5,0l0,0h6.5c1.6,0,2.9,1.3,2.9,2.9
	s-1.3,3-2.9,3h-29.4l0,0l0,0c-3.8,0-6.9,3.1-6.9,6.9s3.1,6.9,6.9,6.9l0,0h3.3"/>
</svg>
