<?xml version="1.0" encoding="utf-8"?>
<!-- Generator: Adobe Illustrator 16.0.3, SVG Export Plug-In . SVG Version: 6.00 Build 0)  -->
<!DOCTYPE svg PUBLIC "-//W3C//DTD SVG 1.1//EN" "http://www.w3.org/Graphics/SVG/1.1/DTD/svg11.dtd">
<svg version="1.1" id="_x30_4_x5F_smoking_x5F_bear"
	 xmlns="http://www.w3.org/2000/svg" xmlns:xlink="http://www.w3.org/1999/xlink" x="0px" y="0px" width="800px" height="400px"
	 viewBox="-200 -100 800 400" enable-background="new -200 -100 800 400" xml:space="preserve">
<path opacity="0.5" fill="#FFFFFF" d="M16.6,74h-44.8c-1.4,0-2.6,1.2-2.6,2.6c0,1.4,1.2,2.7,2.6,2.7h3l0,0c0.1,0,0.3,0,0.4,0
	c3.5,0,6.2,2.7,6.2,6.2c0,3.5-2.7,6.2-6.2,6.2c-0.1,0-0.3,0-0.4,0l0,0h-50.6l0,0c-3.5,0-6.2-2.7-6.2-6.2c0-3.5,2.7-6.2,6.2-6.2l0,0
	h27.9l0,0c0.1,0,0.1,0,0.3,0c1.4,0,2.6-1.2,2.6-2.7c0-1.6-1.2-2.6-2.6-2.6c-0.1,0-0.1,0-0.3,0l0,0h-3.5l0,0c-3.5,0-6.2-2.7-6.2-6.2
	c0-3.5,2.7-6.2,6.2-6.2h32.5c1.4,0,2.6-1.2,2.6-2.7c0-1.4-1.2-2.6-2.6-2.6h-6.4l0,0c-3.5,0-6.2-2.7-6.2-6.2c0-3.5,2.7-6.2,6.2-6.2
	l0,0h65.5l0,0c0.1,0,0.3,0,0.4,0c3.5,0,6.2,2.7,6.2,6.2c0,3.5-2.7,6.2-6.2,6.2c-0.1,0-0.3,0-0.4,0l0,0h-6.2c-1.4,0-2.6,1.2-2.6,2.6
	c0,1.4,1.2,2.7,2.6,2.7h26.8l0,0l0,0c3.5,0,6.2,2.7,6.2,6.2c0,3.5-2.7,6.2-6.2,6.2l0,0H58"/>
<path fill="#FFFFFF" d="M302.6,188h-49c-1.6,0-2.8,1.3-2.8,2.8s1.3,3,2.8,3h3.3l0,0c0.2,0,0.3,0,0.5,0c3.8,0,6.8,3,6.8,6.8
	c0,3.8-3,6.8-6.8,6.8c-0.2,0-0.3,0-0.5,0l0,0h-55.4l0,0c-3.8,0-6.8-3-6.8-6.8c0-3.8,3-6.8,6.8-6.8l0,0H232l0,0c0.2,0,0.2,0,0.3,0
	c1.6,0,2.8-1.3,2.8-3c0-1.7-1.3-2.8-2.8-2.8c-0.2,0-0.2,0-0.3,0l0,0h-3.8l0,0c-3.8,0-6.8-3-6.8-6.8c0-3.8,3-6.8,6.8-6.8h35.6
	c1.6,0,2.8-1.3,2.8-3c0-1.6-1.3-2.8-2.8-2.8h-7l0,0c-3.8,0-6.8-3-6.8-6.8c0-3.8,3-6.8,6.8-6.8l0,0h71.7l0,0c0.2,0,0.3,0,0.5,0
	c3.8,0,6.8,3,6.8,6.8c0,3.8-3,6.8-6.8,6.8c-0.2,0-0.3,0-0.5,0l0,0h-6.8c-1.6,0-2.8,1.3-2.8,2.8s1.3,3,2.8,3H351l0,0l0,0
	c3.8,0,6.8,3,6.8,6.8c0,3.8-3,6.8-6.8,6.8l0,0h-3.2"/>
<path opacity="0.7" fill="#FFFFFF" enable-background="new    " d="M235.3,108.6L235.3,108.6h-6.1l0,0c0,0,0,0-0.1,0
	c-0.7,0-1.3-0.6-1.3-1.4c0-0.7,0.6-1.3,1.3-1.3c0,0,0,0,0.1,0l0,0h1.6l0,0c1.6-0.2,2.8-1.5,2.8-3.1s-1.2-3-2.8-3.1l0,0h-33l0,0l0,0
	c-1.7,0-3.1,1.4-3.1,3.1s1.4,3.1,3.1,3.1l0,0h10.5c0.7,0,1.3,0.6,1.3,1.3c0,0.7-0.6,1.4-1.3,1.4h-6l0,0c-0.1,0-0.2,0-0.3,0
	c-1.7,0-3.1,1.4-3.1,3.1c0,1.7,1.4,3.1,3.1,3.1c0.1,0,0.2,0,0.3,0l0,0h33l0,0c1.7,0,3.1-1.4,3.1-3.1
	C238.4,110,237,108.6,235.3,108.6z"/>
<path opacity="0.9" fill="#FFFFFF" enable-background="new    " d="M26.4,201.7c0,3.2,2.6,5.8,5.8,5.8l0,0h61.5l0,0
	c0.2,0,0.4,0,0.6,0c3.2,0,5.8-2.6,5.8-5.8c0-3.2-2.6-5.8-5.8-5.8c-0.2,0-0.4,0-0.6,0l0,0H82.5c-1.3,0-2.4-1.3-2.4-2.6
	c0-1.3,1.1-2.4,2.4-2.4h19.6l0,0c3.2,0,5.8-2.6,5.8-5.8s-2.6-5.8-5.8-5.8l0,0l0,0H40.5l0,0c-3,0.2-5.2,2.8-5.2,5.8s2.2,5.4,5.2,5.8
	l0,0h3l0,0c0.2,0,0.2,0,0.2,0c1.3,0,2.4,1.1,2.4,2.4c0,1.5-1.1,2.6-2.4,2.6c-0.2,0-0.2,0-0.2,0l0,0H32.1l0,0
	C29,195.9,26.4,198.5,26.4,201.7z"/>
<path opacity="0.8" fill="#FFFFFF" enable-background="new    " d="M427.9,106.1H459c1,0,1.8,0.8,1.8,1.8s-0.8,1.9-1.8,1.9h-2.1l0,0
	c-0.1,0-0.3,0-0.3,0c-2.4,0-4.3,2-4.3,4.3s2,4.3,4.3,4.3c0.1,0,0.3,0,0.3,0l0,0h35l0,0c2.4,0,4.3-2,4.3-4.3s-1.9-4.3-4.3-4.3l0,0
	h-19.2l0,0c-0.1,0-0.1,0-0.1,0c-1,0-1.8-0.8-1.8-1.9c0-1,0.8-1.8,1.8-1.8c0.1,0,0.1,0,0.1,0l0,0h2.4l0,0c2.4,0,4.3-2,4.3-4.3
	c0-2.4-2-4.3-4.3-4.3h-22.5c-1,0-1.8-0.8-1.8-1.9c0-1,0.8-1.8,1.8-1.8h4.4l0,0c2.4,0,4.3-1.9,4.3-4.3s-2-4.3-4.3-4.3l0,0h-45.3l0,0
	c-0.1,0-0.3,0-0.3,0c-2.4,0-4.3,1.9-4.3,4.3s2,4.3,4.3,4.3c0.1,0,0.3,0,0.3,0l0,0h4.1c1,0,1.8,0.8,1.8,1.8c0,1-0.8,1.9-1.8,1.9
	h-18.5l0,0l0,0c-2.4,0-4.3,1.9-4.3,4.3c0,2.4,1.9,4.3,4.3,4.3l0,0h2.1"/>
<path opacity="0.8" fill="#FFFFFF" enable-background="new    " d="M244.1,17.8h60.5c2,0,3.6,1.6,3.6,3.6c0,2-1.6,3.7-3.6,3.7h-4
	l0,0c-0.2,0-0.5,0-0.6,0c-4.7,0-8.5,3.8-8.5,8.5c0,4.7,3.8,8.5,8.5,8.5c0.2,0,0.5,0,0.6,0l0,0h68.2l0,0c4.7,0,8.5-3.8,8.5-8.5
	c0-4.7-3.8-8.5-8.5-8.5l0,0h-37.5l0,0c-0.1,0-0.2,0-0.2,0c-2,0-3.6-1.6-3.6-3.7c0-2,1.6-3.6,3.6-3.6c0.1,0,0.2,0,0.2,0l0,0h4.7l0,0
	c4.7,0,8.5-3.8,8.5-8.5c0-4.7-3.8-8.5-8.5-8.5h-43.9c-2,0-3.6-1.6-3.6-3.7c0-2,1.6-3.6,3.6-3.6h8.6l0,0c4.7,0,8.5-3.8,8.5-8.5
	c0-4.7-3.8-8.5-8.5-8.5l0,0h-88.3l0,0c-0.2,0-0.5,0-0.6,0c-4.7,0-8.5,3.8-8.5,8.5c0,4.7,3.8,8.5,8.5,8.5c0.2,0,0.5,0,0.6,0l0,0h8
	c2,0,3.6,1.6,3.6,3.6c0,2-1.6,3.7-3.6,3.7h-36l0,0l0,0c-4.7,0-8.5,3.8-8.5,8.5c0,4.7,3.8,8.5,8.5,8.5l0,0h4"/>
</svg>
