<?xml version="1.0" encoding="utf-8"?>
<!-- Generator: Adobe Illustrator 16.0.3, SVG Export Plug-In . SVG Version: 6.00 Build 0)  -->
<!DOCTYPE svg PUBLIC "-//W3C//DTD SVG 1.1//EN" "http://www.w3.org/Graphics/SVG/1.1/DTD/svg11.dtd">
<svg version="1.1" id="Layer_1" xmlns="http://www.w3.org/2000/svg" xmlns:xlink="http://www.w3.org/1999/xlink" x="0px" y="0px"
	 width="640px" height="480px" viewBox="0 0 640 480" enable-background="new 0 0 640 480" xml:space="preserve">
<ellipse opacity="3.000000e-02" fill="#111E20" cx="133.3" cy="437.1" rx="35.7" ry="5.9"/>
<line fill="none" stroke="#A3BDC1" stroke-width="2.1559" stroke-miterlimit="10" x1="68.4" y1="421.3" x2="103.9" y2="421.3"/>
<rect x="99.6" y="418.9" fill="#5C868D" width="4.9" height="5.2"/>
<g>
	<path fill="#5C868D" d="M163.8,436.6c0,0.3-0.2,0.5-0.5,0.5h-60.7c-0.3,0-0.5-0.2-0.5-0.5v-28.4c0-0.3,0.2-0.5,0.5-0.5h60.7
		c0.3,0,0.5,0.2,0.5,0.5V436.6z"/>
</g>
<g>
	<path fill="#A3BDC1" d="M163.8,434.4c0,0.3-0.2,0.5-0.5,0.5h-60.7c-0.3,0-0.5-0.2-0.5-0.5V406c0-0.3,0.2-0.5,0.5-0.5h60.7
		c0.3,0,0.5,0.2,0.5,0.5V434.4z"/>
</g>
<g>
	<path fill="#2B4C59" d="M160.3,431c0,0.3-0.2,0.5-0.5,0.5h-53.7c-0.3,0-0.5-0.2-0.5-0.5v-21.6c0-0.3,0.2-0.5,0.5-0.5h53.7
		c0.3,0,0.5,0.2,0.5,0.5V431z"/>
</g>
<g opacity="0.5">
	<path fill="#A3BDC1" d="M140.8,408.6v1.3c0,0.6-0.5,1.1-1.1,1.1h-13.7c-0.6,0-1.1-0.5-1.1-1.1v-1.3"/>
</g>
<g opacity="0.5">
	<path fill="#A3BDC1" d="M140.8,432.1v-1.8c0-0.6-0.5-1.1-1.1-1.1h-13.7c-0.6,0-1.1,0.5-1.1,1.1v1.3"/>
</g>
<g opacity="0.5">
	<path fill="#A3BDC1" d="M139.8,412c0.6,0,1.1,0.5,1.1,1.1v1.6c0,0.6-0.5,1.1-1.1,1.1h-13.7c-0.6,0-1.1-0.5-1.1-1.1v-1.6
		c0-0.6,0.5-1.1,1.1-1.1H139.8z"/>
</g>
<g>
	<path fill="#FFFFFF" d="M140.3,422.5c0.3,0,0.5,0.2,0.5,0.5v4.2c0,0.3-0.2,0.5-0.5,0.5h-14.7c-0.3,0-0.5-0.2-0.5-0.5V423
		c0-0.3,0.2-0.5,0.5-0.5H140.3z"/>
</g>
<g>
	<path fill="#20363D" d="M131.4,425.5c0,0.3-0.2,0.5-0.5,0.5h-4.1c-0.3,0-0.5-0.2-0.5-0.5v-0.7c0-0.3,0.2-0.5,0.5-0.5h4.1
		c0.3,0,0.5,0.2,0.5,0.5V425.5z"/>
</g>
<g>
	<path fill="#20363D" d="M139.7,425.5c0,0.3-0.2,0.5-0.5,0.5H135c-0.3,0-0.5-0.2-0.5-0.5v-0.7c0-0.3,0.2-0.5,0.5-0.5h4.1
		c0.3,0,0.5,0.2,0.5,0.5V425.5z"/>
</g>
<g opacity="0.5">
	<path fill="#A3BDC1" d="M139.8,417.4c0.6,0,1.1,0.5,1.1,1.1v1.6c0,0.6-0.5,1.1-1.1,1.1h-13.7c-0.6,0-1.1-0.5-1.1-1.1v-1.6
		c0-0.6,0.5-1.1,1.1-1.1H139.8z"/>
</g>
<g>
	<polygon fill="#FFFFFF" points="121.2,417.3 117.3,417.3 117.3,413.4 113.1,413.4 113.1,417.3 109.2,417.3 109.2,421.5 
		113.1,421.5 113.1,425.4 117.3,425.4 117.3,421.5 121.2,421.5 	"/>
</g>
<g>
	<polygon fill="#20363D" points="120.6,417.8 116.8,417.8 116.8,413.9 113.6,413.9 113.6,417.8 109.7,417.8 109.7,420.9 
		113.6,420.9 113.6,424.8 116.8,424.8 116.8,420.9 120.6,420.9 	"/>
</g>
<g>
	<path fill="#FFFFFF" d="M150.4,427.3c0,0.3-0.2,0.5-0.5,0.5h-4.2c-0.3,0-0.5-0.2-0.5-0.5V423c0-0.3,0.2-0.5,0.5-0.5h4.2
		c0.3,0,0.5,0.2,0.5,0.5V427.3z"/>
</g>
<circle fill="#EC6158" cx="147.8" cy="425.2" r="1.8"/>
<g>
	<path fill="#FFFFFF" d="M157.5,427.3c0,0.3-0.2,0.5-0.5,0.5h-4.2c-0.3,0-0.5-0.2-0.5-0.5V423c0-0.3,0.2-0.5,0.5-0.5h4.2
		c0.3,0,0.5,0.2,0.5,0.5V427.3z"/>
</g>
<circle fill="#EC6158" cx="154.8" cy="425.2" r="1.8"/>
<rect x="145.1" y="413.7" fill="#EC6158" width="9.7" height="1.3"/>
<path fill="none" stroke="#A3BDC1" stroke-width="2.1559" stroke-miterlimit="10" d="M69.2,421.3c-6.3,0-11.4-5.1-11.4-11.4
	s5.1-11.4,11.4-11.4"/>
<line fill="none" stroke="#A3BDC1" stroke-width="2.1559" stroke-miterlimit="10" x1="104.3" y1="398.5" x2="68.8" y2="398.5"/>
<path fill="none" stroke="#A3BDC1" stroke-width="2.1559" stroke-miterlimit="10" d="M103.5,398.5c6.3,0,11.4-5.1,11.4-11.4
	s-5.1-11.4-11.4-11.4"/>
<line fill="none" stroke="#A3BDC1" stroke-width="2.1559" stroke-miterlimit="10" x1="103.5" y1="375.8" x2="36.6" y2="375.8"/>
<path fill="none" stroke="#A3BDC1" stroke-width="2.1559" stroke-miterlimit="10" d="M36.9,375.8c-12.7,0-23-10.3-23-23
	c0-12.7,10.3-23,23-23"/>
<line fill="none" stroke="#A3BDC1" stroke-width="2.1559" stroke-miterlimit="10" x1="72.1" y1="329.8" x2="36.6" y2="329.8"/>
<line fill="none" stroke="#A3BDC1" stroke-width="2.1559" stroke-miterlimit="10" x1="59.4" y1="321" x2="95" y2="321"/>
<path fill="none" stroke="#A3BDC1" stroke-width="2.1559" stroke-miterlimit="10" d="M60.2,321c-11.6,0-21.1-9.5-21.1-21.2
	c0-11.7,9.4-21.2,21.1-21.2"/>
<path fill="none" stroke="#A3BDC1" stroke-width="2.1559" stroke-miterlimit="10" d="M183.5,278.7c10.5,0,19.1-8.6,19.1-19.1
	c0-10.5-8.6-19.1-19.1-19.1"/>
<line fill="none" stroke="#A3BDC1" stroke-width="2.1559" stroke-miterlimit="10" x1="183.8" y1="240.5" x2="166.3" y2="240.5"/>
<line fill="none" stroke="#A3BDC1" stroke-width="2.1559" stroke-miterlimit="10" x1="183.8" y1="278.7" x2="60" y2="278.7"/>
<path fill="none" stroke="#A3BDC1" stroke-width="2.1559" stroke-miterlimit="10" d="M166.7,240.5c-6.3,0-11.4-5.1-11.4-11.4
	c0-6.3,5.1-11.4,11.4-11.4"/>
<line fill="none" stroke="#A3BDC1" stroke-width="2.1559" stroke-miterlimit="10" x1="318.1" y1="217.7" x2="166.2" y2="217.7"/>
<ellipse opacity="3.000000e-02" fill="#111E20" cx="131.2" cy="350.9" rx="66.3" ry="8.9"/>
<rect x="67.3" y="327.2" fill="#5C868D" width="4.9" height="5.2"/>
<rect x="67.3" y="318.5" fill="#5C868D" width="4.9" height="5.2"/>
<polygon fill="#5C868D" points="189.9,350.9 74.5,350.9 69.2,334.2 195.3,334.2 "/>
<rect x="69.2" y="313.9" fill="#A3BDC1" width="126.1" height="20.3"/>
<polyline fill="none" stroke="#FFFFFF" stroke-width="1.078" stroke-miterlimit="10" points="188.1,313.9 188.1,323 76.3,323 
	76.3,313.9 "/>
<rect x="146.6" y="313.9" fill="#2B4C59" width="25" height="37"/>
<rect x="76.3" y="340.9" fill="#FFFFFF" width="9.8" height="3.8"/>
<rect x="87.7" y="340.9" fill="#FFFFFF" width="9.8" height="3.8"/>
<rect x="149.3" y="340.9" opacity="0.1" fill="#FFFFFF" width="8" height="3.6"/>
<rect x="161" y="340.9" opacity="0.1" fill="#FFFFFF" width="8" height="3.6"/>
<rect x="88.2" y="341.3" fill="#A3BDC1" width="8.7" height="3"/>
<rect x="161.9" y="341.7" fill="#20363D" width="6.3" height="2"/>
<rect x="150.1" y="341.7" fill="#20363D" width="6.4" height="2"/>
<rect x="76.9" y="341.3" fill="#A3BDC1" width="8.7" height="3"/>
<ellipse opacity="3.000000e-02" fill="#111E20" cx="327.3" cy="248.8" rx="104.6" ry="12.3"/>
<rect x="329.7" y="57.9" transform="matrix(-0.8863 -0.4631 0.4631 -0.8863 576.3315 345.6706)" fill="#A3BDC1" width="1.8" height="88.3"/>
<circle fill="#A3BDC1" cx="351.3" cy="62.5" r="2.1"/>
<rect x="310" y="34.5" transform="matrix(0.8864 -0.4629 0.4629 0.8864 -1.0865 152.8465)" fill="#A3BDC1" width="1.8" height="88.3"/>
<circle fill="#A3BDC1" cx="290.2" cy="39" r="2.1"/>
<polygon fill="#2B4C59" points="235.9,247.8 417.7,247.8 422.4,232.7 231.2,232.7 "/>
<rect x="311.9" y="106.7" fill="#2B4C59" width="31" height="3.4"/>
<polygon opacity="0.4" fill="#20363D" points="235.9,247.8 326.8,247.7 326.8,232.7 231.2,232.7 "/>
<rect x="311.9" y="106.7" opacity="0.4" fill="#20363D" width="16.1" height="3.4"/>
<g id="base_1_">
	<path fill="#5C868D" d="M226.6,239.3c0,1.8,1.5,3.2,3.2,3.2h194.3c1.8,0,3.2-1.5,3.2-3.2v-126c0-1.8-1.5-3.2-3.2-3.2H229.8
		c-1.8,0-3.2,1.5-3.2,3.2V239.3z"/>
</g>
<g id="base_5_" opacity="0.1">
	<path fill="#2B4C59" d="M327.1,110.1h-97.3c-1.8,0-3.2,1.5-3.2,3.2v126c0,1.8,1.5,3.2,3.2,3.2h97.3"/>
</g>
<g>
	<path fill="#FFFFFF" d="M382,224.6c0,3-2.4,5.4-5.4,5.4h-136c-3,0-5.4-2.4-5.4-5.4V123.6c0-3,2.4-5.4,5.4-5.4h136
		c3,0,5.4,2.4,5.4,5.4V224.6z"/>
</g>
<g opacity="0.97">
	<path fill="#84D0D3" d="M378.8,222c0,3-2.4,5.4-5.4,5.4H243.9c-3,0-5.4-2.4-5.4-5.4v-95.8c0-3,2.4-5.4,5.4-5.4h129.5
		c3,0,5.4,2.4,5.4,5.4V222z"/>
</g>
<g opacity="0.2">
	<path fill="#E5F3F4" d="M297.7,120.8h75.7c3,0,5.4,2.4,5.4,5.4V222c0,3-1.7,5.4-3.7,5.4c-2.1,0-3.7,0-3.7,0"/>
</g>
<g>
	<path fill="#A3BDC1" d="M421.8,226.7c0,1.8-1.5,3.2-3.2,3.2H391c-1.8,0-3.2-1.5-3.2-3.2v-71.4c0-1.8,1.5-3.2,3.2-3.2h27.6
		c1.8,0,3.2,1.5,3.2,3.2V226.7z"/>
</g>
<circle fill="#2B4C59" cx="390.9" cy="154.9" r="0.9"/>
<circle fill="#2B4C59" cx="418.4" cy="154.9" r="0.9"/>
<circle fill="#2B4C59" cx="390.9" cy="227.1" r="0.9"/>
<circle fill="#2B4C59" cx="418.4" cy="227.1" r="0.9"/>
<g>
	<path fill="#A3BDC1" d="M421.8,121c0,0.8-0.7,1.4-1.6,1.4h-30.8c-0.9,0-1.6-0.6-1.6-1.4s0.7-1.4,1.6-1.4h30.8
		C421,119.6,421.8,120.2,421.8,121z"/>
</g>
<g>
	<path fill="#A3BDC1" d="M421.8,126.1c0,0.8-0.7,1.4-1.6,1.4h-30.8c-0.9,0-1.6-0.6-1.6-1.4c0-0.8,0.7-1.4,1.6-1.4h30.8
		C421,124.7,421.8,125.3,421.8,126.1z"/>
</g>
<g>
	<path fill="#A3BDC1" d="M421.8,131.1c0,0.8-0.7,1.4-1.6,1.4h-30.8c-0.9,0-1.6-0.6-1.6-1.4s0.7-1.4,1.6-1.4h30.8
		C421,129.7,421.8,130.4,421.8,131.1z"/>
</g>
<g>
	<path fill="#A3BDC1" d="M421.8,136.2c0,0.8-0.7,1.4-1.6,1.4h-30.8c-0.9,0-1.6-0.6-1.6-1.4c0-0.8,0.7-1.4,1.6-1.4h30.8
		C421,134.8,421.8,135.4,421.8,136.2z"/>
</g>
<g>
	<path fill="#A3BDC1" d="M421.8,141.2c0,0.8-0.7,1.4-1.6,1.4h-30.8c-0.9,0-1.6-0.6-1.6-1.4s0.7-1.4,1.6-1.4h30.8
		C421,139.9,421.8,140.5,421.8,141.2z"/>
</g>
<g>
	<path fill="#A3BDC1" d="M421.8,146.3c0,0.8-0.7,1.4-1.6,1.4h-30.8c-0.9,0-1.6-0.6-1.6-1.4c0-0.8,0.7-1.4,1.6-1.4h30.8
		C421,144.9,421.8,145.5,421.8,146.3z"/>
</g>
<g>
	
		<circle fill="none" stroke="#2C4B58" stroke-width="2.1559" stroke-miterlimit="10" stroke-dasharray="0.5216,4.1731" cx="404.7" cy="165" r="9"/>
</g>
<circle fill="#FFFFFF" cx="404.7" cy="165" r="7.1"/>
<circle fill="#EC6158" cx="404.7" cy="165" r="5.8"/>
<g>
	<path fill="#FFFFFF" d="M408.4,169.3c0.3,0.5,0.1,1.2-0.4,1.5c-0.5,0.3-1.2,0.1-1.5-0.4l-5.5-9.6c-0.3-0.5-0.1-1.2,0.4-1.5
		s1.2-0.1,1.5,0.4L408.4,169.3z"/>
</g>
<g>
	<path fill="#2B4C59" d="M402.8,161c0.1,0.1,0,0.3-0.1,0.4c-0.1,0.1-0.3,0-0.3-0.1l-0.9-1.5c-0.1-0.1,0-0.3,0.1-0.4
		c0.1-0.1,0.3,0,0.3,0.1L402.8,161z"/>
</g>
<g>
	
		<circle fill="none" stroke="#2C4B58" stroke-width="2.1559" stroke-miterlimit="10" stroke-dasharray="0.5216,4.1731" cx="404.7" cy="188" r="9"/>
</g>
<circle fill="#FFFFFF" cx="404.7" cy="188" r="7.1"/>
<circle opacity="0.97" fill="#84D0D3" cx="404.7" cy="188" r="5.8"/>
<g>
	<path fill="#FFFFFF" d="M402.7,193.2c-0.3,0.5-1,0.7-1.5,0.4c-0.5-0.3-0.6-1-0.3-1.5l5.9-9.4c0.3-0.5,1-0.7,1.5-0.4
		c0.5,0.3,0.6,1,0.3,1.5L402.7,193.2z"/>
</g>
<g>
	<path fill="#2B4C59" d="M407.3,184.4c-0.1,0.1-0.2,0.2-0.3,0.1c-0.1-0.1-0.1-0.2-0.1-0.4l0.9-1.5c0.1-0.1,0.2-0.2,0.3-0.1
		c0.1,0.1,0.1,0.2,0.1,0.4L407.3,184.4z"/>
</g>
<circle fill="#FFFFFF" cx="396.6" cy="209.2" r="2.8"/>
<circle fill="#EC6158" cx="396.6" cy="209.2" r="1.9"/>
<circle fill="#FFFFFF" cx="404.9" cy="209.2" r="2.8"/>
<circle opacity="0.97" fill="#84D0D3" cx="404.9" cy="209.2" r="1.9"/>
<circle fill="#FFFFFF" cx="413.2" cy="209.2" r="2.8"/>
<circle fill="#EC6158" cx="413.2" cy="209.2" r="1.9"/>
<circle fill="#FFFFFF" cx="396.6" cy="217" r="2.8"/>
<circle fill="#EC6158" cx="396.6" cy="217" r="1.9"/>
<circle fill="#FFFFFF" cx="404.9" cy="217" r="2.8"/>
<circle fill="#EC6158" cx="404.9" cy="217" r="1.9"/>
<circle fill="#FFFFFF" cx="413.2" cy="217" r="2.8"/>
<circle fill="#FCC921" cx="413.2" cy="217" r="1.9"/>
</svg>
