<?xml version="1.0" encoding="utf-8"?>
<!-- Generator: Adobe Illustrator 16.0.3, SVG Export Plug-In . SVG Version: 6.00 Build 0)  -->
<!DOCTYPE svg PUBLIC "-//W3C//DTD SVG 1.1//EN" "http://www.w3.org/Graphics/SVG/1.1/DTD/svg11.dtd">
<svg version="1.1" id="Layer_1" xmlns="http://www.w3.org/2000/svg" xmlns:xlink="http://www.w3.org/1999/xlink" x="0px" y="0px"
	 width="400px" height="400px" viewBox="0 0 400 400" enable-background="new 0 0 400 400" xml:space="preserve">
<g opacity="4.000000e-02">
	<path id="_x34__1_" fill="#FFFFFF" d="M96,109.6c0.1,0,0.1,0,0.2,0l0,0h27.4l0,0c4.1-0.4,7.3-3.9,7.3-8.1s-3.2-7.7-7.3-8.1l0,0h-85
		l0,0l0,0c-4.5,0-8.1,3.6-8.1,8.1s3.6,8.1,8.1,8.1l0,0l0,0h3.8c1.9,0,3.4,1.5,3.4,3.4s-1.5,3.5-3.4,3.5H19.2l0,0c-0.2,0-0.4,0-0.6,0
		c-4.5,0-8.1,3.6-8.1,8.1s3.6,8.1,8.1,8.1c0.2,0,0.4,0,0.6,0l0,0h7.7c1.9,0,3.4,1.5,3.4,3.4s-1.5,3.5-3.4,3.5H11.5l0,0
		c-0.2,0-0.4,0-0.6,0c-4.5,0-8.1,3.6-8.1,8.1s3.6,8.1,8.1,8.1c0.2,0,0.4,0,0.6,0l0,0h107.4l0,0c4.5,0,8.1-3.6,8.1-8.1
		s-3.6-8.1-8.1-8.1H96c-1.9,0-3.4-1.6-3.4-3.5s1.5-3.4,3.4-3.4h8.3l0,0c4.5,0,8.1-3.6,8.1-8.1s-3.6-8.1-8.1-8.1l0,0h-8.1l0,0
		c-0.1,0-0.1,0-0.2,0c-1.9,0-3.4-1.6-3.4-3.5S94.1,109.6,96,109.6z"/>
	<path id="_x33__2_" fill="#FFFFFF" d="M186.3,222.2L186.3,222.2h-15.8l0,0c-0.1,0-0.1,0-0.2,0c-1.9,0-3.4-1.6-3.4-3.5
		c0-1.9,1.5-3.4,3.4-3.4c0.1,0,0.1,0,0.2,0l0,0h4.2l0,0c4.1-0.4,7.3-3.9,7.3-8.1s-3.2-7.7-7.3-8.1l0,0h-85l0,0l0,0
		c-4.5,0-8.1,3.6-8.1,8.1s3.6,8.1,8.1,8.1l0,0h27c1.9,0,3.4,1.5,3.4,3.4c0,1.9-1.5,3.5-3.4,3.5h-15.4l0,0c-0.2,0-0.4,0-0.6,0
		c-4.5,0-8.1,3.6-8.1,8.1s3.6,8.1,8.1,8.1c0.2,0,0.4,0,0.6,0l0,0h85l0,0c4.5,0,8.1-3.6,8.1-8.1S190.7,222.2,186.3,222.2z"/>
	<path id="_x33__3_" fill="#FFFFFF" d="M347.9,114.8L347.9,114.8h-12.6l0,0h-0.1c-1.5,0-2.7,1.3-2.7,2.8s1.2,2.7,2.7,2.7h0.1l0,0
		h3.4l0,0c3.3,0.3,5.8,3.1,5.8,6.4c0,3.3-2.5,6.1-5.8,6.4l0,0h-67.5l0,0l0,0c-3.6,0-6.4-2.9-6.4-6.4c0-3.6,2.9-6.4,6.4-6.4l0,0h21.4
		c1.5,0,2.7-1.2,2.7-2.7s-1.2-2.8-2.7-2.8h-12.2l0,0c-0.2,0-0.3,0-0.5,0c-3.6,0-6.4-2.9-6.4-6.4c0-3.6,2.9-6.4,6.4-6.4
		c0.2,0,0.3,0,0.5,0l0,0h67.5l0,0c3.6,0,6.4,2.9,6.4,6.4S351.4,114.8,347.9,114.8z"/>
	<path id="_x34__2_" fill="#FFFFFF" d="M362.4,260.3c0.1,0,0.1,0,0.2,0l0,0H390l0,0c4.1-0.4,7.3-3.9,7.3-8.1s-3.2-7.7-7.3-8.1l0,0
		h-85l0,0l0,0c-4.5,0-8.1,3.6-8.1,8.1s3.6,8.1,8.1,8.1l0,0l0,0h3.8c1.9,0,3.5,1.5,3.5,3.5s-1.5,3.5-3.5,3.5h-23.1l0,0
		c-0.2,0-0.4,0-0.6,0c-4.5,0-8.1,3.6-8.1,8.1s3.6,8.1,8.1,8.1c0.2,0,0.4,0,0.6,0l0,0h7.7c1.9,0,3.4,1.5,3.4,3.4
		c0,1.9-1.5,3.5-3.4,3.5H278l0,0c-0.2,0-0.4,0-0.6,0c-4.5,0-8.1,3.6-8.1,8.1s3.6,8.1,8.1,8.1c0.2,0,0.4,0,0.6,0l0,0h107.4l0,0
		c4.5,0,8.1-3.6,8.1-8.1s-3.6-8.1-8.1-8.1h-22.9c-1.9,0-3.4-1.6-3.4-3.5c0-1.9,1.5-3.4,3.4-3.4h8.3l0,0c4.5,0,8.1-3.6,8.1-8.1
		s-3.6-8.1-8.1-8.1l0,0h-8.1l0,0c-0.1,0-0.1,0-0.2,0c-1.9,0-3.4-1.6-3.4-3.5C359.1,261.9,360.5,260.3,362.4,260.3z"/>
</g>
</svg>
