<?xml version="1.0" encoding="utf-8"?>
<!-- Generator: Adobe Illustrator 16.0.3, SVG Export Plug-In . SVG Version: 6.00 Build 0)  -->
<!DOCTYPE svg PUBLIC "-//W3C//DTD SVG 1.1//EN" "http://www.w3.org/Graphics/SVG/1.1/DTD/svg11.dtd">
<svg version="1.1" id="Layer_1" xmlns="http://www.w3.org/2000/svg" xmlns:xlink="http://www.w3.org/1999/xlink" x="0px" y="0px"
	 width="440px" height="440px" viewBox="0 0 440 440" enable-background="new 0 0 440 440" xml:space="preserve">
<path fill="#FFFFFF" d="M278.1,292.2h49.5c1.6,0,2.9,1.3,2.9,2.9c0,1.6-1.3,3-2.9,3h-3.3v0c-0.2,0-0.4,0-0.5,0
	c-3.8,0-6.9,3.1-6.9,6.9s3.1,6.9,6.9,6.9c0.2,0,0.4,0,0.5,0v0h55.9l0,0c3.8,0,6.9-3.1,6.9-6.9c0-3.8-3.1-6.9-6.9-6.9v0h-30.7v0
	c-0.1,0-0.2,0-0.2,0c-1.6,0-2.9-1.4-2.9-3c0-1.6,1.3-2.9,2.9-2.9c0.1,0,0.2,0,0.2,0v0h3.8l0,0c3.8,0,6.9-3.1,6.9-6.9
	c0-3.8-3.1-6.9-6.9-6.9h-35.9c-1.6,0-2.9-1.4-2.9-3s1.3-2.9,2.9-2.9h7v0c3.8,0,6.9-3.1,6.9-6.9c0-3.8-3.1-6.9-6.9-6.9l0,0h-72.3v0
	c-0.2,0-0.4,0-0.5,0c-3.8,0-6.9,3.1-6.9,6.9s3.1,6.9,6.9,6.9c0.2,0,0.4,0,0.5,0v0h6.5c1.6,0,2.9,1.3,2.9,2.9s-1.3,3-2.9,3h-29.5v0h0
	c-3.8,0-6.9,3.1-6.9,6.9s3.1,6.9,6.9,6.9h0h3.3"/>
</svg>
