<?xml version="1.0" encoding="utf-8"?>
<!-- Generator: Adobe Illustrator 16.0.3, SVG Export Plug-In . SVG Version: 6.00 Build 0)  -->
<!DOCTYPE svg PUBLIC "-//W3C//DTD SVG 1.1//EN" "http://www.w3.org/Graphics/SVG/1.1/DTD/svg11.dtd">
<svg version="1.1" id="Layer_1" xmlns="http://www.w3.org/2000/svg" xmlns:xlink="http://www.w3.org/1999/xlink" x="0px" y="0px"
	 width="400px" height="400px" viewBox="0 0 400 400" enable-background="new 0 0 400 400" xml:space="preserve">
<path fill="#FFFFFF" d="M280.6,313.2h49.5c1.6,0,2.9,1.3,2.9,2.9c0,1.6-1.3,3-2.9,3h-3.3v0c-0.2,0-0.4,0-0.5,0
	c-3.8,0-6.9,3.1-6.9,6.9s3.1,6.9,6.9,6.9c0.2,0,0.4,0,0.5,0v0h55.9l0,0c3.8,0,6.9-3.1,6.9-6.9c0-3.8-3.1-6.9-6.9-6.9v0h-30.7v0
	c-0.1,0-0.2,0-0.2,0c-1.6,0-2.9-1.4-2.9-3c0-1.6,1.3-2.9,2.9-2.9c0.1,0,0.2,0,0.2,0v0h3.8l0,0c3.8,0,6.9-3.1,6.9-6.9
	c0-3.8-3.1-6.9-6.9-6.9H320c-1.6,0-2.9-1.4-2.9-3s1.3-2.9,2.9-2.9h7v0c3.8,0,6.9-3.1,6.9-6.9c0-3.8-3.1-6.9-6.9-6.9l0,0h-72.3v0
	c-0.2,0-0.4,0-0.5,0c-3.8,0-6.9,3.1-6.9,6.9s3.1,6.9,6.9,6.9c0.2,0,0.4,0,0.5,0v0h6.5c1.6,0,2.9,1.3,2.9,2.9s-1.3,3-2.9,3h-29.5v0h0
	c-3.8,0-6.9,3.1-6.9,6.9s3.1,6.9,6.9,6.9h0h3.3"/>
<path fill="#FFFFFF" d="M264.8,247.3h-79c-2.6,0-4.7,2.1-4.7,4.7c0,2.6,2.1,4.7,4.7,4.7h5.2v0c0.3,0,0.6,0,0.9,0c6.1,0,11,4.9,11,11
	c0,6.1-4.9,11-11,11c-0.3,0-0.6,0-0.9,0v0h-89.2l0,0c-6.1,0-11-4.9-11-11c0-6.1,4.9-11,11-11v0h49v0c0.1,0,0.3,0,0.4,0
	c2.6,0,4.7-2.2,4.7-4.7c0-2.6-2.1-4.7-4.7-4.7c-0.1,0-0.3,0-0.4,0v0h-6.1v0c-6.1,0-11-4.9-11-11s4.9-11,11-11H202
	c2.6,0,4.7-2.2,4.7-4.7s-2.1-4.7-4.7-4.7h-11.2v0c-6.1,0-11-4.9-11-11s4.9-11,11-11l0,0h115.3v0c0.3,0,0.6,0,0.9,0
	c6.1,0,11,4.9,11,11s-4.9,11-11,11c-0.3,0-0.6,0-0.9,0v0h-10.4c-2.6,0-4.7,2.1-4.7,4.7s2.1,4.7,4.7,4.7h47.1l0,0h0
	c6.1,0,11,4.9,11,11c0,6.1-4.9,11-11,11h0h-5.2"/>
<path fill="#FFFFFF" d="M105.7,197.1L105.7,197.1H91.3v0c-0.1,0-0.1,0-0.2,0c-1.7,0-3.1-1.4-3.1-3.2c0-1.7,1.4-3.1,3.1-3.1
	c0.1,0,0.1,0,0.2,0v0h3.9v0c3.7-0.4,6.6-3.5,6.6-7.3c0-3.8-2.9-7-6.6-7.3v0H17.7v0l0,0c-4.1,0-7.4,3.3-7.4,7.4
	c0,4.1,3.3,7.4,7.4,7.4l0,0h24.6c1.7,0,3.1,1.4,3.1,3.1c0,1.7-1.4,3.2-3.1,3.2h-14v0c-0.2,0-0.4,0-0.6,0c-4.1,0-7.4,3.3-7.4,7.4
	s3.3,7.4,7.4,7.4c0.2,0,0.4,0,0.6,0v0h77.4v0c4.1,0,7.4-3.3,7.4-7.4C113.1,200.4,109.8,197.1,105.7,197.1z"/>
<path fill="#FFFFFF" d="M130.3,122.6L130.3,122.6l18.9,0v0c0.1,0,0.1,0,0.2,0c2.3,0,4.1-1.9,4.1-4.2c0-2.3-1.8-4.1-4.1-4.1
	c-0.1,0-0.1,0-0.2,0v0h-5.1v0c-4.9-0.5-8.7-4.6-8.7-9.6c0-5,3.8-9.1,8.7-9.6v0h101.5v0l0,0c5.3,0,9.7,4.3,9.7,9.7
	c0,5.3-4.3,9.7-9.7,9.7l0,0h-32.2c-2.3,0-4.1,1.8-4.1,4.1c0,2.3,1.8,4.2,4.1,4.2h18.4v0c0.3,0,0.5,0,0.8,0c5.3,0,9.7,4.3,9.7,9.7
	c0,5.3-4.3,9.7-9.7,9.7c-0.3,0-0.5,0-0.8,0v0H130.3v0c-5.3,0-9.7-4.3-9.7-9.7C120.6,126.9,124.9,122.6,130.3,122.6z"/>
<path fill="#FFFFFF" d="M106.8,69.4L106.8,69.4l-12.2,0v0c0,0-0.1,0-0.1,0c-1.5,0-2.7-1.2-2.7-2.7c0-1.5,1.2-2.7,2.7-2.7
	c0,0,0.1,0,0.1,0v0h3.3v0c3.2-0.3,5.6-3,5.6-6.2c0-3.2-2.5-5.9-5.6-6.2v0H32.2v0l0,0c-3.5,0-6.3,2.8-6.3,6.3c0,3.5,2.8,6.3,6.3,6.3
	l0,0h20.8c1.5,0,2.7,1.2,2.7,2.7c0,1.5-1.2,2.7-2.7,2.7H41.2v0c-0.2,0-0.3,0-0.5,0c-3.5,0-6.2,2.8-6.2,6.3c0,3.5,2.8,6.3,6.2,6.3
	c0.2,0,0.3,0,0.5,0v0h65.6v0c3.5,0,6.3-2.8,6.3-6.3C113.1,72.2,110.3,69.4,106.8,69.4z"/>
</svg>
