<?xml version="1.0" encoding="utf-8"?>
<!-- Generator: Adobe Illustrator 16.0.3, SVG Export Plug-In . SVG Version: 6.00 Build 0)  -->
<!DOCTYPE svg PUBLIC "-//W3C//DTD SVG 1.1//EN" "http://www.w3.org/Graphics/SVG/1.1/DTD/svg11.dtd">
<svg version="1.1" id="Layer_1" xmlns="http://www.w3.org/2000/svg" xmlns:xlink="http://www.w3.org/1999/xlink" x="0px" y="0px"
	 width="440px" height="440px" viewBox="0 0 440 440" enable-background="new 0 0 440 440" xml:space="preserve">
<path fill="#FFFFFF" d="M262.3,226.3h-79c-2.6,0-4.7,2.1-4.7,4.7c0,2.6,2.1,4.7,4.7,4.7h5.2v0c0.3,0,0.6,0,0.9,0c6.1,0,11,4.9,11,11
	c0,6.1-4.9,11-11,11c-0.3,0-0.6,0-0.9,0v0H99.3l0,0c-6.1,0-11-4.9-11-11c0-6.1,4.9-11,11-11v0h49v0c0.1,0,0.3,0,0.4,0
	c2.6,0,4.7-2.2,4.7-4.7c0-2.6-2.1-4.7-4.7-4.7c-0.1,0-0.3,0-0.4,0v0h-6.1v0c-6.1,0-11-4.9-11-11s4.9-11,11-11h57.2
	c2.6,0,4.7-2.2,4.7-4.7s-2.1-4.7-4.7-4.7h-11.2v0c-6.1,0-11-4.9-11-11s4.9-11,11-11l0,0h115.3v0c0.3,0,0.6,0,0.9,0
	c6.1,0,11,4.9,11,11s-4.9,11-11,11c-0.3,0-0.6,0-0.9,0v0h-10.4c-2.6,0-4.7,2.1-4.7,4.7s2.1,4.7,4.7,4.7h47.1l0,0h0
	c6.1,0,11,4.9,11,11c0,6.1-4.9,11-11,11h0H335"/>
</svg>
