<?xml version="1.0" encoding="utf-8"?>
<!-- Generator: Adobe Illustrator 16.0.3, SVG Export Plug-In . SVG Version: 6.00 Build 0)  -->
<!DOCTYPE svg PUBLIC "-//W3C//DTD SVG 1.1//EN" "http://www.w3.org/Graphics/SVG/1.1/DTD/svg11.dtd">
<svg version="1.1" id="Layer_1" xmlns="http://www.w3.org/2000/svg" xmlns:xlink="http://www.w3.org/1999/xlink" x="0px" y="0px"
	 width="440px" height="440px" viewBox="0 0 440 440" enable-background="new 0 0 440 440" xml:space="preserve">
<path fill="#FFFFFF" d="M104.3,48.4L104.3,48.4l-12.2,0v0c0,0-0.1,0-0.1,0c-1.5,0-2.7-1.2-2.7-2.7c0-1.5,1.2-2.7,2.7-2.7
	c0,0,0.1,0,0.1,0v0h3.3v0c3.2-0.3,5.6-3,5.6-6.2c0-3.2-2.5-5.9-5.6-6.2v0H29.7v0l0,0c-3.5,0-6.3,2.8-6.3,6.3c0,3.5,2.8,6.3,6.3,6.3
	l0,0h20.8c1.5,0,2.7,1.2,2.7,2.7c0,1.5-1.2,2.7-2.7,2.7H38.7v0c-0.2,0-0.3,0-0.5,0c-3.5,0-6.2,2.8-6.2,6.3c0,3.5,2.8,6.3,6.2,6.3
	c0.2,0,0.3,0,0.5,0v0h65.6v0c3.5,0,6.3-2.8,6.3-6.3C110.6,51.2,107.8,48.4,104.3,48.4z"/>
</svg>
