<?xml version="1.0" encoding="utf-8"?>
<!-- Generator: Adobe Illustrator 16.0.3, SVG Export Plug-In . SVG Version: 6.00 Build 0)  -->
<!DOCTYPE svg PUBLIC "-//W3C//DTD SVG 1.1//EN" "http://www.w3.org/Graphics/SVG/1.1/DTD/svg11.dtd">
<svg version="1.1" id="Layer_1" xmlns="http://www.w3.org/2000/svg" xmlns:xlink="http://www.w3.org/1999/xlink" x="0px" y="0px"
	 width="440px" height="440px" viewBox="0 0 440 440" enable-background="new 0 0 440 440" xml:space="preserve">
<path fill="#FFFFFF" d="M103.2,176.1L103.2,176.1H88.8v0c-0.1,0-0.1,0-0.2,0c-1.7,0-3.1-1.4-3.1-3.2c0-1.7,1.4-3.1,3.1-3.1
	c0.1,0,0.1,0,0.2,0v0h3.9v0c3.7-0.4,6.6-3.5,6.6-7.3c0-3.8-2.9-7-6.6-7.3v0H15.2v0l0,0c-4.1,0-7.4,3.3-7.4,7.4
	c0,4.1,3.3,7.4,7.4,7.4l0,0h24.6c1.7,0,3.1,1.4,3.1,3.1c0,1.7-1.4,3.2-3.1,3.2h-14v0c-0.2,0-0.4,0-0.6,0c-4.1,0-7.4,3.3-7.4,7.4
	s3.3,7.4,7.4,7.4c0.2,0,0.4,0,0.6,0v0h77.4v0c4.1,0,7.4-3.3,7.4-7.4C110.6,179.4,107.2,176.1,103.2,176.1z"/>
</svg>
