<?xml version="1.0" encoding="utf-8"?>
<!-- Generator: Adobe Illustrator 16.0.3, SVG Export Plug-In . SVG Version: 6.00 Build 0)  -->
<!DOCTYPE svg PUBLIC "-//W3C//DTD SVG 1.1//EN" "http://www.w3.org/Graphics/SVG/1.1/DTD/svg11.dtd">
<svg version="1.1" id="Layer_1" xmlns="http://www.w3.org/2000/svg" xmlns:xlink="http://www.w3.org/1999/xlink" x="0px" y="0px"
	 width="440px" height="440px" viewBox="0 0 440 440" enable-background="new 0 0 440 440" xml:space="preserve">
<path fill="#FFFFFF" d="M426.4,351.6L426.4,351.6h-8l0,0h-0.1c-1,0-1.7-0.8-1.7-1.8s0.8-1.7,1.7-1.7h0.1l0,0h2.1l0,0
	c2.1-0.2,3.7-1.9,3.7-4.1c0-2.1-1.6-3.8-3.7-4.1l0,0h-42.7l0,0l0,0c-2.2,0-4.1,1.8-4.1,4.1c0,2.2,1.8,4.1,4.1,4.1l0,0h13.6
	c1,0,1.7,0.8,1.7,1.7c0,1-0.8,1.8-1.7,1.8h-7.8l0,0c-0.1,0-0.2,0-0.3,0c-2.2,0-4.1,1.8-4.1,4.1c0,2.3,1.8,4.1,4.1,4.1
	c0.1,0,0.2,0,0.3,0l0,0h42.8l0,0c2.2,0,4.1-1.8,4.1-4.1C430.5,353.4,428.6,351.6,426.4,351.6z"/>
</svg>
