<?xml version="1.0" encoding="utf-8"?>
<!-- Generator: Adobe Illustrator 16.0.3, SVG Export Plug-In . SVG Version: 6.00 Build 0)  -->
<!DOCTYPE svg PUBLIC "-//W3C//DTD SVG 1.1//EN" "http://www.w3.org/Graphics/SVG/1.1/DTD/svg11.dtd">
<svg version="1.1" id="Layer_1" xmlns="http://www.w3.org/2000/svg" xmlns:xlink="http://www.w3.org/1999/xlink" x="0px" y="0px"
	 width="440px" height="440px" viewBox="0 0 440 440" enable-background="new 0 0 440 440" xml:space="preserve">
<path fill="#FFFFFF" d="M127.8,101.6L127.8,101.6l18.9,0v0c0.1,0,0.1,0,0.2,0c2.3,0,4.1-1.9,4.1-4.2c0-2.3-1.8-4.1-4.1-4.1
	c-0.1,0-0.1,0-0.2,0v0h-5.1v0c-4.9-0.5-8.7-4.6-8.7-9.6c0-5,3.8-9.1,8.7-9.6v0h101.5v0l0,0c5.3,0,9.7,4.3,9.7,9.7
	c0,5.3-4.3,9.7-9.7,9.7l0,0h-32.2c-2.3,0-4.1,1.8-4.1,4.1c0,2.3,1.8,4.2,4.1,4.2h18.4v0c0.3,0,0.5,0,0.8,0c5.3,0,9.7,4.3,9.7,9.7
	c0,5.3-4.3,9.7-9.7,9.7c-0.3,0-0.5,0-0.8,0v0H127.8v0c-5.3,0-9.7-4.3-9.7-9.7C118.1,105.9,122.4,101.6,127.8,101.6z"/>
</svg>
