<?xml version="1.0" encoding="utf-8"?>
<!-- Generator: Adobe Illustrator 16.0.3, SVG Export Plug-In . SVG Version: 6.00 Build 0)  -->
<!DOCTYPE svg PUBLIC "-//W3C//DTD SVG 1.1//EN" "http://www.w3.org/Graphics/SVG/1.1/DTD/svg11.dtd">
<svg version="1.1" id="Layer_1" xmlns="http://www.w3.org/2000/svg" xmlns:xlink="http://www.w3.org/1999/xlink" x="0px" y="0px"
	 width="440px" height="440px" viewBox="0 0 440 440" enable-background="new 0 0 440 440" xml:space="preserve">
<path fill="#FFFFFF" d="M278.1,292.2h49.5c1.6,0,2.9,1.3,2.9,2.9c0,1.6-1.3,3-2.9,3h-3.3v0c-0.2,0-0.4,0-0.5,0
	c-3.8,0-6.9,3.1-6.9,6.9s3.1,6.9,6.9,6.9c0.2,0,0.4,0,0.5,0v0h55.9l0,0c3.8,0,6.9-3.1,6.9-6.9c0-3.8-3.1-6.9-6.9-6.9v0h-30.7v0
	c-0.1,0-0.2,0-0.2,0c-1.6,0-2.9-1.4-2.9-3c0-1.6,1.3-2.9,2.9-2.9c0.1,0,0.2,0,0.2,0v0h3.8l0,0c3.8,0,6.9-3.1,6.9-6.9
	c0-3.8-3.1-6.9-6.9-6.9h-35.9c-1.6,0-2.9-1.4-2.9-3s1.3-2.9,2.9-2.9h7v0c3.8,0,6.9-3.1,6.9-6.9c0-3.8-3.1-6.9-6.9-6.9l0,0h-72.3v0
	c-0.2,0-0.4,0-0.5,0c-3.8,0-6.9,3.1-6.9,6.9s3.1,6.9,6.9,6.9c0.2,0,0.4,0,0.5,0v0h6.5c1.6,0,2.9,1.3,2.9,2.9s-1.3,3-2.9,3h-29.5v0h0
	c-3.8,0-6.9,3.1-6.9,6.9s3.1,6.9,6.9,6.9h0h3.3"/>
<path fill="#FFFFFF" d="M262.3,226.3h-79c-2.6,0-4.7,2.1-4.7,4.7c0,2.6,2.1,4.7,4.7,4.7h5.2v0c0.3,0,0.6,0,0.9,0c6.1,0,11,4.9,11,11
	c0,6.1-4.9,11-11,11c-0.3,0-0.6,0-0.9,0v0H99.3l0,0c-6.1,0-11-4.9-11-11c0-6.1,4.9-11,11-11v0h49v0c0.1,0,0.3,0,0.4,0
	c2.6,0,4.7-2.2,4.7-4.7c0-2.6-2.1-4.7-4.7-4.7c-0.1,0-0.3,0-0.4,0v0h-6.1v0c-6.1,0-11-4.9-11-11s4.9-11,11-11h57.2
	c2.6,0,4.7-2.2,4.7-4.7s-2.1-4.7-4.7-4.7h-11.2v0c-6.1,0-11-4.9-11-11s4.9-11,11-11l0,0h115.3v0c0.3,0,0.6,0,0.9,0
	c6.1,0,11,4.9,11,11s-4.9,11-11,11c-0.3,0-0.6,0-0.9,0v0h-10.4c-2.6,0-4.7,2.1-4.7,4.7s2.1,4.7,4.7,4.7h47.1l0,0h0
	c6.1,0,11,4.9,11,11c0,6.1-4.9,11-11,11h0H335"/>
<path fill="#FFFFFF" d="M103.2,176.1L103.2,176.1H88.8v0c-0.1,0-0.1,0-0.2,0c-1.7,0-3.1-1.4-3.1-3.2c0-1.7,1.4-3.1,3.1-3.1
	c0.1,0,0.1,0,0.2,0v0h3.9v0c3.7-0.4,6.6-3.5,6.6-7.3c0-3.8-2.9-7-6.6-7.3v0H15.2v0l0,0c-4.1,0-7.4,3.3-7.4,7.4
	c0,4.1,3.3,7.4,7.4,7.4l0,0h24.6c1.7,0,3.1,1.4,3.1,3.1c0,1.7-1.4,3.2-3.1,3.2h-14v0c-0.2,0-0.4,0-0.6,0c-4.1,0-7.4,3.3-7.4,7.4
	s3.3,7.4,7.4,7.4c0.2,0,0.4,0,0.6,0v0h77.4v0c4.1,0,7.4-3.3,7.4-7.4C110.6,179.4,107.2,176.1,103.2,176.1z"/>
<path fill="#FFFFFF" d="M127.8,101.6L127.8,101.6l18.9,0v0c0.1,0,0.1,0,0.2,0c2.3,0,4.1-1.9,4.1-4.2c0-2.3-1.8-4.1-4.1-4.1
	c-0.1,0-0.1,0-0.2,0v0h-5.1v0c-4.9-0.5-8.7-4.6-8.7-9.6c0-5,3.8-9.1,8.7-9.6v0h101.5v0l0,0c5.3,0,9.7,4.3,9.7,9.7
	c0,5.3-4.3,9.7-9.7,9.7l0,0h-32.2c-2.3,0-4.1,1.8-4.1,4.1c0,2.3,1.8,4.2,4.1,4.2h18.4v0c0.3,0,0.5,0,0.8,0c5.3,0,9.7,4.3,9.7,9.7
	c0,5.3-4.3,9.7-9.7,9.7c-0.3,0-0.5,0-0.8,0v0H127.8v0c-5.3,0-9.7-4.3-9.7-9.7C118.1,105.9,122.4,101.6,127.8,101.6z"/>
<path fill="#FFFFFF" d="M104.3,48.4L104.3,48.4l-12.2,0v0c0,0-0.1,0-0.1,0c-1.5,0-2.7-1.2-2.7-2.7c0-1.5,1.2-2.7,2.7-2.7
	c0,0,0.1,0,0.1,0v0h3.3v0c3.2-0.3,5.6-3,5.6-6.2c0-3.2-2.5-5.9-5.6-6.2v0H29.7v0l0,0c-3.5,0-6.3,2.8-6.3,6.3c0,3.5,2.8,6.3,6.3,6.3
	l0,0h20.8c1.5,0,2.7,1.2,2.7,2.7c0,1.5-1.2,2.7-2.7,2.7H38.7v0c-0.2,0-0.3,0-0.5,0c-3.5,0-6.2,2.8-6.2,6.3c0,3.5,2.8,6.3,6.2,6.3
	c0.2,0,0.3,0,0.5,0v0h65.6v0c3.5,0,6.3-2.8,6.3-6.3C110.6,51.2,107.8,48.4,104.3,48.4z"/>
<path fill="#FFFFFF" d="M368.8,396.4h-39.3c-1.3,0-2.3,1-2.3,2.3c0,1.3,1,2.4,2.3,2.4h2.6l0,0c0.1,0,0.3,0,0.4,0
	c3,0,5.5,2.4,5.5,5.5c0,3-2.4,5.5-5.5,5.5c-0.1,0-0.3,0-0.4,0l0,0h-44.3l0,0c-3,0-5.5-2.4-5.5-5.5c0-3,2.4-5.5,5.5-5.5l0,0h24.4l0,0
	c0.1,0,0.1,0,0.2,0c1.3,0,2.3-1.1,2.3-2.4c0-1.3-1-2.3-2.3-2.3c-0.1,0-0.1,0-0.2,0l0,0h-3l0,0c-3,0-5.5-2.4-5.5-5.5
	c0-3,2.4-5.5,5.5-5.5h28.5c1.3,0,2.3-1.1,2.3-2.4c0-1.3-1-2.3-2.3-2.3h-5.6l0,0c-3,0-5.5-2.4-5.5-5.5c0-3.1,2.4-5.5,5.5-5.5l0,0
	h57.4l0,0c0.1,0,0.3,0,0.4,0c3,0,5.5,2.4,5.5,5.5c0,3.1-2.4,5.5-5.5,5.5c-0.1,0-0.3,0-0.4,0l0,0h-5.2c-1.3,0-2.3,1-2.3,2.3
	c0,1.3,1,2.4,2.3,2.4h23.4l0,0l0,0c3,0,5.5,2.4,5.5,5.5c0,3.1-2.4,5.5-5.5,5.5l0,0h-2.6"/>
<path fill="#FFFFFF" d="M426.4,351.6L426.4,351.6h-8l0,0h-0.1c-1,0-1.7-0.8-1.7-1.8s0.8-1.7,1.7-1.7h0.1l0,0h2.1l0,0
	c2.1-0.2,3.7-1.9,3.7-4.1c0-2.1-1.6-3.8-3.7-4.1l0,0h-42.7l0,0l0,0c-2.2,0-4.1,1.8-4.1,4.1c0,2.2,1.8,4.1,4.1,4.1l0,0h13.6
	c1,0,1.7,0.8,1.7,1.7c0,1-0.8,1.8-1.7,1.8h-7.8l0,0c-0.1,0-0.2,0-0.3,0c-2.2,0-4.1,1.8-4.1,4.1c0,2.3,1.8,4.1,4.1,4.1
	c0.1,0,0.2,0,0.3,0l0,0h42.8l0,0c2.2,0,4.1-1.8,4.1-4.1C430.5,353.4,428.6,351.6,426.4,351.6z"/>
</svg>
