<?xml version="1.0" encoding="utf-8"?>
<!-- Generator: Adobe Illustrator 16.0.3, SVG Export Plug-In . SVG Version: 6.00 Build 0)  -->
<!DOCTYPE svg PUBLIC "-//W3C//DTD SVG 1.1//EN" "http://www.w3.org/Graphics/SVG/1.1/DTD/svg11.dtd">
<svg version="1.1" id="Layer_1" xmlns="http://www.w3.org/2000/svg" xmlns:xlink="http://www.w3.org/1999/xlink" x="0px" y="0px"
	 width="220px" height="220px" viewBox="0 0 220 220" enable-background="new 0 0 220 220" xml:space="preserve">
<g>
	<ellipse opacity="0.03" fill="#111E20" cx="109.479" cy="186.473" rx="100.323" ry="6.952"/>
	<rect x="41.602" y="139.957" fill="#3B636C" width="4.576" height="46.516"/>
	<polygon fill="#3B636C" points="75.772,160.109 12.007,160.109 43.89,49.179 43.89,49.179 	"/>
	<polygon opacity="0.2" fill="#29434C" points="43.891,160.109 12.007,160.109 43.89,49.179 43.89,49.179 	"/>
	<ellipse fill="#3B636C" cx="51.86" cy="160.152" rx="7.971" ry="7.822"/>
	<ellipse fill="#3B636C" cx="67.802" cy="160.152" rx="7.971" ry="7.823"/>
	<line opacity="0.5" fill="#20363D" x1="75.771" y1="144.854" x2="75.772" y2="144.854"/>
	<line opacity="0.5" fill="#20363D" x1="59.83" y1="144.854" x2="59.832" y2="144.854"/>
	<rect x="138.013" y="139.957" fill="#3B636C" width="4.576" height="46.516"/>
	<polygon fill="#A8C3C6" points="172.184,169.237 108.418,169.237 140.301,49.179 140.301,49.179 	"/>
	<line opacity="0.5" fill="#20363D" x1="172.182" y1="144.854" x2="172.184" y2="144.854"/>
	<line opacity="0.5" fill="#20363D" x1="156.24" y1="144.854" x2="156.243" y2="144.854"/>
	<polygon opacity="0.1" fill="#5C868D" points="140.301,169.237 108.418,169.237 140.301,49.179 140.301,49.179 	"/>
	<rect x="88.281" y="112.498" fill="#3B636C" width="4.577" height="55.668"/>
	<polygon fill="#5C868D" points="122.453,160.109 58.687,160.109 90.57,26.268 90.57,26.268 	"/>
	<ellipse fill="#5C868D" cx="66.658" cy="117.438" rx="7.971" ry="7.823"/>
	<ellipse fill="#5C868D" cx="98.541" cy="141.846" rx="7.971" ry="7.823"/>
	<ellipse fill="#5C868D" cx="114.482" cy="141.846" rx="7.971" ry="7.823"/>
	<line opacity="0.5" fill="#20363D" x1="122.451" y1="117.396" x2="122.453" y2="117.396"/>
	<line opacity="0.5" fill="#20363D" x1="106.51" y1="117.396" x2="106.512" y2="117.396"/>
	<polygon opacity="0.1" fill="#3B636C" points="90.57,160.656 58.687,160.109 90.57,26.268 90.57,26.268 	"/>
	<rect x="177.676" y="161.314" fill="#3B636C" width="4.576" height="25.158"/>
	<polygon fill="#5C868D" points="200.65,175.899 159.277,175.899 180.243,96.49 180.243,96.49 	"/>
	<line opacity="0.5" fill="#20363D" x1="199.459" y1="169.797" x2="199.461" y2="169.797"/>
	<polygon opacity="0.1" fill="#3B636C" points="179.963,175.418 159.277,175.899 180.243,96.49 180.243,96.49 	"/>
	<rect x="62.958" y="152.161" fill="#3B636C" width="4.576" height="34.312"/>
	<polygon fill="#A8C3C6" points="97.129,172.312 33.364,172.312 64.934,83.35 64.934,83.35 	"/>
	<line opacity="0.5" fill="#20363D" x1="97.128" y1="172.312" x2="97.129" y2="172.312"/>
	<line opacity="0.5" fill="#20363D" x1="81.187" y1="172.312" x2="81.189" y2="172.312"/>
	<polygon opacity="0.1" fill="#5C868D" points="65.247,172.312 33.364,172.312 64.934,83.35 64.934,83.35 	"/>
	<rect x="114.825" y="130.804" fill="#3B636C" width="4.576" height="55.669"/>
	<polygon fill="#3B636C" points="148.996,177.956 85.23,177.956 116.972,75.112 116.972,75.112 	"/>
	<ellipse fill="#3B636C" cx="109.142" cy="150.998" rx="7.97" ry="7.823"/>
	<line opacity="0.5" fill="#20363D" x1="148.995" y1="150.955" x2="148.996" y2="154.007"/>
	<line opacity="0.5" fill="#20363D" x1="133.054" y1="150.955" x2="133.056" y2="150.955"/>
	<polygon opacity="0.2" fill="#29434C" points="117.112,177.956 85.23,177.956 116.972,75.112 116.972,75.112 	"/>
	<rect x="29.092" y="164.365" fill="#3B636C" width="4.577" height="22.107"/>
	<polygon fill="#5C868D" points="52.067,178.951 10.694,178.951 31.381,120.572 31.381,120.572 	"/>
	<line opacity="0.5" fill="#20363D" x1="151.13" y1="169.262" x2="151.131" y2="169.262"/>
	<line opacity="0.5" fill="#20363D" x1="111.286" y1="178.951" x2="111.287" y2="178.951"/>
	<polygon opacity="0.1" fill="#3B636C" points="31.381,178.951 10.694,178.951 31.381,120.572 31.381,120.572 	"/>
</g>
</svg>
