<?xml version="1.0" encoding="utf-8"?>
<!-- Generator: Adobe Illustrator 16.0.3, SVG Export Plug-In . SVG Version: 6.00 Build 0)  -->
<!DOCTYPE svg PUBLIC "-//W3C//DTD SVG 1.1//EN" "http://www.w3.org/Graphics/SVG/1.1/DTD/svg11.dtd">
<svg version="1.1" id="Layer_1" xmlns="http://www.w3.org/2000/svg" xmlns:xlink="http://www.w3.org/1999/xlink" x="0px" y="0px"
	 width="60px" height="60px" viewBox="0 0 60 60" enable-background="new 0 0 60 60" xml:space="preserve">
<path fill="#A4DBDE" d="M53.755,15.25c-1.748,0.776-3.628,1.3-5.599,1.535c2.013-1.206,3.561-3.115,4.286-5.392
	c-1.881,1.117-3.966,1.929-6.188,2.366c-1.779-1.896-4.313-3.079-7.116-3.079c-5.383,0-9.748,4.365-9.748,9.747
	c0,0.766,0.086,1.508,0.252,2.221c-8.101-0.405-15.281-4.285-20.091-10.185c-0.837,1.442-1.318,3.116-1.318,4.902
	c0,3.381,1.72,6.366,4.334,8.113c-1.596-0.049-3.099-0.491-4.414-1.219v0.123c0,4.722,3.361,8.662,7.818,9.557
	c-0.816,0.223-1.68,0.345-2.568,0.345c-0.626,0-1.238-0.063-1.833-0.178c1.24,3.873,4.839,6.689,9.104,6.771
	c-3.334,2.613-7.536,4.172-12.105,4.172c-0.786,0-1.561-0.048-2.323-0.137c4.312,2.763,9.437,4.378,14.943,4.378
	c17.928,0,27.731-14.85,27.731-27.732c0-0.421-0.011-0.842-0.026-1.263C50.794,18.923,52.445,17.206,53.755,15.25z"/>
</svg>
