<?xml version="1.0" encoding="utf-8"?>
<!-- Generator: Adobe Illustrator 16.0.3, SVG Export Plug-In . SVG Version: 6.00 Build 0)  -->
<!DOCTYPE svg PUBLIC "-//W3C//DTD SVG 1.1//EN" "http://www.w3.org/Graphics/SVG/1.1/DTD/svg11.dtd">
<svg version="1.1" id="Layer_1" xmlns="http://www.w3.org/2000/svg" xmlns:xlink="http://www.w3.org/1999/xlink" x="0px" y="0px"
	 width="60px" height="60px" viewBox="0 0 60 60" enable-background="new 0 0 60 60" xml:space="preserve">
<g>
	<path id="gift" fill="#A4DBDE" d="M27.168,30.054H6.729V19.261h21.923v10.792H27.168z M31.351,57.581l18.677,0.001l0.007-25.437
		H31.352L31.351,57.581L31.351,57.581z M31.351,19.261v10.792h21.921V19.261H31.351z M28.651,32.146H9.965l0.01,25.437h18.676
		V32.146z"/>
	<g>
		<g>
			<path fill="#A4DBDE" d="M15.402,17.79h-0.005c-0.868,0-1.85-0.398-2.918-1.185C8.967,14.21,8.051,9.359,10.468,5.814
				c1.451-2.127,3.856-3.396,6.434-3.396c1.567,0,3.081,0.468,4.379,1.354c0.078,0.053,0.158,0.111,0.237,0.17
				c0.635,0.467,1.2,1.034,1.669,1.678c2.833,3.523,4.929,9.422,5.017,9.671l0.868,2.464L15.402,17.79z M16.902,6.126
				c-1.351,0-2.61,0.665-3.37,1.778c-1.265,1.855-0.786,4.394,1.069,5.66c0.472,0.346,0.766,0.48,0.874,0.517l8.245-0.021
				c-0.812-1.874-2.059-4.422-3.477-6.188c-0.298-0.406-0.594-0.702-0.932-0.951l-0.118-0.086
				C18.512,6.371,17.72,6.126,16.902,6.126z"/>
		</g>
	</g>
	<g>
		<g>
			<path fill="#A4DBDE" d="M44.603,17.79l-13.675-0.034l0.867-2.464c0.088-0.249,2.185-6.148,5.071-9.741
				c0.412-0.572,0.979-1.141,1.628-1.617c0.065-0.049,0.143-0.106,0.22-0.159c1.303-0.889,2.817-1.356,4.384-1.356
				c2.578,0,4.982,1.27,6.434,3.396c2.417,3.544,1.501,8.395-2.042,10.813C46.445,17.393,45.466,17.79,44.603,17.79z M36.281,14.061
				l8.242,0.021c0.086-0.029,0.355-0.138,0.801-0.463c1.93-1.319,2.409-3.858,1.144-5.714c-0.759-1.113-2.02-1.777-3.37-1.777
				c-0.817,0-1.609,0.245-2.289,0.708l-0.109,0.08c-0.35,0.257-0.645,0.553-0.887,0.886C38.36,9.609,37.1,12.178,36.281,14.061z"/>
		</g>
	</g>
</g>
</svg>
