<?xml version="1.0" encoding="utf-8"?>
<!-- Generator: Adobe Illustrator 16.0.3, SVG Export Plug-In . SVG Version: 6.00 Build 0)  -->
<!DOCTYPE svg PUBLIC "-//W3C//DTD SVG 1.1//EN" "http://www.w3.org/Graphics/SVG/1.1/DTD/svg11.dtd">
<svg version="1.1" id="dark" xmlns="http://www.w3.org/2000/svg" xmlns:xlink="http://www.w3.org/1999/xlink" x="0px" y="0px"
	 width="800px" height="600px" viewBox="0 0 800 600" enable-background="new 0 0 800 600" xml:space="preserve">
<g id="sky" opacity="0.2">
	<g display="none">
		
			<rect x="-26.4" y="-426.9" transform="matrix(0.7071 -0.7071 0.7071 0.7071 284.5222 -138.3027)" display="inline" fill="#A4BEC1" width="3.5" height="28.5"/>
		
			<rect x="-26.4" y="-426.9" transform="matrix(-0.7071 -0.7071 0.7071 -0.7071 249.6123 -721.8074)" display="inline" fill="#A4BEC1" width="3.5" height="28.5"/>
	</g>
	<g>
		<circle fill="#A4BEC1" cx="728.3" cy="187.3" r="2"/>
		<circle fill="#A4BEC1" cx="632.8" cy="115.2" r="2"/>
		<circle fill="#A4BEC1" cx="667" cy="262.2" r="2"/>
		<circle fill="#A4BEC1" cx="532.5" cy="228.8" r="2"/>
		<circle fill="#A4BEC1" cx="587.9" cy="426.3" r="2"/>
		<circle fill="#A4BEC1" cx="435.6" cy="345.5" r="2"/>
		<circle fill="#A4BEC1" cx="344.6" cy="181.4" r="2"/>
		<circle fill="#A4BEC1" cx="487" cy="137.9" r="2"/>
		<circle fill="#A4BEC1" cx="263.6" cy="454.2" r="2"/>
		<circle fill="#A4BEC1" cx="119.3" cy="355.4" r="2"/>
		<circle fill="#A4BEC1" cx="170.7" cy="260.5" r="2"/>
		<circle fill="#A4BEC1" cx="158.8" cy="94.4" r="2"/>
		<circle fill="#A4BEC1" cx="421.7" cy="576.8" r="2"/>
		<circle fill="#A4BEC1" cx="627.3" cy="588.6" r="2"/>
		<circle fill="#A4BEC1" cx="712.3" cy="485.8" r="2"/>
		<circle fill="#A4BEC1" cx="747.9" cy="375.1" r="2"/>
		<circle fill="#A4BEC1" cx="747.9" cy="159.6" r="2"/>
		<circle fill="#A4BEC1" cx="518.6" cy="98.4" r="2"/>
		<circle fill="#A4BEC1" cx="224.1" cy="15.3" r="2"/>
		<circle fill="#A4BEC1" cx="147" cy="230.8" r="2"/>
		<circle fill="#A4BEC1" cx="20.4" cy="209.1" r="2"/>
		<circle fill="#A4BEC1" cx="46.1" cy="347.4" r="2"/>
		<circle fill="#A4BEC1" cx="85.7" cy="468" r="2"/>
		<circle fill="#A4BEC1" cx="196.4" cy="456.2" r="2"/>
		<circle fill="#A4BEC1" cx="313" cy="497.5" r="2"/>
		<circle fill="#A4BEC1" cx="295.2" cy="385" r="2"/>
		<circle fill="#A4BEC1" cx="332.8" cy="284.2" r="2"/>
		<circle fill="#A4BEC1" cx="317" cy="236.7" r="2"/>
		<circle fill="#A4BEC1" cx="364.4" cy="11.4" r="2"/>
		<circle fill="#A4BEC1" cx="500.8" cy="394.9" r="2"/>
		<circle fill="#A4BEC1" cx="413.8" cy="456.2" r="2"/>
		<circle fill="#A4BEC1" cx="222.1" cy="311.9" r="2"/>
		<circle fill="#A4BEC1" cx="265.6" cy="215" r="2"/>
		<circle fill="#A4BEC1" cx="285.3" cy="141.8" r="2"/>
		<circle fill="#A4BEC1" cx="143" cy="35.1" r="2"/>
		<circle fill="#A4BEC1" cx="520.6" cy="296" r="2"/>
		<circle fill="#A4BEC1" cx="568" cy="143.8" r="2"/>
		<circle fill="#A4BEC1" cx="593.7" cy="74.6" r="2"/>
		<circle fill="#A4BEC1" cx="726.2" cy="88.5" r="2"/>
		<circle fill="#A4BEC1" cx="779.6" cy="76.6" r="2"/>
		<circle fill="#A4BEC1" cx="712.3" cy="450.2" r="2"/>
		<circle fill="#A4BEC1" cx="593.7" cy="454.2" r="2"/>
		<circle fill="#A4BEC1" cx="538.4" cy="487.8" r="2"/>
		<circle fill="#A4BEC1" cx="663" cy="358.1" r="2"/>
		<circle fill="#A4BEC1" cx="775.6" cy="276.1" r="2"/>
		<circle fill="#A4BEC1" cx="775.6" cy="535" r="2"/>
		<circle fill="#A4BEC1" cx="431.6" cy="228.8" r="2"/>
		<circle fill="#A4BEC1" cx="447.6" cy="52.7" r="2"/>
		<circle fill="#A4BEC1" cx="611.7" cy="200" r="2"/>
		<circle fill="#A4BEC1" cx="337.9" cy="428.3" r="2"/>
		<circle fill="#A4BEC1" cx="194.4" cy="542" r="2"/>
		<circle fill="#A4BEC1" cx="168.7" cy="405.6" r="2"/>
		<circle fill="#A4BEC1" cx="42.2" cy="535" r="2"/>
		<circle fill="#A4BEC1" cx="65" cy="92.4" r="2"/>
		<circle fill="#A4BEC1" cx="330.8" cy="78.6" r="2"/>
		<circle fill="#A4BEC1" cx="166.7" cy="154.5" r="2"/>
		<circle fill="#A4BEC1" cx="519.7" cy="15.3" r="2"/>
		<circle fill="#A4BEC1" cx="683.8" cy="19.3" r="2"/>
		<ellipse fill="#A4BEC1" cx="351.7" cy="294" rx="2" ry="2.5"/>
	</g>
</g>
</svg>
