<?xml version="1.0" encoding="utf-8"?>
<!-- Generator: Adobe Illustrator 16.0.3, SVG Export Plug-In . SVG Version: 6.00 Build 0)  -->
<!DOCTYPE svg PUBLIC "-//W3C//DTD SVG 1.1//EN" "http://www.w3.org/Graphics/SVG/1.1/DTD/svg11.dtd">
<svg version="1.1" id="Layer_1" xmlns="http://www.w3.org/2000/svg" xmlns:xlink="http://www.w3.org/1999/xlink" x="0px" y="0px"
	 width="600px" height="400px" viewBox="0 0 600 400" enable-background="new 0 0 600 400" xml:space="preserve">
<g opacity="0.3">
	<rect x="110.4" y="256" fill="#5C878E" width="49.4" height="54.9"/>
	<ellipse opacity="3.000000e-02" enable-background="new    " cx="131" cy="313.8" rx="72.4" ry="5.5"/>
	<g>
		<g>
			<path fill="#27434C" d="M126.5,147.1c18.4,46.4,36.8,92.8,55.2,139.2c3,7.4,5.9,14.9,8.9,22.3c0.6,1.6,3.2,0.9,2.5-0.7
				c-18.4-46.4-36.8-92.8-55.2-139.2c-3-7.4-5.9-14.9-8.9-22.3C128.4,144.9,125.9,145.6,126.5,147.1L126.5,147.1z"/>
		</g>
	</g>
	<g>
		<g>
			<path fill="#27434C" d="M132.3,146.4c-18.5,46.2-37.1,92.5-55.6,138.7c-3.1,7.6-6.1,15.2-9.2,22.9c-0.6,1.6,1.9,2.3,2.5,0.7
				c18.5-46.2,37.1-92.5,55.6-138.7c3.1-7.6,6.1-15.2,9.2-22.9C135.4,145.6,132.9,144.9,132.3,146.4L132.3,146.4z"/>
		</g>
	</g>
	<g>
		<g>
			<path fill="#27434C" d="M135.6,165.1c1.1,0,1.1-1.8,0-1.8S134.5,165.1,135.6,165.1L135.6,165.1z"/>
		</g>
	</g>
	<g>
		<g>
			<path fill="#27434C" d="M126.5,165.1c1.1,0,1.1-1.8,0-1.8S125.3,165.1,126.5,165.1L126.5,165.1z"/>
		</g>
	</g>
	<g>
		<path fill="#27434C" d="M148.6,310.9"/>
		<path fill="#27434C" d="M114,310.9"/>
	</g>
	<polyline id="shadow_5_" opacity="0.15" fill="#18292D" enable-background="new    " points="104.8,245.5 112.3,217.2 103,217.2 
		91.9,245.5 	"/>
	<polygon fill="#A8C3C6" points="196.6,311 138.3,164.5 138.6,164.5 138.6,162 123.4,162 123.4,164.5 123.6,164.5 66.2,310.9 
		87.3,310.9 114,310.9 114,310.9 114,310.9 131.2,270.5 148.7,310.9 148.6,310.9 148.7,310.9 175.6,311 172.2,298.5 175.6,311 	"/>
	<rect x="379.8" y="204.8" fill="#5C878E" width="49.4" height="54.9"/>
	<ellipse opacity="3.000000e-02" enable-background="new    " cx="400.4" cy="262.7" rx="72.4" ry="5.5"/>
	<g>
		<g>
			<path fill="#27434C" d="M396,96c18.4,46.4,36.8,92.8,55.2,139.2c3,7.4,5.9,14.9,8.9,22.3c0.6,1.6,3.2,0.9,2.5-0.7
				c-18.4-46.4-36.8-92.8-55.2-139.2c-3-7.4-5.9-14.9-8.9-22.3C397.9,93.7,395.3,94.4,396,96L396,96z"/>
		</g>
	</g>
	<g>
		<g>
			<path fill="#27434C" d="M401.7,95.3c-18.5,46.2-37.1,92.5-55.6,138.7c-3.1,7.6-6.1,15.2-9.2,22.9c-0.6,1.6,1.9,2.3,2.5,0.7
				c18.5-46.2,37.1-92.5,55.6-138.7c3.1-7.6,6.1-15.2,9.2-22.9C404.9,94.4,402.4,93.7,401.7,95.3L401.7,95.3z"/>
		</g>
	</g>
	<g>
		<g>
			<path fill="#27434C" d="M405.1,113.9c1.1,0,1.1-1.8,0-1.8C404,112.1,403.9,113.9,405.1,113.9L405.1,113.9z"/>
		</g>
	</g>
	<g>
		<g>
			<path fill="#27434C" d="M395.9,113.9c1.1,0,1.1-1.8,0-1.8C394.8,112.1,394.8,113.9,395.9,113.9L395.9,113.9z"/>
		</g>
	</g>
	<g>
		<path fill="#27434C" d="M418.1,259.7"/>
		<path fill="#27434C" d="M383.5,259.7"/>
	</g>
	<polyline id="shadow_1_" opacity="0.15" fill="#18292D" enable-background="new    " points="374.2,194.3 381.8,166 372.4,166 
		361.3,194.3 	"/>
	<polygon fill="#A8C3C6" points="466,259.8 407.8,113.4 408.1,113.4 408.1,110.8 392.9,110.8 392.9,113.4 393.1,113.4 335.7,259.7 
		356.7,259.7 383.5,259.7 383.5,259.7 383.5,259.7 400.7,219.3 418.2,259.7 418.1,259.7 418.2,259.8 445.1,259.8 441.7,247.3 
		445.1,259.8 	"/>
	<rect x="526" y="152.5" fill="#5C878E" width="35" height="38.9"/>
	<ellipse opacity="3.000000e-02" enable-background="new    " cx="540.6" cy="193.5" rx="51.3" ry="3.9"/>
	<g>
		<g>
			<path fill="#27434C" d="M537.5,75.3c15.1,38.2,30.3,76.3,45.4,114.5c0.4,1,2.1,0.6,1.7-0.5c-15.1-38.2-30.3-76.3-45.4-114.5
				C538.8,73.8,537.1,74.2,537.5,75.3L537.5,75.3z"/>
		</g>
	</g>
	<g>
		<g>
			<path fill="#27434C" d="M541.6,74.8c-15.3,38.2-30.6,76.3-45.9,114.5c-0.4,1.1,1.3,1.5,1.7,0.5c15.3-38.2,30.6-76.3,45.9-114.5
				C543.7,74.2,542,73.8,541.6,74.8L541.6,74.8z"/>
		</g>
	</g>
	<g>
		<g>
			<path fill="#27434C" d="M543.9,88.3c1.1,0,1.1-1.8,0-1.8C542.8,86.5,542.8,88.3,543.9,88.3L543.9,88.3z"/>
		</g>
	</g>
	<g>
		<g>
			<path fill="#27434C" d="M537.4,88.3c1.1,0,1.1-1.8,0-1.8C536.3,86.5,536.3,88.3,537.4,88.3L537.4,88.3z"/>
		</g>
	</g>
	<g>
		<path fill="#27434C" d="M553.1,191.4"/>
		<path fill="#27434C" d="M528.6,191.4"/>
	</g>
	<polyline id="shadow_2_" opacity="0.15" fill="#18292D" enable-background="new    " points="522,145 527.4,125 520.7,125 
		512.9,145 	"/>
	<polygon fill="#A8C3C6" points="587.1,191.4 545.8,87.6 546,87.6 546,85.8 535.2,85.8 535.2,87.6 535.4,87.6 494.7,191.4 
		509.6,191.4 528.6,191.4 528.6,191.4 528.6,191.4 540.8,162.7 553.2,191.4 553.1,191.4 553.2,191.4 572.2,191.4 569.9,182.6 
		572.3,191.4 	"/>
	<rect x="30.7" y="147.4" fill="#5C878E" width="21.6" height="24"/>
	<ellipse opacity="3.000000e-02" enable-background="new    " cx="39.7" cy="172.6" rx="31.6" ry="2.4"/>
	<g>
		<g>
			<path fill="#27434C" d="M37.8,99.9c9.3,23.5,18.6,47,28,70.5c0.2,0.5,1.1,0.3,0.8-0.2c-9.3-23.5-18.6-47-28-70.5
				C38.5,99.1,37.6,99.3,37.8,99.9L37.8,99.9z"/>
		</g>
	</g>
	<g>
		<g>
			<path fill="#27434C" d="M40.3,99.6c-9.4,23.5-18.8,47-28.3,70.5c-0.2,0.5,0.6,0.8,0.8,0.2c9.4-23.5,18.8-47,28.3-70.5
				C41.4,99.3,40.6,99.1,40.3,99.6L40.3,99.6z"/>
		</g>
	</g>
	<g>
		<g>
			<path fill="#27434C" d="M41.7,108.2c1.1,0,1.1-1.8,0-1.8C40.6,106.4,40.5,108.2,41.7,108.2L41.7,108.2z"/>
		</g>
	</g>
	<g>
		<g>
			<path fill="#27434C" d="M37.7,108.2c1.1,0,1.1-1.8,0-1.8C36.6,106.4,36.6,108.2,37.7,108.2L37.7,108.2z"/>
		</g>
	</g>
	<g>
		<path fill="#27434C" d="M47.4,171.3"/>
		<path fill="#27434C" d="M32.3,171.3"/>
	</g>
	<polyline id="shadow_3_" opacity="0.15" fill="#18292D" enable-background="new    " points="28.2,142.8 31.5,130.5 27.4,130.5 
		22.6,142.8 	"/>
	<polygon fill="#A8C3C6" points="68.3,171.4 42.9,107.5 43,107.5 43,106.4 36.3,106.4 36.3,107.5 36.4,107.5 11.4,171.3 20.6,171.3 
		32.2,171.4 32.3,171.3 32.2,171.3 39.8,153.7 47.4,171.3 47.4,171.3 47.4,171.4 59.1,171.4 57.6,165.9 59.1,171.4 	"/>
</g>
</svg>
