<?xml version="1.0" encoding="utf-8"?>
<!-- Generator: Adobe Illustrator 16.0.3, SVG Export Plug-In . SVG Version: 6.00 Build 0)  -->
<!DOCTYPE svg PUBLIC "-//W3C//DTD SVG 1.1//EN" "http://www.w3.org/Graphics/SVG/1.1/DTD/svg11.dtd">
<svg version="1.1" id="dark" xmlns="http://www.w3.org/2000/svg" xmlns:xlink="http://www.w3.org/1999/xlink" x="0px" y="0px"
	 width="700px" height="400px" viewBox="0 0 700 400" enable-background="new 0 0 700 400" xml:space="preserve">
<g id="teepee_1_">
	<g id="shadow_copy_1_">
	</g>
	<g id="structur_copy">
	</g>
	<g id="base_copy">
	</g>
	<g id="door_copy">
	</g>
	<g id="shadow_copy" opacity="0.3">
	</g>
	<g>
		<g>
			<ellipse opacity="3.000000e-02" cx="131.9" cy="361.5" rx="126.2" ry="9.6"/>
			<g>
				<g>
					<path fill="#27434C" d="M124,70.7c15.5,37.4,31,74.8,46.5,112.2c22.1,53.3,44.2,106.6,66.3,159.9c2.5,6.1,5,12.1,7.5,18.2
						c0.7,1.8,3.7,1,3-0.8c-15.5-37.4-31-74.8-46.5-112.2c-22.1-53.3-44.2-106.6-66.3-159.9c-2.5-6.1-5-12.1-7.5-18.2
						C126.2,68.1,123.2,68.9,124,70.7L124,70.7z"/>
				</g>
			</g>
			<g>
				<g>
					<path fill="#27434C" d="M135.2,69.9C120.1,107.5,105,145.1,90,182.7C68.5,236.2,47.1,289.6,25.7,343
						c-2.4,5.9-4.8,11.9-7.2,17.8c-0.7,1.8,2.2,2.6,3,0.8c15.1-37.6,30.2-75.2,45.2-112.8C88.2,195.4,109.6,142,131,88.6
						c2.4-5.9,4.8-11.9,7.2-17.8C138.9,68.9,135.9,68.1,135.2,69.9L135.2,69.9z"/>
				</g>
			</g>
			<g>
				<g>
					<path fill="#27434C" d="M212.1,360.2c-11.6-42.5-23.1-85-34.7-127.6c-12-44.1-24-88.2-35.9-132.3c0,0,0-0.1,0-0.1
						c-0.5-1.9-3.5-1.1-3,0.8c11.6,42.5,23.1,85,34.7,127.6c12,44.1,24,88.2,35.9,132.3c0,0,0,0.1,0,0.1
						C209.7,362.9,212.6,362.1,212.1,360.2L212.1,360.2z"/>
				</g>
			</g>
			<g>
				<g>
					<path fill="#27434C" d="M122.6,100.3c-11.4,42.7-22.8,85.4-34.2,128c-11.8,43.9-23.5,87.9-35.3,131.8c0,0,0,0.1,0,0.1
						c-0.5,1.9,2.4,2.7,3,0.8c11.4-42.7,22.8-85.4,34.2-128c11.8-43.9,23.5-87.9,35.3-131.8c0,0,0-0.1,0-0.1
						C126,99.2,123.1,98.4,122.6,100.3L122.6,100.3z"/>
				</g>
			</g>
			<polygon fill="#27434C" points="119.3,100.7 19,356.3 55.7,356.3 124.1,100.7 			"/>
			<polygon fill="#27434C" points="144.5,100.8 139.7,100.8 209.7,356.4 246.2,356.4 202.5,246.6 168,223.3 181.2,193.1 			"/>
			<polygon fill="#27434C" points="140.3,100.8 124.1,100.7 55.7,356.3 102.3,356.4 132.3,341.1 162.8,356.4 209.7,356.4 			"/>
			<polygon fill="#20363D" points="132.3,285.9 132.3,285.9 102.3,356.3 162.8,356.3 			"/>
			<polygon id="shadow_3_" opacity="0.3" fill="#18292D" points="132.3,285.9 132.3,285.9 102.3,356.3 132.3,356.3 			"/>
			<polygon id="shadow_2_" opacity="0.3" fill="#18292D" points="132.3,285.9 130.2,285.9 102.3,356.3 87.1,339.4 			"/>
			<polygon fill="#406672" points="132.3,285.9 132.3,285.9 102.3,356.3 91.9,337.4 			"/>
			<polygon fill="#406672" points="132.3,285.9 132.3,285.9 162.8,356.3 172.8,337.4 			"/>
			<g opacity="0.5">
				<g>
					<g>
						<path fill="#6D929E" d="M93.9,326.6c1.7,2.6,3.5,5.3,5.2,7.9c0.5,0.8,1.9,0.1,1.3-0.8c-1.7-2.6-3.5-5.3-5.2-7.9
							C94.7,325,93.3,325.7,93.9,326.6L93.9,326.6z"/>
					</g>
				</g>
				<g>
					<g>
						<path fill="#6D929E" d="M97,323.5c1.7,2.6,3.5,5.3,5.2,7.9c0.5,0.8,1.9,0.1,1.3-0.8c-1.7-2.6-3.5-5.3-5.2-7.9
							C97.7,321.9,96.4,322.7,97,323.5L97,323.5z"/>
					</g>
				</g>
				<g>
					<g>
						<path fill="#6D929E" d="M100,320.4c1.7,2.6,3.5,5.3,5.2,7.9c0.5,0.8,1.9,0.1,1.3-0.8c-1.7-2.6-3.5-5.3-5.2-7.9
							C100.8,318.9,99.5,319.6,100,320.4L100,320.4z"/>
					</g>
				</g>
				<g>
					<g>
						<path fill="#6D929E" d="M169.5,325.8c-1.7,2.6-3.5,5.3-5.2,7.9c-0.5,0.8,0.8,1.6,1.3,0.8c1.7-2.6,3.5-5.3,5.2-7.9
							C171.4,325.7,170.1,325,169.5,325.8L169.5,325.8z"/>
					</g>
				</g>
				<g>
					<g>
						<path fill="#6D929E" d="M166.5,322.7c-1.7,2.6-3.5,5.3-5.2,7.9c-0.5,0.8,0.8,1.6,1.3,0.8c1.7-2.6,3.5-5.3,5.2-7.9
							C168.3,322.7,167,321.9,166.5,322.7L166.5,322.7z"/>
					</g>
				</g>
				<g>
					<g>
						<path fill="#6D929E" d="M163.4,319.7c-1.7,2.6-3.5,5.3-5.2,7.9c-0.5,0.8,0.8,1.6,1.3,0.8c1.7-2.6,3.5-5.3,5.2-7.9
							C165.3,319.6,163.9,318.9,163.4,319.7L163.4,319.7z"/>
					</g>
				</g>
			</g>
			<polyline opacity="0.6" fill="#18292D" points="99.4,192.9 124.1,100.7 119.3,100.7 83.2,192.8 			"/>
			<polyline opacity="0.6" fill="#18292D" points="63.7,242.4 19,356.3 55.7,356.3 86.2,242.4 			"/>
			<polyline id="shadow_1_" opacity="0.15" fill="#18292D" points="86.2,242.4 99.4,193 83.1,193 63.7,242.4 			"/>
			<g id="pattern_2_">
				<defs>
					<polygon id="SVGID_1_" points="144.2,100.2 140.3,100.8 124.1,100.7 124.1,100.7 119.3,100.7 19,356.3 55.7,356.3 209.7,356.4 
						245.9,355.9 					"/>
				</defs>
				<clipPath id="SVGID_2_">
					<use xlink:href="#SVGID_1_"  overflow="visible"/>
				</clipPath>
				<rect x="50.4" y="194.2" clip-path="url(#SVGID_2_)" fill="#3A626B" width="159" height="50.2"/>
				<g clip-path="url(#SVGID_2_)">
					<polygon fill="#2B4B58" points="200.4,194.2 185.4,194.2 192.9,183.1 192.9,183.1 					"/>
					<polygon fill="#2B4B58" points="186.5,194.2 171.5,194.2 179,183.1 179,183.1 					"/>
					<polygon fill="#2B4B58" points="172.5,194.2 157.5,194.2 165,183.1 165,183.1 					"/>
					<polygon fill="#2B4B58" points="158.6,194.2 143.6,194.2 151.1,183.1 151.1,183.1 					"/>
					<polygon fill="#2B4B58" points="144.6,194.2 129.6,194.2 137.1,183.1 137.1,183.1 					"/>
					<polygon fill="#2B4B58" points="130.7,194.2 115.7,194.2 123.2,183.1 123.2,183.1 					"/>
					<polygon fill="#2B4B58" points="116.7,194.2 101.7,194.2 109.2,183.1 109.2,183.1 					"/>
					<polygon fill="#2B4B58" points="102.8,194.2 87.8,194.2 95.3,183.1 95.3,183.1 					"/>
					<polygon fill="#2B4B58" points="88.8,194.2 73.8,194.2 81.3,183.1 81.3,183.1 					"/>
					<polygon fill="#2B4B58" points="74.9,194.2 59.9,194.2 67.4,183.1 67.4,183.1 					"/>
				</g>
				
					<line clip-path="url(#SVGID_2_)" fill="none" stroke="#A4BEC1" stroke-width="1.8363" stroke-miterlimit="10" x1="59.3" y1="182.3" x2="200.5" y2="182.3"/>
				
					<line clip-path="url(#SVGID_2_)" fill="none" stroke="#A4BEC1" stroke-width="2.4483" stroke-miterlimit="10" x1="59.3" y1="243.6" x2="210.6" y2="243.6"/>
				<g clip-path="url(#SVGID_2_)">
					<g>
						<g>
							<polygon fill="#2B4B58" points="68.9,256.6 59.2,256.6 64,250.3 64,250.3 							"/>
						</g>
						<g>
							<polyline fill="#2B4B58" points="46.3,249.6 46.3,249.6 50.5,256.6 46.3,256.6 							"/>
						</g>
						<g>
							<polygon fill="#2B4B58" points="85.1,256.6 75.4,256.6 80.5,250.1 80.5,250.1 							"/>
						</g>
						<g>
							<polygon fill="#2B4B58" points="102.4,256.6 91.6,256.6 97,250.1 97,250.1 							"/>
						</g>
						<g>
							<polygon fill="#2B4B58" points="118.6,256.6 108.9,256.6 113.5,250.5 113.5,250.5 							"/>
						</g>
						<g>
							<polygon fill="#2B4B58" points="134.8,256.6 125,256.6 129.9,250.1 129.9,250.1 							"/>
						</g>
						<g>
							<polygon fill="#2B4B58" points="168.2,256.6 157.4,256.6 162.9,250.1 162.9,250.1 							"/>
						</g>
						<g>
							<polygon fill="#2B4B58" points="150.9,256.6 141.2,256.6 146.4,250.1 146.4,250.1 							"/>
						</g>
						<g>
							<polygon fill="#2B4B58" points="184.4,256.6 174.7,256.6 179.4,250.1 179.4,250.1 							"/>
						</g>
						<g>
							<polygon fill="#2B4B58" points="201.7,256.6 191.9,256.6 196.7,250.1 196.7,250.1 							"/>
						</g>
						<g>
							<polyline fill="#2B4B58" points="213.5,256.6 208.1,256.6 213.5,250.1 213.5,250.1 							"/>
						</g>
					</g>
				</g>
				<g clip-path="url(#SVGID_2_)">
					<rect x="90.2" y="209.3" fill="#A4BEC1" width="5.6" height="9"/>
					<polygon fill="#A4BEC1" points="104.4,225.3 92.8,214.1 81.6,225.3 81.6,213.2 104.4,213.2 					"/>
					<polygon fill="#A4BEC1" points="93,225.6 93,225.6 87.3,215.1 98.7,215.1 					"/>
					<polygon fill="#A4BEC1" points="93,219.8 93,219.8 97.2,229.4 88.8,229.4 					"/>
					<path fill="#5C878E" d="M96.9,210.8l2.8,0c0,0,4.3-0.1,4.5,1.1c0.6-1.2,0.4-7.5-3.6-7.5h-3.7"/>
					<rect x="90.2" y="204.4" fill="#A4BEC1" width="7.7" height="6.4"/>
					<circle fill="#3A626B" cx="94.9" cy="207.4" r="0.9"/>
				</g>
				<g clip-path="url(#SVGID_2_)">
					<rect x="127.4" y="209.3" fill="#A4BEC1" width="5.6" height="9"/>
					<polygon fill="#A4BEC1" points="141.6,225.3 130,214.1 118.7,225.3 118.7,213.2 141.6,213.2 					"/>
					<polygon fill="#A4BEC1" points="130.1,225.6 130.1,225.6 124.5,215.1 135.8,215.1 					"/>
					<polygon fill="#A4BEC1" points="130.1,219.8 130.1,219.8 134.3,229.4 126,229.4 					"/>
					<path fill="#5C878E" d="M134.1,210.8l2.8,0c0,0,4.3-0.1,4.5,1.1c0.6-1.2,0.4-7.5-3.6-7.5h-3.7"/>
					<rect x="127.4" y="204.4" fill="#A4BEC1" width="7.7" height="6.4"/>
					<circle fill="#3A626B" cx="132.1" cy="207.4" r="0.9"/>
				</g>
				<g clip-path="url(#SVGID_2_)">
					<rect x="164.5" y="209.3" fill="#A4BEC1" width="5.6" height="9"/>
					<polygon fill="#A4BEC1" points="178.7,225.3 167.1,214.1 155.9,225.3 155.9,213.2 178.7,213.2 					"/>
					<polygon fill="#A4BEC1" points="167.3,225.6 167.3,225.6 161.6,215.1 173,215.1 					"/>
					<polygon fill="#A4BEC1" points="167.3,219.8 167.3,219.8 171.5,229.4 163.1,229.4 					"/>
					<path fill="#5C878E" d="M171.2,210.8l2.8,0c0,0,4.3-0.1,4.5,1.1c0.6-1.2,0.4-7.5-3.6-7.5h-3.7"/>
					<rect x="164.5" y="204.4" fill="#A4BEC1" width="7.7" height="6.4"/>
					<circle fill="#3A626B" cx="169.2" cy="207.4" r="0.9"/>
				</g>
				
					<line clip-path="url(#SVGID_2_)" fill="none" stroke="#406672" stroke-width="2.4483" stroke-miterlimit="10" x1="59.3" y1="245.4" x2="212.9" y2="245.4"/>
				
					<line clip-path="url(#SVGID_2_)" fill="none" stroke="#A4BEC1" stroke-width="1.8363" stroke-miterlimit="10" x1="59.3" y1="194.3" x2="200.5" y2="194.3"/>
				
					<polyline opacity="0.5" clip-path="url(#SVGID_2_)" fill="none" stroke="#6D929E" stroke-width="2.4483" stroke-miterlimit="10" points="
					158.1,130.4 159.7,133.1 104.2,133.1 105.8,130.4 				"/>
				
					<polyline opacity="0.5" clip-path="url(#SVGID_2_)" fill="none" stroke="#6D929E" stroke-width="2.4483" stroke-miterlimit="10" points="
					158.1,121.2 159.7,124 104.2,124 105.8,121.2 				"/>
				
					<line clip-path="url(#SVGID_2_)" fill="none" stroke="#A4BEC1" stroke-width="2.4483" stroke-miterlimit="10" x1="35.1" y1="264.3" x2="224.7" y2="264.3"/>
			</g>
			<rect id="top_2_" x="118.7" y="96.8" fill="#3A626B" width="26.5" height="4.4"/>
			<polygon id="light_2_" opacity="4.000000e-02" fill="#CEEEF2" points="144.1,100.1 139.3,100.1 209.3,355.7 245.8,355.7 			"/>
		</g>
		<g>
			<ellipse opacity="3.000000e-02" cx="568.1" cy="361.5" rx="126.2" ry="9.6"/>
			<g>
				<g>
					<path fill="#27434C" d="M560.2,70.7c15.5,37.4,31,74.8,46.5,112.2c22.1,53.3,44.2,106.6,66.3,159.9c2.5,6.1,5,12.1,7.5,18.2
						c0.7,1.8,3.7,1,3-0.8c-15.5-37.4-31-74.8-46.5-112.2c-22.1-53.3-44.2-106.6-66.3-159.9c-2.5-6.1-5-12.1-7.5-18.2
						C562.4,68.1,559.4,68.9,560.2,70.7L560.2,70.7z"/>
				</g>
			</g>
			<g>
				<g>
					<path fill="#27434C" d="M571.4,69.9c-15.1,37.6-30.2,75.2-45.2,112.8c-21.4,53.4-42.8,106.8-64.3,160.3
						c-2.4,5.9-4.8,11.9-7.2,17.8c-0.7,1.8,2.2,2.6,3,0.8c15.1-37.6,30.2-75.2,45.2-112.8c21.4-53.4,42.8-106.8,64.3-160.3
						c2.4-5.9,4.8-11.9,7.2-17.8C575.1,68.9,572.1,68.1,571.4,69.9L571.4,69.9z"/>
				</g>
			</g>
			<g>
				<g>
					<path fill="#27434C" d="M648.2,360.2c-11.6-42.5-23.1-85-34.7-127.6c-12-44.1-24-88.2-35.9-132.3c0,0,0-0.1,0-0.1
						c-0.5-1.9-3.5-1.1-3,0.8c11.6,42.5,23.1,85,34.7,127.6c12,44.1,24,88.2,35.9,132.3c0,0,0,0.1,0,0.1
						C645.8,362.9,648.8,362.1,648.2,360.2L648.2,360.2z"/>
				</g>
			</g>
			<g>
				<g>
					<path fill="#27434C" d="M558.7,100.3c-11.4,42.7-22.8,85.4-34.2,128c-11.8,43.9-23.5,87.9-35.3,131.8c0,0,0,0.1,0,0.1
						c-0.5,1.9,2.4,2.7,3,0.8c11.4-42.7,22.8-85.4,34.2-128c11.8-43.9,23.5-87.9,35.3-131.8c0,0,0-0.1,0-0.1
						C562.2,99.2,559.2,98.4,558.7,100.3L558.7,100.3z"/>
				</g>
			</g>
			<polygon fill="#27434C" points="555.4,100.7 455.2,356.3 491.9,356.3 560.2,100.7 			"/>
			<polygon fill="#27434C" points="580.7,100.8 575.9,100.8 645.9,356.4 682.4,356.4 638.6,246.6 604.2,223.3 617.4,193.1 			"/>
			<polygon fill="#27434C" points="576.5,100.8 560.2,100.7 491.9,356.3 538.5,356.4 568.5,341.1 599,356.4 645.9,356.4 			"/>
			<polygon fill="#20363D" points="568.5,285.9 568.5,285.9 538.5,356.3 599,356.3 			"/>
			<polygon id="shadow_6_" opacity="0.3" fill="#18292D" points="568.5,285.9 568.5,285.9 538.5,356.3 568.5,356.3 			"/>
			<polygon id="shadow_5_" opacity="0.3" fill="#18292D" points="568.5,285.9 566.3,285.9 538.5,356.3 523.3,339.4 			"/>
			<polygon fill="#406672" points="568.5,285.9 568.5,285.9 538.5,356.3 528,337.4 			"/>
			<polygon fill="#406672" points="568.5,285.9 568.5,285.9 599,356.3 609,337.4 			"/>
			<g opacity="0.5">
				<g>
					<g>
						<path fill="#6D929E" d="M530.1,326.6c1.7,2.6,3.5,5.3,5.2,7.9c0.5,0.8,1.9,0.1,1.3-0.8c-1.7-2.6-3.5-5.3-5.2-7.9
							C530.8,325,529.5,325.7,530.1,326.6L530.1,326.6z"/>
					</g>
				</g>
				<g>
					<g>
						<path fill="#6D929E" d="M533.1,323.5c1.7,2.6,3.5,5.3,5.2,7.9c0.5,0.8,1.9,0.1,1.3-0.8c-1.7-2.6-3.5-5.3-5.2-7.9
							C533.9,321.9,532.6,322.7,533.1,323.5L533.1,323.5z"/>
					</g>
				</g>
				<g>
					<g>
						<path fill="#6D929E" d="M536.2,320.4c1.7,2.6,3.5,5.3,5.2,7.9c0.5,0.8,1.9,0.1,1.3-0.8c-1.7-2.6-3.5-5.3-5.2-7.9
							C537,318.9,535.6,319.6,536.2,320.4L536.2,320.4z"/>
					</g>
				</g>
				<g>
					<g>
						<path fill="#6D929E" d="M605.7,325.8c-1.7,2.6-3.5,5.3-5.2,7.9c-0.5,0.8,0.8,1.6,1.3,0.8c1.7-2.6,3.5-5.3,5.2-7.9
							C607.6,325.7,606.2,325,605.7,325.8L605.7,325.8z"/>
					</g>
				</g>
				<g>
					<g>
						<path fill="#6D929E" d="M602.6,322.7c-1.7,2.6-3.5,5.3-5.2,7.9c-0.5,0.8,0.8,1.6,1.3,0.8c1.7-2.6,3.5-5.3,5.2-7.9
							C604.5,322.7,603.2,321.9,602.6,322.7L602.6,322.7z"/>
					</g>
				</g>
				<g>
					<g>
						<path fill="#6D929E" d="M599.6,319.7c-1.7,2.6-3.5,5.3-5.2,7.9c-0.5,0.8,0.8,1.6,1.3,0.8c1.7-2.6,3.5-5.3,5.2-7.9
							C601.4,319.6,600.1,318.9,599.6,319.7L599.6,319.7z"/>
					</g>
				</g>
			</g>
			<polyline opacity="0.6" fill="#18292D" points="535.6,192.9 560.2,100.7 555.4,100.7 519.3,192.8 			"/>
			<polyline opacity="0.6" fill="#18292D" points="499.9,242.4 455.2,356.3 491.9,356.3 522.4,242.4 			"/>
			<polyline id="shadow_4_" opacity="0.15" fill="#18292D" points="522.4,242.4 535.5,193 519.2,193 499.9,242.4 			"/>
			<g id="pattern_3_">
				<defs>
					<polygon id="SVGID_3_" points="580.4,100.2 576.5,100.8 560.2,100.7 560.2,100.7 555.4,100.7 455.2,356.3 491.9,356.3 
						645.9,356.4 682.1,355.9 					"/>
				</defs>
				<clipPath id="SVGID_4_">
					<use xlink:href="#SVGID_3_"  overflow="visible"/>
				</clipPath>
				<rect x="486.5" y="194.2" clip-path="url(#SVGID_4_)" fill="#3A626B" width="159" height="50.2"/>
				<g clip-path="url(#SVGID_4_)">
					<polygon fill="#2B4B58" points="636.6,194.2 621.6,194.2 629.1,183.1 629.1,183.1 					"/>
					<polygon fill="#2B4B58" points="622.6,194.2 607.6,194.2 615.2,183.1 615.2,183.1 					"/>
					<polygon fill="#2B4B58" points="608.7,194.2 593.7,194.2 601.2,183.1 601.2,183.1 					"/>
					<polygon fill="#2B4B58" points="594.7,194.2 579.7,194.2 587.2,183.1 587.2,183.1 					"/>
					<polygon fill="#2B4B58" points="580.8,194.2 565.8,194.2 573.3,183.1 573.3,183.1 					"/>
					<polygon fill="#2B4B58" points="566.8,194.2 551.8,194.2 559.3,183.1 559.3,183.1 					"/>
					<polygon fill="#2B4B58" points="552.9,194.2 537.9,194.2 545.4,183.1 545.4,183.1 					"/>
					<polygon fill="#2B4B58" points="538.9,194.2 523.9,194.2 531.4,183.1 531.4,183.1 					"/>
					<polygon fill="#2B4B58" points="525,194.2 510,194.2 517.5,183.1 517.5,183.1 					"/>
					<polygon fill="#2B4B58" points="511,194.2 496,194.2 503.5,183.1 503.5,183.1 					"/>
				</g>
				
					<line clip-path="url(#SVGID_4_)" fill="none" stroke="#A4BEC1" stroke-width="1.8363" stroke-miterlimit="10" x1="495.5" y1="182.3" x2="636.6" y2="182.3"/>
				
					<line clip-path="url(#SVGID_4_)" fill="none" stroke="#A4BEC1" stroke-width="2.4483" stroke-miterlimit="10" x1="495.5" y1="243.6" x2="646.8" y2="243.6"/>
				<g clip-path="url(#SVGID_4_)">
					<g>
						<g>
							<polygon fill="#2B4B58" points="505.1,256.6 495.4,256.6 500.2,250.3 500.2,250.3 							"/>
						</g>
						<g>
							<polyline fill="#2B4B58" points="482.4,249.6 482.4,249.6 486.7,256.6 482.4,256.6 							"/>
						</g>
						<g>
							<polygon fill="#2B4B58" points="521.3,256.6 511.6,256.6 516.7,250.1 516.7,250.1 							"/>
						</g>
						<g>
							<polygon fill="#2B4B58" points="538.5,256.6 527.8,256.6 533.1,250.1 533.1,250.1 							"/>
						</g>
						<g>
							<polygon fill="#2B4B58" points="554.7,256.6 545,256.6 549.6,250.5 549.6,250.5 							"/>
						</g>
						<g>
							<polygon fill="#2B4B58" points="570.9,256.6 561.2,256.6 566.1,250.1 566.1,250.1 							"/>
						</g>
						<g>
							<polygon fill="#2B4B58" points="604.4,256.6 593.6,256.6 599,250.1 599,250.1 							"/>
						</g>
						<g>
							<polygon fill="#2B4B58" points="587.1,256.6 577.4,256.6 582.6,250.1 582.6,250.1 							"/>
						</g>
						<g>
							<polygon fill="#2B4B58" points="620.6,256.6 610.8,256.6 615.5,250.1 615.5,250.1 							"/>
						</g>
						<g>
							<polygon fill="#2B4B58" points="637.8,256.6 628.1,256.6 632.9,250.1 632.9,250.1 							"/>
						</g>
						<g>
							<polyline fill="#2B4B58" points="649.7,256.6 644.3,256.6 649.6,250.1 649.6,250.1 							"/>
						</g>
					</g>
				</g>
				<g clip-path="url(#SVGID_4_)">
					<rect x="526.4" y="209.3" fill="#A4BEC1" width="5.6" height="9"/>
					<polygon fill="#A4BEC1" points="540.6,225.3 529,214.1 517.8,225.3 517.8,213.2 540.6,213.2 					"/>
					<polygon fill="#A4BEC1" points="529.2,225.6 529.2,225.6 523.5,215.1 534.8,215.1 					"/>
					<polygon fill="#A4BEC1" points="529.2,219.8 529.2,219.8 533.3,229.4 525,229.4 					"/>
					<path fill="#5C878E" d="M533.1,210.8l2.8,0c0,0,4.3-0.1,4.5,1.1c0.6-1.2,0.4-7.5-3.6-7.5h-3.7"/>
					<rect x="526.4" y="204.4" fill="#A4BEC1" width="7.7" height="6.4"/>
					<circle fill="#3A626B" cx="531.1" cy="207.4" r="0.9"/>
				</g>
				<g clip-path="url(#SVGID_4_)">
					<rect x="563.5" y="209.3" fill="#A4BEC1" width="5.6" height="9"/>
					<polygon fill="#A4BEC1" points="577.7,225.3 566.1,214.1 554.9,225.3 554.9,213.2 577.7,213.2 					"/>
					<polygon fill="#A4BEC1" points="566.3,225.6 566.3,225.6 560.6,215.1 572,215.1 					"/>
					<polygon fill="#A4BEC1" points="566.3,219.8 566.3,219.8 570.5,229.4 562.2,229.4 					"/>
					<path fill="#5C878E" d="M570.2,210.8l2.8,0c0,0,4.3-0.1,4.5,1.1c0.6-1.2,0.4-7.5-3.6-7.5h-3.7"/>
					<rect x="563.5" y="204.4" fill="#A4BEC1" width="7.7" height="6.4"/>
					<circle fill="#3A626B" cx="568.2" cy="207.4" r="0.9"/>
				</g>
				<g clip-path="url(#SVGID_4_)">
					<rect x="600.7" y="209.3" fill="#A4BEC1" width="5.6" height="9"/>
					<polygon fill="#A4BEC1" points="614.9,225.3 603.3,214.1 592.1,225.3 592.1,213.2 614.9,213.2 					"/>
					<polygon fill="#A4BEC1" points="603.5,225.6 603.5,225.6 597.8,215.1 609.2,215.1 					"/>
					<polygon fill="#A4BEC1" points="603.5,219.8 603.5,219.8 607.6,229.4 599.3,229.4 					"/>
					<path fill="#5C878E" d="M607.4,210.8l2.8,0c0,0,4.3-0.1,4.5,1.1c0.6-1.2,0.4-7.5-3.6-7.5h-3.7"/>
					<rect x="600.7" y="204.4" fill="#A4BEC1" width="7.7" height="6.4"/>
					<circle fill="#3A626B" cx="605.4" cy="207.4" r="0.9"/>
				</g>
				
					<line clip-path="url(#SVGID_4_)" fill="none" stroke="#406672" stroke-width="2.4483" stroke-miterlimit="10" x1="495.5" y1="245.4" x2="649" y2="245.4"/>
				
					<line clip-path="url(#SVGID_4_)" fill="none" stroke="#A4BEC1" stroke-width="1.8363" stroke-miterlimit="10" x1="495.5" y1="194.3" x2="636.6" y2="194.3"/>
				
					<polyline opacity="0.5" clip-path="url(#SVGID_4_)" fill="none" stroke="#6D929E" stroke-width="2.4483" stroke-miterlimit="10" points="
					594.3,130.4 595.9,133.1 540.4,133.1 541.9,130.4 				"/>
				
					<polyline opacity="0.5" clip-path="url(#SVGID_4_)" fill="none" stroke="#6D929E" stroke-width="2.4483" stroke-miterlimit="10" points="
					594.3,121.2 595.9,124 540.4,124 541.9,121.2 				"/>
				
					<line clip-path="url(#SVGID_4_)" fill="none" stroke="#A4BEC1" stroke-width="2.4483" stroke-miterlimit="10" x1="471.3" y1="264.3" x2="660.8" y2="264.3"/>
			</g>
			<rect id="top_3_" x="554.9" y="96.8" fill="#3A626B" width="26.5" height="4.4"/>
			<polygon id="light_4_" opacity="4.000000e-02" fill="#CEEEF2" points="580.3,100.1 575.5,100.1 645.5,355.7 682,355.7 			"/>
		</g>
		<g>
			<ellipse opacity="3.000000e-02" cx="352.9" cy="392.6" rx="166.6" ry="12.7"/>
			<g>
				<g>
					<path fill="#27434C" d="M342.4,8.6c12.9,31.1,25.7,62.1,38.6,93.2c24.6,59.3,49.2,118.7,73.8,178
						c15.3,36.9,30.6,73.8,45.9,110.7c0.2,0.5,0.4,1,0.6,1.5c1,2.4,4.9,1.3,3.9-1.1c-12.9-31.1-25.7-62.1-38.6-93.2
						c-24.6-59.3-49.2-118.7-73.8-178C377.5,82.9,362.2,46,346.9,9.1c-0.2-0.5-0.4-1-0.6-1.5C345.3,5.2,341.4,6.2,342.4,8.6
						L342.4,8.6z"/>
				</g>
			</g>
			<g>
				<g>
					<path fill="#27434C" d="M357.2,7.6c-12.6,31.3-25.1,62.6-37.7,93.9c-23.9,59.7-47.9,119.3-71.8,179
						c-14.7,36.7-29.4,73.4-44.1,110.1c-0.2,0.4-0.3,0.9-0.5,1.3c-1,2.4,2.9,3.5,3.9,1.1c12.6-31.3,25.1-62.6,37.7-93.9
						c23.9-59.7,47.9-119.3,71.8-179c14.7-36.7,29.4-73.4,44.1-110.1c0.2-0.4,0.3-0.9,0.5-1.3C362.1,6.2,358.2,5.2,357.2,7.6
						L357.2,7.6z"/>
				</g>
			</g>
			<g>
				<g>
					<path fill="#27434C" d="M458.7,391c-9.8-36.1-19.6-72.3-29.5-108.4c-16.4-60.3-32.8-120.6-49.1-180.9c-4.9-18-9.8-36-14.7-54
						c-0.7-2.5-4.6-1.4-3.9,1.1c9.8,36.1,19.6,72.3,29.5,108.4c16.4,60.3,32.8,120.6,49.1,180.9c4.9,18,9.8,36,14.7,54
						C455.5,394.5,459.4,393.5,458.7,391L458.7,391z"/>
				</g>
			</g>
			<g>
				<g>
					<path fill="#27434C" d="M340.5,47.7c-9.7,36.1-19.3,72.3-29,108.4c-16.1,60.3-32.3,120.6-48.4,180.9c-4.8,18-9.6,36-14.4,54
						c-0.7,2.5,3.2,3.6,3.9,1.1c9.7-36.1,19.3-72.3,29-108.4c16.1-60.3,32.3-120.6,48.4-180.9c4.8-18,9.6-36,14.4-54
						C345.1,46.2,341.2,45.1,340.5,47.7L340.5,47.7z"/>
				</g>
			</g>
			<polygon fill="#27434C" points="336.2,48.2 203.8,385.8 252.3,385.8 342.5,48.2 			"/>
			<polygon fill="#27434C" points="369.5,48.3 363.2,48.3 455.6,386 503.8,386 446,240.9 400.5,210.1 418,170.3 			"/>
			<polygon fill="#27434C" points="363.9,48.3 342.5,48.2 252.3,385.8 313.7,385.9 353.4,365.7 393.7,385.9 455.6,386 			"/>
			<polygon fill="#20363D" points="353.4,292.9 353.4,292.9 313.7,385.8 393.7,385.8 			"/>
			<polygon id="shadow_16_" opacity="0.3" fill="#18292D" points="353.4,292.9 353.4,292.9 313.7,385.8 353.4,385.8 			"/>
			<polygon id="shadow_15_" opacity="0.3" fill="#18292D" points="353.4,292.9 350.6,292.9 313.7,385.8 293.7,363.5 			"/>
			<polygon fill="#406672" points="353.4,292.9 353.4,292.9 313.7,385.8 300,360.8 			"/>
			<polygon fill="#406672" points="353.4,292.9 353.4,292.9 393.7,385.8 406.8,360.8 			"/>
			<g opacity="0.5">
				<g>
					<g>
						<path fill="#6D929E" d="M302.6,346.5c2.3,3.5,4.6,7,6.9,10.5c0.7,1.1,2.5,0.1,1.7-1c-2.3-3.5-4.6-7-6.9-10.5
							C303.7,344.4,301.9,345.4,302.6,346.5L302.6,346.5z"/>
					</g>
				</g>
				<g>
					<g>
						<path fill="#6D929E" d="M306.7,342.5c2.3,3.5,4.6,7,6.9,10.5c0.7,1.1,2.5,0.1,1.7-1c-2.3-3.5-4.6-7-6.9-10.5
							C307.7,340.4,306,341.4,306.7,342.5L306.7,342.5z"/>
					</g>
				</g>
				<g>
					<g>
						<path fill="#6D929E" d="M310.7,338.4c2.3,3.5,4.6,7,6.9,10.5c0.7,1.1,2.5,0.1,1.7-1c-2.3-3.5-4.6-7-6.9-10.5
							C311.8,336.3,310,337.3,310.7,338.4L310.7,338.4z"/>
					</g>
				</g>
				<g>
					<g>
						<path fill="#6D929E" d="M402.5,345.5c-2.3,3.5-4.6,7-6.9,10.5c-0.7,1.1,1,2.1,1.7,1c2.3-3.5,4.6-7,6.9-10.5
							C405,345.4,403.2,344.4,402.5,345.5L402.5,345.5z"/>
					</g>
				</g>
				<g>
					<g>
						<path fill="#6D929E" d="M398.5,341.5c-2.3,3.5-4.6,7-6.9,10.5c-0.7,1.1,1,2.1,1.7,1c2.3-3.5,4.6-7,6.9-10.5
							C400.9,341.4,399.2,340.4,398.5,341.5L398.5,341.5z"/>
					</g>
				</g>
				<g>
					<g>
						<path fill="#6D929E" d="M394.4,337.4c-2.3,3.5-4.6,7-6.9,10.5c-0.7,1.1,1,2.1,1.7,1c2.3-3.5,4.6-7,6.9-10.5
							C396.9,337.3,395.2,336.3,394.4,337.4L394.4,337.4z"/>
					</g>
				</g>
			</g>
			<polyline opacity="0.6" fill="#18292D" points="309.9,169.9 342.5,48.2 336.2,48.2 288.5,169.8 			"/>
			<polyline opacity="0.6" fill="#18292D" points="262.8,235.3 203.8,385.8 252.3,385.8 292.5,235.3 			"/>
			<polyline id="shadow_14_" opacity="0.15" fill="#18292D" points="292.5,235.3 309.9,170.2 288.3,170.2 262.8,235.3 			"/>
			<g id="pattern_1_">
				<defs>
					<polygon id="SVGID_5_" points="369.1,47.6 363.9,48.3 342.5,48.2 342.5,48.2 336.2,48.2 203.8,385.8 252.3,385.8 455.6,386 
						503.4,385.3 					"/>
				</defs>
				<clipPath id="SVGID_6_">
					<use xlink:href="#SVGID_5_"  overflow="visible"/>
				</clipPath>
				<rect x="245.2" y="171.7" clip-path="url(#SVGID_6_)" fill="#3A626B" width="210" height="66.3"/>
				<g clip-path="url(#SVGID_6_)">
					<polygon fill="#2B4B58" points="443.3,171.7 423.5,171.7 433.4,157 433.4,157 					"/>
					<polygon fill="#2B4B58" points="424.9,171.7 405.1,171.7 415,157 415,157 					"/>
					<polygon fill="#2B4B58" points="406.5,171.7 386.7,171.7 396.6,157 396.6,157 					"/>
					<polygon fill="#2B4B58" points="388.1,171.7 368.3,171.7 378.2,157 378.2,157 					"/>
					<polygon fill="#2B4B58" points="369.6,171.7 349.8,171.7 359.7,157 359.7,157 					"/>
					<polygon fill="#2B4B58" points="351.2,171.7 331.4,171.7 341.3,157 341.3,157 					"/>
					<polygon fill="#2B4B58" points="332.8,171.7 313,171.7 322.9,157 322.9,157 					"/>
					<polygon fill="#2B4B58" points="314.4,171.7 294.6,171.7 304.5,157 304.5,157 					"/>
					<polygon fill="#2B4B58" points="295.9,171.7 276.1,171.7 286,157 286,157 					"/>
					<polygon fill="#2B4B58" points="277.5,171.7 257.7,171.7 267.6,157 267.6,157 					"/>
				</g>
				
					<line clip-path="url(#SVGID_6_)" fill="none" stroke="#A4BEC1" stroke-width="2.4251" stroke-miterlimit="10" x1="257" y1="156" x2="443.4" y2="156"/>
				
					<line clip-path="url(#SVGID_6_)" fill="none" stroke="#A4BEC1" stroke-width="3.2335" stroke-miterlimit="10" x1="257" y1="236.9" x2="456.8" y2="236.9"/>
				<g clip-path="url(#SVGID_6_)">
					<g>
						<g>
							<polygon fill="#2B4B58" points="269.7,254.2 256.8,254.2 263.2,245.7 263.2,245.7 							"/>
						</g>
						<g>
							<polyline fill="#2B4B58" points="239.8,244.9 239.8,244.9 245.3,254.2 239.7,254.2 							"/>
						</g>
						<g>
							<polygon fill="#2B4B58" points="291.1,254.2 278.2,254.2 285,245.5 285,245.5 							"/>
						</g>
						<g>
							<polygon fill="#2B4B58" points="313.9,254.2 299.6,254.2 306.7,245.5 306.7,245.5 							"/>
						</g>
						<g>
							<polygon fill="#2B4B58" points="335.2,254.2 322.4,254.2 328.5,246.1 328.5,246.1 							"/>
						</g>
						<g>
							<polygon fill="#2B4B58" points="356.6,254.2 343.8,254.2 350.2,245.5 350.2,245.5 							"/>
						</g>
						<g>
							<polygon fill="#2B4B58" points="400.8,254.2 386.5,254.2 393.7,245.5 393.7,245.5 							"/>
						</g>
						<g>
							<polygon fill="#2B4B58" points="378,254.2 365.2,254.2 372,245.5 372,245.5 							"/>
						</g>
						<g>
							<polygon fill="#2B4B58" points="422.2,254.2 409.3,254.2 415.5,245.5 415.5,245.5 							"/>
						</g>
						<g>
							<polygon fill="#2B4B58" points="445,254.2 432.1,254.2 438.5,245.5 438.5,245.5 							"/>
						</g>
						<g>
							<polyline fill="#2B4B58" points="460.6,254.2 453.5,254.2 460.6,245.5 460.6,245.5 							"/>
						</g>
					</g>
				</g>
				<g clip-path="url(#SVGID_6_)">
					<rect x="297.8" y="191.6" fill="#A4BEC1" width="7.3" height="11.8"/>
					<polygon fill="#A4BEC1" points="316.5,212.7 301.2,198 286.4,212.7 286.4,196.8 316.5,196.8 					"/>
					<polygon fill="#A4BEC1" points="301.5,213.2 301.5,213.2 293.9,199.4 309,199.4 					"/>
					<polygon fill="#A4BEC1" points="301.5,205.5 301.5,205.5 306.9,218.2 296,218.2 					"/>
					<path fill="#5C878E" d="M306.6,193.6l3.6,0c0,0,5.6-0.1,5.9,1.5c0.7-1.5,0.5-10-4.7-10h-4.8"/>
					<rect x="297.8" y="185.1" fill="#A4BEC1" width="10.2" height="8.5"/>
					<circle fill="#3A626B" cx="304" cy="189.1" r="1.1"/>
				</g>
				<g clip-path="url(#SVGID_6_)">
					<rect x="346.9" y="191.6" fill="#A4BEC1" width="7.3" height="11.8"/>
					<polygon fill="#A4BEC1" points="365.6,212.7 350.3,198 335.5,212.7 335.5,196.8 365.6,196.8 					"/>
					<polygon fill="#A4BEC1" points="350.5,213.2 350.5,213.2 343,199.4 358,199.4 					"/>
					<polygon fill="#A4BEC1" points="350.5,205.5 350.5,205.5 356,218.2 345,218.2 					"/>
					<path fill="#5C878E" d="M355.7,193.6l3.6,0c0,0,5.6-0.1,5.9,1.5c0.7-1.5,0.5-10-4.7-10h-4.8"/>
					<rect x="346.9" y="185.1" fill="#A4BEC1" width="10.2" height="8.5"/>
					<circle fill="#3A626B" cx="353.1" cy="189.1" r="1.1"/>
				</g>
				<g clip-path="url(#SVGID_6_)">
					<rect x="395.9" y="191.6" fill="#A4BEC1" width="7.3" height="11.8"/>
					<polygon fill="#A4BEC1" points="414.7,212.7 399.4,198 384.5,212.7 384.5,196.8 414.7,196.8 					"/>
					<polygon fill="#A4BEC1" points="399.6,213.2 399.6,213.2 392.1,199.4 407.1,199.4 					"/>
					<polygon fill="#A4BEC1" points="399.6,205.5 399.6,205.5 405.1,218.2 394.1,218.2 					"/>
					<path fill="#5C878E" d="M404.8,193.6l3.6,0c0,0,5.6-0.1,5.9,1.5c0.7-1.5,0.5-10-4.7-10h-4.8"/>
					<rect x="395.9" y="185.1" fill="#A4BEC1" width="10.2" height="8.5"/>
					<circle fill="#3A626B" cx="402.1" cy="189.1" r="1.1"/>
				</g>
				
					<line clip-path="url(#SVGID_6_)" fill="none" stroke="#406672" stroke-width="3.2335" stroke-miterlimit="10" x1="257" y1="239.3" x2="459.8" y2="239.3"/>
				
					<line clip-path="url(#SVGID_6_)" fill="none" stroke="#A4BEC1" stroke-width="2.4251" stroke-miterlimit="10" x1="257" y1="171.8" x2="443.4" y2="171.8"/>
				
					<polyline opacity="0.5" clip-path="url(#SVGID_6_)" fill="none" stroke="#6D929E" stroke-width="3.2335" stroke-miterlimit="10" points="
					387.5,87.5 389.6,91.1 316.3,91.1 318.3,87.5 				"/>
				
					<polyline opacity="0.5" clip-path="url(#SVGID_6_)" fill="none" stroke="#6D929E" stroke-width="3.2335" stroke-miterlimit="10" points="
					387.5,75.4 389.6,78.9 316.3,78.9 318.3,75.4 				"/>
				
					<line clip-path="url(#SVGID_6_)" fill="none" stroke="#A4BEC1" stroke-width="3.2335" stroke-miterlimit="10" x1="225" y1="264.3" x2="475.4" y2="264.3"/>
			</g>
			<rect id="top_1_" x="335.4" y="43.1" fill="#3A626B" width="35" height="5.9"/>
			<polygon id="light_1_" opacity="4.000000e-02" fill="#CEEEF2" points="369,47.4 362.7,47.4 455.1,385 503.3,385 			"/>
		</g>
	</g>
</g>
</svg>
